# Blender 5.0.1
# www.blender.org
mtllib M_Autumn_Tower_03.mtl
o Plane.002
v -3.650000 14.400000 -0.350000
v -3.000000 14.400000 -0.350000
v -4.150000 14.000000 0.150000
v -3.000000 14.000000 0.150000
v -3.000000 14.400000 0.150000
v -4.150000 14.299999 0.150000
v -3.000000 14.299999 0.150000
v -3.000000 14.299999 0.200000
v -3.000000 14.400000 0.200000
v -4.200000 14.400000 0.200000
v -4.200000 14.299999 0.200000
v -3.831250 14.368750 -0.168747
v -3.831250 14.556250 -0.168747
v -4.243750 14.368750 0.243753
v -4.243750 14.556250 0.243753
v -3.831250 14.368750 0.243753
v -3.831250 14.556250 0.243753
v -3.631250 14.368750 -0.018747
v -3.631250 14.556250 -0.018747
v -3.368750 14.368750 -0.018747
v -3.368750 14.556250 -0.018747
v -3.631250 14.368750 0.243753
v -3.631250 14.556250 0.243753
v -3.368750 14.368750 0.243753
v -3.368750 14.556250 0.243753
v -3.131250 14.368750 -0.018747
v -3.131250 14.556250 -0.018747
v -3.131250 14.368750 0.243753
v -3.131250 14.556250 0.243753
v -3.000000 14.368750 -0.018747
v -3.000000 14.556250 -0.018747
v -3.000000 14.368750 0.243753
v -3.000000 14.556250 0.243753
v -4.000000 1.000000 0.000000
v -3.000000 1.000000 0.000000
v -4.000000 0.100000 0.000000
v -3.000000 0.100000 0.000000
v -4.000000 0.100000 0.100000
v -4.000000 0.000000 0.100000
v -3.000000 0.000000 0.100000
v -3.000000 0.100000 0.100000
v -3.000000 1.000000 0.000000
v -2.000000 1.000000 0.000000
v -3.000000 0.100000 0.000000
v -2.000000 0.100000 0.000000
v -3.000000 0.100000 0.100000
v -3.000000 0.000000 0.100000
v -2.000000 0.000000 0.100000
v -2.000000 0.100000 0.100000
v -2.000000 1.000000 0.000000
v -1.000000 1.000000 0.000000
v -2.000000 0.100000 0.000000
v -1.000000 0.100000 0.000000
v -2.000000 0.100000 0.100000
v -2.000000 0.000000 0.100000
v -1.000000 0.000000 0.100000
v -1.000000 0.100000 0.100000
v -1.000000 1.000000 0.000000
v 0.000000 1.000000 0.000000
v -1.000000 0.100000 0.000000
v 0.000000 0.100000 0.000000
v -1.000000 0.100000 0.100000
v -1.000000 0.000000 0.100000
v 0.000000 0.000000 0.100000
v 0.000000 0.100000 0.100000
v -4.000000 1.000000 1.000000
v -3.000000 1.000000 1.000000
v -4.000000 2.000000 1.000000
v -3.000000 2.000000 1.000000
v -4.000000 1.000000 0.000000
v -4.000000 2.000000 0.000000
v -4.000000 2.000000 1.000000
v -3.000000 2.000000 1.000000
v -4.000000 3.000000 1.000000
v -3.000000 3.000000 1.000000
v -4.000000 2.000000 0.000000
v -4.000000 3.000000 0.000000
v -3.000000 3.000000 0.000000
v -4.000000 3.000000 0.500000
v -3.000000 3.000000 0.500000
v -4.000000 4.000000 0.500000
v -3.000000 4.000000 0.500000
v -4.000000 3.000000 0.000000
v -3.000000 3.000000 0.000000
v -4.000000 4.000000 0.000000
v -3.000000 4.000000 0.000000
v -4.000000 4.000000 1.000000
v -3.000000 4.000000 1.000000
v -4.000000 5.000000 1.000000
v -3.000000 5.000000 1.000000
v -4.000000 4.000000 -0.000000
v -4.000000 5.000000 -0.000000
v -3.000000 5.000000 -0.000000
v -4.000000 5.000000 -0.000000
v -3.000000 5.000000 -0.000000
v -4.000000 6.000000 -0.000000
v -3.000000 6.000000 -0.000000
v -4.000000 6.000000 -0.000000
v -3.000000 6.000000 -0.000000
v -4.000000 7.000000 -0.000000
v -3.000000 7.000000 -0.000000
v -4.000000 7.000000 -0.000000
v -3.000000 7.000000 -0.000000
v -4.000000 8.000000 -0.000000
v -3.000000 8.000000 -0.000000
v -4.000000 8.000000 0.500000
v -3.000000 8.000000 0.500000
v -4.000000 9.000000 0.500000
v -3.000000 9.000000 0.500000
v -4.000000 8.000000 -0.000000
v -4.000000 9.000000 -0.000000
v -3.000000 9.000000 -0.000000
v -4.000000 9.000000 0.500000
v -3.000000 9.000000 0.500000
v -4.000000 10.000000 0.500000
v -3.000000 10.000000 0.500000
v -4.000000 9.000000 -0.000000
v -4.000000 10.000000 -0.000000
v -3.000000 10.000000 -0.000000
v -4.000000 10.000000 1.000000
v -3.000000 10.000000 1.000000
v -4.000000 11.000000 1.000000
v -3.000000 11.000000 1.000000
v -4.000000 10.000000 -0.000000
v -3.000000 10.000000 -0.000000
v -4.000000 11.000000 -0.000000
v -3.000000 11.000000 -0.000000
v -4.000000 11.000000 1.000000
v -3.000000 11.000000 1.000000
v -4.000000 12.000000 0.999999
v -3.000000 12.000000 0.999999
v -4.000000 11.000000 -0.000000
v -4.000000 12.000000 -0.000000
v -4.000000 12.000000 1.000000
v -3.000000 12.000000 1.000000
v -4.000000 13.000000 0.999999
v -3.000000 13.000000 0.999999
v -4.000000 12.000000 -0.000000
v -4.000000 13.000000 -0.000000
v -4.000000 13.000000 1.000000
v -3.000000 13.000000 1.000000
v -4.000000 14.000000 0.999999
v -3.000000 14.000000 0.999999
v -4.000000 13.000000 -0.000000
v -4.000000 14.000000 -0.000000
v -3.000000 14.000000 -0.000000
v -3.000000 1.000000 1.000000
v -2.000000 1.000000 1.000000
v -3.000000 2.000000 1.000000
v -2.000000 2.000000 1.000000
v -3.000000 2.000000 1.000000
v -2.000000 2.000000 1.000000
v -3.000000 3.000000 1.000000
v -2.000000 3.000000 1.000000
v -3.000000 3.000000 0.000000
v -2.000000 3.000000 0.000000
v -3.000000 3.000000 0.000000
v -2.000000 3.000000 0.000000
v -3.000000 4.000000 0.000000
v -2.000000 4.000000 0.000000
v -3.000000 4.000000 1.000000
v -2.000000 4.000000 1.000000
v -3.000000 5.000000 1.000000
v -2.000000 5.000000 1.000000
v -2.000000 4.000000 -0.000000
v -3.000000 5.000000 -0.000000
v -2.000000 5.000000 -0.000000
v -3.000000 5.000000 -0.000000
v -2.000000 5.000000 -0.000000
v -3.000000 6.000000 -0.000000
v -2.000000 6.000000 -0.000000
v -3.000000 6.000000 1.000000
v -2.000000 6.000000 1.000000
v -3.000000 7.000000 1.000000
v -2.000000 7.000000 1.000000
v -3.000000 6.000000 -0.000000
v -2.000000 6.000000 -0.000000
v -3.000000 7.000000 -0.000000
v -2.000000 7.000000 -0.000000
v -3.000000 7.000000 -0.000000
v -2.000000 7.000000 -0.000000
v -3.000000 8.000000 -0.000000
v -2.000000 8.000000 -0.000000
v -3.000000 8.000000 1.000000
v -2.000000 8.000000 1.000000
v -3.000000 9.000000 1.000000
v -2.000000 9.000000 1.000000
v -3.000000 8.000000 -0.000000
v -3.000000 9.000000 -0.000000
v -2.000000 9.000000 -0.000000
v -3.000000 9.000000 0.500000
v -2.000000 9.000000 0.500000
v -3.000000 10.000000 0.500000
v -2.000000 10.000000 0.500000
v -3.000000 10.000000 -0.000000
v -2.000000 10.000000 -0.000000
v -3.000000 10.000000 -0.000000
v -2.000000 10.000000 -0.000000
v -3.000000 11.000000 -0.000000
v -2.000000 11.000000 -0.000000
v -3.000000 11.000000 1.000000
v -2.000000 11.000000 1.000000
v -3.000000 12.000000 0.999999
v -2.000000 12.000000 0.999999
v -2.000000 11.000000 -0.000000
v -2.000000 12.000000 -0.000000
v -3.000000 12.000000 1.000000
v -2.000000 12.000000 1.000000
v -3.000000 13.000000 0.999999
v -2.000000 13.000000 0.999999
v -2.000000 12.000000 -0.000000
v -2.000000 13.000000 -0.000000
v -3.000000 13.000000 1.000000
v -2.000000 13.000000 1.000000
v -3.000000 14.000000 0.999999
v -2.000000 14.000000 0.999999
v -3.000000 14.000000 -0.000000
v -2.000000 14.000000 -0.000000
v -2.000000 1.000000 1.000000
v -1.000000 1.000000 1.000000
v -2.000000 2.000000 1.000000
v -1.000000 2.000000 1.000000
v -2.000000 2.000000 1.000000
v -1.000000 2.000000 1.000000
v -2.000000 3.000000 1.000000
v -1.000000 3.000000 1.000000
v -2.000000 3.000000 0.000000
v -1.000000 3.000000 0.000000
v -2.000000 3.000000 1.000000
v -1.000000 3.000000 1.000000
v -2.000000 4.000000 1.000000
v -1.000000 4.000000 1.000000
v -2.000000 3.000000 0.000000
v -1.000000 3.000000 0.000000
v -2.000000 4.000000 0.000000
v -1.000000 4.000000 0.000000
v -2.000000 4.000000 0.500000
v -1.000000 4.000000 0.500000
v -2.000000 5.000000 0.500000
v -1.000000 5.000000 0.500000
v -2.000000 5.000000 -0.000000
v -1.000000 5.000000 -0.000000
v -2.000000 5.000000 -0.000000
v -1.000000 5.000000 -0.000000
v -2.000000 6.000000 -0.000000
v -1.000000 6.000000 -0.000000
v -2.000000 6.000000 -0.000000
v -1.000000 6.000000 -0.000000
v -2.000000 7.000000 -0.000000
v -1.000000 7.000000 -0.000000
v -2.000000 7.000000 1.000000
v -1.000000 7.000000 1.000000
v -2.000000 8.000000 1.000000
v -1.000000 8.000000 1.000000
v -2.000000 7.000000 -0.000000
v -2.000000 8.000000 -0.000000
v -2.000000 8.000000 1.000000
v -1.000000 8.000000 1.000000
v -2.000000 9.000000 1.000000
v -1.000000 9.000000 1.000000
v -2.000000 9.000000 -0.000000
v -1.000000 9.000000 -0.000000
v -2.000000 9.000000 0.500000
v -1.000000 9.000000 0.500000
v -2.000000 10.000000 0.500000
v -1.000000 10.000000 0.500000
v -1.000000 9.000000 -0.000000
v -2.000000 10.000000 -0.000000
v -1.000000 10.000000 -0.000000
v -2.000000 10.000000 1.000000
v -1.000000 10.000000 1.000000
v -2.000000 11.000000 1.000000
v -1.000000 11.000000 1.000000
v -2.000000 10.000000 -0.000000
v -2.000000 11.000000 -0.000000
v -1.000000 11.000000 -0.000000
v -2.000000 11.000000 0.500000
v -1.000000 11.000000 0.500000
v -2.000000 12.000000 0.500000
v -1.000000 12.000000 0.500000
v -2.000000 12.000000 -0.000000
v -1.000000 12.000000 -0.000000
v -2.000000 12.000000 -0.000000
v -1.000000 12.000000 -0.000000
v -2.000000 13.000000 -0.000000
v -1.000000 13.000000 -0.000000
v -2.000000 13.000000 1.000000
v -1.000000 13.000000 1.000000
v -2.000000 14.000000 0.999999
v -1.000000 14.000000 0.999999
v -2.000000 14.000000 -0.000000
v -1.000000 14.000000 -0.000000
v -1.000000 1.000000 1.000000
v 0.000000 1.000000 1.000000
v -1.000000 2.000000 1.000000
v 0.000000 2.000000 1.000000
v 0.000000 1.000000 0.000000
v 0.000000 2.000000 0.000000
v -1.000000 2.000000 1.000000
v 0.000000 2.000000 1.000000
v -1.000000 3.000000 1.000000
v 0.000000 3.000000 1.000000
v 0.000000 2.000000 0.000000
v -1.000000 3.000000 0.000000
v 0.000000 3.000000 0.000000
v -1.000000 3.000000 0.500000
v 0.000000 3.000000 0.500000
v -1.000000 4.000000 0.500000
v 0.000000 4.000000 0.500000
v 0.000000 3.000000 0.000000
v -1.000000 4.000000 0.000000
v 0.000000 4.000000 0.000000
v -1.000000 4.000000 0.500000
v 0.000000 4.000000 0.500000
v -1.000000 5.000000 0.500000
v 0.000000 5.000000 0.500000
v 0.000000 4.000000 -0.000000
v -1.000000 5.000000 -0.000000
v 0.000000 5.000000 -0.000000
v -1.000000 5.000000 0.500000
v 0.000000 5.000000 0.500000
v -1.000000 6.000000 0.500000
v 0.000000 6.000000 0.500000
v -1.000000 5.000000 -0.000000
v 0.000000 5.000000 -0.000000
v -1.000000 6.000000 -0.000000
v 0.000000 6.000000 -0.000000
v -1.000000 6.000000 0.500000
v 0.000000 6.000000 0.500000
v -1.000000 7.000000 0.500000
v 0.000000 7.000000 0.500000
v -1.000000 6.000000 -0.000000
v 0.000000 6.000000 -0.000000
v -1.000000 7.000000 -0.000000
v 0.000000 7.000000 -0.000000
v -1.000000 7.000000 1.000000
v 0.000000 7.000000 1.000000
v -1.000000 8.000000 1.000000
v 0.000000 8.000000 1.000000
v 0.000000 7.000000 -0.000000
v 0.000000 8.000000 -0.000000
v -1.000000 8.000000 1.000000
v 0.000000 8.000000 1.000000
v -1.000000 9.000000 1.000000
v 0.000000 9.000000 1.000000
v 0.000000 8.000000 -0.000000
v -1.000000 9.000000 -0.000000
v 0.000000 9.000000 -0.000000
v -1.000000 9.000000 -0.000000
v 0.000000 9.000000 -0.000000
v -1.000000 10.000000 -0.000000
v 0.000000 10.000000 -0.000000
v -1.000000 10.000000 1.000000
v 0.000000 10.000000 1.000000
v -1.000000 11.000000 1.000000
v 0.000000 11.000000 1.000000
v 0.000000 10.000000 -0.000000
v 0.000000 11.000000 -0.000000
v -1.000000 11.000000 1.000000
v 0.000000 11.000000 1.000000
v -1.000000 12.000000 0.999999
v 0.000000 12.000000 0.999999
v -1.000000 11.000000 -0.000000
v 0.000000 11.000000 -0.000000
v -1.000000 12.000000 -0.000000
v 0.000000 12.000000 -0.000000
v -1.000000 12.000000 1.000000
v 0.000000 12.000000 1.000000
v -1.000000 13.000000 0.999999
v 0.000000 13.000000 0.999999
v -1.000000 12.000000 -0.000000
v 0.000000 12.000000 -0.000000
v -1.000000 13.000000 -0.000000
v 0.000000 13.000000 -0.000000
v -1.000000 13.000000 1.000000
v 0.000000 13.000000 1.000000
v -1.000000 14.000000 0.999999
v 0.000000 14.000000 0.999999
v 0.000000 13.000000 -0.000000
v -1.000000 14.000000 -0.000000
v 0.000000 14.000000 -0.000000
v -0.868749 14.368750 0.243750
v -0.868749 14.556250 0.243750
v -0.868749 14.368750 -0.018750
v -0.868749 14.556250 -0.018750
v -0.999999 14.368750 -0.018750
v -0.999999 14.556250 -0.018750
v -0.999999 14.368750 0.243750
v -0.999999 14.556250 0.243750
v 0.149996 14.000000 0.150000
v -1.000003 14.400000 -0.350001
v -0.350003 14.400000 -0.350001
v -1.000003 14.000000 0.150000
v -1.000003 14.400000 0.150000
v -1.000003 14.299999 0.150000
v 0.149996 14.299999 0.150000
v 0.199997 14.299999 0.200000
v -1.000003 14.400000 0.200000
v -1.000003 14.299999 0.200000
v 0.199997 14.400000 0.200000
v -0.631248 14.368750 0.243750
v -0.631248 14.556250 0.243750
v -0.631248 14.368750 -0.018750
v -0.631248 14.556250 -0.018750
v -0.368748 14.368750 0.243750
v -0.368748 14.556250 0.243750
v -0.368748 14.368750 -0.018750
v -0.368748 14.556250 -0.018750
v -0.168750 14.368750 0.243750
v -0.168750 14.556250 0.243750
v -0.168750 14.368750 -0.168750
v -0.168750 14.556250 -0.168750
v 0.243749 14.368750 0.243750
v 0.243749 14.556250 0.243750
v -0.050000 1.000000 0.150000
v 0.150000 1.000000 0.150000
v 0.150000 1.000000 -0.050000
v -0.050000 0.900000 0.150000
v 0.150000 0.900000 0.150000
v 0.150000 0.900000 -0.050000
v -0.050001 1.000000 -0.050000
v -0.050001 0.900000 -0.050000
v 0.000000 0.900000 0.100000
v 0.100000 0.900000 0.100000
v 0.100000 0.900000 0.000000
v -0.000000 0.900000 0.000000
v 0.000000 0.000000 0.100000
v 0.100000 0.000000 0.100000
v 0.100000 0.000000 0.000000
v -0.000000 0.000000 0.000000
v -0.050000 2.000000 0.150000
v 0.150000 2.000000 0.150000
v 0.150000 2.000000 -0.050000
v -0.050000 1.900000 0.150000
v 0.150000 1.900000 0.150000
v 0.150000 1.900000 -0.050000
v -0.050001 2.000000 -0.050000
v -0.050001 1.900000 -0.050000
v 0.000000 1.900000 0.100000
v 0.100000 1.900000 0.100000
v 0.100000 1.900000 0.000000
v -0.000000 1.900000 0.000000
v 0.000000 1.000000 0.100000
v 0.100000 1.000000 0.100000
v 0.100000 1.000000 0.000000
v -0.000000 1.000000 0.000000
v -0.050000 3.000000 0.150000
v 0.150000 3.000000 0.150000
v 0.150000 3.000000 -0.050000
v -0.050000 2.900000 0.150000
v 0.150000 2.900000 0.150000
v 0.150000 2.900000 -0.050000
v -0.050001 3.000000 -0.050000
v -0.050001 2.900000 -0.050000
v 0.000000 2.900000 0.100000
v 0.100000 2.900000 0.100000
v 0.100000 2.900000 0.000000
v -0.000000 2.900000 0.000000
v 0.000000 2.000000 0.100000
v 0.100000 2.000000 0.100000
v 0.100000 2.000000 0.000000
v -0.000000 2.000000 0.000000
v -0.050000 4.000000 0.150000
v 0.150000 4.000000 0.150000
v 0.150000 4.000000 -0.050000
v -0.050000 3.900000 0.150000
v 0.150000 3.900000 0.150000
v 0.150000 3.900000 -0.050000
v -0.050001 4.000000 -0.050000
v -0.050001 3.900000 -0.050000
v 0.000000 3.900000 0.100000
v 0.100000 3.900000 0.100000
v 0.100000 3.900000 0.000000
v -0.000000 3.900000 0.000000
v 0.000000 3.000000 0.100000
v 0.100000 3.000000 0.100000
v 0.100000 3.000000 0.000000
v -0.000000 3.000000 0.000000
v -0.050000 5.000000 0.150000
v 0.150000 5.000000 0.150000
v 0.150000 5.000000 -0.050000
v -0.050000 4.900000 0.150000
v 0.150000 4.900000 0.150000
v 0.150000 4.900000 -0.050000
v -0.050001 5.000000 -0.050000
v -0.050001 4.900000 -0.050000
v 0.000000 4.900000 0.100000
v 0.100000 4.900000 0.100000
v 0.100000 4.900000 -0.000000
v -0.000000 4.900000 -0.000000
v 0.000000 4.000000 0.100000
v 0.100000 4.000000 0.100000
v 0.100000 4.000000 -0.000000
v -0.000000 4.000000 -0.000000
v -0.050000 6.000000 0.150000
v 0.150000 6.000000 0.150000
v 0.150000 6.000000 -0.050000
v -0.050000 5.900000 0.150000
v 0.150000 5.900000 0.150000
v 0.150000 5.900000 -0.050000
v -0.050001 6.000000 -0.050000
v -0.050001 5.900000 -0.050000
v 0.000000 5.900000 0.100000
v 0.100000 5.900000 0.100000
v 0.100000 5.900000 -0.000000
v -0.000000 5.900000 -0.000000
v 0.000000 5.000000 0.100000
v 0.100000 5.000000 0.100000
v 0.100000 5.000000 -0.000000
v -0.000000 5.000000 -0.000000
v -0.050000 7.000000 0.150000
v 0.150000 7.000000 0.150000
v 0.150000 7.000000 -0.050000
v -0.050000 6.900000 0.150000
v 0.150000 6.900000 0.150000
v 0.150000 6.900000 -0.050000
v -0.050001 7.000000 -0.050000
v -0.050001 6.900000 -0.050000
v 0.000000 6.900000 0.100000
v 0.100000 6.900000 0.100000
v 0.100000 6.900000 -0.000000
v -0.000000 6.900000 -0.000000
v 0.000000 6.000000 0.100000
v 0.100000 6.000000 0.100000
v 0.100000 6.000000 -0.000000
v -0.000000 6.000000 -0.000000
v -0.050000 8.000000 0.150000
v 0.150000 8.000000 0.150000
v 0.150000 8.000000 -0.050000
v -0.050000 7.900000 0.150000
v 0.150000 7.900000 0.150000
v 0.150000 7.900000 -0.050000
v -0.050001 8.000000 -0.050000
v -0.050001 7.900000 -0.050000
v 0.000000 7.900000 0.100000
v 0.100000 7.900000 0.100000
v 0.100000 7.900000 -0.000000
v -0.000000 7.900000 -0.000000
v 0.000000 7.000000 0.100000
v 0.100000 7.000000 0.100000
v 0.100000 7.000000 -0.000000
v -0.000000 7.000000 -0.000000
v -0.050000 9.000000 0.150000
v 0.150000 9.000000 0.150000
v 0.150000 9.000000 -0.050000
v -0.050000 8.900000 0.150000
v 0.150000 8.900000 0.150000
v 0.150000 8.900000 -0.050000
v -0.050001 9.000000 -0.050000
v -0.050001 8.900000 -0.050000
v 0.000000 8.900000 0.100000
v 0.100000 8.900000 0.100000
v 0.100000 8.900000 -0.000000
v -0.000000 8.900000 -0.000000
v 0.000000 8.000000 0.100000
v 0.100000 8.000000 0.100000
v 0.100000 8.000000 -0.000000
v -0.000000 8.000000 -0.000000
v -0.050000 10.000000 0.150000
v 0.150000 10.000000 0.150000
v 0.150000 10.000000 -0.050000
v -0.050000 9.900000 0.150000
v 0.150000 9.900000 0.150000
v 0.150000 9.900000 -0.050000
v -0.050001 10.000000 -0.050000
v -0.050001 9.900000 -0.050000
v 0.000000 9.900000 0.100000
v 0.100000 9.900000 0.100000
v 0.100000 9.900000 -0.000000
v -0.000000 9.900000 -0.000000
v 0.000000 9.000000 0.100000
v 0.100000 9.000000 0.100000
v 0.100000 9.000000 -0.000000
v -0.000000 9.000000 -0.000000
v -0.050000 11.000000 0.150000
v 0.150000 11.000000 0.150000
v 0.150000 11.000000 -0.050000
v -0.050000 10.900000 0.150000
v 0.150000 10.900000 0.150000
v 0.150000 10.900000 -0.050000
v -0.050001 11.000000 -0.050000
v -0.050001 10.900000 -0.050000
v 0.000000 10.900000 0.100000
v 0.100000 10.900000 0.100000
v 0.100000 10.900000 -0.000000
v -0.000000 10.900000 -0.000000
v 0.000000 10.000000 0.100000
v 0.100000 10.000000 0.100000
v 0.100000 10.000000 -0.000000
v -0.000000 10.000000 -0.000000
v -0.050000 12.000000 0.150000
v 0.150000 12.000000 0.150000
v 0.150000 12.000000 -0.050000
v -0.050000 11.900000 0.150000
v 0.150000 11.900000 0.150000
v 0.150000 11.900000 -0.050000
v -0.050001 12.000000 -0.050000
v -0.050001 11.900000 -0.050000
v 0.000000 11.900000 0.099999
v 0.100000 11.900000 0.099999
v 0.100000 11.900000 -0.000000
v -0.000000 11.900000 -0.000000
v 0.000000 11.000000 0.100000
v 0.100000 11.000000 0.100000
v 0.100000 11.000000 -0.000000
v -0.000000 11.000000 -0.000000
v -0.050000 13.000000 0.150000
v 0.150000 13.000000 0.150000
v 0.150000 13.000000 -0.050000
v -0.050000 12.900000 0.150000
v 0.150000 12.900000 0.150000
v 0.150000 12.900000 -0.050000
v -0.050001 13.000000 -0.050000
v -0.050001 12.900000 -0.050000
v 0.000000 12.900000 0.099999
v 0.100000 12.900000 0.099999
v 0.100000 12.900000 -0.000000
v -0.000000 12.900000 -0.000000
v 0.000000 12.000000 0.100000
v 0.100000 12.000000 0.100000
v 0.100000 12.000000 -0.000000
v -0.000000 12.000000 -0.000000
v -0.050000 14.000000 0.150000
v 0.150000 14.000000 0.150000
v 0.150000 14.000000 -0.050000
v -0.050000 13.900000 0.150000
v 0.150000 13.900000 0.150000
v 0.150000 13.900000 -0.050000
v -0.050001 14.000000 -0.050000
v -0.050001 13.900000 -0.050000
v 0.000000 13.900000 0.099999
v 0.100000 13.900000 0.099999
v 0.100000 13.900000 -0.000000
v -0.000000 13.900000 -0.000000
v 0.000000 13.000000 0.100000
v 0.100000 13.000000 0.100000
v 0.100000 13.000000 -0.000000
v -0.000000 13.000000 -0.000000
v -2.868750 14.368750 0.243750
v -2.868750 14.556250 0.243750
v -2.868750 14.368750 -0.018750
v -2.868750 14.556250 -0.018750
v -3.000000 14.368750 -0.018750
v -3.000000 14.556250 -0.018750
v -3.000000 14.368750 0.243750
v -3.000000 14.556250 0.243750
v -3.000000 14.400000 -0.350001
v -2.000000 14.400000 -0.350001
v -3.000000 14.000000 0.150000
v -2.000000 14.000000 0.150000
v -3.000000 14.400000 0.150000
v -2.000000 14.400000 0.150000
v -3.000000 14.299999 0.150000
v -2.000000 14.299999 0.150000
v -2.000000 14.299999 0.200000
v -2.000000 14.400000 0.200000
v -3.000000 14.400000 0.200000
v -3.000000 14.299999 0.200000
v -2.131246 14.368750 0.243750
v -2.131246 14.556250 0.243750
v -2.131246 14.368750 -0.018750
v -2.131246 14.556250 -0.018750
v -1.999996 14.368750 -0.018750
v -1.999996 14.556250 -0.018750
v -1.999996 14.368750 0.243750
v -1.999996 14.556250 0.243750
v -2.631248 14.368750 0.243750
v -2.631248 14.556250 0.243750
v -2.631248 14.368750 -0.018750
v -2.631248 14.556250 -0.018750
v -2.368747 14.368750 0.243750
v -2.368747 14.556250 0.243750
v -2.368747 14.368750 -0.018750
v -2.368747 14.556250 -0.018750
v -1.868750 14.368750 0.243750
v -1.868750 14.556250 0.243750
v -1.868750 14.368750 -0.018750
v -1.868750 14.556250 -0.018750
v -2.000000 14.368750 -0.018750
v -2.000000 14.556250 -0.018750
v -2.000000 14.368750 0.243750
v -2.000000 14.556250 0.243750
v -2.000000 14.400000 -0.350001
v -1.000000 14.400000 -0.350001
v -2.000000 14.000000 0.150000
v -1.000000 14.000000 0.150000
v -2.000000 14.400000 0.150000
v -1.000000 14.400000 0.150000
v -2.000000 14.299999 0.150000
v -1.000000 14.299999 0.150000
v -1.000000 14.299999 0.200000
v -1.000000 14.400000 0.200000
v -2.000000 14.400000 0.200000
v -2.000000 14.299999 0.200000
v -1.131246 14.368750 0.243750
v -1.131246 14.556250 0.243750
v -1.131246 14.368750 -0.018750
v -1.131246 14.556250 -0.018750
v -0.999996 14.368750 -0.018750
v -0.999996 14.556250 -0.018750
v -0.999996 14.368750 0.243750
v -0.999996 14.556250 0.243750
v -1.631248 14.368750 0.243750
v -1.631248 14.556250 0.243750
v -1.631248 14.368750 -0.018750
v -1.631248 14.556250 -0.018750
v -1.368747 14.368750 0.243750
v -1.368747 14.556250 0.243750
v -1.368747 14.368750 -0.018750
v -1.368747 14.556250 -0.018750
v 0.150000 1.000000 -3.950001
v 0.150000 1.000000 -4.150002
v -0.050000 1.000000 -4.150002
v 0.150000 0.900000 -3.950001
v 0.150000 0.900000 -4.150002
v -0.050000 0.900000 -4.150002
v -0.050000 1.000000 -3.950001
v -0.050000 0.900000 -3.950001
v 0.100000 0.900000 -4.000001
v 0.100000 0.900000 -4.100001
v 0.000000 0.900000 -4.100001
v 0.000000 0.900000 -4.000001
v 0.100000 0.000000 -4.000001
v 0.100000 0.000000 -4.100001
v 0.000000 0.000000 -4.100001
v 0.000000 0.000000 -4.000001
v 0.150000 2.000000 -3.950001
v 0.150000 2.000000 -4.150002
v -0.050000 2.000000 -4.150002
v 0.150000 1.900000 -3.950001
v 0.150000 1.900000 -4.150002
v -0.050000 1.900000 -4.150002
v -0.050000 2.000000 -3.950001
v -0.050000 1.900000 -3.950001
v 0.100000 1.900000 -4.000001
v 0.100000 1.900000 -4.100001
v 0.000000 1.900000 -4.100001
v 0.000000 1.900000 -4.000001
v 0.100000 1.000000 -4.000001
v 0.100000 1.000000 -4.100001
v 0.000000 1.000000 -4.100001
v 0.000000 1.000000 -4.000001
v 0.150000 3.000000 -3.950001
v 0.150000 3.000000 -4.150002
v -0.050000 3.000000 -4.150002
v 0.150000 2.900000 -3.950001
v 0.150000 2.900000 -4.150002
v -0.050000 2.900000 -4.150002
v -0.050000 3.000000 -3.950001
v -0.050000 2.900000 -3.950001
v 0.100000 2.900000 -4.000001
v 0.100000 2.900000 -4.100001
v 0.000000 2.900000 -4.100001
v 0.000000 2.900000 -4.000001
v 0.100000 2.000000 -4.000001
v 0.100000 2.000000 -4.100001
v 0.000000 2.000000 -4.100001
v 0.000000 2.000000 -4.000001
v 0.150000 4.000000 -3.950001
v 0.150000 4.000000 -4.150002
v -0.050000 4.000000 -4.150002
v 0.150000 3.900000 -3.950001
v 0.150000 3.900000 -4.150002
v -0.050000 3.900000 -4.150002
v -0.050000 4.000000 -3.950001
v -0.050000 3.900000 -3.950001
v 0.100000 3.900000 -4.000001
v 0.100000 3.900000 -4.100001
v 0.000000 3.900000 -4.100001
v 0.000000 3.900000 -4.000001
v 0.100000 3.000000 -4.000001
v 0.100000 3.000000 -4.100001
v 0.000000 3.000000 -4.100001
v 0.000000 3.000000 -4.000001
v 0.150000 5.000000 -3.950001
v 0.150000 5.000000 -4.150002
v -0.050000 5.000000 -4.150002
v 0.150000 4.900000 -3.950001
v 0.150000 4.900000 -4.150002
v -0.050000 4.900000 -4.150002
v -0.050000 5.000000 -3.950001
v -0.050000 4.900000 -3.950001
v 0.100000 4.900000 -4.000001
v 0.100000 4.900000 -4.100001
v 0.000000 4.900000 -4.100001
v 0.000000 4.900000 -4.000001
v 0.100000 4.000000 -4.000001
v 0.100000 4.000000 -4.100001
v 0.000000 4.000000 -4.100001
v 0.000000 4.000000 -4.000001
v 0.150000 6.000000 -3.950001
v 0.150000 6.000000 -4.150002
v -0.050000 6.000000 -4.150002
v 0.150000 5.900000 -3.950001
v 0.150000 5.900000 -4.150002
v -0.050000 5.900000 -4.150002
v -0.050000 6.000000 -3.950001
v -0.050000 5.900000 -3.950001
v 0.100000 5.900000 -4.000001
v 0.100000 5.900000 -4.100001
v 0.000000 5.900000 -4.100001
v 0.000000 5.900000 -4.000001
v 0.100000 5.000000 -4.000001
v 0.100000 5.000000 -4.100001
v 0.000000 5.000000 -4.100001
v 0.000000 5.000000 -4.000001
v 0.150000 7.000000 -3.950001
v 0.150000 7.000000 -4.150002
v -0.050000 7.000000 -4.150002
v 0.150000 6.900000 -3.950001
v 0.150000 6.900000 -4.150002
v -0.050000 6.900000 -4.150002
v -0.050000 7.000000 -3.950001
v -0.050000 6.900000 -3.950001
v 0.100000 6.900000 -4.000001
v 0.100000 6.900000 -4.100001
v 0.000000 6.900000 -4.100001
v 0.000000 6.900000 -4.000001
v 0.100000 6.000000 -4.000001
v 0.100000 6.000000 -4.100001
v 0.000000 6.000000 -4.100001
v 0.000000 6.000000 -4.000001
v 0.150000 8.000000 -3.950001
v 0.150000 8.000000 -4.150002
v -0.050000 8.000000 -4.150002
v 0.150000 7.900000 -3.950001
v 0.150000 7.900000 -4.150002
v -0.050000 7.900000 -4.150002
v -0.050000 8.000000 -3.950001
v -0.050000 7.900000 -3.950001
v 0.100000 7.900000 -4.000001
v 0.100000 7.900000 -4.100001
v 0.000000 7.900000 -4.100001
v 0.000000 7.900000 -4.000001
v 0.100000 7.000000 -4.000001
v 0.100000 7.000000 -4.100001
v 0.000000 7.000000 -4.100001
v 0.000000 7.000000 -4.000001
v 0.150000 9.000000 -3.950001
v 0.150000 9.000000 -4.150002
v -0.050000 9.000000 -4.150002
v 0.150000 8.900000 -3.950001
v 0.150000 8.900000 -4.150002
v -0.050000 8.900000 -4.150002
v -0.050000 9.000000 -3.950001
v -0.050000 8.900000 -3.950001
v 0.100000 8.900000 -4.000001
v 0.100000 8.900000 -4.100001
v 0.000000 8.900000 -4.100001
v 0.000000 8.900000 -4.000001
v 0.100000 8.000000 -4.000001
v 0.100000 8.000000 -4.100001
v 0.000000 8.000000 -4.100001
v 0.000000 8.000000 -4.000001
v 0.150000 10.000000 -3.950001
v 0.150000 10.000000 -4.150002
v -0.050000 10.000000 -4.150002
v 0.150000 9.900000 -3.950001
v 0.150000 9.900000 -4.150002
v -0.050000 9.900000 -4.150002
v -0.050000 10.000000 -3.950001
v -0.050000 9.900000 -3.950001
v 0.100000 9.900000 -4.000001
v 0.100000 9.900000 -4.100001
v 0.000000 9.900000 -4.100001
v 0.000000 9.900000 -4.000001
v 0.100000 9.000000 -4.000001
v 0.100000 9.000000 -4.100001
v 0.000000 9.000000 -4.100001
v 0.000000 9.000000 -4.000001
v 0.150000 11.000000 -3.950001
v 0.150000 11.000000 -4.150002
v -0.050000 11.000000 -4.150002
v 0.150000 10.900000 -3.950001
v 0.150000 10.900000 -4.150002
v -0.050000 10.900000 -4.150002
v -0.050000 11.000000 -3.950001
v -0.050000 10.900000 -3.950001
v 0.100000 10.900000 -4.000001
v 0.100000 10.900000 -4.100001
v 0.000000 10.900000 -4.100001
v 0.000000 10.900000 -4.000001
v 0.100000 10.000000 -4.000001
v 0.100000 10.000000 -4.100001
v 0.000000 10.000000 -4.100001
v 0.000000 10.000000 -4.000001
v 0.150000 12.000000 -3.950001
v 0.150000 12.000000 -4.150002
v -0.050000 12.000000 -4.150002
v 0.150000 11.900000 -3.950001
v 0.150000 11.900000 -4.150002
v -0.050000 11.900000 -4.150002
v -0.050000 12.000000 -3.950001
v -0.050000 11.900000 -3.950001
v 0.100000 11.900000 -4.000001
v 0.100000 11.900000 -4.100001
v -0.000000 11.900000 -4.100001
v -0.000000 11.900000 -4.000001
v 0.100000 11.000000 -4.000001
v 0.100000 11.000000 -4.100001
v -0.000000 11.000000 -4.100001
v -0.000000 11.000000 -4.000001
v 0.150000 13.000000 -3.950001
v 0.150000 13.000000 -4.150002
v -0.050000 13.000000 -4.150002
v 0.150000 12.900000 -3.950001
v 0.150000 12.900000 -4.150002
v -0.050000 12.900000 -4.150002
v -0.050000 13.000000 -3.950001
v -0.050000 12.900000 -3.950001
v 0.100000 12.900000 -4.000001
v 0.100000 12.900000 -4.100001
v -0.000000 12.900000 -4.100001
v -0.000000 12.900000 -4.000001
v 0.100000 12.000000 -4.000001
v 0.100000 12.000000 -4.100001
v -0.000000 12.000000 -4.100001
v -0.000000 12.000000 -4.000001
v 0.150000 14.000000 -3.950001
v 0.150000 14.000000 -4.150002
v -0.050000 14.000000 -4.150002
v 0.150000 13.900000 -3.950001
v 0.150000 13.900000 -4.150002
v -0.050000 13.900000 -4.150002
v -0.050000 14.000000 -3.950001
v -0.050000 13.900000 -3.950001
v 0.100000 13.900000 -4.000001
v 0.100000 13.900000 -4.100001
v -0.000000 13.900000 -4.100001
v -0.000000 13.900000 -4.000001
v 0.100000 13.000000 -4.000001
v 0.100000 13.000000 -4.100001
v -0.000000 13.000000 -4.100001
v -0.000000 13.000000 -4.000001
v 0.000000 1.000000 -0.000001
v 0.000000 1.000000 -1.000001
v 0.000000 0.100000 -0.000001
v 0.000000 0.100000 -1.000001
v 0.100000 0.100000 -0.000001
v 0.100000 0.000000 -0.000001
v 0.100000 0.000000 -1.000001
v 0.100000 0.100000 -1.000001
v 0.000000 1.000000 -1.000001
v 0.000000 1.000000 -2.000001
v 0.000000 0.100000 -1.000001
v 0.000000 0.100000 -2.000001
v 0.100000 0.100000 -1.000001
v 0.100000 0.000000 -1.000001
v 0.100000 0.000000 -2.000001
v 0.100000 0.100000 -2.000001
v 0.000000 1.000000 -2.000001
v 0.000000 1.000000 -3.000001
v 0.000000 0.100000 -2.000001
v 0.000000 0.100000 -3.000001
v 0.100000 0.100000 -2.000001
v 0.100000 0.000000 -2.000001
v 0.100000 0.000000 -3.000001
v 0.100000 0.100000 -3.000001
v 0.000000 1.000000 -3.000001
v 0.000000 1.000000 -4.000001
v 0.000000 0.100000 -3.000001
v 0.000000 0.100000 -4.000001
v 0.100000 0.100000 -3.000001
v 0.100000 0.000000 -3.000001
v 0.100000 0.000000 -4.000001
v 0.100000 0.100000 -4.000001
v 0.243750 14.368750 -1.131251
v 0.243750 14.556250 -1.131251
v -0.018750 14.368750 -1.131251
v -0.018750 14.556250 -1.131251
v -0.018750 14.368750 -1.000001
v -0.018750 14.556250 -1.000001
v 0.243750 14.368750 -1.000001
v 0.243750 14.556250 -1.000001
v -0.350000 14.400000 -1.000001
v -0.350000 14.400000 -2.000001
v 0.150000 14.000000 -1.000001
v 0.150000 14.000000 -2.000001
v 0.150000 14.400000 -1.000001
v 0.150000 14.400000 -2.000001
v 0.150000 14.299999 -1.000001
v 0.150000 14.299999 -2.000001
v 0.200000 14.299999 -2.000001
v 0.200000 14.400000 -2.000001
v 0.200000 14.400000 -1.000001
v 0.200000 14.299999 -1.000001
v 0.243750 14.368750 -1.868755
v 0.243750 14.556250 -1.868755
v -0.018750 14.368750 -1.868755
v -0.018750 14.556250 -1.868755
v -0.018750 14.368750 -2.000005
v -0.018750 14.556250 -2.000005
v 0.243750 14.368750 -2.000005
v 0.243750 14.556250 -2.000005
v 0.243750 14.368750 -1.368754
v 0.243750 14.556250 -1.368754
v -0.018750 14.368750 -1.368754
v -0.018750 14.556250 -1.368754
v 0.243750 14.368750 -1.631254
v 0.243750 14.556250 -1.631254
v -0.018750 14.368750 -1.631254
v -0.018750 14.556250 -1.631254
v 0.243750 14.368750 -2.131251
v 0.243750 14.556250 -2.131251
v -0.018750 14.368750 -2.131251
v -0.018750 14.556250 -2.131251
v -0.018750 14.368750 -2.000001
v -0.018750 14.556250 -2.000001
v 0.243750 14.368750 -2.000001
v 0.243750 14.556250 -2.000001
v -0.350000 14.400000 -2.000001
v -0.350000 14.400000 -3.000001
v 0.150000 14.000000 -2.000001
v 0.150000 14.000000 -3.000001
v 0.150000 14.400000 -2.000001
v 0.150000 14.400000 -3.000001
v 0.150000 14.299999 -2.000001
v 0.150000 14.299999 -3.000001
v 0.200000 14.299999 -3.000001
v 0.200000 14.400000 -3.000001
v 0.200000 14.400000 -2.000001
v 0.200000 14.299999 -2.000001
v 0.243750 14.368750 -2.868755
v 0.243750 14.556250 -2.868755
v -0.018750 14.368750 -2.868755
v -0.018750 14.556250 -2.868755
v -0.018750 14.368750 -3.000005
v -0.018750 14.556250 -3.000005
v 0.243750 14.368750 -3.000005
v 0.243750 14.556250 -3.000005
v 0.243750 14.368750 -2.368754
v 0.243750 14.556250 -2.368754
v -0.018750 14.368750 -2.368754
v -0.018750 14.556250 -2.368754
v 0.243750 14.368750 -2.631254
v 0.243750 14.556250 -2.631254
v -0.018750 14.368750 -2.631254
v -0.018750 14.556250 -2.631254
v 0.000000 1.000000 -0.000001
v 0.000000 1.000000 -1.000001
v 0.000000 2.000000 -0.000001
v 0.000000 2.000000 -1.000001
v 0.000000 2.000000 -0.000001
v 0.000000 2.000000 -1.000001
v 0.000000 3.000000 -0.000001
v 0.000000 3.000000 -1.000001
v 0.000000 3.000000 -0.000001
v 0.000000 3.000000 -1.000001
v 0.000000 4.000000 -0.000001
v 0.000000 4.000000 -1.000001
v 1.000000 4.000000 -0.000001
v 1.000000 4.000000 -1.000001
v 1.000000 5.000000 -0.000001
v 1.000000 5.000000 -1.000001
v 0.000000 4.000000 -0.000001
v 0.000000 4.000000 -1.000001
v 0.000000 5.000000 -0.000001
v 0.000000 5.000000 -1.000001
v 0.500000 5.000000 -0.000001
v 0.500000 5.000000 -1.000001
v 0.500000 6.000000 -0.000001
v 0.500000 6.000000 -1.000001
v 0.000000 5.000000 -0.000001
v 0.000000 6.000000 -0.000001
v 0.000000 6.000000 -1.000001
v 1.000000 6.000000 -0.000001
v 1.000000 6.000000 -1.000001
v 1.000000 7.000000 -0.000001
v 1.000000 7.000000 -1.000001
v 0.000000 6.000000 -0.000001
v 0.000000 6.000000 -1.000001
v 0.000000 7.000000 -0.000001
v 0.000000 7.000000 -1.000001
v 1.000000 7.000000 -0.000001
v 1.000000 7.000000 -1.000001
v 1.000000 8.000000 -0.000001
v 1.000000 8.000000 -1.000001
v -0.000000 7.000000 -0.000001
v -0.000000 8.000000 -0.000001
v 1.000000 8.000000 -0.000001
v 1.000000 8.000000 -1.000001
v 1.000000 9.000000 -0.000001
v 1.000000 9.000000 -1.000001
v -0.000000 8.000000 -0.000001
v -0.000000 9.000000 -0.000001
v 1.000000 9.000000 -0.000001
v 1.000000 9.000000 -1.000001
v 1.000000 10.000000 -0.000001
v 1.000000 10.000000 -1.000001
v -0.000000 9.000000 -0.000001
v -0.000000 10.000000 -0.000001
v -0.000000 10.000000 -1.000001
v -0.000000 10.000000 -0.000001
v 0.000000 10.000000 -1.000001
v -0.000000 11.000000 -0.000001
v -0.000000 11.000000 -1.000001
v -0.000000 11.000000 -0.000001
v -0.000000 11.000000 -1.000001
v -0.000000 12.000000 -0.000001
v -0.000000 12.000000 -1.000001
v -0.000000 12.000000 -0.000001
v -0.000000 12.000000 -1.000001
v -0.000000 13.000000 -0.000001
v -0.000000 13.000000 -1.000001
v 1.000000 13.000000 -0.000001
v 1.000000 13.000000 -1.000001
v 1.000000 14.000000 -0.000001
v 1.000000 14.000000 -1.000001
v -0.000000 13.000000 -0.000001
v -0.000000 13.000000 -1.000001
v -0.000000 14.000000 -0.000001
v -0.000000 14.000000 -1.000001
v 0.500000 1.000000 -1.000001
v 0.500000 1.000000 -2.000001
v 0.500000 2.000000 -1.000001
v 0.500000 2.000000 -2.000001
v 0.000000 1.000000 -1.000001
v 0.000000 2.000000 -1.000001
v 0.000000 2.000000 -2.000001
v 1.000000 2.000000 -1.000001
v 1.000000 2.000000 -2.000001
v 1.000000 3.000000 -1.000001
v 1.000000 3.000000 -2.000001
v 0.000000 2.000000 -1.000001
v 0.000000 3.000000 -1.000001
v 0.000000 3.000000 -2.000001
v 0.000000 3.000000 -1.000001
v 0.000000 3.000000 -2.000001
v 0.000000 4.000000 -1.000001
v 0.000000 4.000000 -2.000001
v 0.500000 4.000000 -1.000001
v 0.500000 4.000000 -2.000001
v 0.500000 5.000000 -1.000001
v 0.500000 5.000000 -2.000001
v 0.000000 5.000000 -1.000001
v 0.000000 5.000000 -2.000001
v 1.000000 5.000000 -1.000001
v 1.000000 5.000000 -2.000001
v 1.000000 6.000000 -1.000001
v 1.000000 6.000000 -2.000001
v 0.000000 5.000000 -1.000001
v 0.000000 6.000000 -1.000001
v 0.000000 6.000000 -2.000001
v 0.000000 6.000000 -1.000001
v 0.000000 6.000000 -2.000001
v 0.000000 7.000000 -1.000001
v 0.000000 7.000000 -2.000001
v 1.000000 7.000000 -1.000001
v 1.000000 7.000000 -2.000001
v 1.000000 8.000000 -1.000001
v 1.000000 8.000000 -2.000001
v 1.000000 8.000000 -1.000001
v 1.000000 8.000000 -2.000001
v 1.000000 9.000000 -1.000001
v 1.000000 9.000000 -2.000001
v -0.000000 8.000000 -2.000001
v -0.000000 9.000000 -2.000001
v 1.000000 9.000000 -1.000001
v 1.000000 9.000000 -2.000001
v 1.000000 10.000000 -1.000001
v 1.000000 10.000000 -2.000001
v 1.000000 10.000000 -1.000001
v 1.000000 10.000000 -2.000001
v 1.000000 11.000000 -1.000001
v 1.000000 11.000000 -2.000001
v -0.000000 10.000000 -1.000001
v -0.000000 11.000000 -1.000001
v -0.000000 11.000000 -2.000001
v 0.500000 11.000000 -1.000001
v 0.500000 11.000000 -2.000001
v 0.500000 12.000000 -1.000001
v 0.500000 12.000000 -2.000001
v 0.000000 11.000000 -1.000001
v -0.000000 12.000000 -1.000001
v -0.000000 12.000000 -2.000001
v -0.000000 12.000000 -1.000001
v -0.000000 12.000000 -2.000001
v -0.000000 13.000000 -1.000001
v -0.000000 13.000000 -2.000001
v 0.500000 13.000000 -1.000001
v 0.500000 13.000000 -2.000001
v 0.500000 14.000000 -1.000001
v 0.500000 14.000000 -2.000001
v -0.000000 14.000000 -1.000001
v -0.000000 14.000000 -2.000001
v 1.000000 1.000000 -2.000001
v 1.000000 1.000000 -3.000001
v 1.000000 2.000000 -2.000001
v 1.000000 2.000000 -3.000001
v 0.000000 1.000000 -2.000001
v 0.000000 1.000000 -3.000001
v 0.000000 2.000000 -2.000001
v 0.000000 2.000000 -3.000001
v 1.000000 2.000000 -2.000001
v 1.000000 2.000000 -3.000001
v 1.000000 3.000000 -2.000001
v 1.000000 3.000000 -3.000001
v 0.000000 3.000000 -2.000001
v 0.000000 3.000000 -3.000001
v 0.000000 3.000000 -2.000001
v 0.000000 3.000000 -3.000001
v 0.000000 4.000000 -2.000001
v 0.000000 4.000000 -3.000001
v 1.000000 4.000000 -2.000001
v 1.000000 4.000000 -3.000001
v 1.000000 5.000000 -2.000001
v 1.000000 5.000000 -3.000001
v 0.000000 4.000000 -2.000001
v 0.000000 5.000000 -2.000001
v 1.000000 5.000000 -2.000001
v 1.000000 5.000000 -3.000001
v 1.000000 6.000000 -2.000001
v 1.000000 6.000000 -3.000001
v 0.000000 5.000000 -3.000001
v 0.000000 6.000000 -3.000001
v 1.000000 6.000000 -2.000001
v 1.000000 6.000000 -3.000001
v 1.000000 7.000000 -2.000001
v 1.000000 7.000000 -3.000001
v 0.000000 6.000000 -2.000001
v 0.000000 7.000000 -2.000001
v 1.000000 7.000000 -2.000001
v 1.000000 7.000000 -3.000001
v 1.000000 8.000000 -2.000001
v 1.000000 8.000000 -3.000001
v 0.000000 8.000000 -2.000001
v 0.000000 8.000000 -3.000001
v 0.000000 8.000000 -2.000001
v 0.000000 8.000000 -3.000001
v 0.000000 9.000000 -2.000001
v 0.000000 9.000000 -3.000001
v 1.000000 9.000000 -2.000001
v 1.000000 9.000000 -3.000001
v 1.000000 10.000000 -2.000001
v 1.000000 10.000000 -3.000001
v -0.000000 9.000000 -3.000001
v -0.000000 10.000000 -3.000001
v 1.000000 10.000000 -2.000001
v 1.000000 10.000000 -3.000001
v 1.000000 11.000000 -2.000001
v 1.000000 11.000000 -3.000001
v -0.000000 10.000000 -3.000001
v -0.000000 11.000000 -3.000001
v 1.000000 11.000000 -2.000001
v 1.000000 11.000000 -3.000001
v 1.000000 12.000000 -2.000001
v 1.000000 12.000000 -3.000001
v -0.000000 11.000000 -2.000001
v -0.000000 11.000000 -3.000001
v -0.000000 12.000000 -2.000001
v -0.000000 12.000000 -3.000001
v 1.000000 12.000000 -2.000001
v 1.000000 12.000000 -3.000001
v 1.000000 13.000000 -2.000001
v 1.000000 13.000000 -3.000001
v -0.000000 12.000000 -2.000001
v -0.000000 12.000000 -3.000001
v -0.000000 13.000000 -2.000001
v -0.000000 13.000000 -3.000001
v 1.000000 13.000000 -2.000001
v 1.000000 13.000000 -3.000001
v 1.000000 14.000000 -2.000001
v 1.000000 14.000000 -3.000001
v -0.000000 13.000000 -2.000001
v -0.000000 14.000000 -2.000001
v -0.000000 14.000000 -3.000001
v 0.500000 1.000000 -3.000001
v 0.500000 1.000000 -4.000001
v 0.500000 2.000000 -3.000001
v 0.500000 2.000000 -4.000001
v 0.000000 1.000000 -4.000001
v 0.000000 2.000000 -3.000001
v 0.000000 2.000000 -4.000001
v 1.000000 2.000000 -3.000001
v 1.000000 2.000000 -4.000001
v 1.000000 3.000000 -3.000001
v 1.000000 3.000000 -4.000001
v 0.000000 2.000000 -4.000001
v 0.000000 3.000000 -3.000001
v 0.000000 3.000000 -4.000001
v 0.000000 3.000000 -3.000001
v 0.000000 3.000000 -4.000001
v 0.000000 4.000000 -3.000001
v 0.000000 4.000000 -4.000001
v 1.000000 4.000000 -3.000001
v 1.000000 4.000000 -4.000001
v 1.000000 5.000000 -3.000001
v 1.000000 5.000000 -4.000001
v 0.000000 4.000000 -4.000001
v 0.000000 5.000000 -3.000001
v 0.000000 5.000000 -4.000001
v 0.500000 5.000000 -3.000001
v 0.500000 5.000000 -4.000001
v 0.500000 6.000000 -3.000001
v 0.500000 6.000000 -4.000001
v 0.000000 5.000000 -4.000001
v 0.000000 6.000000 -4.000001
v 1.000000 6.000000 -3.000001
v 1.000000 6.000000 -4.000001
v 1.000000 7.000000 -3.000001
v 1.000000 7.000000 -4.000001
v 0.000000 6.000000 -4.000001
v 0.000000 7.000000 -4.000001
v 1.000000 7.000000 -3.000001
v 1.000000 7.000000 -4.000001
v 1.000000 8.000000 -3.000001
v 1.000000 8.000000 -4.000001
v 0.000000 7.000000 -4.000001
v 0.000000 8.000000 -3.000001
v 0.000000 8.000000 -4.000001
v 1.000000 8.000000 -3.000001
v 1.000000 8.000000 -4.000001
v 1.000000 9.000000 -3.000001
v 1.000000 9.000000 -4.000001
v 0.000000 8.000000 -3.000001
v 0.000000 8.000000 -4.000001
v 0.000000 9.000000 -3.000001
v 0.000000 9.000000 -4.000001
v 0.000000 9.000000 -3.000001
v 0.000000 9.000000 -4.000001
v 0.000000 10.000000 -3.000001
v 0.000000 10.000000 -4.000001
v 0.500000 10.000000 -3.000001
v 0.500000 10.000000 -4.000001
v 0.500000 11.000000 -3.000001
v 0.500000 11.000000 -4.000001
v 0.000000 10.000000 -4.000001
v -0.000000 11.000000 -4.000001
v 0.500000 11.000000 -3.000001
v 0.500000 11.000000 -4.000001
v 0.500000 12.000000 -3.000001
v 0.500000 12.000000 -4.000001
v 0.000000 11.000000 -4.000001
v -0.000000 12.000000 -3.000001
v -0.000000 12.000000 -4.000001
v -0.000000 12.000000 -3.000001
v 0.000000 12.000000 -4.000001
v -0.000000 13.000000 -3.000001
v -0.000000 13.000000 -4.000001
v 1.000000 13.000000 -3.000001
v 1.000000 13.000000 -4.000001
v 1.000000 14.000000 -3.000001
v 1.000000 14.000000 -4.000001
v -0.000000 13.000000 -4.000001
v -0.000000 14.000000 -3.000001
v -0.000000 14.000000 -4.000001
v 0.243750 14.368750 -3.131252
v 0.243750 14.556250 -3.131252
v -0.018750 14.368750 -3.131252
v -0.018750 14.556250 -3.131252
v -0.018750 14.368750 -3.000002
v -0.018750 14.556250 -3.000002
v 0.243750 14.368750 -3.000002
v 0.243750 14.556250 -3.000002
v 0.150000 14.000000 -4.149997
v -0.350000 14.400000 -2.999998
v -0.350000 14.400000 -3.649998
v 0.150000 14.000000 -2.999998
v 0.150000 14.400000 -2.999998
v 0.150000 14.299999 -2.999998
v 0.150000 14.299999 -4.149997
v 0.200000 14.299999 -4.199998
v 0.200000 14.400000 -2.999998
v 0.200000 14.299999 -2.999998
v 0.200000 14.400000 -4.199998
v 0.243750 14.368750 -3.368753
v 0.243750 14.556250 -3.368753
v -0.018750 14.368750 -3.368753
v -0.018750 14.556250 -3.368753
v 0.243750 14.368750 -3.631253
v 0.243750 14.556250 -3.631253
v -0.018750 14.368750 -3.631253
v -0.018750 14.556250 -3.631253
v 0.243750 14.368750 -3.831251
v 0.243750 14.556250 -3.831251
v -0.168750 14.368750 -3.831251
v -0.168750 14.556250 -3.831251
v 0.243750 14.368750 -4.243751
v 0.243750 14.556250 -4.243751
v -0.350000 14.400000 -0.350001
v -0.350000 14.400000 -1.000001
v 0.150000 14.000000 0.149999
v 0.150000 14.000000 -1.000001
v 0.150000 14.400000 -1.000001
v 0.150000 14.299999 0.149999
v 0.150000 14.299999 -1.000001
v 0.200000 14.299999 -1.000001
v 0.200000 14.400000 -1.000001
v 0.200000 14.400000 0.199999
v 0.200000 14.299999 0.199999
v -0.168747 14.368750 -0.168751
v -0.168747 14.556250 -0.168751
v 0.243753 14.368750 0.243749
v 0.243753 14.556250 0.243749
v 0.243753 14.368750 -0.168751
v 0.243753 14.556250 -0.168751
v -0.018747 14.368750 -0.368751
v -0.018747 14.556250 -0.368751
v -0.018747 14.368750 -0.631251
v -0.018747 14.556250 -0.631251
v 0.243753 14.368750 -0.368751
v 0.243753 14.556250 -0.368751
v 0.243753 14.368750 -0.631251
v 0.243753 14.556250 -0.631251
v -0.018747 14.368750 -0.868751
v -0.018747 14.556250 -0.868751
v 0.243753 14.368750 -0.868751
v 0.243753 14.556250 -0.868751
v -0.018747 14.368750 -1.000001
v -0.018747 14.556250 -1.000001
v 0.243753 14.368750 -1.000001
v 0.243753 14.556250 -1.000001
v -4.150000 1.000000 -0.050001
v -4.150000 1.000000 0.149999
v -3.950000 1.000000 0.149999
v -4.150000 0.900000 -0.050001
v -4.150000 0.900000 0.149999
v -3.950000 0.900000 0.149999
v -3.950000 1.000000 -0.050002
v -3.950000 0.900000 -0.050002
v -4.100000 0.900000 -0.000001
v -4.100000 0.900000 0.099999
v -4.000000 0.900000 0.099999
v -4.000000 0.900000 -0.000001
v -4.100000 0.000000 -0.000001
v -4.100000 0.000000 0.099999
v -4.000000 0.000000 0.099999
v -4.000000 0.000000 -0.000001
v -4.150000 2.000000 -0.050001
v -4.150000 2.000000 0.149999
v -3.950000 2.000000 0.149999
v -4.150000 1.900000 -0.050001
v -4.150000 1.900000 0.149999
v -3.950000 1.900000 0.149999
v -3.950000 2.000000 -0.050002
v -3.950000 1.900000 -0.050002
v -4.100000 1.900000 -0.000001
v -4.100000 1.900000 0.099999
v -4.000000 1.900000 0.099999
v -4.000000 1.900000 -0.000001
v -4.100000 1.000000 -0.000001
v -4.100000 1.000000 0.099999
v -4.000000 1.000000 0.099999
v -4.000000 1.000000 -0.000001
v -4.150000 3.000000 -0.050001
v -4.150000 3.000000 0.149999
v -3.950000 3.000000 0.149999
v -4.150000 2.900000 -0.050001
v -4.150000 2.900000 0.149999
v -3.950000 2.900000 0.149999
v -3.950000 3.000000 -0.050002
v -3.950000 2.900000 -0.050002
v -4.100000 2.900000 -0.000001
v -4.100000 2.900000 0.099999
v -4.000000 2.900000 0.099999
v -4.000000 2.900000 -0.000001
v -4.100000 2.000000 -0.000001
v -4.100000 2.000000 0.099999
v -4.000000 2.000000 0.099999
v -4.000000 2.000000 -0.000001
v -4.150000 4.000000 -0.050001
v -4.150000 4.000000 0.149999
v -3.950000 4.000000 0.149999
v -4.150000 3.900000 -0.050001
v -4.150000 3.900000 0.149999
v -3.950000 3.900000 0.149999
v -3.950000 4.000000 -0.050002
v -3.950000 3.900000 -0.050002
v -4.100000 3.900000 -0.000001
v -4.100000 3.900000 0.099999
v -4.000000 3.900000 0.099999
v -4.000000 3.900000 -0.000001
v -4.100000 3.000000 -0.000001
v -4.100000 3.000000 0.099999
v -4.000000 3.000000 0.099999
v -4.000000 3.000000 -0.000001
v -4.150000 5.000000 -0.050001
v -4.150000 5.000000 0.149999
v -3.950000 5.000000 0.149999
v -4.150000 4.900000 -0.050001
v -4.150000 4.900000 0.149999
v -3.950000 4.900000 0.149999
v -3.950000 5.000000 -0.050002
v -3.950000 4.900000 -0.050002
v -4.100000 4.900000 -0.000001
v -4.100000 4.900000 0.099999
v -4.000000 4.900000 0.099999
v -4.000000 4.900000 -0.000001
v -4.100000 4.000000 -0.000001
v -4.100000 4.000000 0.099999
v -4.000000 4.000000 0.099999
v -4.000000 4.000000 -0.000001
v -4.150000 6.000000 -0.050001
v -4.150000 6.000000 0.149999
v -3.950000 6.000000 0.149999
v -4.150000 5.900000 -0.050001
v -4.150000 5.900000 0.149999
v -3.950000 5.900000 0.149999
v -3.950000 6.000000 -0.050002
v -3.950000 5.900000 -0.050002
v -4.100000 5.900000 -0.000001
v -4.100000 5.900000 0.099999
v -4.000000 5.900000 0.099999
v -4.000000 5.900000 -0.000001
v -4.100000 5.000000 -0.000001
v -4.100000 5.000000 0.099999
v -4.000000 5.000000 0.099999
v -4.000000 5.000000 -0.000001
v -4.150000 7.000000 -0.050001
v -4.150000 7.000000 0.149999
v -3.950000 7.000000 0.149999
v -4.150000 6.900000 -0.050001
v -4.150000 6.900000 0.149999
v -3.950000 6.900000 0.149999
v -3.950000 7.000000 -0.050002
v -3.950000 6.900000 -0.050002
v -4.100000 6.900000 -0.000001
v -4.100000 6.900000 0.099999
v -4.000000 6.900000 0.099999
v -4.000000 6.900000 -0.000001
v -4.100000 6.000000 -0.000001
v -4.100000 6.000000 0.099999
v -4.000000 6.000000 0.099999
v -4.000000 6.000000 -0.000001
v -4.150000 8.000000 -0.050001
v -4.150000 8.000000 0.149999
v -3.950000 8.000000 0.149999
v -4.150000 7.900000 -0.050001
v -4.150000 7.900000 0.149999
v -3.950000 7.900000 0.149999
v -3.950000 8.000000 -0.050002
v -3.950000 7.900000 -0.050002
v -4.100000 7.900000 -0.000001
v -4.100000 7.900000 0.099999
v -4.000000 7.900000 0.099999
v -4.000000 7.900000 -0.000001
v -4.100000 7.000000 -0.000001
v -4.100000 7.000000 0.099999
v -4.000000 7.000000 0.099999
v -4.000000 7.000000 -0.000001
v -4.150000 9.000000 -0.050001
v -4.150000 9.000000 0.149999
v -3.950000 9.000000 0.149999
v -4.150000 8.900000 -0.050001
v -4.150000 8.900000 0.149999
v -3.950000 8.900000 0.149999
v -3.950000 9.000000 -0.050002
v -3.950000 8.900000 -0.050002
v -4.100000 8.900000 -0.000001
v -4.100000 8.900000 0.099999
v -4.000000 8.900000 0.099999
v -4.000000 8.900000 -0.000001
v -4.100000 8.000000 -0.000001
v -4.100000 8.000000 0.099999
v -4.000000 8.000000 0.099999
v -4.000000 8.000000 -0.000001
v -4.150000 10.000000 -0.050001
v -4.150000 10.000000 0.149999
v -3.950000 10.000000 0.149999
v -4.150000 9.900000 -0.050001
v -4.150000 9.900000 0.149999
v -3.950000 9.900000 0.149999
v -3.950000 10.000000 -0.050002
v -3.950000 9.900000 -0.050002
v -4.100000 9.900000 -0.000001
v -4.100000 9.900000 0.099999
v -4.000000 9.900000 0.099999
v -4.000000 9.900000 -0.000001
v -4.100000 9.000000 -0.000001
v -4.100000 9.000000 0.099999
v -4.000000 9.000000 0.099999
v -4.000000 9.000000 -0.000001
v -4.150000 11.000000 -0.050001
v -4.150000 11.000000 0.149999
v -3.950000 11.000000 0.149999
v -4.150000 10.900000 -0.050001
v -4.150000 10.900000 0.149999
v -3.950000 10.900000 0.149999
v -3.950000 11.000000 -0.050002
v -3.950000 10.900000 -0.050002
v -4.100000 10.900000 -0.000001
v -4.100000 10.900000 0.099999
v -4.000000 10.900000 0.099999
v -4.000000 10.900000 -0.000001
v -4.100000 10.000000 -0.000001
v -4.100000 10.000000 0.099999
v -4.000000 10.000000 0.099999
v -4.000000 10.000000 -0.000001
v -4.150000 12.000000 -0.050001
v -4.150000 12.000000 0.149999
v -3.950000 12.000000 0.149999
v -4.150000 11.900000 -0.050001
v -4.150000 11.900000 0.149999
v -3.950000 11.900000 0.149999
v -3.950000 12.000000 -0.050002
v -3.950000 11.900000 -0.050002
v -4.099999 11.900000 -0.000001
v -4.099999 11.900000 0.099999
v -4.000000 11.900000 0.099999
v -4.000000 11.900000 -0.000001
v -4.100000 11.000000 -0.000001
v -4.100000 11.000000 0.099999
v -4.000000 11.000000 0.099999
v -4.000000 11.000000 -0.000001
v -4.150000 13.000000 -0.050001
v -4.150000 13.000000 0.149999
v -3.950000 13.000000 0.149999
v -4.150000 12.900000 -0.050001
v -4.150000 12.900000 0.149999
v -3.950000 12.900000 0.149999
v -3.950000 13.000000 -0.050002
v -3.950000 12.900000 -0.050002
v -4.099999 12.900000 -0.000001
v -4.099999 12.900000 0.099999
v -4.000000 12.900000 0.099999
v -4.000000 12.900000 -0.000001
v -4.100000 12.000000 -0.000001
v -4.100000 12.000000 0.099999
v -4.000000 12.000000 0.099999
v -4.000000 12.000000 -0.000001
v -4.150000 14.000000 -0.050001
v -4.150000 14.000000 0.149999
v -3.950000 14.000000 0.149999
v -4.150000 13.900000 -0.050001
v -4.150000 13.900000 0.149999
v -3.950000 13.900000 0.149999
v -3.950000 14.000000 -0.050002
v -3.950000 13.900000 -0.050002
v -4.099999 13.900000 -0.000001
v -4.099999 13.900000 0.099999
v -4.000000 13.900000 0.099999
v -4.000000 13.900000 -0.000001
v -4.100000 13.000000 -0.000001
v -4.100000 13.000000 0.099999
v -4.000000 13.000000 0.099999
v -4.000000 13.000000 -0.000001
vn -0.0000 -0.0000 1.0000
vn 1.0000 -0.0000 -0.0000
vn -0.0000 1.0000 -0.0000
vn -0.0000 -0.0000 -1.0000
vn -1.0000 -0.0000 -0.0000
vt 0.588997 0.521713
vt 0.588997 0.000417
vt 0.697789 0.000417
vt 0.697789 0.521713
vt 0.438542 -0.142728
vt 0.438542 0.472656
vt 0.489824 0.472656
vt 0.489824 -0.142728
vt 0.584912 0.531404
vt 0.584912 0.576735
vt 0.566780 0.576735
vt 0.566780 0.531404
vt 0.648391 0.113442
vt 0.789080 0.113472
vt 0.789080 0.500387
vt 0.648391 0.500387
vt 0.789080 0.887332
vt 0.648391 0.887302
vt 0.403286 0.223068
vt 0.755286 0.223068
vt 0.403286 0.773068
vt 0.648879 0.746620
vt 0.789080 0.746620
vt 0.789080 0.992818
vt 0.648879 0.992818
vt 0.648879 0.007956
vt 0.789080 0.007956
vt 0.789080 0.254154
vt 0.648879 0.254154
vt 0.648879 0.500387
vt 0.747286 0.760568
vt 0.411286 0.760568
vt 0.411286 0.235568
vt 0.747286 0.235568
vt 0.648524 0.252903
vt 0.789080 0.253391
vt 0.789080 0.376261
vt 0.648524 0.376261
vt 0.789080 0.622489
vt 0.648524 0.622489
vt 0.789286 0.288068
vt 0.789286 0.708068
vt 0.579286 0.708068
vt 0.579286 0.288068
vt 0.789080 0.746132
vt 0.648524 0.746132
vt 0.771875 0.139323
vt 0.515465 0.472656
vt 0.771875 0.472656
vt 0.400018 0.090979
vt 0.799947 0.090979
vt 0.799946 0.500000
vt 0.400018 0.500000
vt 0.400018 0.000085
vt 0.799947 0.000085
vt 0.799947 0.045532
vt 0.400018 0.045532
vt 0.000090 0.500000
vt 0.400018 0.500000
vt 0.400018 0.999911
vt 0.000089 0.999911
vt 0.790025 0.499911
vt 0.790025 0.999911
vt 0.415025 0.999911
vt 0.415025 0.499911
vt 0.799946 0.500000
vt 0.799946 0.999911
vt 0.400018 0.999911
vt 0.415025 0.499911
vt 0.790025 0.499911
vt 0.790025 0.999911
vt 0.602525 0.499911
vt 0.602525 0.999911
vt 0.415025 0.999911
vt 0.415025 0.499911
vt 0.602525 0.499911
vt 0.790025 0.499911
vt 0.790025 0.999911
vt 0.602525 0.499911
vt 0.602525 0.999911
vt 0.415025 0.499911
vt 0.000089 0.000090
vt 0.400018 0.000090
vt 0.400018 0.500000
vt 0.400018 0.000090
vt 0.799946 0.000090
vt 0.799946 0.500000
vt 0.602525 0.499911
vt 0.602525 0.999911
vt 0.415025 0.999911
vt 0.415025 0.499911
vt 0.790025 0.499911
vt 0.602525 0.999911
vt 0.415025 0.499911
vt 0.790025 0.999911
vt 0.415025 0.999911
vt 0.415025 0.499911
vt 0.790025 0.499911
vt 0.790025 0.999911
vt 0.790025 0.499911
vt 0.415026 0.499911
vt 0.602525 0.499911
vt 0.602525 0.999911
vt 0.415025 0.999911
vt 0.415025 0.499911
vt 0.602525 0.499911
vt 0.790025 0.499911
vt 0.602525 0.499911
vt 0.790025 0.499911
vt 0.602525 0.499911
vt 0.602525 0.499911
vt 0.415025 0.499911
vt 0.789080 0.746620
vt 0.648524 0.746132
vt 0.648524 0.623262
vt 0.789080 0.623262
vt 0.648524 0.377034
vt 0.789080 0.377034
vt 0.579286 0.708068
vt 0.369286 0.708068
vt 0.369286 0.288068
vt 0.579286 0.288068
vt 0.648524 0.253391
vt 0.588164 0.000417
vt 0.588163 0.530571
vt 0.477522 0.530571
vt 0.477522 0.000417
vt 0.438542 -0.142728
vt 0.489824 -0.142728
vt 0.547507 0.577505
vt 0.547507 0.531404
vt 0.565947 0.531404
vt 0.565947 0.577505
vt 0.747286 0.760568
vt 0.411286 0.760568
vt 0.411286 0.235568
vt 0.747286 0.235568
vt 0.403286 0.773068
vt 0.755286 0.773068
vt 0.771875 0.139323
vt 0.997954 0.554803
vt 0.997954 0.777025
vt 0.803510 0.777025
vt 0.803510 0.554803
vt 0.997954 0.777778
vt 0.997955 1.000000
vt 0.803510 1.000000
vt 0.803510 0.777778
vt 0.997954 0.554802
vt 0.803510 0.554802
vt 0.803510 0.332580
vt 0.997954 0.332580
vt 0.803510 0.607231
vt 0.997954 0.607231
vt 0.997954 0.829454
vt 0.803510 0.829454
vt 0.997954 1.227622
vt 0.803509 1.227622
vt 0.803509 0.227622
vt 0.997954 0.227622
vt 0.997955 1.227623
vt 0.803510 1.227623
vt 0.803510 0.227622
vt 0.997955 0.227622
vt 0.997955 1.000000
vt 0.803510 1.000000
vt 0.803510 0.000000
vt 0.997955 0.000000
vt 0.803509 1.000000
vt 0.803509 -0.000000
vt 0.997955 -0.000000
vt 0.579286 0.708068
vt 0.369286 0.708068
vt 0.369286 0.288068
vt 0.648524 0.252902
vt 0.789080 0.253390
vt 0.588997 0.963354
vt 0.588997 0.522546
vt 0.694791 0.522546
vt 0.694791 0.963354
vt 0.438542 0.985477
vt 0.438542 0.472656
vt 0.489824 0.985477
vt 0.206184 0.598536
vt 0.206184 0.554455
vt 0.223817 0.554455
vt 0.223817 0.598536
vt 0.584413 0.577568
vt 0.584413 0.621649
vt 0.566780 0.621649
vt 0.566780 0.577568
vt 0.789286 0.288068
vt 0.789286 0.708068
vt 0.411286 0.235568
vt 0.515465 0.985477
vt 0.771875 0.985477
s 0
usemtl Material.020
f 3/1/1 4/2/1 7/3/1 6/4/1
f 11/5/1 8/6/1 9/7/1 10/8/1
f 7/9/2 5/10/2 9/11/2 8/12/2
f 12/13/2 13/14/2 17/15/2 16/16/2
f 16/16/1 17/15/1 15/17/1 14/18/1
f 17/19/3 13/20/3 15/21/3
f 18/22/4 19/23/4 21/24/4 20/25/4
f 20/26/2 21/27/2 25/28/2 24/29/2
f 24/29/1 25/28/1 23/15/1 22/30/1
f 22/30/5 23/15/5 19/23/5 18/22/5
f 25/31/3 21/32/3 19/33/3 23/34/3
f 32/35/1 33/36/1 29/37/1 28/38/1
f 28/38/5 29/37/5 27/39/5 26/40/5
f 33/41/3 31/42/3 27/43/3 29/44/3
f 26/40/4 27/39/4 31/45/4 30/46/4
f 1/47/3 10/8/3 9/7/3 5/48/3 2/49/3
f 36/50/1 37/51/1 35/52/1 34/53/1
f 39/54/1 40/55/1 41/56/1 38/57/1
f 37/51/3 36/50/3 38/57/3 41/56/3
f 44/50/1 45/51/1 43/52/1 42/53/1
f 47/54/1 48/55/1 49/56/1 46/57/1
f 45/51/3 44/50/3 46/57/3 49/56/3
f 52/50/1 53/51/1 51/52/1 50/53/1
f 55/54/1 56/55/1 57/56/1 54/57/1
f 53/51/3 52/50/3 54/57/3 57/56/3
f 60/50/1 61/51/1 59/52/1 58/53/1
f 63/54/1 64/55/1 65/56/1 62/57/1
f 61/51/3 60/50/3 62/57/3 65/56/3
f 94/58/1 95/59/1 97/60/1 96/61/1
f 157/58/1 158/59/1 160/60/1 159/61/1
f 197/58/1 198/59/1 200/60/1 199/61/1
f 249/58/1 247/82/1 248/83/1 250/84/1
f 349/58/1 350/59/1 352/60/1 351/61/1
f 386/113/4 387/114/4 385/115/4 384/116/4
f 384/116/2 385/115/2 383/117/2 382/118/2
f 385/119/3 387/120/3 389/121/3 383/122/3
f 382/118/1 383/117/1 389/123/1 388/36/1
f 393/124/1 390/125/1 396/126/1 395/127/1
f 399/6/1 397/128/1 400/129/1 398/7/1
f 394/130/5 395/131/5 399/132/5 398/133/5
f 401/28/5 402/29/5 404/26/5 403/27/5
f 403/24/4 404/25/4 408/22/4 407/23/4
f 407/23/2 408/22/2 406/30/2 405/15/2
f 405/15/1 406/30/1 402/29/1 401/28/1
f 408/134/3 404/135/3 402/136/3 406/137/3
f 409/16/5 410/15/5 412/17/5 411/18/5
f 413/13/1 414/14/1 410/15/1 409/16/1
f 414/20/3 412/138/3 410/139/3
f 394/48/3 398/7/3 400/129/3 392/140/3 391/49/3
f 417/141/2 416/142/2 419/143/2 420/144/2
f 416/145/1 415/146/1 418/147/1 419/148/1
f 418/149/5 415/150/5 421/151/5 422/152/5
f 417/153/4 420/154/4 422/155/4 421/156/4
f 425/157/2 424/158/2 428/159/2 429/160/2
f 423/161/5 426/162/5 430/163/5 427/164/5
f 424/165/1 423/166/1 427/167/1 428/168/1
f 426/165/4 425/169/4 429/170/4 430/171/4
f 433/141/2 432/142/2 435/143/2 436/144/2
f 432/145/1 431/146/1 434/147/1 435/148/1
f 434/149/5 431/150/5 437/151/5 438/152/5
f 433/153/4 436/154/4 438/155/4 437/156/4
f 441/157/2 440/158/2 444/159/2 445/160/2
f 439/161/5 442/162/5 446/163/5 443/164/5
f 440/165/1 439/166/1 443/167/1 444/168/1
f 442/165/4 441/169/4 445/170/4 446/171/4
f 449/141/2 448/142/2 451/143/2 452/144/2
f 448/145/1 447/146/1 450/147/1 451/148/1
f 450/149/5 447/150/5 453/151/5 454/152/5
f 449/153/4 452/154/4 454/155/4 453/156/4
f 457/157/2 456/158/2 460/159/2 461/160/2
f 455/161/5 458/162/5 462/163/5 459/164/5
f 456/165/1 455/166/1 459/167/1 460/168/1
f 458/165/4 457/169/4 461/170/4 462/171/4
f 465/141/2 464/142/2 467/143/2 468/144/2
f 464/145/1 463/146/1 466/147/1 467/148/1
f 466/149/5 463/150/5 469/151/5 470/152/5
f 465/153/4 468/154/4 470/155/4 469/156/4
f 473/157/2 472/158/2 476/159/2 477/160/2
f 471/161/5 474/162/5 478/163/5 475/164/5
f 472/165/1 471/166/1 475/167/1 476/168/1
f 474/165/4 473/169/4 477/170/4 478/171/4
f 481/141/2 480/142/2 483/143/2 484/144/2
f 480/145/1 479/146/1 482/147/1 483/148/1
f 482/149/5 479/150/5 485/151/5 486/152/5
f 481/153/4 484/154/4 486/155/4 485/156/4
f 489/157/2 488/158/2 492/159/2 493/160/2
f 487/161/5 490/162/5 494/163/5 491/164/5
f 488/165/1 487/166/1 491/167/1 492/168/1
f 490/165/4 489/169/4 493/170/4 494/171/4
f 497/141/2 496/142/2 499/143/2 500/144/2
f 496/145/1 495/146/1 498/147/1 499/148/1
f 498/149/5 495/150/5 501/151/5 502/152/5
f 497/153/4 500/154/4 502/155/4 501/156/4
f 505/157/2 504/158/2 508/159/2 509/160/2
f 503/161/5 506/162/5 510/163/5 507/164/5
f 504/165/1 503/166/1 507/167/1 508/168/1
f 506/165/4 505/169/4 509/170/4 510/171/4
f 513/141/2 512/142/2 515/143/2 516/144/2
f 512/145/1 511/146/1 514/147/1 515/148/1
f 514/149/5 511/150/5 517/151/5 518/152/5
f 513/153/4 516/154/4 518/155/4 517/156/4
f 521/157/2 520/158/2 524/159/2 525/160/2
f 519/161/5 522/162/5 526/163/5 523/164/5
f 520/165/1 519/166/1 523/167/1 524/168/1
f 522/165/4 521/169/4 525/170/4 526/171/4
f 529/141/2 528/142/2 531/143/2 532/144/2
f 528/145/1 527/146/1 530/147/1 531/148/1
f 530/149/5 527/150/5 533/151/5 534/152/5
f 529/153/4 532/154/4 534/155/4 533/156/4
f 537/157/2 536/158/2 540/159/2 541/160/2
f 535/161/5 538/162/5 542/163/5 539/164/5
f 536/165/1 535/166/1 539/167/1 540/168/1
f 538/165/4 537/169/4 541/170/4 542/171/4
f 545/141/2 544/142/2 547/143/2 548/144/2
f 544/145/1 543/146/1 546/147/1 547/148/1
f 546/149/5 543/150/5 549/151/5 550/152/5
f 545/153/4 548/154/4 550/155/4 549/156/4
f 553/157/2 552/158/2 556/159/2 557/160/2
f 551/161/5 554/162/5 558/163/5 555/164/5
f 552/165/1 551/166/1 555/167/1 556/168/1
f 554/165/4 553/169/4 557/170/4 558/171/4
f 561/141/2 560/142/2 563/143/2 564/144/2
f 560/145/1 559/146/1 562/147/1 563/148/1
f 562/149/5 559/150/5 565/151/5 566/152/5
f 561/153/4 564/154/4 566/155/4 565/156/4
f 569/157/2 568/158/2 572/159/2 573/160/2
f 567/161/5 570/162/5 574/163/5 571/164/5
f 568/165/1 567/166/1 571/167/1 572/168/1
f 570/165/4 569/169/4 573/170/4 574/171/4
f 577/141/2 576/142/2 579/143/2 580/144/2
f 576/145/1 575/146/1 578/147/1 579/148/1
f 578/149/5 575/150/5 581/151/5 582/152/5
f 577/153/4 580/154/4 582/155/4 581/156/4
f 585/157/2 584/158/2 588/159/2 589/160/2
f 583/161/5 586/162/5 590/163/5 587/164/5
f 584/165/1 583/166/1 587/167/1 588/168/1
f 586/165/4 585/169/4 589/170/4 590/171/4
f 593/141/2 592/142/2 595/143/2 596/144/2
f 592/145/1 591/146/1 594/147/1 595/148/1
f 594/149/5 591/150/5 597/151/5 598/152/5
f 593/153/4 596/154/4 598/155/4 597/156/4
f 601/157/2 600/158/2 604/159/2 605/160/2
f 599/161/5 602/162/5 606/163/5 603/164/5
f 600/165/1 599/166/1 603/167/1 604/168/1
f 602/165/4 601/169/4 605/170/4 606/171/4
f 609/141/2 608/142/2 611/143/2 612/144/2
f 608/145/1 607/146/1 610/147/1 611/148/1
f 610/149/5 607/150/5 613/151/5 614/152/5
f 609/153/4 612/154/4 614/155/4 613/156/4
f 617/157/2 616/158/2 620/159/2 621/160/2
f 615/161/5 618/162/5 622/163/5 619/164/5
f 616/165/1 615/166/1 619/167/1 620/168/1
f 618/165/4 617/169/4 621/170/4 622/171/4
f 625/141/2 624/142/2 627/143/2 628/144/2
f 624/145/1 623/146/1 626/147/1 627/148/1
f 626/149/5 623/150/5 629/151/5 630/152/5
f 625/153/4 628/154/4 630/155/4 629/156/4
f 633/157/2 632/158/2 636/159/2 637/160/2
f 631/161/5 634/162/5 638/163/5 635/164/5
f 632/165/1 631/166/1 635/167/1 636/168/1
f 634/165/4 633/169/4 637/170/4 638/171/4
f 643/45/4 644/46/4 642/40/4 641/39/4
f 641/39/2 642/40/2 640/38/2 639/37/2
f 642/172/3 644/173/3 646/174/3 640/44/3
f 639/37/1 640/38/1 646/175/1 645/176/1
f 649/177/1 650/178/1 654/179/1 653/180/1
f 658/181/1 655/182/1 656/7/1 657/183/1
f 651/184/5 653/185/5 658/186/5 657/187/5
f 654/188/2 652/189/2 656/190/2 655/191/2
f 659/117/5 660/118/5 662/116/5 661/115/5
f 665/123/1 666/36/1 660/118/1 659/117/1
f 664/122/3 662/192/3 660/193/3 666/119/3
f 661/115/4 662/116/4 664/23/4 663/114/4
f 667/28/5 668/29/5 670/26/5 669/27/5
f 669/24/4 670/25/4 674/22/4 673/23/4
f 673/23/2 674/22/2 672/30/2 671/15/2
f 671/15/1 672/30/1 668/29/1 667/28/1
f 674/194/3 670/137/3 668/134/3 672/135/3
f 651/195/3 657/183/3 656/7/3 652/48/3 648/49/3 647/196/3
f 679/45/4 680/46/4 678/40/4 677/39/4
f 677/39/2 678/40/2 676/38/2 675/37/2
f 678/172/3 680/173/3 682/174/3 676/44/3
f 675/37/1 676/38/1 682/175/1 681/176/1
f 685/177/1 686/178/1 690/179/1 689/180/1
f 694/181/1 691/182/1 692/7/1 693/183/1
f 687/184/5 689/185/5 694/186/5 693/187/5
f 690/188/2 688/189/2 692/190/2 691/191/2
f 695/117/5 696/118/5 698/116/5 697/115/5
f 701/123/1 702/36/1 696/118/1 695/117/1
f 700/122/3 698/192/3 696/193/3 702/119/3
f 697/115/4 698/116/4 700/23/4 699/114/4
f 703/28/5 704/29/5 706/26/5 705/27/5
f 705/24/4 706/25/4 710/22/4 709/23/4
f 709/23/2 710/22/2 708/30/2 707/15/2
f 707/15/1 708/30/1 704/29/1 703/28/1
f 710/194/3 706/137/3 704/134/3 708/135/3
f 687/195/3 693/183/3 692/7/3 688/48/3 684/49/3 683/196/3
f 713/141/4 712/142/4 715/143/4 716/144/4
f 712/145/2 711/146/2 714/147/2 715/148/2
f 714/149/1 711/150/1 717/151/1 718/152/1
f 713/153/5 716/154/5 718/155/5 717/156/5
f 721/157/4 720/158/4 724/159/4 725/160/4
f 719/161/1 722/162/1 726/163/1 723/164/1
f 720/165/2 719/166/2 723/167/2 724/168/2
f 722/165/5 721/169/5 725/170/5 726/171/5
f 729/141/4 728/142/4 731/143/4 732/144/4
f 728/145/2 727/146/2 730/147/2 731/148/2
f 730/149/1 727/150/1 733/151/1 734/152/1
f 729/153/5 732/154/5 734/155/5 733/156/5
f 737/157/4 736/158/4 740/159/4 741/160/4
f 735/161/1 738/162/1 742/163/1 739/164/1
f 736/165/2 735/166/2 739/167/2 740/168/2
f 738/165/5 737/169/5 741/170/5 742/171/5
f 745/141/4 744/142/4 747/143/4 748/144/4
f 744/145/2 743/146/2 746/147/2 747/148/2
f 746/149/1 743/150/1 749/151/1 750/152/1
f 745/153/5 748/154/5 750/155/5 749/156/5
f 753/157/4 752/158/4 756/159/4 757/160/4
f 751/161/1 754/162/1 758/163/1 755/164/1
f 752/165/2 751/166/2 755/167/2 756/168/2
f 754/165/5 753/169/5 757/170/5 758/171/5
f 761/141/4 760/142/4 763/143/4 764/144/4
f 760/145/2 759/146/2 762/147/2 763/148/2
f 762/149/1 759/150/1 765/151/1 766/152/1
f 761/153/5 764/154/5 766/155/5 765/156/5
f 769/157/4 768/158/4 772/159/4 773/160/4
f 767/161/1 770/162/1 774/163/1 771/164/1
f 768/165/2 767/166/2 771/167/2 772/168/2
f 770/165/5 769/169/5 773/170/5 774/171/5
f 777/141/4 776/142/4 779/143/4 780/144/4
f 776/145/2 775/146/2 778/147/2 779/148/2
f 778/149/1 775/150/1 781/151/1 782/152/1
f 777/153/5 780/154/5 782/155/5 781/156/5
f 785/157/4 784/158/4 788/159/4 789/160/4
f 783/161/1 786/162/1 790/163/1 787/164/1
f 784/165/2 783/166/2 787/167/2 788/168/2
f 786/165/5 785/169/5 789/170/5 790/171/5
f 793/141/4 792/142/4 795/143/4 796/144/4
f 792/145/2 791/146/2 794/147/2 795/148/2
f 794/149/1 791/150/1 797/151/1 798/152/1
f 793/153/5 796/154/5 798/155/5 797/156/5
f 801/157/4 800/158/4 804/159/4 805/160/4
f 799/161/1 802/162/1 806/163/1 803/164/1
f 800/165/2 799/166/2 803/167/2 804/168/2
f 802/165/5 801/169/5 805/170/5 806/171/5
f 809/141/4 808/142/4 811/143/4 812/144/4
f 808/145/2 807/146/2 810/147/2 811/148/2
f 810/149/1 807/150/1 813/151/1 814/152/1
f 809/153/5 812/154/5 814/155/5 813/156/5
f 817/157/4 816/158/4 820/159/4 821/160/4
f 815/161/1 818/162/1 822/163/1 819/164/1
f 816/165/2 815/166/2 819/167/2 820/168/2
f 818/165/5 817/169/5 821/170/5 822/171/5
f 825/141/4 824/142/4 827/143/4 828/144/4
f 824/145/2 823/146/2 826/147/2 827/148/2
f 826/149/1 823/150/1 829/151/1 830/152/1
f 825/153/5 828/154/5 830/155/5 829/156/5
f 833/157/4 832/158/4 836/159/4 837/160/4
f 831/161/1 834/162/1 838/163/1 835/164/1
f 832/165/2 831/166/2 835/167/2 836/168/2
f 834/165/5 833/169/5 837/170/5 838/171/5
f 841/141/4 840/142/4 843/143/4 844/144/4
f 840/145/2 839/146/2 842/147/2 843/148/2
f 842/149/1 839/150/1 845/151/1 846/152/1
f 841/153/5 844/154/5 846/155/5 845/156/5
f 849/157/4 848/158/4 852/159/4 853/160/4
f 847/161/1 850/162/1 854/163/1 851/164/1
f 848/165/2 847/166/2 851/167/2 852/168/2
f 850/165/5 849/169/5 853/170/5 854/171/5
f 857/141/4 856/142/4 859/143/4 860/144/4
f 856/145/2 855/146/2 858/147/2 859/148/2
f 858/149/1 855/150/1 861/151/1 862/152/1
f 857/153/5 860/154/5 862/155/5 861/156/5
f 865/157/4 864/158/4 868/159/4 869/160/4
f 863/161/1 866/162/1 870/163/1 867/164/1
f 864/165/2 863/166/2 867/167/2 868/168/2
f 866/165/5 865/169/5 869/170/5 870/171/5
f 873/141/4 872/142/4 875/143/4 876/144/4
f 872/145/2 871/146/2 874/147/2 875/148/2
f 874/149/1 871/150/1 877/151/1 878/152/1
f 873/153/5 876/154/5 878/155/5 877/156/5
f 881/157/4 880/158/4 884/159/4 885/160/4
f 879/161/1 882/162/1 886/163/1 883/164/1
f 880/165/2 879/166/2 883/167/2 884/168/2
f 882/165/5 881/169/5 885/170/5 886/171/5
f 889/141/4 888/142/4 891/143/4 892/144/4
f 888/145/2 887/146/2 890/147/2 891/148/2
f 890/149/1 887/150/1 893/151/1 894/152/1
f 889/153/5 892/154/5 894/155/5 893/156/5
f 897/157/4 896/158/4 900/159/4 901/160/4
f 895/161/1 898/162/1 902/163/1 899/164/1
f 896/165/2 895/166/2 899/167/2 900/168/2
f 898/165/5 897/169/5 901/170/5 902/171/5
f 905/141/4 904/142/4 907/143/4 908/144/4
f 904/145/2 903/146/2 906/147/2 907/148/2
f 906/149/1 903/150/1 909/151/1 910/152/1
f 905/153/5 908/154/5 910/155/5 909/156/5
f 913/157/4 912/158/4 916/159/4 917/160/4
f 911/161/1 914/162/1 918/163/1 915/164/1
f 912/165/2 911/166/2 915/167/2 916/168/2
f 914/165/5 913/169/5 917/170/5 918/171/5
f 921/141/4 920/142/4 923/143/4 924/144/4
f 920/145/2 919/146/2 922/147/2 923/148/2
f 922/149/1 919/150/1 925/151/1 926/152/1
f 921/153/5 924/154/5 926/155/5 925/156/5
f 929/157/4 928/158/4 932/159/4 933/160/4
f 927/161/1 930/162/1 934/163/1 931/164/1
f 928/165/2 927/166/2 931/167/2 932/168/2
f 930/165/5 929/169/5 933/170/5 934/171/5
f 937/50/2 938/51/2 936/52/2 935/53/2
f 940/54/2 941/55/2 942/56/2 939/57/2
f 938/51/3 937/50/3 939/57/3 942/56/3
f 945/50/2 946/51/2 944/52/2 943/53/2
f 948/54/2 949/55/2 950/56/2 947/57/2
f 946/51/3 945/50/3 947/57/3 950/56/3
f 953/50/2 954/51/2 952/52/2 951/53/2
f 956/54/2 957/55/2 958/56/2 955/57/2
f 954/51/3 953/50/3 955/57/3 958/56/3
f 961/50/2 962/51/2 960/52/2 959/53/2
f 964/54/2 965/55/2 966/56/2 963/57/2
f 962/51/3 961/50/3 963/57/3 966/56/3
f 971/45/5 972/46/5 970/40/5 969/39/5
f 969/39/4 970/40/4 968/38/4 967/37/4
f 970/172/3 972/173/3 974/174/3 968/44/3
f 967/37/2 968/38/2 974/175/2 973/176/2
f 977/177/2 978/178/2 982/179/2 981/180/2
f 986/181/2 983/182/2 984/7/2 985/183/2
f 979/184/1 981/185/1 986/186/1 985/187/1
f 982/188/4 980/189/4 984/190/4 983/191/4
f 987/117/1 988/118/1 990/116/1 989/115/1
f 993/123/2 994/36/2 988/118/2 987/117/2
f 992/122/3 990/192/3 988/193/3 994/119/3
f 989/115/5 990/116/5 992/23/5 991/114/5
f 995/28/1 996/29/1 998/26/1 997/27/1
f 997/24/5 998/25/5 1002/22/5 1001/23/5
f 1001/23/4 1002/22/4 1000/30/4 999/15/4
f 999/15/2 1000/30/2 996/29/2 995/28/2
f 1002/194/3 998/137/3 996/134/3 1000/135/3
f 979/195/3 985/183/3 984/7/3 980/48/3 976/49/3 975/196/3
f 1007/45/5 1008/46/5 1006/40/5 1005/39/5
f 1005/39/4 1006/40/4 1004/38/4 1003/37/4
f 1006/172/3 1008/173/3 1010/174/3 1004/44/3
f 1003/37/2 1004/38/2 1010/175/2 1009/176/2
f 1013/177/2 1014/178/2 1018/179/2 1017/180/2
f 1022/181/2 1019/182/2 1020/7/2 1021/183/2
f 1015/184/1 1017/185/1 1022/186/1 1021/187/1
f 1018/188/4 1016/189/4 1020/190/4 1019/191/4
f 1023/117/1 1024/118/1 1026/116/1 1025/115/1
f 1029/123/2 1030/36/2 1024/118/2 1023/117/2
f 1028/122/3 1026/192/3 1024/193/3 1030/119/3
f 1025/115/5 1026/116/5 1028/23/5 1027/114/5
f 1031/28/1 1032/29/1 1034/26/1 1033/27/1
f 1033/24/5 1034/25/5 1038/22/5 1037/23/5
f 1037/23/4 1038/22/4 1036/30/4 1035/15/4
f 1035/15/2 1036/30/2 1032/29/2 1031/28/2
f 1038/194/3 1034/137/3 1032/134/3 1036/135/3
f 1015/195/3 1021/183/3 1020/7/3 1016/48/3 1012/49/3 1011/196/3
f 1041/58/2 1039/82/2 1040/83/2 1042/84/2
f 1045/58/2 1043/82/2 1044/83/2 1046/84/2
f 1049/58/2 1047/82/2 1048/83/2 1050/84/2
f 1097/58/2 1098/59/2 1100/60/2 1099/61/2
f 1103/58/2 1101/82/2 1102/83/2 1104/84/2
f 1146/58/2 1144/82/2 1145/83/2 1147/84/2
f 1178/58/2 1176/82/2 1177/83/2 1179/84/2
f 1200/58/2 1201/59/2 1203/60/2 1202/61/2
f 1230/58/2 1228/82/2 1229/83/2 1231/84/2
f 1283/58/2 1281/82/2 1282/83/2 1284/84/2
f 1338/58/2 1336/82/2 1337/83/2 1339/84/2
f 1351/113/5 1352/114/5 1350/115/5 1349/116/5
f 1349/116/4 1350/115/4 1348/117/4 1347/118/4
f 1350/119/3 1352/120/3 1354/121/3 1348/122/3
f 1347/118/2 1348/117/2 1354/123/2 1353/36/2
f 1358/124/2 1355/125/2 1361/126/2 1360/127/2
f 1364/6/2 1362/128/2 1365/129/2 1363/7/2
f 1359/130/1 1360/131/1 1364/132/1 1363/133/1
f 1366/28/1 1367/29/1 1369/26/1 1368/27/1
f 1368/24/5 1369/25/5 1373/22/5 1372/23/5
f 1372/23/4 1373/22/4 1371/30/4 1370/15/4
f 1370/15/2 1371/30/2 1367/29/2 1366/28/2
f 1373/134/3 1369/135/3 1367/136/3 1371/137/3
f 1374/16/1 1375/15/1 1377/17/1 1376/18/1
f 1378/13/2 1379/14/2 1375/15/2 1374/16/2
f 1379/20/3 1377/138/3 1375/139/3
f 1359/48/3 1363/7/3 1365/129/3 1357/140/3 1356/49/3
f 1382/1/2 1383/2/2 1386/3/2 1385/4/2
f 1390/5/2 1387/6/2 1388/7/2 1389/8/2
f 1386/9/4 1384/10/4 1388/11/4 1387/12/4
f 1391/13/4 1392/14/4 1396/15/4 1395/16/4
f 1395/16/2 1396/15/2 1394/17/2 1393/18/2
f 1396/19/3 1392/20/3 1394/21/3
f 1397/22/5 1398/23/5 1400/24/5 1399/25/5
f 1399/26/4 1400/27/4 1404/28/4 1403/29/4
f 1403/29/2 1404/28/2 1402/15/2 1401/30/2
f 1401/30/1 1402/15/1 1398/23/1 1397/22/1
f 1404/31/3 1400/32/3 1398/33/3 1402/34/3
f 1411/35/2 1412/36/2 1408/37/2 1407/38/2
f 1407/38/1 1408/37/1 1406/39/1 1405/40/1
f 1412/41/3 1410/42/3 1406/43/3 1408/44/3
f 1405/40/5 1406/39/5 1410/45/5 1409/46/5
f 1380/47/3 1389/8/3 1388/7/3 1384/48/3 1381/49/3
f 1415/141/1 1414/142/1 1417/143/1 1418/144/1
f 1414/145/5 1413/146/5 1416/147/5 1417/148/5
f 1416/149/4 1413/150/4 1419/151/4 1420/152/4
f 1415/153/2 1418/154/2 1420/155/2 1419/156/2
f 1423/157/1 1422/158/1 1426/159/1 1427/160/1
f 1421/161/4 1424/162/4 1428/163/4 1425/164/4
f 1422/165/5 1421/166/5 1425/167/5 1426/168/5
f 1424/165/2 1423/169/2 1427/170/2 1428/171/2
f 1431/141/1 1430/142/1 1433/143/1 1434/144/1
f 1430/145/5 1429/146/5 1432/147/5 1433/148/5
f 1432/149/4 1429/150/4 1435/151/4 1436/152/4
f 1431/153/2 1434/154/2 1436/155/2 1435/156/2
f 1439/157/1 1438/158/1 1442/159/1 1443/160/1
f 1437/161/4 1440/162/4 1444/163/4 1441/164/4
f 1438/165/5 1437/166/5 1441/167/5 1442/168/5
f 1440/165/2 1439/169/2 1443/170/2 1444/171/2
f 1447/141/1 1446/142/1 1449/143/1 1450/144/1
f 1446/145/5 1445/146/5 1448/147/5 1449/148/5
f 1448/149/4 1445/150/4 1451/151/4 1452/152/4
f 1447/153/2 1450/154/2 1452/155/2 1451/156/2
f 1455/157/1 1454/158/1 1458/159/1 1459/160/1
f 1453/161/4 1456/162/4 1460/163/4 1457/164/4
f 1454/165/5 1453/166/5 1457/167/5 1458/168/5
f 1456/165/2 1455/169/2 1459/170/2 1460/171/2
f 1463/141/1 1462/142/1 1465/143/1 1466/144/1
f 1462/145/5 1461/146/5 1464/147/5 1465/148/5
f 1464/149/4 1461/150/4 1467/151/4 1468/152/4
f 1463/153/2 1466/154/2 1468/155/2 1467/156/2
f 1471/157/1 1470/158/1 1474/159/1 1475/160/1
f 1469/161/4 1472/162/4 1476/163/4 1473/164/4
f 1470/165/5 1469/166/5 1473/167/5 1474/168/5
f 1472/165/2 1471/169/2 1475/170/2 1476/171/2
f 1479/141/1 1478/142/1 1481/143/1 1482/144/1
f 1478/145/5 1477/146/5 1480/147/5 1481/148/5
f 1480/149/4 1477/150/4 1483/151/4 1484/152/4
f 1479/153/2 1482/154/2 1484/155/2 1483/156/2
f 1487/157/1 1486/158/1 1490/159/1 1491/160/1
f 1485/161/4 1488/162/4 1492/163/4 1489/164/4
f 1486/165/5 1485/166/5 1489/167/5 1490/168/5
f 1488/165/2 1487/169/2 1491/170/2 1492/171/2
f 1495/141/1 1494/142/1 1497/143/1 1498/144/1
f 1494/145/5 1493/146/5 1496/147/5 1497/148/5
f 1496/149/4 1493/150/4 1499/151/4 1500/152/4
f 1495/153/2 1498/154/2 1500/155/2 1499/156/2
f 1503/157/1 1502/158/1 1506/159/1 1507/160/1
f 1501/161/4 1504/162/4 1508/163/4 1505/164/4
f 1502/165/5 1501/166/5 1505/167/5 1506/168/5
f 1504/165/2 1503/169/2 1507/170/2 1508/171/2
f 1511/141/1 1510/142/1 1513/143/1 1514/144/1
f 1510/145/5 1509/146/5 1512/147/5 1513/148/5
f 1512/149/4 1509/150/4 1515/151/4 1516/152/4
f 1511/153/2 1514/154/2 1516/155/2 1515/156/2
f 1519/157/1 1518/158/1 1522/159/1 1523/160/1
f 1517/161/4 1520/162/4 1524/163/4 1521/164/4
f 1518/165/5 1517/166/5 1521/167/5 1522/168/5
f 1520/165/2 1519/169/2 1523/170/2 1524/171/2
f 1527/141/1 1526/142/1 1529/143/1 1530/144/1
f 1526/145/5 1525/146/5 1528/147/5 1529/148/5
f 1528/149/4 1525/150/4 1531/151/4 1532/152/4
f 1527/153/2 1530/154/2 1532/155/2 1531/156/2
f 1535/157/1 1534/158/1 1538/159/1 1539/160/1
f 1533/161/4 1536/162/4 1540/163/4 1537/164/4
f 1534/165/5 1533/166/5 1537/167/5 1538/168/5
f 1536/165/2 1535/169/2 1539/170/2 1540/171/2
f 1543/141/1 1542/142/1 1545/143/1 1546/144/1
f 1542/145/5 1541/146/5 1544/147/5 1545/148/5
f 1544/149/4 1541/150/4 1547/151/4 1548/152/4
f 1543/153/2 1546/154/2 1548/155/2 1547/156/2
f 1551/157/1 1550/158/1 1554/159/1 1555/160/1
f 1549/161/4 1552/162/4 1556/163/4 1553/164/4
f 1550/165/5 1549/166/5 1553/167/5 1554/168/5
f 1552/165/2 1551/169/2 1555/170/2 1556/171/2
f 1559/141/1 1558/142/1 1561/143/1 1562/144/1
f 1558/145/5 1557/146/5 1560/147/5 1561/148/5
f 1560/149/4 1557/150/4 1563/151/4 1564/152/4
f 1559/153/2 1562/154/2 1564/155/2 1563/156/2
f 1567/157/1 1566/158/1 1570/159/1 1571/160/1
f 1565/161/4 1568/162/4 1572/163/4 1569/164/4
f 1566/165/5 1565/166/5 1569/167/5 1570/168/5
f 1568/165/2 1567/169/2 1571/170/2 1572/171/2
f 1575/141/1 1574/142/1 1577/143/1 1578/144/1
f 1574/145/5 1573/146/5 1576/147/5 1577/148/5
f 1576/149/4 1573/150/4 1579/151/4 1580/152/4
f 1575/153/2 1578/154/2 1580/155/2 1579/156/2
f 1583/157/1 1582/158/1 1586/159/1 1587/160/1
f 1581/161/4 1584/162/4 1588/163/4 1585/164/4
f 1582/165/5 1581/166/5 1585/167/5 1586/168/5
f 1584/165/2 1583/169/2 1587/170/2 1588/171/2
f 1591/141/1 1590/142/1 1593/143/1 1594/144/1
f 1590/145/5 1589/146/5 1592/147/5 1593/148/5
f 1592/149/4 1589/150/4 1595/151/4 1596/152/4
f 1591/153/2 1594/154/2 1596/155/2 1595/156/2
f 1599/157/1 1598/158/1 1602/159/1 1603/160/1
f 1597/161/4 1600/162/4 1604/163/4 1601/164/4
f 1598/165/5 1597/166/5 1601/167/5 1602/168/5
f 1600/165/2 1599/169/2 1603/170/2 1604/171/2
f 1607/141/1 1606/142/1 1609/143/1 1610/144/1
f 1606/145/5 1605/146/5 1608/147/5 1609/148/5
f 1608/149/4 1605/150/4 1611/151/4 1612/152/4
f 1607/153/2 1610/154/2 1612/155/2 1611/156/2
f 1615/157/1 1614/158/1 1618/159/1 1619/160/1
f 1613/161/4 1616/162/4 1620/163/4 1617/164/4
f 1614/165/5 1613/166/5 1617/167/5 1618/168/5
f 1616/165/2 1615/169/2 1619/170/2 1620/171/2
f 1623/141/1 1622/142/1 1625/143/1 1626/144/1
f 1622/145/5 1621/146/5 1624/147/5 1625/148/5
f 1624/149/4 1621/150/4 1627/151/4 1628/152/4
f 1623/153/2 1626/154/2 1628/155/2 1627/156/2
f 1631/157/1 1630/158/1 1634/159/1 1635/160/1
f 1629/161/4 1632/162/4 1636/163/4 1633/164/4
f 1630/165/5 1629/166/5 1633/167/5 1634/168/5
f 1632/165/2 1631/169/2 1635/170/2 1636/171/2
usemtl Material.001
f 100/53/1 98/85/1 99/86/1 101/87/1
f 104/53/1 102/85/1 103/86/1 105/87/1
f 168/53/1 169/66/1 171/67/1 170/68/1
f 180/53/1 181/66/1 183/67/1 182/68/1
f 245/53/1 243/85/1 244/86/1 246/87/1
f 285/53/1 283/85/1 284/86/1 286/87/1
f 1093/53/2 1094/66/2 1096/67/2 1095/68/2
f 1127/53/2 1128/66/2 1130/67/2 1129/68/2
f 1319/53/2 1320/66/2 1322/67/2 1321/68/2
usemtl Material.003
f 115/53/1 113/85/1 114/86/1 116/87/1
f 115/88/3 116/89/3 119/90/3 118/91/3
f 113/92/5 115/63/5 118/93/5 117/88/5
f 193/53/1 191/85/1 192/86/1 194/87/1
f 193/88/3 194/89/3 196/90/3 195/91/3
f 315/53/1 313/85/1 314/86/1 316/87/1
f 315/88/3 316/89/3 319/90/3 318/91/3
f 316/89/2 314/108/2 317/109/2 319/71/2
f 328/53/1 329/66/1 331/67/1 330/68/1
f 330/88/3 331/93/3 335/90/3 334/91/3
f 331/93/2 329/110/2 333/92/2 335/63/2
f 328/111/5 330/93/5 334/90/5 332/112/5
f 1133/53/2 1131/85/2 1132/86/2 1134/87/2
f 1133/88/3 1134/89/3 1136/90/3 1135/91/3
f 1171/53/2 1169/85/2 1170/86/2 1172/87/2
f 1171/88/3 1172/89/3 1175/90/3 1174/91/3
f 1169/92/1 1171/63/1 1174/93/1 1173/88/1
f 1267/53/2 1268/66/2 1270/67/2 1269/68/2
f 1269/88/3 1270/93/3 1273/90/3 1272/91/3
f 1270/93/4 1268/110/4 1271/92/4 1273/63/4
f 1292/53/2 1293/66/2 1295/67/2 1294/68/2
f 1295/93/4 1293/110/4 1296/92/4 1297/63/4
usemtl Material.004
f 79/58/1 80/59/1 82/60/1 81/61/1
f 81/72/3 82/73/3 86/74/3 85/75/3
f 82/73/2 80/76/2 84/77/2 86/78/2
f 79/79/5 81/80/5 85/74/5 83/81/5
f 106/58/1 107/59/1 109/60/1 108/61/1
f 108/72/3 109/73/3 112/74/3 111/75/3
f 106/79/5 108/80/5 111/74/5 110/81/5
f 237/58/1 238/59/1 240/60/1 239/61/1
f 239/72/3 240/73/3 242/74/3 241/75/3
f 263/58/1 264/59/1 266/60/1 265/61/1
f 265/72/3 266/73/3 269/74/3 268/75/3
f 266/73/2 264/76/2 267/77/2 269/78/2
f 279/58/1 277/82/1 278/83/1 280/84/1
f 279/102/3 280/103/3 282/104/3 281/105/3
f 308/58/1 306/82/1 307/83/1 309/84/1
f 308/102/3 309/103/3 312/104/3 311/105/3
f 309/103/2 307/106/2 310/107/2 312/95/2
f 320/58/1 321/59/1 323/60/1 322/61/1
f 322/72/3 323/73/3 327/74/3 326/75/3
f 323/73/2 321/76/2 325/77/2 327/78/2
f 320/79/5 322/80/5 326/74/5 324/81/5
f 1059/58/2 1060/59/2 1062/60/2 1061/61/2
f 1061/72/3 1062/73/3 1065/74/3 1064/75/3
f 1059/79/1 1061/80/1 1064/74/1 1063/81/1
f 1113/58/2 1114/59/2 1116/60/2 1115/61/2
f 1115/72/3 1116/73/3 1119/74/3 1118/75/3
f 1113/79/1 1115/80/1 1118/74/1 1117/81/1
f 1180/58/2 1181/59/2 1183/60/2 1182/61/2
f 1182/72/3 1183/73/3 1185/74/3 1184/75/3
f 1325/58/2 1323/82/2 1324/83/2 1326/84/2
f 1326/103/4 1324/106/4 1327/107/4 1328/95/4
f 1331/58/2 1329/82/2 1330/83/2 1332/84/2
f 1331/102/3 1332/103/3 1335/104/3 1334/105/3
f 1332/103/4 1330/106/4 1333/107/4 1335/95/4
usemtl Material.005
f 163/58/1 161/82/1 162/83/1 164/84/1
f 163/64/3 164/69/3 167/70/3 166/71/3
f 164/96/2 162/97/2 165/98/2 167/99/2
f 207/58/1 208/59/1 210/60/1 209/61/1
f 210/64/2 208/94/2 211/92/2 212/95/2
f 231/58/1 229/82/1 230/83/1 232/84/1
f 231/64/3 232/69/3 236/70/3 235/71/3
f 232/96/2 230/97/2 234/98/2 236/99/2
f 229/100/5 231/71/5 235/96/5 233/101/5
f 359/58/1 360/59/1 362/60/1 361/61/1
f 362/64/2 360/94/2 364/92/2 366/95/2
f 359/62/5 361/63/5 365/64/5 363/65/5
f 1088/58/2 1086/82/2 1087/83/2 1089/84/2
f 1088/64/3 1089/69/3 1092/70/3 1091/71/3
f 1086/100/1 1088/71/1 1091/96/1 1090/101/1
f 1196/58/2 1194/82/2 1195/83/2 1197/84/2
f 1196/64/3 1197/69/3 1199/70/3 1198/71/3
f 1238/58/2 1239/59/2 1241/60/2 1240/61/2
f 1241/64/4 1239/94/4 1242/92/4 1243/95/4
f 1287/58/2 1285/82/2 1286/83/2 1288/84/2
f 1287/64/3 1288/69/3 1291/70/3 1290/71/3
f 1288/96/4 1286/97/4 1289/98/4 1291/99/4
f 1313/58/2 1311/82/2 1312/83/2 1314/84/2
f 1313/64/3 1314/69/3 1318/70/3 1317/71/3
f 1314/96/4 1312/97/4 1316/98/4 1318/99/4
f 1311/100/1 1313/71/1 1317/96/1 1315/101/1
usemtl Material.006
f 72/53/1 73/66/1 75/67/1 74/68/1
f 74/64/3 75/69/3 78/70/3 77/71/3
f 72/62/5 74/63/5 77/64/5 76/65/5
f 134/53/1 135/66/1 137/67/1 136/68/1
f 134/62/5 136/63/5 139/64/5 138/65/5
f 221/53/1 219/85/1 220/86/1 222/87/1
f 251/53/1 252/66/1 254/67/1 253/68/1
f 251/62/5 253/63/5 256/64/5 255/65/5
f 287/53/1 288/66/1 290/67/1 289/68/1
f 289/64/3 290/69/3 292/70/3 291/71/3
f 369/53/1 367/85/1 368/86/1 370/87/1
f 370/64/2 368/94/2 372/92/2 374/95/2
f 367/62/5 369/63/5 373/64/5 371/65/5
f 1068/53/2 1066/85/2 1067/86/2 1069/87/2
f 1069/64/4 1067/94/4 1071/92/4 1073/95/4
f 1066/62/1 1068/63/1 1072/64/1 1070/65/1
f 1080/53/2 1081/66/2 1083/67/2 1082/68/2
f 1080/62/1 1082/63/1 1085/64/1 1084/65/1
f 1122/53/2 1120/85/2 1121/86/2 1123/87/2
f 1122/64/3 1123/69/3 1126/70/3 1125/71/3
f 1120/62/1 1122/63/1 1125/64/1 1124/65/1
f 1276/53/2 1274/85/2 1275/86/2 1277/87/2
f 1276/64/3 1277/69/3 1280/70/3 1279/71/3
f 1277/64/4 1275/94/4 1278/92/4 1280/95/4
usemtl Material.007
f 174/58/1 172/82/1 173/83/1 175/84/1
f 174/64/3 175/69/3 179/70/3 178/71/3
f 175/64/2 173/94/2 177/92/2 179/95/2
f 172/62/5 174/63/5 178/64/5 176/65/5
f 186/58/1 184/82/1 185/83/1 187/84/1
f 186/64/3 187/69/3 190/70/3 189/71/3
f 184/62/5 186/63/5 189/64/5 188/65/5
f 203/58/1 201/82/1 202/83/1 204/84/1
f 204/64/2 202/94/2 205/92/2 206/95/2
f 225/58/1 223/82/1 224/83/1 226/84/1
f 225/64/3 226/69/3 228/70/3 227/71/3
f 1053/58/2 1051/82/2 1052/83/2 1054/84/2
f 1053/64/3 1054/69/3 1058/70/3 1057/71/3
f 1054/64/4 1052/94/4 1056/92/4 1058/95/4
f 1051/62/1 1053/63/1 1057/64/1 1055/65/1
f 1188/58/2 1186/82/2 1187/83/2 1189/84/2
f 1189/64/4 1187/94/4 1191/92/4 1193/95/4
f 1186/62/1 1188/63/1 1192/64/1 1190/65/1
f 1234/58/2 1232/82/2 1233/83/2 1235/84/2
f 1235/64/4 1233/94/4 1236/92/4 1237/95/4
f 1342/58/2 1340/82/2 1341/83/2 1343/84/2
f 1342/64/3 1343/69/3 1346/70/3 1345/71/3
f 1343/64/4 1341/94/4 1344/92/4 1346/95/4
usemtl Material.012
f 89/58/1 87/82/1 88/83/1 90/84/1
f 89/64/3 90/69/3 93/70/3 92/71/3
f 87/62/5 89/63/5 92/64/5 91/65/5
f 149/58/1 147/82/1 148/83/1 150/84/1
f 215/58/1 213/82/1 214/83/1 216/84/1
f 215/64/3 216/69/3 218/70/3 217/71/3
f 338/58/1 336/82/1 337/83/1 339/84/1
f 339/64/2 337/94/2 340/92/2 341/95/2
f 377/58/1 375/82/1 376/83/1 378/84/1
f 377/64/3 378/69/3 381/70/3 380/71/3
f 378/64/2 376/94/2 379/92/2 381/95/2
f 1139/58/2 1137/82/2 1138/83/2 1140/84/2
f 1139/64/3 1140/69/3 1143/70/3 1142/71/3
f 1137/62/1 1139/63/1 1142/64/1 1141/65/1
f 1150/58/2 1148/82/2 1149/83/2 1151/84/2
f 1212/58/2 1210/82/2 1211/83/2 1213/84/2
f 1213/64/4 1211/94/4 1214/92/4 1215/95/4
usemtl Material.013
f 122/53/1 120/85/1 121/86/1 123/87/1
f 123/64/2 121/94/2 125/92/2 127/95/2
f 120/62/5 122/63/5 126/64/5 124/65/5
f 128/53/1 129/66/1 131/67/1 130/68/1
f 128/62/5 130/63/5 133/64/5 132/65/5
f 140/53/1 141/66/1 143/67/1 142/68/1
f 142/64/3 143/69/3 146/70/3 145/71/3
f 140/62/5 142/63/5 145/64/5 144/65/5
f 270/53/1 271/66/1 273/67/1 272/68/1
f 272/64/3 273/69/3 276/70/3 275/71/3
f 270/62/5 272/63/5 275/64/5 274/65/5
f 355/53/1 353/85/1 354/86/1 356/87/1
f 356/64/2 354/94/2 357/92/2 358/95/2
f 1105/53/2 1106/66/2 1108/67/2 1107/68/2
f 1107/64/3 1108/69/3 1112/70/3 1111/71/3
f 1108/64/4 1106/94/4 1110/92/4 1112/95/4
f 1105/62/1 1107/63/1 1111/64/1 1109/65/1
f 1160/53/2 1158/85/2 1159/86/2 1161/87/2
f 1206/53/2 1204/85/2 1205/86/2 1207/87/2
f 1204/62/1 1206/63/1 1209/64/1 1208/65/1
f 1218/53/2 1216/85/2 1217/86/2 1219/87/2
f 1216/62/1 1218/63/1 1221/64/1 1220/65/1
f 1224/53/2 1222/85/2 1223/86/2 1225/87/2
f 1224/64/3 1225/69/3 1227/70/3 1226/71/3
f 1254/53/2 1252/85/2 1253/86/2 1255/87/2
f 1255/64/4 1253/94/4 1257/92/4 1259/95/4
f 1252/62/1 1254/63/1 1258/64/1 1256/65/1
f 1260/53/2 1261/66/2 1263/67/2 1262/68/2
f 1262/64/3 1263/69/3 1266/70/3 1265/71/3
f 1260/62/1 1262/63/1 1265/64/1 1264/65/1
f 1298/53/2 1299/66/2 1301/67/2 1300/68/2
f 1301/64/4 1299/94/4 1302/92/4 1303/95/4
usemtl Material.014
f 66/58/1 67/59/1 69/60/1 68/61/1
f 66/62/5 68/63/5 71/64/5 70/65/5
f 153/58/1 151/82/1 152/83/1 154/84/1
f 153/64/3 154/69/3 156/70/3 155/71/3
f 259/58/1 257/82/1 258/83/1 260/84/1
f 259/64/3 260/69/3 262/70/3 261/71/3
f 293/58/1 294/59/1 296/60/1 295/61/1
f 296/64/2 294/94/2 297/92/2 298/95/2
f 299/58/1 300/59/1 302/60/1 301/61/1
f 301/64/3 302/69/3 305/70/3 304/71/3
f 302/64/2 300/94/2 303/92/2 305/95/2
f 342/58/1 343/59/1 345/60/1 344/61/1
f 344/64/3 345/69/3 348/70/3 347/71/3
f 345/64/2 343/94/2 346/92/2 348/95/2
f 1076/58/2 1074/82/2 1075/83/2 1077/84/2
f 1074/100/1 1076/71/1 1079/96/1 1078/101/1
f 1154/58/2 1152/82/2 1153/83/2 1155/84/2
f 1155/96/4 1153/97/4 1156/98/4 1157/99/4
f 1164/58/2 1162/82/2 1163/83/2 1165/84/2
f 1164/64/3 1165/69/3 1168/70/3 1167/71/3
f 1162/100/1 1164/71/1 1167/96/1 1166/101/1
f 1246/58/2 1244/82/2 1245/83/2 1247/84/2
f 1247/96/4 1245/97/4 1249/98/4 1251/99/4
f 1244/100/1 1246/71/1 1250/96/1 1248/101/1
f 1306/58/2 1304/82/2 1305/83/2 1307/84/2
f 1306/64/3 1307/69/3 1310/70/3 1309/71/3
f 1307/96/4 1305/97/4 1308/98/4 1310/99/4
