# Blender 5.0.1
# www.blender.org
mtllib M_Winter_Tower_Roofless_03.mtl
o Roof_Edge.150
v 0.000001 2.000000 0.200000
v 0.200001 2.000000 0.200000
v 0.000001 1.900001 0.200000
v 0.000001 2.000000 -0.000000
v 0.000001 1.900001 -0.000000
v 0.200001 2.000000 -0.000000
v 0.200001 1.900001 -0.000000
v 0.200001 1.900001 0.200000
v 0.150001 1.900001 0.050000
v 0.150001 1.900001 0.150000
v 0.050001 1.900001 0.050000
v 0.150001 1.000000 0.050000
v 0.050001 1.000000 0.050000
v 0.150001 1.000000 0.150000
v 0.050001 1.000000 0.150000
v 0.050001 1.900001 0.150000
v 0.000000 10.000000 0.000000
v -0.000000 11.000000 0.000000
v -0.000000 10.000000 -1.000000
v -0.000000 11.000000 -1.000000
v 0.200000 1.000000 -4.000000
v 0.200000 1.000000 -4.200000
v 0.200000 0.900001 -4.000000
v -0.000001 1.000000 -4.000000
v -0.000001 0.900001 -4.000000
v -0.000001 1.000000 -4.200000
v -0.000001 0.900001 -4.200000
v 0.200000 0.900001 -4.200000
v 0.050000 0.900001 -4.150000
v 0.150000 0.900001 -4.150000
v 0.050000 0.000000 -4.150000
v 0.150000 0.000000 -4.150000
v 0.150000 0.000000 -4.050000
v 0.050000 0.000000 -4.050000
v 0.150000 0.900001 -4.050000
v 0.050000 0.900001 -4.050000
v 0.200000 2.000000 -4.000000
v 0.200000 2.000000 -4.200000
v 0.200000 1.900001 -4.000000
v -0.000001 2.000000 -4.000000
v -0.000001 1.900001 -4.000000
v -0.000001 2.000000 -4.200000
v -0.000001 1.900001 -4.200000
v 0.200000 1.900001 -4.200000
v 0.050000 1.900001 -4.150000
v 0.150000 1.900001 -4.150000
v 0.050000 1.000000 -4.150000
v 0.150000 1.000000 -4.150000
v 0.150000 1.000000 -4.050000
v 0.050000 1.000000 -4.050000
v 0.150000 1.900001 -4.050000
v 0.050000 1.900001 -4.050000
v 0.200000 3.000000 -4.000000
v 0.200000 3.000000 -4.200000
v 0.200000 2.900001 -4.000000
v -0.000001 3.000000 -4.000000
v -0.000001 2.900001 -4.000000
v -0.000001 3.000000 -4.200000
v -0.000001 2.900001 -4.200000
v 0.200000 2.900001 -4.200000
v 0.050000 2.900001 -4.150000
v 0.150000 2.900001 -4.150000
v 0.050000 2.000000 -4.150000
v 0.150000 2.000000 -4.150000
v 0.150000 2.000000 -4.050000
v 0.050000 2.000000 -4.050000
v 0.150000 2.900001 -4.050000
v 0.050000 2.900001 -4.050000
v 0.200000 4.000000 -4.000000
v 0.200000 4.000000 -4.200000
v 0.200000 3.900000 -4.000000
v -0.000001 4.000000 -4.000000
v -0.000001 3.900000 -4.000000
v -0.000001 4.000000 -4.200000
v -0.000001 3.900000 -4.200000
v 0.200000 3.900000 -4.200000
v 0.050000 3.900000 -4.150000
v 0.150000 3.900000 -4.150000
v 0.050000 3.000000 -4.150000
v 0.150000 3.000000 -4.150000
v 0.150000 3.000000 -4.050000
v 0.050000 3.000000 -4.050000
v 0.150000 3.900000 -4.050000
v 0.050000 3.900000 -4.050000
v 0.200000 5.000000 -4.000000
v 0.200000 5.000000 -4.200000
v 0.200000 4.900000 -4.000000
v -0.000001 5.000000 -4.000000
v -0.000001 4.900000 -4.000000
v -0.000001 5.000000 -4.200000
v -0.000001 4.900000 -4.200000
v 0.200000 4.900000 -4.200000
v 0.050000 4.900000 -4.150000
v 0.150000 4.900000 -4.150000
v 0.050000 4.000000 -4.150000
v 0.150000 4.000000 -4.150000
v 0.150000 4.000000 -4.050000
v 0.050000 4.000000 -4.050000
v 0.150000 4.900000 -4.050000
v 0.050000 4.900000 -4.050000
v 0.200000 6.000000 -4.000000
v 0.200000 6.000000 -4.200000
v 0.200000 5.900000 -4.000000
v -0.000001 6.000000 -4.000000
v -0.000001 5.900000 -4.000000
v -0.000001 6.000000 -4.200000
v -0.000001 5.900000 -4.200000
v 0.200000 5.900000 -4.200000
v 0.050000 5.900000 -4.150000
v 0.150000 5.900000 -4.150000
v 0.050000 5.000000 -4.150000
v 0.150000 5.000000 -4.150000
v 0.150000 5.000000 -4.050000
v 0.050000 5.000000 -4.050000
v 0.150000 5.900000 -4.050000
v 0.050000 5.900000 -4.050000
v 0.200000 7.000000 -4.000000
v 0.200000 7.000000 -4.200000
v 0.200000 6.900000 -4.000000
v -0.000001 7.000000 -4.000000
v -0.000001 6.900000 -4.000000
v -0.000001 7.000000 -4.200000
v -0.000001 6.900000 -4.200000
v 0.200000 6.900000 -4.200000
v 0.049999 6.900000 -4.150000
v 0.150000 6.900000 -4.150000
v 0.049999 6.000000 -4.150000
v 0.150000 6.000000 -4.150000
v 0.150000 6.000000 -4.050000
v 0.049999 6.000000 -4.050000
v 0.150000 6.900000 -4.050000
v 0.049999 6.900000 -4.050000
v 0.200000 8.000000 -4.000000
v 0.200000 8.000000 -4.200000
v 0.200000 7.900000 -4.000000
v -0.000001 8.000000 -4.000000
v -0.000001 7.900000 -4.000000
v -0.000001 8.000000 -4.200000
v -0.000001 7.900000 -4.200000
v 0.200000 7.900000 -4.200000
v 0.049999 7.900000 -4.150000
v 0.150000 7.900000 -4.150000
v 0.049999 7.000000 -4.150000
v 0.150000 7.000000 -4.150000
v 0.150000 7.000000 -4.050000
v 0.049999 7.000000 -4.050000
v 0.150000 7.900000 -4.050000
v 0.049999 7.900000 -4.050000
v 0.200000 9.000000 -4.000000
v 0.200000 9.000000 -4.200000
v 0.200000 8.900000 -4.000000
v -0.000001 9.000000 -4.000000
v -0.000001 8.900000 -4.000000
v -0.000001 9.000000 -4.200000
v -0.000001 8.900000 -4.200000
v 0.200000 8.900000 -4.200000
v 0.049999 8.900000 -4.150000
v 0.150000 8.900000 -4.150000
v 0.049999 8.000000 -4.150000
v 0.150000 8.000000 -4.150000
v 0.150000 8.000000 -4.050000
v 0.049999 8.000000 -4.050000
v 0.150000 8.900000 -4.050000
v 0.049999 8.900000 -4.050000
v 0.200000 10.000000 -4.000000
v 0.200000 10.000000 -4.200000
v 0.200000 9.900000 -4.000000
v -0.000001 10.000000 -4.000000
v -0.000001 9.900000 -4.000000
v -0.000001 10.000000 -4.200000
v -0.000001 9.900000 -4.200000
v 0.200000 9.900000 -4.200000
v 0.049999 9.900000 -4.150000
v 0.150000 9.900000 -4.150000
v 0.049999 9.000000 -4.150000
v 0.150000 9.000000 -4.150000
v 0.150000 9.000000 -4.050000
v 0.049999 9.000000 -4.050000
v 0.150000 9.900000 -4.050000
v 0.049999 9.900000 -4.050000
v 0.200000 11.000000 -4.000000
v 0.200000 11.000000 -4.200000
v 0.200000 10.900000 -4.000000
v -0.000001 11.000000 -4.000000
v -0.000001 10.900000 -4.000000
v -0.000001 11.000000 -4.200000
v -0.000001 10.900000 -4.200000
v 0.200000 10.900000 -4.200000
v 0.049999 10.900000 -4.150000
v 0.150000 10.900000 -4.150000
v 0.049999 10.000000 -4.150000
v 0.150000 10.000000 -4.150000
v 0.150000 10.000000 -4.050000
v 0.049999 10.000000 -4.050000
v 0.150000 10.900000 -4.050000
v 0.049999 10.900000 -4.050000
v 0.199999 12.000000 -4.000000
v 0.199999 12.000000 -4.200000
v 0.199999 11.900000 -4.000000
v -0.000001 12.000000 -4.000000
v -0.000001 11.900000 -4.000000
v -0.000001 12.000000 -4.200000
v -0.000001 11.900000 -4.200000
v 0.199999 11.900000 -4.200000
v 0.049999 11.900000 -4.150000
v 0.150000 11.900000 -4.150000
v 0.049999 11.000000 -4.150000
v 0.150000 11.000000 -4.150000
v 0.150000 11.000000 -4.050000
v 0.049999 11.000000 -4.050000
v 0.150000 11.900000 -4.050000
v 0.049999 11.900000 -4.050000
v 0.199999 13.000000 -4.000000
v 0.199999 13.000000 -4.200000
v 0.199999 12.900000 -4.000000
v -0.000001 13.000000 -4.000000
v -0.000001 12.900000 -4.000000
v -0.000001 13.000000 -4.200000
v -0.000001 12.900000 -4.200000
v 0.199999 12.900000 -4.200000
v 0.049999 12.900000 -4.150000
v 0.150000 12.900000 -4.150000
v 0.049999 12.000000 -4.150000
v 0.150000 12.000000 -4.150000
v 0.150000 12.000000 -4.050000
v 0.049999 12.000000 -4.050000
v 0.150000 12.900000 -4.050000
v 0.049999 12.900000 -4.050000
v 0.199999 14.000000 -4.000000
v 0.199999 14.000000 -4.200000
v 0.199999 13.900000 -4.000000
v -0.000001 14.000000 -4.000000
v -0.000001 13.900000 -4.000000
v 0.049999 13.900000 -4.050000
v 0.150000 13.900000 -4.050000
v 0.049999 13.000000 -4.050000
v 0.150000 13.000000 -4.050000
v 0.150000 13.000000 -4.150000
v 0.150000 13.900000 -4.150000
v 0.049999 13.000000 -4.150000
v 0.049999 13.900000 -4.150000
v -0.000001 13.900000 -4.200000
v -0.000001 14.000000 -4.200000
v 0.199999 13.900000 -4.200000
v 0.000000 1.000000 0.000000
v 0.000000 1.000000 -1.000000
v 0.000000 0.100000 0.000000
v 0.000000 0.100000 -1.000000
v 0.100000 0.100000 0.100001
v 0.100001 0.000000 0.100001
v 0.100001 0.100000 -1.000000
v 0.100001 0.000000 -1.000000
v 0.000000 1.000000 -1.000000
v 0.000000 1.000000 -2.000000
v 0.000000 0.100000 -1.000000
v 0.000000 0.100000 -2.000000
v 0.100001 0.100000 -1.000000
v 0.100001 0.000000 -1.000000
v 0.100000 0.100000 -2.000000
v 0.100000 0.000000 -2.000000
v 0.000000 1.000000 -2.000000
v 0.000000 1.000000 -3.000000
v 0.000000 0.100000 -2.000000
v 0.000000 0.100000 -3.000000
v 0.100000 0.100000 -2.000000
v 0.100000 0.000000 -2.000000
v 0.100000 0.100000 -3.000000
v 0.100000 0.000000 -3.000000
v 0.000000 1.000000 -3.000000
v 0.000000 1.000000 -4.000000
v 0.000000 0.100000 -3.000000
v 0.000000 0.100000 -4.000000
v 0.100000 0.100000 -3.000000
v 0.100000 0.000000 -3.000000
v 0.100000 0.100000 -4.000000
v 0.100000 0.000000 -4.000000
v 0.500000 1.000000 0.000000
v 0.500000 2.000000 0.000000
v 0.500000 1.000000 -1.000000
v 0.000000 1.000000 0.000000
v 0.000000 2.000000 0.000000
v 0.500000 2.000000 -1.000000
v 0.500000 2.000000 0.000000
v 0.500000 3.000000 0.000000
v 0.500000 2.000000 -1.000000
v 0.000000 2.000000 0.000000
v 0.000000 3.000000 0.000000
v 0.500000 3.000000 -1.000000
v 0.500000 3.000000 0.000000
v 0.500000 4.000000 0.000000
v 0.500000 3.000000 -1.000000
v 0.000000 3.000000 0.000000
v 0.000000 4.000000 0.000000
v 0.000000 4.000000 -1.000000
v 0.000000 3.000000 -1.000000
v 0.500000 4.000000 -1.000000
v 0.000000 4.000000 0.000000
v 0.000000 5.000000 0.000000
v 0.000000 4.000000 -1.000000
v 0.000000 5.000000 -1.000000
v 0.500000 5.000000 0.000000
v 0.500000 6.000000 0.000000
v 0.500000 5.000000 -1.000000
v 0.000000 5.000000 0.000000
v 0.000000 6.000000 0.000000
v 0.500000 6.000000 -1.000000
v 1.000000 6.000000 0.000000
v 1.000000 7.000000 0.000000
v 1.000000 6.000000 -1.000000
v 0.000000 6.000000 0.000000
v 0.000000 7.000000 0.000000
v 1.000000 7.000000 -1.000000
v 0.000000 6.000000 -1.000000
v 0.000000 7.000000 -1.000000
v 1.000000 7.000000 0.000000
v 1.000000 8.000000 0.000000
v 1.000000 7.000000 -1.000000
v 0.000000 7.000000 0.000000
v 0.000000 8.000000 0.000000
v 1.000000 8.000000 -1.000000
v 0.000000 7.000000 -1.000000
v -0.000000 8.000000 -1.000000
v 1.000000 8.000000 0.000000
v 1.000000 9.000000 0.000000
v 1.000000 8.000000 -1.000000
v 0.000000 8.000000 0.000000
v 0.000000 9.000000 0.000000
v -0.000000 9.000000 -1.000000
v 1.000000 9.000000 -1.000000
v 0.000000 9.000000 0.000000
v -0.000000 10.000000 0.000000
v -0.000000 9.000000 -1.000000
v -0.000000 10.000000 -1.000000
v -0.000000 11.000000 0.000000
v -0.000000 12.000000 0.000000
v -0.000000 11.000000 -1.000000
v -0.000000 12.000000 -1.000000
v 0.500000 12.000000 0.000000
v 0.500000 13.000000 0.000000
v 0.500000 12.000000 -1.000000
v -0.000000 12.000000 0.000000
v -0.000000 13.000000 0.000000
v 0.500000 13.000000 -1.000000
v 0.500000 13.000000 0.000000
v 0.500000 14.000000 0.000000
v 0.500000 13.000000 -1.000000
v -0.000000 13.000000 0.000000
v -0.000000 14.000000 0.000000
v 0.500000 14.000000 -1.000000
v 0.500000 1.000000 -1.000000
v 0.500000 2.000000 -1.000000
v 0.500000 1.000000 -2.000000
v 0.500000 2.000000 -2.000000
v 0.000000 1.000000 -2.000000
v 0.000000 2.000000 -2.000000
v 1.000000 2.000000 -1.000000
v 1.000000 3.000000 -1.000000
v 1.000000 2.000000 -2.000000
v 0.000000 2.000000 -1.000000
v 0.000000 3.000000 -1.000000
v 0.000000 3.000000 -2.000000
v 0.000000 2.000000 -2.000000
v 1.000000 3.000000 -2.000000
v 0.000000 3.000000 -1.000000
v -0.000000 4.000000 -1.000000
v 0.000000 3.000000 -2.000000
v 0.000000 4.000000 -2.000000
v 1.000000 4.000000 -1.000000
v 1.000000 5.000000 -1.000000
v 1.000000 4.000000 -2.000000
v 0.000000 4.000000 -1.000000
v 0.000000 5.000000 -1.000000
v 0.000000 5.000000 -2.000000
v 0.000000 4.000000 -2.000000
v 1.000000 5.000000 -2.000000
v 0.500000 5.000000 -1.000000
v 0.500000 6.000000 -1.000000
v 0.500000 5.000000 -2.000000
v 0.500000 6.000000 -2.000000
v 0.500000 6.000000 -1.000000
v 0.500000 7.000000 -1.000000
v 0.500000 6.000000 -2.000000
v 0.500000 7.000000 -2.000000
v 0.000000 6.000000 -2.000000
v 0.000000 7.000000 -2.000000
v 0.500000 7.000000 -1.000000
v 0.500000 8.000000 -1.000000
v 0.500000 7.000000 -2.000000
v 0.500000 8.000000 -2.000000
v 0.000000 7.000000 -2.000000
v 0.000000 8.000000 -2.000000
v 1.000000 8.000000 -1.000000
v 1.000000 9.000000 -1.000000
v 1.000000 8.000000 -2.000000
v 1.000000 9.000000 -2.000000
v 0.000000 8.000000 -2.000000
v 0.000000 9.000000 -2.000000
v -0.000000 9.000000 -1.000000
v -0.000000 9.000000 -1.000000
v -0.000000 10.000000 -1.000000
v 0.000000 9.000000 -2.000000
v 0.000000 10.000000 -2.000000
v 1.000000 10.000000 -1.000000
v 1.000000 11.000000 -1.000000
v 1.000000 10.000000 -2.000000
v 0.000000 10.000000 -1.000000
v -0.000000 11.000000 -1.000000
v 1.000000 11.000000 -2.000000
v 0.000000 10.000000 -2.000000
v 0.000000 11.000000 -2.000000
v 1.000000 11.000000 -1.000000
v 1.000000 12.000000 -1.000000
v 1.000000 11.000000 -2.000000
v 0.000000 11.000000 -1.000000
v -0.000000 12.000000 -1.000000
v 0.000000 12.000000 -2.000000
v 1.000000 12.000000 -2.000000
v 0.500000 12.000000 -1.000000
v 0.500000 13.000000 -1.000000
v 0.500000 12.000000 -2.000000
v 0.500000 13.000000 -2.000000
v 0.000000 12.000000 -2.000000
v -0.000000 13.000000 -2.000000
v 0.500000 13.000000 -1.000000
v 0.500000 14.000000 -1.000000
v 0.500000 13.000000 -2.000000
v 0.500000 14.000000 -2.000000
v 0.000000 1.000000 -2.000000
v 0.000000 2.000000 -2.000000
v 0.000000 1.000000 -3.000000
v 0.000000 2.000000 -3.000000
v 0.000000 2.000000 -2.000000
v 0.000000 3.000000 -2.000000
v 0.000000 2.000000 -3.000000
v 0.000000 3.000000 -3.000000
v 0.000000 3.000000 -2.000000
v 0.000000 4.000000 -2.000000
v 0.000000 3.000000 -3.000000
v 0.000000 4.000000 -3.000000
v 0.000000 4.000000 -2.000000
v 0.000000 5.000000 -2.000000
v 0.000000 4.000000 -3.000000
v 0.000000 5.000000 -3.000000
v 0.500000 5.000000 -2.000000
v 0.500000 6.000000 -2.000000
v 0.500000 5.000000 -3.000000
v 0.500000 6.000000 -3.000000
v 0.000000 6.000000 -3.000000
v 0.000000 6.000000 -2.000000
v 0.000000 6.000000 -2.000000
v 0.000000 7.000000 -2.000000
v 0.000000 6.000000 -3.000000
v 0.000000 7.000000 -3.000000
v 0.000000 7.000000 -2.000000
v 0.000000 8.000000 -2.000000
v 0.000000 7.000000 -3.000000
v 0.000000 8.000000 -3.000000
v 0.500000 8.000000 -2.000000
v 0.500000 9.000000 -2.000000
v 0.500000 8.000000 -3.000000
v 0.500000 9.000000 -3.000000
v 0.000000 8.000000 -3.000000
v 0.000000 9.000000 -3.000000
v 0.000000 9.000000 -2.000000
v 0.000000 9.000000 -2.000000
v 0.000000 10.000000 -2.000000
v 0.000000 9.000000 -3.000000
v 0.000000 10.000000 -3.000000
v 0.500000 10.000000 -2.000000
v 0.500000 11.000000 -2.000000
v 0.500000 10.000000 -3.000000
v 0.500000 11.000000 -3.000000
v 0.000000 10.000000 -3.000000
v 0.000000 11.000000 -3.000000
v 1.000000 11.000000 -2.000000
v 1.000000 12.000000 -2.000000
v 1.000000 11.000000 -3.000000
v 1.000000 12.000000 -3.000000
v 0.000000 11.000000 -3.000000
v 0.000000 12.000000 -3.000000
v 0.000000 12.000000 -2.000000
v 0.000000 12.000000 -2.000000
v -0.000000 13.000000 -2.000000
v 0.000000 12.000000 -3.000000
v 0.000000 13.000000 -3.000000
v 0.500000 13.000000 -2.000000
v 0.500000 14.000000 -2.000000
v 0.500000 13.000000 -3.000000
v 0.500000 14.000000 -3.000000
v 0.000000 13.000000 -3.000000
v 0.000000 14.000000 -3.000000
v 1.000000 1.000000 -3.000000
v 1.000000 2.000000 -3.000000
v 1.000000 1.000000 -4.000000
v 0.000000 1.000000 -3.000000
v 0.000000 2.000000 -3.000000
v 1.000000 2.000000 -4.000000
v 0.000000 1.000000 -4.000000
v 0.000000 2.000000 -4.000000
v 1.000000 2.000000 -3.000000
v 1.000000 3.000000 -3.000000
v 1.000000 2.000000 -4.000000
v 0.000000 2.000000 -3.000000
v 0.000000 3.000000 -3.000000
v 0.000000 3.000000 -4.000000
v 0.000000 2.000000 -4.000000
v 1.000000 3.000000 -4.000000
v 0.500000 3.000000 -3.000000
v 0.500000 4.000000 -3.000000
v 0.500000 3.000000 -4.000000
v 0.000000 3.000000 -3.000000
v 0.000000 4.000000 -3.000000
v 0.000000 4.000000 -4.000000
v 0.000000 3.000000 -4.000000
v 0.500000 4.000000 -4.000000
v 0.000000 4.000000 -3.000000
v 0.000000 5.000000 -3.000000
v 0.000000 4.000000 -4.000000
v 0.000000 5.000000 -4.000000
v 1.000000 5.000000 -3.000000
v 1.000000 6.000000 -3.000000
v 1.000000 5.000000 -4.000000
v 0.000000 5.000000 -3.000000
v 0.000000 6.000000 -3.000000
v 0.000000 6.000000 -4.000000
v 0.000000 5.000000 -4.000000
v 1.000000 6.000000 -4.000000
v 0.500000 6.000000 -3.000000
v 0.500000 7.000000 -3.000000
v 0.500000 6.000000 -4.000000
v 0.000000 6.000000 -3.000000
v 0.000000 7.000000 -3.000000
v 0.500000 7.000000 -4.000000
v 0.000000 6.000000 -4.000000
v 0.000000 7.000000 -4.000000
v 1.000000 7.000000 -3.000000
v 1.000000 8.000000 -3.000000
v 1.000000 7.000000 -4.000000
v 0.000000 7.000000 -3.000000
v 0.000000 8.000000 -3.000000
v 0.000000 8.000000 -4.000000
v 0.000000 7.000000 -4.000000
v 1.000000 8.000000 -4.000000
v 0.000000 8.000000 -3.000000
v 0.000000 9.000000 -3.000000
v 0.000000 8.000000 -4.000000
v 0.000000 9.000000 -4.000000
v 0.000000 9.000000 -3.000000
v 0.000000 10.000000 -3.000000
v 0.000000 9.000000 -4.000000
v 0.000000 10.000000 -4.000000
v 0.000000 10.000000 -3.000000
v 0.000000 11.000000 -3.000000
v 0.000000 10.000000 -4.000000
v -0.000000 11.000000 -4.000000
v 0.000000 11.000000 -3.000000
v 0.000000 12.000000 -3.000000
v 0.000000 11.000000 -4.000000
v -0.000000 12.000000 -4.000000
v 0.500000 12.000000 -3.000000
v 0.500000 13.000000 -3.000000
v 0.500000 12.000000 -4.000000
v 0.000000 12.000000 -3.000000
v 0.000000 13.000000 -3.000000
v -0.000000 13.000000 -4.000000
v 0.000000 12.000000 -4.000000
v 0.500000 13.000000 -4.000000
v 0.000000 13.000000 -3.000000
v 0.000000 14.000000 -3.000000
v 0.000000 13.000000 -4.000000
v -0.000000 14.000000 -4.000000
v -4.199997 1.000000 0.000002
v -4.199997 1.000000 0.200002
v -4.199997 0.900001 0.000002
v -3.999998 1.000000 0.000001
v -3.999998 0.900001 0.000001
v -3.999998 1.000000 0.200002
v -3.999998 0.900001 0.200002
v -4.199997 0.900001 0.200002
v -4.049997 0.900001 0.150002
v -4.149998 0.900001 0.150002
v -4.049997 0.900001 0.050001
v -4.049997 0.000000 0.150002
v -4.049997 0.000000 0.050001
v -4.149998 0.000000 0.150002
v -4.149998 0.000000 0.050002
v -4.149998 0.900001 0.050002
v -4.199997 2.000000 0.000002
v -4.199997 2.000000 0.200002
v -4.199997 1.900001 0.000002
v -3.999998 2.000000 0.000001
v -3.999998 1.900001 0.000001
v -3.999998 2.000000 0.200002
v -3.999998 1.900001 0.200002
v -4.199997 1.900001 0.200002
v -4.049997 1.900001 0.150002
v -4.149998 1.900001 0.150002
v -4.049997 1.900001 0.050001
v -4.049997 1.000000 0.150002
v -4.049997 1.000000 0.050001
v -4.149998 1.000000 0.150002
v -4.149998 1.000000 0.050002
v -4.149998 1.900001 0.050002
v -4.199997 3.000000 0.000002
v -4.199997 3.000000 0.200002
v -4.199997 2.900001 0.000002
v -3.999997 3.000000 0.000001
v -3.999997 2.900001 0.000001
v -3.999997 3.000000 0.200002
v -3.999997 2.900001 0.200002
v -4.199997 2.900001 0.200002
v -4.049997 2.900001 0.150002
v -4.149997 2.900001 0.150002
v -4.049997 2.900001 0.050001
v -4.049997 2.000000 0.150002
v -4.049997 2.000000 0.050001
v -4.149998 2.000000 0.150002
v -4.149998 2.000000 0.050002
v -4.149997 2.900001 0.050002
v -4.199997 4.000000 0.000002
v -4.199997 4.000000 0.200002
v -4.199997 3.900000 0.000002
v -3.999997 4.000000 0.000001
v -3.999997 3.900000 0.000001
v -3.999997 4.000000 0.200002
v -3.999997 3.900000 0.200002
v -4.199997 3.900000 0.200002
v -4.049997 3.900000 0.150002
v -4.149997 3.900000 0.150002
v -4.049997 3.900000 0.050001
v -4.049997 3.000000 0.150002
v -4.049997 3.000000 0.050001
v -4.149998 3.000000 0.150002
v -4.149998 3.000000 0.050002
v -4.149997 3.900000 0.050002
v -4.199997 5.000000 0.000002
v -4.199997 5.000000 0.200002
v -4.199997 4.900000 0.000002
v -3.999997 5.000000 0.000001
v -3.999997 4.900000 0.000001
v -3.999997 5.000000 0.200002
v -3.999997 4.900000 0.200002
v -4.199997 4.900000 0.200002
v -4.049997 4.900000 0.150002
v -4.149997 4.900000 0.150002
v -4.049997 4.900000 0.050001
v -4.049997 4.000000 0.150002
v -4.049997 4.000000 0.050001
v -4.149998 4.000000 0.150002
v -4.149998 4.000000 0.050002
v -4.149997 4.900000 0.050002
v -4.199997 6.000000 0.000002
v -4.199997 6.000000 0.200002
v -4.199997 5.900000 0.000002
v -3.999997 6.000000 0.000001
v -3.999997 5.900000 0.000001
v -3.999997 6.000000 0.200002
v -3.999997 5.900000 0.200002
v -4.199997 5.900000 0.200002
v -4.049997 5.900000 0.150002
v -4.149997 5.900000 0.150002
v -4.049997 5.900000 0.050001
v -4.049997 5.000000 0.150002
v -4.049997 5.000000 0.050001
v -4.149998 5.000000 0.150002
v -4.149998 5.000000 0.050002
v -4.149997 5.900000 0.050002
v -4.199997 7.000000 0.000002
v -4.199997 7.000000 0.200002
v -4.199997 6.900000 0.000002
v -3.999997 7.000000 0.000001
v -3.999997 6.900000 0.000001
v -3.999997 7.000000 0.200002
v -3.999997 6.900000 0.200002
v -4.199997 6.900000 0.200002
v -4.049997 6.900000 0.150002
v -4.149997 6.900000 0.150002
v -4.049997 6.900000 0.050001
v -4.049997 6.000000 0.150002
v -4.049997 6.000000 0.050001
v -4.149998 6.000000 0.150002
v -4.149998 6.000000 0.050002
v -4.149997 6.900000 0.050002
v -4.199997 8.000000 0.000002
v -4.199997 8.000000 0.200002
v -4.199997 7.900000 0.000002
v -3.999997 8.000000 0.000001
v -3.999997 7.900000 0.000001
v -3.999997 8.000000 0.200002
v -3.999997 7.900000 0.200002
v -4.199997 7.900000 0.200002
v -4.049997 7.900000 0.150002
v -4.149997 7.900000 0.150002
v -4.049997 7.900000 0.050001
v -4.049997 7.000000 0.150002
v -4.049997 7.000000 0.050001
v -4.149997 7.000000 0.150002
v -4.149997 7.000000 0.050002
v -4.149997 7.900000 0.050002
v -4.199997 9.000000 0.000002
v -4.199997 9.000000 0.200002
v -4.199997 8.900000 0.000002
v -3.999997 9.000000 0.000001
v -3.999997 8.900000 0.000001
v -3.999997 9.000000 0.200002
v -3.999997 8.900000 0.200002
v -4.199997 8.900000 0.200002
v -4.049997 8.900000 0.150002
v -4.149997 8.900000 0.150002
v -4.049997 8.900000 0.050001
v -4.049997 8.000000 0.150002
v -4.049997 8.000000 0.050001
v -4.149997 8.000000 0.150002
v -4.149997 8.000000 0.050002
v -4.149997 8.900000 0.050002
v -4.199997 10.000000 0.000002
v -4.199997 10.000000 0.200002
v -4.199997 9.900000 0.000002
v -3.999997 10.000000 0.000001
v -3.999997 9.900000 0.000001
v -3.999997 10.000000 0.200002
v -3.999997 9.900000 0.200002
v -4.199997 9.900000 0.200002
v -4.049997 9.900000 0.150002
v -4.149997 9.900000 0.150002
v -4.049997 9.900000 0.050001
v -4.049997 9.000000 0.150002
v -4.049997 9.000000 0.050001
v -4.149997 9.000000 0.150002
v -4.149997 9.000000 0.050002
v -4.149997 9.900000 0.050002
v -4.199997 11.000000 0.000002
v -4.199997 11.000000 0.200002
v -4.199997 10.900000 0.000002
v -3.999997 11.000000 0.000001
v -3.999997 10.900000 0.000001
v -3.999997 11.000000 0.200002
v -3.999997 10.900000 0.200002
v -4.199997 10.900000 0.200002
v -4.049997 10.900000 0.150002
v -4.149997 10.900000 0.150002
v -4.049997 10.900000 0.050001
v -4.049997 10.000000 0.150002
v -4.049997 10.000000 0.050001
v -4.149997 10.000000 0.150002
v -4.149997 10.000000 0.050002
v -4.149997 10.900000 0.050002
v -4.199997 12.000000 0.000002
v -4.199997 12.000000 0.200002
v -4.199997 11.900000 0.000002
v -3.999997 12.000000 0.000001
v -3.999997 11.900000 0.000001
v -3.999997 12.000000 0.200002
v -3.999997 11.900000 0.200002
v -4.199997 11.900000 0.200002
v -4.049997 11.900000 0.150002
v -4.149997 11.900000 0.150002
v -4.049997 11.900000 0.050001
v -4.049997 11.000000 0.150002
v -4.049997 11.000000 0.050001
v -4.149997 11.000000 0.150002
v -4.149997 11.000000 0.050002
v -4.149997 11.900000 0.050002
v -4.199997 13.000000 0.000002
v -4.199997 13.000000 0.200002
v -4.199997 12.900000 0.000002
v -3.999997 13.000000 0.000001
v -3.999997 12.900000 0.000001
v -3.999997 13.000000 0.200002
v -3.999997 12.900000 0.200002
v -4.199997 12.900000 0.200002
v -4.049997 12.900000 0.150002
v -4.149997 12.900000 0.150002
v -4.049997 12.900000 0.050001
v -4.049997 12.000000 0.150002
v -4.049997 12.000000 0.050001
v -4.149997 12.000000 0.150002
v -4.149997 12.000000 0.050002
v -4.149997 12.900000 0.050002
v -4.199997 14.000000 0.000002
v -4.199997 14.000000 0.200002
v -4.199997 13.900000 0.000002
v -4.199997 13.900000 0.200002
v -4.149997 13.900000 0.050002
v -4.149997 13.900000 0.150002
v -4.149997 13.000000 0.050002
v -4.149997 13.000000 0.150002
v -4.049997 13.000000 0.150002
v -4.049997 13.000000 0.050001
v -4.049997 13.900000 0.150002
v -4.049997 13.900000 0.050001
v -3.999997 13.900000 0.200002
v -3.999997 14.000000 0.200002
v -3.999997 13.900000 0.000001
v -3.999997 14.000000 0.000001
v -4.000000 1.000000 0.000001
v -3.000000 1.000000 0.000001
v -4.000000 0.100000 0.000001
v -3.000000 0.100000 0.000001
v -4.000000 0.100000 0.100001
v -4.000000 0.000000 0.100001
v -3.000000 0.100000 0.100001
v -3.000000 0.000000 0.100002
v -3.000000 1.000000 0.000001
v -2.000000 1.000000 0.000001
v -3.000000 0.100000 0.000001
v -2.000000 0.100000 0.000001
v -3.000000 0.100000 0.100001
v -3.000000 0.000000 0.100002
v -2.000000 0.100000 0.100001
v -2.000000 0.000000 0.100001
v -2.000000 1.000000 0.000001
v -1.000000 1.000000 0.000001
v -2.000000 0.100000 0.000001
v -1.000000 0.100000 0.000001
v -2.000000 0.100000 0.100001
v -2.000000 0.000000 0.100001
v -1.000000 0.100000 0.100001
v -1.000000 0.000000 0.100001
v -1.000000 1.000000 0.000001
v 0.000000 1.000000 0.000001
v -1.000000 0.100000 0.000001
v 0.000000 0.100000 0.000001
v -1.000000 0.100000 0.100001
v -1.000000 0.000000 0.100001
v 0.100001 0.100000 0.100001
v 0.100001 0.000000 0.100002
v -4.000000 1.000000 1.000001
v -4.000000 2.000000 1.000001
v -3.000000 1.000000 1.000001
v -4.000000 1.000000 0.000001
v -4.000000 2.000000 0.000001
v -3.000000 2.000000 1.000001
v -3.000000 1.000000 0.000001
v -3.000000 2.000000 0.000001
v -4.000000 2.000000 1.000001
v -4.000000 3.000000 1.000001
v -3.000000 2.000000 1.000001
v -4.000000 2.000000 0.000001
v -4.000000 3.000000 0.000001
v -3.000000 3.000000 0.000001
v -3.000000 3.000000 1.000001
v -4.000000 3.000000 0.500001
v -4.000000 4.000000 0.500001
v -3.000000 3.000000 0.500001
v -4.000000 3.000000 0.000001
v -4.000000 4.000000 0.000001
v -3.000000 4.000000 0.500001
v -3.000000 3.000000 0.000001
v -3.000000 4.000000 0.000001
v -4.000000 4.000000 0.500001
v -4.000000 5.000000 0.500001
v -3.000000 4.000000 0.500001
v -4.000000 4.000000 0.000001
v -4.000000 5.000000 0.000001
v -3.000000 5.000000 0.000001
v -3.000000 4.000000 0.000001
v -3.000000 5.000000 0.500001
v -4.000000 5.000000 0.000001
v -4.000000 6.000000 0.000001
v -3.000000 5.000000 0.000001
v -3.000000 6.000000 0.000001
v -4.000000 6.000000 0.500001
v -4.000000 7.000000 0.500001
v -3.000000 6.000000 0.500001
v -4.000000 6.000000 0.000001
v -4.000000 7.000000 0.000001
v -3.000000 7.000000 0.500001
v -3.000000 6.000000 0.000001
v -3.000000 7.000000 0.000001
v -4.000000 7.000000 0.500001
v -4.000000 8.000000 0.500001
v -3.000000 7.000000 0.500001
v -4.000000 7.000000 0.000001
v -4.000000 8.000000 0.000001
v -3.000000 8.000000 0.500001
v -3.000000 7.000000 0.000001
v -3.000000 8.000000 0.000001
v -4.000000 8.000000 0.500001
v -4.000000 9.000000 0.500001
v -3.000000 8.000000 0.500001
v -4.000000 8.000000 0.000001
v -4.000000 9.000000 0.000001
v -3.000000 9.000000 0.500001
v -3.000000 8.000000 0.000001
v -3.000000 9.000000 0.000001
v -4.000000 9.000000 1.000001
v -4.000000 10.000000 1.000001
v -3.000000 9.000000 1.000001
v -4.000000 9.000000 0.000001
v -4.000000 10.000000 0.000001
v -3.000000 10.000000 0.000001
v -3.000000 10.000000 1.000001
v -4.000000 10.000000 0.000001
v -4.000000 11.000000 0.000001
v -3.000000 10.000000 0.000001
v -3.000000 11.000000 0.000001
v -4.000000 11.000000 0.500001
v -4.000000 12.000000 0.500001
v -3.000000 11.000000 0.500001
v -4.000000 11.000000 0.000001
v -4.000000 12.000000 0.000001
v -3.000000 12.000000 0.500001
v -3.000000 11.000000 0.000001
v -3.000000 12.000000 0.000001
v -4.000000 12.000000 1.000001
v -4.000000 13.000000 1.000001
v -3.000000 12.000000 1.000001
v -4.000000 12.000000 0.000001
v -4.000000 13.000000 0.000001
v -3.000000 13.000000 0.000001
v -3.000000 12.000000 0.000001
v -3.000000 13.000000 1.000001
v -4.000000 13.000000 0.500001
v -4.000000 14.000000 0.500001
v -3.000000 13.000000 0.500001
v -4.000000 13.000000 0.000001
v -4.000000 14.000000 0.000001
v -3.000000 14.000000 0.500001
v -3.000000 1.000000 0.500001
v -3.000000 2.000000 0.500001
v -2.000000 1.000000 0.500001
v -2.000000 2.000000 0.500001
v -3.000000 2.000000 1.000001
v -3.000000 3.000000 1.000001
v -2.000000 2.000000 1.000001
v -2.000000 3.000000 1.000001
v -2.000000 2.000000 0.000001
v -2.000000 3.000000 0.000001
v -3.000000 3.000000 0.000001
v -3.000000 3.000000 0.000001
v -3.000000 4.000000 0.000001
v -2.000000 3.000000 0.000001
v -2.000000 4.000000 0.000001
v -3.000000 4.000000 0.000001
v -3.000000 5.000000 0.000001
v -2.000000 4.000000 0.000001
v -2.000000 5.000000 0.000001
v -3.000000 5.000000 0.000001
v -3.000000 6.000000 0.000001
v -2.000000 5.000000 0.000001
v -2.000000 6.000000 0.000001
v -3.000000 6.000000 0.000001
v -3.000000 7.000000 0.000001
v -2.000000 6.000000 0.000001
v -2.000000 7.000000 0.000001
v -3.000000 7.000000 0.000001
v -3.000000 8.000000 0.000001
v -2.000000 7.000000 0.000001
v -2.000000 8.000000 0.000001
v -3.000000 8.000000 0.000001
v -3.000000 9.000000 0.000001
v -2.000000 8.000000 0.000001
v -2.000000 9.000000 0.000001
v -3.000000 9.000000 1.000001
v -3.000000 10.000000 1.000001
v -2.000000 9.000000 1.000001
v -2.000000 10.000000 1.000001
v -2.000000 9.000000 0.000001
v -2.000000 10.000000 0.000001
v -3.000000 10.000000 0.000001
v -3.000000 10.000000 0.000001
v -3.000000 11.000000 0.000001
v -2.000000 10.000000 0.000001
v -2.000000 11.000000 0.000001
v -3.000000 11.000000 0.000001
v -3.000000 12.000000 0.000001
v -2.000000 11.000000 0.000001
v -2.000000 12.000000 0.000001
v -3.000000 12.000000 0.500001
v -3.000000 13.000000 0.500001
v -2.000000 12.000000 0.500001
v -2.000000 13.000000 0.500001
v -3.000000 13.000000 0.500001
v -3.000000 14.000000 0.500001
v -2.000000 13.000000 0.500001
v -2.000000 14.000000 0.500001
v -2.000000 1.000000 1.000001
v -2.000000 2.000000 1.000001
v -1.000000 1.000000 1.000001
v -2.000000 1.000000 0.000001
v -2.000000 2.000000 0.000001
v -1.000000 2.000000 0.000001
v -1.000000 2.000000 1.000001
v -2.000000 2.000000 0.000001
v -2.000000 3.000000 0.000001
v -1.000000 2.000000 0.000001
v -1.000000 3.000000 0.000001
v -2.000000 3.000000 0.000001
v -2.000000 4.000000 0.000001
v -1.000000 3.000000 0.000001
v -1.000000 4.000000 0.000001
v -2.000000 4.000000 0.500001
v -2.000000 5.000000 0.500001
v -1.000000 4.000000 0.500001
v -2.000000 4.000000 0.000001
v -2.000000 5.000000 0.000001
v -1.000000 5.000000 0.500001
v -1.000000 4.000000 0.000001
v -1.000000 5.000000 0.000001
v -2.000000 5.000000 0.500001
v -2.000000 6.000000 0.500001
v -1.000000 5.000000 0.500001
v -2.000000 5.000000 0.000001
v -2.000000 6.000000 0.000001
v -1.000000 6.000000 0.500001
v -1.000000 5.000000 0.000001
v -1.000000 6.000000 0.000001
v -2.000000 6.000000 0.500001
v -2.000000 7.000000 0.500001
v -1.000000 6.000000 0.500001
v -2.000000 6.000000 0.000001
v -2.000000 7.000000 0.000001
v -1.000000 7.000000 0.500001
v -2.000000 7.000000 1.000001
v -2.000000 8.000000 1.000001
v -1.000000 7.000000 1.000001
v -2.000000 7.000000 0.000001
v -2.000000 8.000000 0.000001
v -1.000000 8.000000 1.000001
v -1.000000 7.000000 0.000001
v -1.000000 8.000000 0.000001
v -2.000000 8.000000 1.000001
v -2.000000 9.000000 1.000001
v -1.000000 8.000000 1.000001
v -2.000000 8.000000 0.000001
v -2.000000 9.000000 0.000001
v -1.000000 9.000000 0.000001
v -1.000000 9.000000 1.000001
v -2.000000 9.000000 0.500001
v -2.000000 10.000000 0.500001
v -1.000000 9.000000 0.500001
v -1.000000 10.000000 0.500001
v -1.000000 9.000000 0.000001
v -1.000000 10.000000 0.000001
v -2.000000 10.000000 0.500001
v -2.000000 11.000000 0.500001
v -1.000000 10.000000 0.500001
v -2.000000 10.000000 0.000001
v -2.000000 11.000000 0.000001
v -1.000000 11.000000 0.000001
v -1.000000 10.000000 0.000001
v -1.000000 11.000000 0.500001
v -2.000000 11.000000 0.000001
v -2.000000 12.000000 0.000001
v -1.000000 11.000000 0.000001
v -1.000000 12.000000 0.000001
v -2.000000 12.000000 0.500001
v -2.000000 13.000000 0.500001
v -1.000000 12.000000 0.500001
v -1.000000 13.000000 0.500001
v -2.000000 13.000000 1.000001
v -2.000000 14.000000 1.000001
v -1.000000 13.000000 1.000001
v -2.000000 13.000000 0.000001
v -2.000000 14.000000 0.000001
v -1.000000 14.000000 0.000001
v -1.000000 13.000000 0.000001
v -1.000000 14.000000 1.000001
v -1.000000 1.000000 1.000001
v -1.000000 2.000000 1.000001
v -0.000000 1.000000 1.000001
v -0.000000 2.000000 1.000001
v 0.000000 1.000000 0.000001
v 0.000000 2.000000 0.000001
v -1.000000 2.000000 1.000001
v -1.000000 3.000000 1.000001
v -0.000000 2.000000 1.000001
v -1.000000 2.000000 0.000001
v -1.000000 3.000000 0.000001
v 0.000000 3.000000 0.000001
v 0.000000 2.000000 0.000001
v -0.000000 3.000000 1.000001
v -1.000000 3.000000 0.000001
v -1.000000 4.000000 0.000001
v 0.000000 3.000000 0.000001
v 0.000000 4.000000 0.000001
v -1.000000 4.000000 1.000001
v -1.000000 5.000000 1.000001
v -0.000000 4.000000 1.000001
v -0.000000 5.000000 1.000001
v 0.000000 4.000000 0.000001
v 0.000000 5.000000 0.000001
v -1.000000 5.000000 0.000001
v -1.000000 5.000000 0.500001
v -1.000000 6.000000 0.500001
v -0.000000 5.000000 0.500001
v -0.000000 6.000000 0.500001
v 0.000000 5.000000 0.000001
v 0.000000 6.000000 0.000001
v -1.000000 6.000000 1.000001
v -1.000000 7.000000 1.000001
v -0.000000 6.000000 1.000001
v -1.000000 6.000000 0.000001
v -1.000000 7.000000 0.000001
v 0.000000 7.000000 0.000001
v 0.000000 6.000000 0.000001
v -0.000000 7.000000 1.000001
v -1.000000 7.000000 0.500001
v -1.000000 8.000000 0.500001
v -0.000000 7.000000 0.500001
v -0.000000 8.000000 0.500001
v 0.000000 7.000000 0.000001
v 0.000000 8.000000 0.000001
v -1.000000 8.000000 1.000001
v -1.000000 9.000000 1.000001
v -0.000000 8.000000 1.000001
v -0.000000 9.000000 1.000001
v 0.000000 8.000000 0.000001
v 0.000000 9.000000 0.000001
v -1.000000 9.000000 0.000001
v -1.000000 9.000000 0.000001
v -1.000000 10.000000 0.000001
v 0.000000 9.000000 0.000001
v 0.000000 10.000000 0.000001
v -1.000000 10.000000 0.000001
v -1.000000 11.000000 0.000001
v 0.000000 10.000000 0.000001
v 0.000000 11.000000 0.000001
v -1.000000 11.000000 0.500001
v -1.000000 12.000000 0.500001
v -0.000000 11.000000 0.500001
v -1.000000 11.000000 0.000001
v -1.000000 12.000000 0.000001
v -0.000000 12.000000 0.500001
v 0.000000 11.000000 0.000001
v 0.000000 12.000000 0.000001
v -1.000000 12.000000 1.000001
v -1.000000 13.000000 1.000001
v -0.000000 12.000000 1.000001
v -1.000000 12.000000 0.000001
v -1.000000 13.000000 0.000001
v 0.000000 13.000000 0.000001
v 0.000000 12.000000 0.000001
v -0.000000 13.000000 1.000001
v -1.000000 13.000000 0.500001
v -1.000000 14.000000 0.500001
v -0.000000 13.000000 0.500001
v -0.000000 14.000000 0.500001
v 0.000000 13.000000 0.000001
v 0.000000 14.000000 0.000001
v 0.000001 1.000000 0.200000
v 0.200001 1.000000 0.200000
v 0.000001 0.900001 0.200000
v 0.000001 1.000000 -0.000000
v 0.000001 0.900001 -0.000000
v 0.200001 1.000000 -0.000000
v 0.200001 0.900001 -0.000000
v 0.200001 0.900001 0.200000
v 0.150001 0.900001 0.050000
v 0.150001 0.900001 0.150000
v 0.050001 0.900001 0.050000
v 0.150001 0.000000 0.050000
v 0.050001 0.000000 0.050000
v 0.150001 0.000000 0.150000
v 0.050001 0.000000 0.150000
v 0.050001 0.900001 0.150000
v 0.000001 3.000000 0.200000
v 0.200001 3.000000 0.200000
v 0.000001 2.900001 0.200000
v 0.000001 3.000000 -0.000000
v 0.000001 2.900001 -0.000000
v 0.200001 3.000000 -0.000000
v 0.200001 2.900001 -0.000000
v 0.200001 2.900001 0.200000
v 0.150001 2.900001 0.050000
v 0.150001 2.900001 0.150000
v 0.050001 2.900001 0.050000
v 0.150001 2.000000 0.050000
v 0.050001 2.000000 0.050000
v 0.150001 2.000000 0.150000
v 0.050001 2.000000 0.150000
v 0.050001 2.900001 0.150000
v 0.000001 4.000000 0.200000
v 0.200001 4.000000 0.200000
v 0.000001 3.900000 0.200000
v 0.000001 4.000000 -0.000000
v 0.000001 3.900000 -0.000000
v 0.200001 4.000000 -0.000000
v 0.200001 3.900000 -0.000000
v 0.200001 3.900000 0.200000
v 0.150001 3.900000 0.050000
v 0.150001 3.900000 0.150000
v 0.050001 3.900000 0.050000
v 0.150001 3.000000 0.050000
v 0.050001 3.000000 0.050000
v 0.150001 3.000000 0.150000
v 0.050001 3.000000 0.150000
v 0.050001 3.900000 0.150000
v 0.000001 5.000000 0.200000
v 0.200001 5.000000 0.200000
v 0.000001 4.900000 0.200000
v 0.000001 5.000000 -0.000000
v 0.000001 4.900000 -0.000000
v 0.200001 5.000000 -0.000000
v 0.200001 4.900000 -0.000000
v 0.200001 4.900000 0.200000
v 0.150001 4.900000 0.050000
v 0.150001 4.900000 0.150000
v 0.050001 4.900000 0.050000
v 0.150001 4.000000 0.050000
v 0.050001 4.000000 0.050000
v 0.150001 4.000000 0.150000
v 0.050001 4.000000 0.150000
v 0.050001 4.900000 0.150000
v 0.000001 6.000000 0.200000
v 0.200001 6.000000 0.200000
v 0.000001 5.900000 0.200000
v 0.000001 6.000000 -0.000000
v 0.000001 5.900000 -0.000000
v 0.200001 6.000000 -0.000000
v 0.200001 5.900000 -0.000000
v 0.200001 5.900000 0.200000
v 0.150001 5.900000 0.050000
v 0.150001 5.900000 0.150000
v 0.050001 5.900000 0.050000
v 0.150001 5.000000 0.050000
v 0.050001 5.000000 0.050000
v 0.150001 5.000000 0.150000
v 0.050001 5.000000 0.150000
v 0.050001 5.900000 0.150000
v 0.000001 7.000000 0.200000
v 0.200001 7.000000 0.200000
v 0.000001 6.900000 0.200000
v 0.000001 7.000000 -0.000000
v 0.000001 6.900000 -0.000000
v 0.200001 7.000000 -0.000000
v 0.200001 6.900000 -0.000000
v 0.200001 6.900000 0.200000
v 0.150001 6.900000 0.050000
v 0.150001 6.900000 0.150000
v 0.050001 6.900000 0.050000
v 0.150001 6.000000 0.050000
v 0.050001 6.000000 0.050000
v 0.150001 6.000000 0.150000
v 0.050001 6.000000 0.150000
v 0.050001 6.900000 0.150000
v 0.000001 8.000000 0.200000
v 0.200001 8.000000 0.200000
v 0.000001 7.900000 0.200000
v 0.000001 8.000000 -0.000000
v 0.000001 7.900000 -0.000000
v 0.200001 8.000000 -0.000000
v 0.200001 7.900000 -0.000000
v 0.200001 7.900000 0.200000
v 0.150001 7.900000 0.050000
v 0.150001 7.900000 0.150000
v 0.050001 7.900000 0.050000
v 0.150001 7.000000 0.050000
v 0.050001 7.000000 0.050000
v 0.150001 7.000000 0.150000
v 0.050001 7.000000 0.150000
v 0.050001 7.900000 0.150000
v 0.000001 9.000000 0.200000
v 0.200001 9.000000 0.200000
v 0.000001 8.900000 0.200000
v 0.000001 9.000000 -0.000000
v 0.000001 8.900000 -0.000000
v 0.200001 9.000000 -0.000000
v 0.200001 8.900000 -0.000000
v 0.200001 8.900000 0.200000
v 0.150001 8.900000 0.050000
v 0.150001 8.900000 0.150000
v 0.050001 8.900000 0.050000
v 0.150001 8.000000 0.050000
v 0.050001 8.000000 0.050000
v 0.150001 8.000000 0.150000
v 0.050001 8.000000 0.150000
v 0.050001 8.900000 0.150000
v 0.000001 10.000000 0.200000
v 0.200001 10.000000 0.200000
v 0.000001 9.900000 0.200000
v 0.000001 10.000000 -0.000000
v 0.000001 9.900000 -0.000000
v 0.200001 10.000000 -0.000000
v 0.200001 9.900000 -0.000000
v 0.200001 9.900000 0.200000
v 0.150001 9.900000 0.050000
v 0.150001 9.900000 0.150000
v 0.050001 9.900000 0.050000
v 0.150001 9.000000 0.050000
v 0.050001 9.000000 0.050000
v 0.150001 9.000000 0.150000
v 0.050001 9.000000 0.150000
v 0.050001 9.900000 0.150000
v 0.000001 11.000000 0.200000
v 0.200001 11.000000 0.200000
v 0.000001 10.900000 0.200000
v 0.000001 11.000000 -0.000000
v 0.000001 10.900000 -0.000000
v 0.200001 11.000000 -0.000000
v 0.200001 10.900000 -0.000000
v 0.200001 10.900000 0.200000
v 0.150001 10.900000 0.050000
v 0.150001 10.900000 0.150000
v 0.050001 10.900000 0.050000
v 0.150001 10.000000 0.050000
v 0.050001 10.000000 0.050000
v 0.150001 10.000000 0.150000
v 0.050001 10.000000 0.150000
v 0.050001 10.900000 0.150000
v 0.000001 12.000000 0.200000
v 0.200001 12.000000 0.200000
v 0.000001 11.900000 0.200000
v 0.000001 12.000000 -0.000000
v 0.000001 11.900000 -0.000000
v 0.200001 12.000000 -0.000000
v 0.200001 11.900000 -0.000000
v 0.200001 11.900000 0.200000
v 0.150001 11.900000 0.050000
v 0.150001 11.900000 0.149999
v 0.050001 11.900000 0.050000
v 0.150001 11.000000 0.050000
v 0.050001 11.000000 0.050000
v 0.150001 11.000000 0.150000
v 0.050001 11.000000 0.150000
v 0.050001 11.900000 0.149999
v 0.000001 13.000000 0.200000
v 0.200001 13.000000 0.200000
v 0.000001 12.900000 0.200000
v 0.000001 13.000000 -0.000000
v 0.000001 12.900000 -0.000000
v 0.200001 13.000000 -0.000000
v 0.200001 12.900000 -0.000000
v 0.200001 12.900000 0.200000
v 0.150001 12.900000 0.050000
v 0.150001 12.900000 0.149999
v 0.050001 12.900000 0.050000
v 0.150001 12.000000 0.050000
v 0.050001 12.000000 0.050000
v 0.150001 12.000000 0.150000
v 0.050001 12.000000 0.150000
v 0.050001 12.900000 0.149999
v 0.000001 14.000000 0.200000
v 0.200001 14.000000 0.200000
v 0.000001 13.900000 0.200000
v 0.000001 14.000000 -0.000000
v 0.000001 13.900000 -0.000000
v 0.200001 14.000000 -0.000000
v 0.200001 13.900000 -0.000000
v 0.200001 13.900000 0.200000
v 0.150001 13.900000 0.050000
v 0.150001 13.900000 0.149999
v 0.050001 13.900000 0.050000
v 0.150001 13.000000 0.050000
v 0.050001 13.000000 0.050000
v 0.150001 13.000000 0.150000
v 0.050001 13.000000 0.150000
v 0.050001 13.900000 0.149999
v -0.000000 14.000000 0.000000
v 0.000000 14.000000 -1.000000
v 0.000000 14.000000 -1.000000
v 0.000000 14.000000 -2.000000
v 0.000000 14.000000 -2.000000
v 0.000000 14.000000 -3.000000
v -4.000000 14.000000 0.000001
v -3.000000 14.000000 0.000001
v -3.000000 14.000000 0.000001
v -2.000000 14.000000 0.000001
v -1.000000 14.000000 0.000001
v -0.000000 14.000000 0.000001
vn -0.0000 1.0000 -0.0000
vn -0.0000 -0.0000 1.0000
vn -1.0000 -0.0000 -0.0000
vn -0.0000 -0.0000 -1.0000
vn 1.0000 -0.0000 -0.0000
vn -0.0000 -1.0000 -0.0000
vt 0.416437 0.125685
vt 0.583130 0.125685
vt 0.583130 0.375589
vt 0.416437 0.375587
vt 0.666476 0.125454
vt 0.666476 0.375818
vt 0.333091 0.375818
vt 0.333091 0.125454
vt 0.333091 0.125454
vt 0.666476 0.125454
vt 0.333091 0.125454
vt 0.666476 0.125454
vt 0.333091 0.375818
vt 0.666476 0.125454
vt 0.666476 0.375818
vt 0.333091 0.375818
vt 0.666476 0.125455
vt 0.666476 0.375818
vt 0.333091 0.375818
vt 0.333091 0.125454
vt 0.666476 0.125454
vt 0.666476 0.375818
vt 0.666476 0.500537
vt 0.333091 0.500537
vt 0.333091 0.000734
vt 0.666476 0.000734
vt 0.666476 0.500537
vt 0.333091 0.500537
vt 0.333091 0.000734
vt 0.666476 0.000734
vt 0.666476 0.500537
vt 0.666476 0.000734
vt 0.333091 0.125454
vt 0.666476 0.125455
vt 0.666476 0.375818
vt 0.666476 0.125455
vt 0.666422 0.500000
vt 0.666422 0.999266
vt 0.333578 0.999266
vt 0.333578 0.500000
vt 0.666911 0.000734
vt 0.999755 0.000734
vt 0.999755 0.500000
vt 0.666911 0.500000
vt 0.968475 0.500000
vt 0.968475 0.999266
vt 0.901816 0.999266
vt 0.901816 0.500000
vt 0.835156 0.999266
vt 0.835156 0.500000
vt 0.666653 0.500000
vt 0.666653 0.250173
vt 0.999755 0.250173
vt 0.999755 0.500000
vt 0.999755 0.500000
vt 0.999755 0.999266
vt 0.666911 0.999266
vt 0.666911 0.500000
vt 0.666653 0.500000
vt 0.666653 0.250173
vt 0.999755 0.250173
vt 0.666653 0.500000
vt 0.666653 0.250173
vt 0.999755 0.250173
vt 0.999755 0.500000
vt 0.666911 0.500000
vt 0.666911 0.999266
vt 0.666911 0.500000
vt 0.666911 0.000734
vt 0.999755 0.000734
vt 0.999755 0.500000
vt 0.666477 0.500652
vt 0.666477 0.000734
vt 0.999756 0.000734
vt 0.999755 0.500652
vt 0.666911 0.500000
vt 0.666911 0.000734
vt 0.999755 0.000734
vt 0.999755 0.500000
vt 0.666911 0.500000
vt 0.666911 0.000734
vt 0.999755 0.000734
vt 0.666653 0.500000
vt 0.666476 0.500652
vt 0.999755 0.000734
vt 0.999755 0.500652
vt 0.666422 0.999266
vt 0.333578 0.999266
vt 0.333578 0.999266
vt 0.999755 0.999266
vt 0.666911 0.999266
vt 0.666707 0.499786
vt 0.666707 0.000214
vt 0.999755 0.000214
vt 0.999755 0.499786
vt 0.999540 0.499921
vt 0.666492 0.499921
vt 0.666492 0.250135
vt 0.999540 0.250135
vt 0.999255 0.499921
vt 0.666206 0.499921
vt 0.666206 0.250135
vt 0.999255 0.250135
vt 0.999540 0.499921
vt 0.666492 0.499921
vt 0.666492 0.250135
vt 0.999540 0.250135
vt 0.999254 0.499921
vt 0.666206 0.499921
vt 0.666206 0.250135
vt 0.999254 0.250135
vt 0.999255 0.499921
vt 0.666206 0.499922
vt 0.666206 0.250135
vt 0.999755 0.500652
vt 0.666707 0.500652
vt 0.666707 0.250866
vt 0.999755 0.250866
s 0
usemtl Material.027
f 2/1/1 6/2/1 4/3/1 1/4/1
f 2/5/2 1/6/2 3/7/2 8/8/2
f 3/6/3 1/7/3 4/9/3 5/10/3
f 6/11/4 7/12/4 5/6/4 4/13/4
f 6/14/5 2/15/5 8/7/5 7/9/5
f 7/16/6 8/8/6 10/17/6 9/18/6
f 5/19/6 7/20/6 9/21/6 11/22/6
f 9/23/5 10/24/5 14/25/5 12/26/5
f 11/27/4 9/28/4 12/29/4 13/30/4
f 10/31/2 16/28/2 15/29/2 14/32/2
f 16/23/3 11/24/3 13/25/3 15/26/3
f 8/7/6 3/33/6 16/34/6 10/35/6
f 3/7/6 5/33/6 11/36/6 16/6/6
f 19/37/5 20/38/5 18/39/5 17/40/5
f 22/5/5 21/6/5 23/7/5 28/8/5
f 22/1/1 26/2/1 24/3/1 21/4/1
f 23/6/2 21/7/2 24/9/2 25/10/2
f 26/14/4 22/15/4 28/7/4 27/9/4
f 27/16/6 28/8/6 30/17/6 29/18/6
f 29/23/4 30/24/4 32/25/4 31/26/4
f 30/31/5 35/28/5 33/29/5 32/32/5
f 35/23/2 36/24/2 34/25/2 33/26/2
f 28/7/6 23/33/6 35/34/6 30/35/6
f 23/7/6 25/33/6 36/36/6 35/6/6
f 38/1/1 42/2/1 40/3/1 37/4/1
f 38/5/5 37/6/5 39/7/5 44/8/5
f 39/6/2 37/7/2 40/9/2 41/10/2
f 42/14/4 38/15/4 44/7/4 43/9/4
f 43/16/6 44/8/6 46/17/6 45/18/6
f 45/23/4 46/24/4 48/25/4 47/26/4
f 46/31/5 51/28/5 49/29/5 48/32/5
f 51/23/2 52/24/2 50/25/2 49/26/2
f 44/7/6 39/33/6 51/34/6 46/35/6
f 39/7/6 41/33/6 52/36/6 51/6/6
f 54/1/1 58/2/1 56/3/1 53/4/1
f 54/5/5 53/6/5 55/7/5 60/8/5
f 55/6/2 53/7/2 56/9/2 57/10/2
f 58/14/4 54/15/4 60/7/4 59/9/4
f 59/16/6 60/8/6 62/17/6 61/18/6
f 61/23/4 62/24/4 64/25/4 63/26/4
f 62/31/5 67/28/5 65/29/5 64/32/5
f 67/23/2 68/24/2 66/25/2 65/26/2
f 60/7/6 55/33/6 67/34/6 62/35/6
f 55/7/6 57/33/6 68/36/6 67/6/6
f 70/1/1 74/2/1 72/3/1 69/4/1
f 70/5/5 69/6/5 71/7/5 76/8/5
f 71/6/2 69/7/2 72/9/2 73/10/2
f 74/14/4 70/15/4 76/7/4 75/9/4
f 75/16/6 76/8/6 78/17/6 77/18/6
f 77/23/4 78/24/4 80/25/4 79/26/4
f 78/31/5 83/28/5 81/29/5 80/32/5
f 83/23/2 84/24/2 82/25/2 81/26/2
f 76/7/6 71/33/6 83/34/6 78/35/6
f 71/7/6 73/33/6 84/36/6 83/6/6
f 86/1/1 90/2/1 88/3/1 85/4/1
f 86/5/5 85/6/5 87/7/5 92/8/5
f 87/6/2 85/7/2 88/9/2 89/10/2
f 90/14/4 86/15/4 92/7/4 91/9/4
f 91/16/6 92/8/6 94/17/6 93/18/6
f 93/23/4 94/24/4 96/25/4 95/26/4
f 94/31/5 99/28/5 97/29/5 96/32/5
f 99/23/2 100/24/2 98/25/2 97/26/2
f 92/7/6 87/33/6 99/34/6 94/35/6
f 87/7/6 89/33/6 100/36/6 99/6/6
f 102/1/1 106/2/1 104/3/1 101/4/1
f 102/5/5 101/6/5 103/7/5 108/8/5
f 103/6/2 101/7/2 104/9/2 105/10/2
f 106/14/4 102/15/4 108/7/4 107/9/4
f 107/16/6 108/8/6 110/17/6 109/18/6
f 109/23/4 110/24/4 112/25/4 111/26/4
f 110/31/5 115/28/5 113/29/5 112/32/5
f 115/23/2 116/24/2 114/25/2 113/26/2
f 108/7/6 103/33/6 115/34/6 110/35/6
f 103/7/6 105/33/6 116/36/6 115/6/6
f 118/1/1 122/2/1 120/3/1 117/4/1
f 118/5/5 117/6/5 119/7/5 124/8/5
f 119/6/2 117/7/2 120/9/2 121/10/2
f 122/14/4 118/15/4 124/7/4 123/9/4
f 123/16/6 124/8/6 126/17/6 125/18/6
f 125/23/4 126/24/4 128/25/4 127/26/4
f 126/31/5 131/28/5 129/29/5 128/32/5
f 131/23/2 132/24/2 130/25/2 129/26/2
f 124/7/6 119/33/6 131/34/6 126/35/6
f 119/7/6 121/33/6 132/36/6 131/6/6
f 134/1/1 138/2/1 136/3/1 133/4/1
f 134/5/5 133/6/5 135/7/5 140/8/5
f 135/6/2 133/7/2 136/9/2 137/10/2
f 138/14/4 134/15/4 140/7/4 139/9/4
f 139/16/6 140/8/6 142/17/6 141/18/6
f 141/23/4 142/24/4 144/25/4 143/26/4
f 142/31/5 147/28/5 145/29/5 144/32/5
f 147/23/2 148/24/2 146/25/2 145/26/2
f 140/7/6 135/33/6 147/34/6 142/35/6
f 135/7/6 137/33/6 148/36/6 147/6/6
f 150/1/1 154/2/1 152/3/1 149/4/1
f 150/5/5 149/6/5 151/7/5 156/8/5
f 151/6/2 149/7/2 152/9/2 153/10/2
f 154/14/4 150/15/4 156/7/4 155/9/4
f 155/16/6 156/8/6 158/17/6 157/18/6
f 157/23/4 158/24/4 160/25/4 159/26/4
f 158/31/5 163/28/5 161/29/5 160/32/5
f 163/23/2 164/24/2 162/25/2 161/26/2
f 156/7/6 151/33/6 163/34/6 158/35/6
f 151/7/6 153/33/6 164/36/6 163/6/6
f 166/1/1 170/2/1 168/3/1 165/4/1
f 166/5/5 165/6/5 167/7/5 172/8/5
f 167/6/2 165/7/2 168/9/2 169/10/2
f 170/14/4 166/15/4 172/7/4 171/9/4
f 171/16/6 172/8/6 174/17/6 173/18/6
f 173/23/4 174/24/4 176/25/4 175/26/4
f 174/31/5 179/28/5 177/29/5 176/32/5
f 179/23/2 180/24/2 178/25/2 177/26/2
f 172/7/6 167/33/6 179/34/6 174/35/6
f 167/7/6 169/33/6 180/36/6 179/6/6
f 182/1/1 186/2/1 184/3/1 181/4/1
f 182/5/5 181/6/5 183/7/5 188/8/5
f 183/6/2 181/7/2 184/9/2 185/10/2
f 186/14/4 182/15/4 188/7/4 187/9/4
f 187/16/6 188/8/6 190/17/6 189/18/6
f 189/23/4 190/24/4 192/25/4 191/26/4
f 190/31/5 195/28/5 193/29/5 192/32/5
f 195/23/2 196/24/2 194/25/2 193/26/2
f 188/7/6 183/33/6 195/34/6 190/35/6
f 183/7/6 185/33/6 196/36/6 195/6/6
f 198/1/1 202/2/1 200/3/1 197/4/1
f 198/5/5 197/6/5 199/7/5 204/8/5
f 199/6/2 197/7/2 200/9/2 201/10/2
f 202/14/4 198/15/4 204/7/4 203/9/4
f 203/16/6 204/8/6 206/17/6 205/18/6
f 205/23/4 206/24/4 208/25/4 207/26/4
f 206/31/5 211/28/5 209/29/5 208/32/5
f 211/23/2 212/24/2 210/25/2 209/26/2
f 204/7/6 199/33/6 211/34/6 206/35/6
f 199/7/6 201/33/6 212/36/6 211/6/6
f 214/1/1 218/2/1 216/3/1 213/4/1
f 214/5/5 213/6/5 215/7/5 220/8/5
f 215/6/2 213/7/2 216/9/2 217/10/2
f 218/14/4 214/15/4 220/7/4 219/9/4
f 219/16/6 220/8/6 222/17/6 221/18/6
f 221/23/4 222/24/4 224/25/4 223/26/4
f 222/31/5 227/28/5 225/29/5 224/32/5
f 227/23/2 228/24/2 226/25/2 225/26/2
f 220/7/6 215/33/6 227/34/6 222/35/6
f 215/7/6 217/33/6 228/36/6 227/6/6
f 230/5/5 229/6/5 231/7/5 244/8/5
f 231/6/2 229/7/2 232/9/2 233/10/2
f 231/7/6 233/33/6 234/36/6 235/6/6
f 235/23/2 234/24/2 236/25/2 237/26/2
f 239/31/5 235/28/5 237/29/5 238/32/5
f 241/23/4 239/24/4 238/25/4 240/26/4
f 242/16/6 244/8/6 239/17/6 241/18/6
f 243/14/4 230/15/4 244/7/4 242/9/4
f 244/7/6 231/33/6 235/34/6 239/35/6
f 247/41/5 248/42/5 246/43/5 245/44/5
f 248/45/1 247/46/1 249/47/1 251/48/1
f 250/49/5 252/50/5 251/48/5 249/47/5
f 255/41/5 256/42/5 254/43/5 253/44/5
f 256/45/1 255/46/1 257/47/1 259/48/1
f 258/49/5 260/50/5 259/48/5 257/47/5
f 263/41/5 264/42/5 262/43/5 261/44/5
f 264/45/1 263/46/1 265/47/1 267/48/1
f 266/49/5 268/50/5 267/48/5 265/47/5
f 271/41/5 272/42/5 270/43/5 269/44/5
f 272/45/1 271/46/1 273/47/1 275/48/1
f 274/49/5 276/50/5 275/48/5 273/47/5
f 278/51/2 281/52/2 280/53/2 277/54/2
f 279/55/5 282/56/5 278/57/5 277/58/5
f 284/51/2 287/52/2 286/53/2 283/54/2
f 285/55/5 288/56/5 284/57/5 283/58/5
f 290/51/2 293/52/2 292/53/2 289/54/2
f 291/55/5 296/56/5 290/57/5 289/58/5
f 296/59/1 294/60/1 293/61/1 290/55/1
f 291/62/4 295/63/4 294/64/4 296/65/4
f 297/66/5 299/55/5 300/56/5 298/67/5
f 302/51/2 305/52/2 304/53/2 301/54/2
f 303/55/5 306/56/5 302/57/5 301/58/5
f 308/68/2 311/69/2 310/70/2 307/71/2
f 309/37/5 312/38/5 308/39/5 307/40/5
f 309/72/4 313/73/4 314/74/4 312/75/4
f 316/68/2 319/69/2 318/70/2 315/71/2
f 317/37/5 320/38/5 316/39/5 315/40/5
f 317/72/4 321/73/4 322/74/4 320/75/4
f 324/76/2 327/77/2 326/78/2 323/79/2
f 325/55/5 329/56/5 324/57/5 323/58/5
f 329/80/1 328/81/1 327/82/1 324/55/1
f 332/37/5 333/38/5 331/39/5 330/40/5
f 334/66/5 336/55/5 337/56/5 335/67/5
f 339/51/2 342/52/2 341/53/2 338/54/2
f 340/55/5 343/56/5 339/57/5 338/58/5
f 345/83/2 348/52/2 347/53/2 344/54/2
f 346/37/5 349/38/5 345/39/5 344/40/5
f 352/55/5 353/56/5 351/57/5 350/58/5
f 352/62/4 354/63/4 355/64/4 353/65/4
f 357/68/2 360/69/2 359/70/2 356/71/2
f 358/37/5 363/38/5 357/39/5 356/40/5
f 363/80/1 361/81/1 360/82/1 357/55/1
f 358/72/4 362/73/4 361/74/4 363/75/4
f 366/37/5 367/38/5 365/39/5 364/40/5
f 369/76/2 372/77/2 371/78/2 368/79/2
f 370/55/5 375/56/5 369/57/5 368/58/5
f 375/80/1 373/81/1 372/82/1 369/55/1
f 370/84/4 374/26/4 373/85/4 375/86/4
f 378/55/5 379/56/5 377/57/5 376/58/5
f 382/55/5 383/56/5 381/57/5 380/58/5
f 382/62/4 384/63/4 385/64/4 383/65/4
f 388/55/5 389/56/5 387/57/5 386/58/5
f 388/62/4 390/63/4 391/64/4 389/65/4
f 394/37/5 395/38/5 393/39/5 392/40/5
f 394/72/4 396/73/4 397/74/4 395/75/4
f 395/80/1 397/81/1 398/82/1 393/55/1
f 401/37/5 402/38/5 400/39/5 399/40/5
f 404/68/2 407/69/2 406/70/2 403/71/2
f 405/37/5 408/38/5 404/39/5 403/40/5
f 405/72/4 409/73/4 410/74/4 408/75/4
f 412/76/2 415/77/2 414/78/2 411/79/2
f 413/55/5 417/56/5 412/57/5 411/58/5
f 417/80/1 416/81/1 415/82/1 412/55/1
f 420/55/5 421/56/5 419/57/5 418/58/5
f 420/62/4 422/63/4 423/64/4 421/65/4
f 426/55/5 427/56/5 425/57/5 424/58/5
f 428/66/5 430/55/5 431/56/5 429/67/5
f 434/37/5 435/38/5 433/39/5 432/40/5
f 436/66/5 438/55/5 439/56/5 437/67/5
f 442/37/5 443/38/5 441/39/5 440/40/5
f 446/55/5 447/56/5 445/57/5 444/58/5
f 447/59/1 448/60/1 449/61/1 445/55/1
f 452/37/5 453/38/5 451/39/5 450/40/5
f 456/37/5 457/38/5 455/39/5 454/40/5
f 460/55/5 461/56/5 459/57/5 458/58/5
f 460/62/4 462/63/4 463/64/4 461/65/4
f 461/59/1 463/60/1 464/61/1 459/55/1
f 465/66/5 467/55/5 468/56/5 466/67/5
f 471/37/5 472/38/5 470/39/5 469/40/5
f 471/59/4 473/60/4 474/53/4 472/43/4
f 477/37/5 478/38/5 476/39/5 475/40/5
f 477/72/4 479/73/4 480/74/4 478/75/4
f 478/80/1 480/81/1 481/82/1 476/55/1
f 484/37/5 485/38/5 483/39/5 482/40/5
f 488/37/5 489/87/5 487/88/5 486/40/5
f 488/59/4 490/60/4 491/53/4 489/43/4
f 493/68/2 496/69/2 495/70/2 492/71/2
f 494/37/5 497/38/5 493/39/5 492/40/5
f 494/72/4 498/73/4 499/74/4 497/75/4
f 501/68/2 504/69/2 503/70/2 500/71/2
f 502/37/5 507/38/5 501/39/5 500/40/5
f 507/80/1 505/81/1 504/82/1 501/55/1
f 502/72/4 506/73/4 505/74/4 507/75/4
f 509/51/2 512/52/2 511/53/2 508/54/2
f 510/55/5 515/56/5 509/57/5 508/58/5
f 515/59/1 513/60/1 512/61/1 509/55/1
f 510/62/4 514/63/4 513/64/4 515/65/4
f 518/37/5 519/38/5 517/39/5 516/40/5
f 521/68/2 524/69/2 523/70/2 520/71/2
f 522/37/5 527/38/5 521/39/5 520/40/5
f 527/80/1 525/81/1 524/82/1 521/55/1
f 522/72/4 526/73/4 525/74/4 527/75/4
f 529/83/2 532/52/2 531/53/2 528/54/2
f 530/37/5 533/38/5 529/39/5 528/40/5
f 530/59/4 534/60/4 535/53/4 533/43/4
f 537/68/2 540/69/2 539/70/2 536/71/2
f 538/37/5 543/38/5 537/39/5 536/40/5
f 543/80/1 541/81/1 540/82/1 537/55/1
f 538/72/4 542/73/4 541/74/4 543/75/4
f 546/37/5 547/38/5 545/39/5 544/40/5
f 550/37/5 551/38/5 549/39/5 548/40/5
f 552/66/5 554/55/5 555/56/5 553/67/5
f 556/66/5 558/55/5 559/56/5 557/67/5
f 561/51/2 564/52/2 563/53/2 560/54/2
f 562/55/5 567/56/5 561/57/5 560/58/5
f 567/59/1 565/60/1 564/61/1 561/55/1
f 562/62/4 566/63/4 565/64/4 567/65/4
f 568/66/5 570/55/5 571/56/5 569/67/5
f 573/1/1 577/2/1 575/3/1 572/4/1
f 573/5/3 572/6/3 574/7/3 579/8/3
f 577/11/5 578/12/5 576/6/5 575/13/5
f 577/14/2 573/15/2 579/7/2 578/9/2
f 578/16/6 579/8/6 581/17/6 580/18/6
f 576/19/6 578/20/6 580/21/6 582/22/6
f 580/23/2 581/24/2 585/25/2 583/26/2
f 582/27/5 580/28/5 583/29/5 584/30/5
f 581/31/3 587/28/3 586/29/3 585/32/3
f 579/7/6 574/33/6 587/34/6 581/35/6
f 589/1/1 593/2/1 591/3/1 588/4/1
f 589/5/3 588/6/3 590/7/3 595/8/3
f 593/11/5 594/12/5 592/6/5 591/13/5
f 593/14/2 589/15/2 595/7/2 594/9/2
f 594/16/6 595/8/6 597/17/6 596/18/6
f 592/19/6 594/20/6 596/21/6 598/22/6
f 596/23/2 597/24/2 601/25/2 599/26/2
f 598/27/5 596/28/5 599/29/5 600/30/5
f 597/31/3 603/28/3 602/29/3 601/32/3
f 595/7/6 590/33/6 603/34/6 597/35/6
f 605/1/1 609/2/1 607/3/1 604/4/1
f 605/5/3 604/6/3 606/7/3 611/8/3
f 609/11/5 610/12/5 608/6/5 607/13/5
f 609/14/2 605/15/2 611/7/2 610/9/2
f 610/16/6 611/8/6 613/17/6 612/18/6
f 608/19/6 610/20/6 612/21/6 614/22/6
f 612/23/2 613/24/2 617/25/2 615/26/2
f 614/27/5 612/28/5 615/29/5 616/30/5
f 613/31/3 619/28/3 618/29/3 617/32/3
f 611/7/6 606/33/6 619/34/6 613/35/6
f 621/1/1 625/2/1 623/3/1 620/4/1
f 621/5/3 620/6/3 622/7/3 627/8/3
f 625/11/5 626/12/5 624/6/5 623/13/5
f 625/14/2 621/15/2 627/7/2 626/9/2
f 626/16/6 627/8/6 629/17/6 628/18/6
f 624/19/6 626/20/6 628/21/6 630/22/6
f 628/23/2 629/24/2 633/25/2 631/26/2
f 630/27/5 628/28/5 631/29/5 632/30/5
f 629/31/3 635/28/3 634/29/3 633/32/3
f 627/7/6 622/33/6 635/34/6 629/35/6
f 637/1/1 641/2/1 639/3/1 636/4/1
f 637/5/3 636/6/3 638/7/3 643/8/3
f 641/11/5 642/12/5 640/6/5 639/13/5
f 641/14/2 637/15/2 643/7/2 642/9/2
f 642/16/6 643/8/6 645/17/6 644/18/6
f 640/19/6 642/20/6 644/21/6 646/22/6
f 644/23/2 645/24/2 649/25/2 647/26/2
f 646/27/5 644/28/5 647/29/5 648/30/5
f 645/31/3 651/28/3 650/29/3 649/32/3
f 643/7/6 638/33/6 651/34/6 645/35/6
f 653/1/1 657/2/1 655/3/1 652/4/1
f 653/5/3 652/6/3 654/7/3 659/8/3
f 657/11/5 658/12/5 656/6/5 655/13/5
f 657/14/2 653/15/2 659/7/2 658/9/2
f 658/16/6 659/8/6 661/17/6 660/18/6
f 656/19/6 658/20/6 660/21/6 662/22/6
f 660/23/2 661/24/2 665/25/2 663/26/2
f 662/27/5 660/28/5 663/29/5 664/30/5
f 661/31/3 667/28/3 666/29/3 665/32/3
f 659/7/6 654/33/6 667/34/6 661/35/6
f 669/1/1 673/2/1 671/3/1 668/4/1
f 669/5/3 668/6/3 670/7/3 675/8/3
f 673/11/5 674/12/5 672/6/5 671/13/5
f 673/14/2 669/15/2 675/7/2 674/9/2
f 674/16/6 675/8/6 677/17/6 676/18/6
f 672/19/6 674/20/6 676/21/6 678/22/6
f 676/23/2 677/24/2 681/25/2 679/26/2
f 678/27/5 676/28/5 679/29/5 680/30/5
f 677/31/3 683/28/3 682/29/3 681/32/3
f 675/7/6 670/33/6 683/34/6 677/35/6
f 685/1/1 689/2/1 687/3/1 684/4/1
f 685/5/3 684/6/3 686/7/3 691/8/3
f 689/11/5 690/12/5 688/6/5 687/13/5
f 689/14/2 685/15/2 691/7/2 690/9/2
f 690/16/6 691/8/6 693/17/6 692/18/6
f 688/19/6 690/20/6 692/21/6 694/22/6
f 692/23/2 693/24/2 697/25/2 695/26/2
f 694/27/5 692/28/5 695/29/5 696/30/5
f 693/31/3 699/28/3 698/29/3 697/32/3
f 691/7/6 686/33/6 699/34/6 693/35/6
f 701/1/1 705/2/1 703/3/1 700/4/1
f 701/5/3 700/6/3 702/7/3 707/8/3
f 705/11/5 706/12/5 704/6/5 703/13/5
f 705/14/2 701/15/2 707/7/2 706/9/2
f 706/16/6 707/8/6 709/17/6 708/18/6
f 704/19/6 706/20/6 708/21/6 710/22/6
f 708/23/2 709/24/2 713/25/2 711/26/2
f 710/27/5 708/28/5 711/29/5 712/30/5
f 709/31/3 715/28/3 714/29/3 713/32/3
f 707/7/6 702/33/6 715/34/6 709/35/6
f 717/1/1 721/2/1 719/3/1 716/4/1
f 717/5/3 716/6/3 718/7/3 723/8/3
f 721/11/5 722/12/5 720/6/5 719/13/5
f 721/14/2 717/15/2 723/7/2 722/9/2
f 722/16/6 723/8/6 725/17/6 724/18/6
f 720/19/6 722/20/6 724/21/6 726/22/6
f 724/23/2 725/24/2 729/25/2 727/26/2
f 726/27/5 724/28/5 727/29/5 728/30/5
f 725/31/3 731/28/3 730/29/3 729/32/3
f 723/7/6 718/33/6 731/34/6 725/35/6
f 733/1/1 737/2/1 735/3/1 732/4/1
f 733/5/3 732/6/3 734/7/3 739/8/3
f 737/11/5 738/12/5 736/6/5 735/13/5
f 737/14/2 733/15/2 739/7/2 738/9/2
f 738/16/6 739/8/6 741/17/6 740/18/6
f 736/19/6 738/20/6 740/21/6 742/22/6
f 740/23/2 741/24/2 745/25/2 743/26/2
f 742/27/5 740/28/5 743/29/5 744/30/5
f 741/31/3 747/28/3 746/29/3 745/32/3
f 739/7/6 734/33/6 747/34/6 741/35/6
f 749/1/1 753/2/1 751/3/1 748/4/1
f 749/5/3 748/6/3 750/7/3 755/8/3
f 753/11/5 754/12/5 752/6/5 751/13/5
f 753/14/2 749/15/2 755/7/2 754/9/2
f 754/16/6 755/8/6 757/17/6 756/18/6
f 752/19/6 754/20/6 756/21/6 758/22/6
f 756/23/2 757/24/2 761/25/2 759/26/2
f 758/27/5 756/28/5 759/29/5 760/30/5
f 757/31/3 763/28/3 762/29/3 761/32/3
f 755/7/6 750/33/6 763/34/6 757/35/6
f 765/1/1 769/2/1 767/3/1 764/4/1
f 765/5/3 764/6/3 766/7/3 771/8/3
f 769/11/5 770/12/5 768/6/5 767/13/5
f 769/14/2 765/15/2 771/7/2 770/9/2
f 770/16/6 771/8/6 773/17/6 772/18/6
f 768/19/6 770/20/6 772/21/6 774/22/6
f 772/23/2 773/24/2 777/25/2 775/26/2
f 774/27/5 772/28/5 775/29/5 776/30/5
f 773/31/3 779/28/3 778/29/3 777/32/3
f 771/7/6 766/33/6 779/34/6 773/35/6
f 781/5/3 780/6/3 782/7/3 783/8/3
f 783/7/6 782/33/6 784/34/6 785/35/6
f 785/31/3 784/28/3 786/29/3 787/32/3
f 790/23/2 785/24/2 787/25/2 788/26/2
f 791/27/5 790/28/5 788/29/5 789/30/5
f 792/16/6 783/8/6 785/17/6 790/18/6
f 794/19/6 792/20/6 790/21/6 791/22/6
f 793/11/5 792/12/5 794/6/5 795/13/5
f 793/14/2 781/15/2 783/7/2 792/9/2
f 798/41/2 799/42/2 797/43/2 796/44/2
f 799/45/1 798/46/1 800/47/1 802/48/1
f 801/49/2 803/50/2 802/48/2 800/47/2
f 806/41/2 807/42/2 805/43/2 804/44/2
f 807/45/1 806/46/1 808/47/1 810/48/1
f 809/49/2 811/50/2 810/48/2 808/47/2
f 814/41/2 815/42/2 813/43/2 812/44/2
f 815/45/1 814/46/1 816/47/1 818/48/1
f 817/49/2 819/50/2 818/48/2 816/47/2
f 822/41/2 823/42/2 821/43/2 820/44/2
f 823/45/1 822/46/1 824/47/1 826/48/1
f 825/49/2 827/50/2 826/48/2 824/47/2
f 829/76/3 832/77/3 831/78/3 828/79/3
f 830/55/2 833/56/2 829/57/2 828/58/2
f 830/84/5 834/26/5 835/85/5 833/86/5
f 837/76/3 840/77/3 839/78/3 836/79/3
f 838/55/2 842/56/2 837/57/2 836/58/2
f 842/80/1 841/81/1 840/82/1 837/55/1
f 844/51/3 847/52/3 846/53/3 843/54/3
f 845/55/2 848/56/2 844/57/2 843/58/2
f 845/62/5 849/63/5 850/64/5 848/65/5
f 852/51/3 855/52/3 854/53/3 851/54/3
f 853/55/2 858/56/2 852/57/2 851/58/2
f 858/59/1 856/60/1 855/61/1 852/55/1
f 853/62/5 857/63/5 856/64/5 858/65/5
f 859/66/2 861/55/2 862/56/2 860/67/2
f 864/83/3 867/52/3 866/53/3 863/54/3
f 865/37/2 868/38/2 864/39/2 863/40/2
f 865/59/5 869/60/5 870/53/5 868/43/5
f 872/83/3 875/52/3 874/53/3 871/54/3
f 873/37/2 876/38/2 872/39/2 871/40/2
f 873/59/5 877/60/5 878/53/5 876/43/5
f 880/51/3 883/52/3 882/53/3 879/54/3
f 881/55/2 884/56/2 880/57/2 879/58/2
f 881/62/5 885/63/5 886/64/5 884/65/5
f 888/76/3 891/77/3 890/78/3 887/79/3
f 889/55/2 893/56/2 888/57/2 887/58/2
f 893/80/1 892/81/1 891/82/1 888/55/1
f 896/37/2 897/38/2 895/39/2 894/40/2
f 899/83/3 902/52/3 901/53/3 898/54/3
f 900/37/2 903/38/2 899/39/2 898/40/2
f 900/59/5 904/60/5 905/53/5 903/43/5
f 907/76/3 910/77/3 909/78/3 906/79/3
f 908/55/2 913/56/2 907/57/2 906/58/2
f 913/80/1 911/81/1 910/82/1 907/55/1
f 908/84/5 912/26/5 911/85/5 913/86/5
f 915/83/3 918/52/3 917/53/3 914/54/3
f 916/37/2 919/87/2 915/89/2 914/40/2
f 922/55/2 923/56/2 921/57/2 920/58/2
f 926/37/2 927/38/2 925/39/2 924/40/2
f 926/72/5 928/73/5 929/74/5 927/75/5
f 927/80/1 929/81/1 930/82/1 925/55/1
f 931/66/2 933/55/2 934/56/2 932/67/2
f 937/37/2 938/38/2 936/39/2 935/40/2
f 941/37/2 942/38/2 940/39/2 939/40/2
f 943/66/2 945/55/2 946/56/2 944/67/2
f 949/37/2 950/38/2 948/39/2 947/40/2
f 951/66/2 953/55/2 954/56/2 952/67/2
f 957/55/2 958/56/2 956/57/2 955/58/2
f 957/84/5 959/26/5 960/85/5 958/86/5
f 958/80/1 960/81/1 961/82/1 956/55/1
f 962/66/2 964/55/2 965/56/2 963/67/2
f 966/66/2 968/55/2 969/56/2 967/67/2
f 972/37/2 973/38/2 971/39/2 970/40/2
f 976/55/2 977/90/2 975/91/2 974/58/2
f 979/68/3 982/69/3 981/70/3 978/71/3
f 980/37/2 984/38/2 979/39/2 978/40/2
f 984/80/1 983/81/1 982/82/1 979/55/1
f 985/66/2 987/55/2 988/56/2 986/67/2
f 991/37/2 992/38/2 990/39/2 989/40/2
f 994/51/3 997/52/3 996/53/3 993/54/3
f 995/55/2 998/56/2 994/57/2 993/58/2
f 995/62/5 999/63/5 1000/64/5 998/65/5
f 1002/83/3 1005/52/3 1004/53/3 1001/54/3
f 1003/37/2 1006/38/2 1002/39/2 1001/40/2
f 1003/59/5 1007/60/5 1008/53/5 1006/43/5
f 1010/51/3 1013/52/3 1012/53/3 1009/54/3
f 1011/55/2 1014/56/2 1010/57/2 1009/58/2
f 1016/76/3 1019/77/3 1018/78/3 1015/79/3
f 1017/55/2 1020/56/2 1016/57/2 1015/58/2
f 1017/84/5 1021/26/5 1022/85/5 1020/86/5
f 1024/68/3 1027/69/3 1026/70/3 1023/71/3
f 1025/37/2 1029/38/2 1024/39/2 1023/40/2
f 1029/80/1 1028/81/1 1027/82/1 1024/55/1
f 1032/55/2 1033/56/2 1031/57/2 1030/58/2
f 1032/62/5 1034/63/5 1035/64/5 1033/65/5
f 1037/83/3 1040/52/3 1039/53/3 1036/54/3
f 1038/37/2 1043/38/2 1037/39/2 1036/40/2
f 1043/59/1 1041/60/1 1040/61/1 1037/43/1
f 1038/59/5 1042/60/5 1041/53/5 1043/43/5
f 1044/66/2 1046/55/2 1047/56/2 1045/67/2
f 1050/37/2 1051/38/2 1049/39/2 1048/40/2
f 1053/76/3 1056/77/3 1055/78/3 1052/79/3
f 1054/55/2 1059/56/2 1053/57/2 1052/58/2
f 1059/92/1 1057/93/1 1056/94/1 1053/95/1
f 1054/84/5 1058/26/5 1057/85/5 1059/86/5
f 1062/55/2 1063/56/2 1061/57/2 1060/58/2
f 1062/84/5 1064/26/5 1065/85/5 1063/86/5
f 1067/76/3 1070/77/3 1069/78/3 1066/79/3
f 1068/55/2 1073/56/2 1067/57/2 1066/58/2
f 1073/80/1 1071/81/1 1070/82/1 1067/55/1
f 1068/84/5 1072/26/5 1071/85/5 1073/86/5
f 1074/66/2 1076/55/2 1077/56/2 1075/67/2
f 1080/55/2 1081/56/2 1079/57/2 1078/58/2
f 1080/84/5 1082/26/5 1083/85/5 1081/86/5
f 1081/80/1 1083/81/1 1084/82/1 1079/55/1
f 1087/55/2 1088/56/2 1086/57/2 1085/58/2
f 1087/62/5 1089/63/5 1090/64/5 1088/65/5
f 1092/68/3 1095/69/3 1094/70/3 1091/71/3
f 1093/37/2 1098/38/2 1092/39/2 1091/40/2
f 1098/80/1 1096/81/1 1095/82/1 1092/55/1
f 1093/72/5 1097/73/5 1096/74/5 1098/75/5
f 1101/55/2 1102/56/2 1100/57/2 1099/58/2
f 1101/62/5 1103/63/5 1104/64/5 1102/65/5
f 1107/55/2 1108/56/2 1106/57/2 1105/58/2
f 1107/84/5 1109/26/5 1110/85/5 1108/86/5
f 1108/80/1 1110/81/1 1111/82/1 1106/55/1
f 1112/66/2 1114/55/2 1115/56/2 1113/67/2
f 1118/37/2 1119/38/2 1117/39/2 1116/40/2
f 1121/83/3 1124/52/3 1123/53/3 1120/54/3
f 1122/37/2 1125/38/2 1121/39/2 1120/40/2
f 1122/59/5 1126/60/5 1127/53/5 1125/43/5
f 1129/68/3 1132/69/3 1131/70/3 1128/71/3
f 1130/37/2 1135/38/2 1129/39/2 1128/40/2
f 1135/80/1 1133/81/1 1132/82/1 1129/55/1
f 1130/72/5 1134/73/5 1133/74/5 1135/75/5
f 1138/55/2 1139/56/2 1137/57/2 1136/58/2
f 1138/62/5 1140/63/5 1141/64/5 1139/65/5
f 1143/1/1 1147/2/1 1145/3/1 1142/4/1
f 1143/5/2 1142/6/2 1144/7/2 1149/8/2
f 1144/6/3 1142/7/3 1145/9/3 1146/10/3
f 1147/11/4 1148/12/4 1146/6/4 1145/13/4
f 1147/14/5 1143/15/5 1149/7/5 1148/9/5
f 1148/16/6 1149/8/6 1151/17/6 1150/18/6
f 1146/19/6 1148/20/6 1150/21/6 1152/22/6
f 1150/23/5 1151/24/5 1155/25/5 1153/26/5
f 1152/27/4 1150/28/4 1153/29/4 1154/30/4
f 1151/31/2 1157/28/2 1156/29/2 1155/32/2
f 1157/23/3 1152/24/3 1154/25/3 1156/26/3
f 1149/7/6 1144/33/6 1157/34/6 1151/35/6
f 1144/7/6 1146/33/6 1152/36/6 1157/6/6
f 1159/1/1 1163/2/1 1161/3/1 1158/4/1
f 1159/5/2 1158/6/2 1160/7/2 1165/8/2
f 1160/6/3 1158/7/3 1161/9/3 1162/10/3
f 1163/11/4 1164/12/4 1162/6/4 1161/13/4
f 1163/14/5 1159/15/5 1165/7/5 1164/9/5
f 1164/16/6 1165/8/6 1167/17/6 1166/18/6
f 1162/19/6 1164/20/6 1166/21/6 1168/22/6
f 1166/23/5 1167/24/5 1171/25/5 1169/26/5
f 1168/27/4 1166/28/4 1169/29/4 1170/30/4
f 1167/31/2 1173/28/2 1172/29/2 1171/32/2
f 1173/23/3 1168/24/3 1170/25/3 1172/26/3
f 1165/7/6 1160/33/6 1173/34/6 1167/35/6
f 1160/7/6 1162/33/6 1168/36/6 1173/6/6
f 1175/1/1 1179/2/1 1177/3/1 1174/4/1
f 1175/5/2 1174/6/2 1176/7/2 1181/8/2
f 1176/6/3 1174/7/3 1177/9/3 1178/10/3
f 1179/11/4 1180/12/4 1178/6/4 1177/13/4
f 1179/14/5 1175/15/5 1181/7/5 1180/9/5
f 1180/16/6 1181/8/6 1183/17/6 1182/18/6
f 1178/19/6 1180/20/6 1182/21/6 1184/22/6
f 1182/23/5 1183/24/5 1187/25/5 1185/26/5
f 1184/27/4 1182/28/4 1185/29/4 1186/30/4
f 1183/31/2 1189/28/2 1188/29/2 1187/32/2
f 1189/23/3 1184/24/3 1186/25/3 1188/26/3
f 1181/7/6 1176/33/6 1189/34/6 1183/35/6
f 1176/7/6 1178/33/6 1184/36/6 1189/6/6
f 1191/1/1 1195/2/1 1193/3/1 1190/4/1
f 1191/5/2 1190/6/2 1192/7/2 1197/8/2
f 1192/6/3 1190/7/3 1193/9/3 1194/10/3
f 1195/11/4 1196/12/4 1194/6/4 1193/13/4
f 1195/14/5 1191/15/5 1197/7/5 1196/9/5
f 1196/16/6 1197/8/6 1199/17/6 1198/18/6
f 1194/19/6 1196/20/6 1198/21/6 1200/22/6
f 1198/23/5 1199/24/5 1203/25/5 1201/26/5
f 1200/27/4 1198/28/4 1201/29/4 1202/30/4
f 1199/31/2 1205/28/2 1204/29/2 1203/32/2
f 1205/23/3 1200/24/3 1202/25/3 1204/26/3
f 1197/7/6 1192/33/6 1205/34/6 1199/35/6
f 1192/7/6 1194/33/6 1200/36/6 1205/6/6
f 1207/1/1 1211/2/1 1209/3/1 1206/4/1
f 1207/5/2 1206/6/2 1208/7/2 1213/8/2
f 1208/6/3 1206/7/3 1209/9/3 1210/10/3
f 1211/11/4 1212/12/4 1210/6/4 1209/13/4
f 1211/14/5 1207/15/5 1213/7/5 1212/9/5
f 1212/16/6 1213/8/6 1215/17/6 1214/18/6
f 1210/19/6 1212/20/6 1214/21/6 1216/22/6
f 1214/23/5 1215/24/5 1219/25/5 1217/26/5
f 1216/27/4 1214/28/4 1217/29/4 1218/30/4
f 1215/31/2 1221/28/2 1220/29/2 1219/32/2
f 1221/23/3 1216/24/3 1218/25/3 1220/26/3
f 1213/7/6 1208/33/6 1221/34/6 1215/35/6
f 1208/7/6 1210/33/6 1216/36/6 1221/6/6
f 1223/1/1 1227/2/1 1225/3/1 1222/4/1
f 1223/5/2 1222/6/2 1224/7/2 1229/8/2
f 1224/6/3 1222/7/3 1225/9/3 1226/10/3
f 1227/11/4 1228/12/4 1226/6/4 1225/13/4
f 1227/14/5 1223/15/5 1229/7/5 1228/9/5
f 1228/16/6 1229/8/6 1231/17/6 1230/18/6
f 1226/19/6 1228/20/6 1230/21/6 1232/22/6
f 1230/23/5 1231/24/5 1235/25/5 1233/26/5
f 1232/27/4 1230/28/4 1233/29/4 1234/30/4
f 1231/31/2 1237/28/2 1236/29/2 1235/32/2
f 1237/23/3 1232/24/3 1234/25/3 1236/26/3
f 1229/7/6 1224/33/6 1237/34/6 1231/35/6
f 1224/7/6 1226/33/6 1232/36/6 1237/6/6
f 1239/1/1 1243/2/1 1241/3/1 1238/4/1
f 1239/5/2 1238/6/2 1240/7/2 1245/8/2
f 1240/6/3 1238/7/3 1241/9/3 1242/10/3
f 1243/11/4 1244/12/4 1242/6/4 1241/13/4
f 1243/14/5 1239/15/5 1245/7/5 1244/9/5
f 1244/16/6 1245/8/6 1247/17/6 1246/18/6
f 1242/19/6 1244/20/6 1246/21/6 1248/22/6
f 1246/23/5 1247/24/5 1251/25/5 1249/26/5
f 1248/27/4 1246/28/4 1249/29/4 1250/30/4
f 1247/31/2 1253/28/2 1252/29/2 1251/32/2
f 1253/23/3 1248/24/3 1250/25/3 1252/26/3
f 1245/7/6 1240/33/6 1253/34/6 1247/35/6
f 1240/7/6 1242/33/6 1248/36/6 1253/6/6
f 1255/1/1 1259/2/1 1257/3/1 1254/4/1
f 1255/5/2 1254/6/2 1256/7/2 1261/8/2
f 1256/6/3 1254/7/3 1257/9/3 1258/10/3
f 1259/11/4 1260/12/4 1258/6/4 1257/13/4
f 1259/14/5 1255/15/5 1261/7/5 1260/9/5
f 1260/16/6 1261/8/6 1263/17/6 1262/18/6
f 1258/19/6 1260/20/6 1262/21/6 1264/22/6
f 1262/23/5 1263/24/5 1267/25/5 1265/26/5
f 1264/27/4 1262/28/4 1265/29/4 1266/30/4
f 1263/31/2 1269/28/2 1268/29/2 1267/32/2
f 1269/23/3 1264/24/3 1266/25/3 1268/26/3
f 1261/7/6 1256/33/6 1269/34/6 1263/35/6
f 1256/7/6 1258/33/6 1264/36/6 1269/6/6
f 1271/1/1 1275/2/1 1273/3/1 1270/4/1
f 1271/5/2 1270/6/2 1272/7/2 1277/8/2
f 1272/6/3 1270/7/3 1273/9/3 1274/10/3
f 1275/11/4 1276/12/4 1274/6/4 1273/13/4
f 1275/14/5 1271/15/5 1277/7/5 1276/9/5
f 1276/16/6 1277/8/6 1279/17/6 1278/18/6
f 1274/19/6 1276/20/6 1278/21/6 1280/22/6
f 1278/23/5 1279/24/5 1283/25/5 1281/26/5
f 1280/27/4 1278/28/4 1281/29/4 1282/30/4
f 1279/31/2 1285/28/2 1284/29/2 1283/32/2
f 1285/23/3 1280/24/3 1282/25/3 1284/26/3
f 1277/7/6 1272/33/6 1285/34/6 1279/35/6
f 1272/7/6 1274/33/6 1280/36/6 1285/6/6
f 1287/1/1 1291/2/1 1289/3/1 1286/4/1
f 1287/5/2 1286/6/2 1288/7/2 1293/8/2
f 1288/6/3 1286/7/3 1289/9/3 1290/10/3
f 1291/11/4 1292/12/4 1290/6/4 1289/13/4
f 1291/14/5 1287/15/5 1293/7/5 1292/9/5
f 1292/16/6 1293/8/6 1295/17/6 1294/18/6
f 1290/19/6 1292/20/6 1294/21/6 1296/22/6
f 1294/23/5 1295/24/5 1299/25/5 1297/26/5
f 1296/27/4 1294/28/4 1297/29/4 1298/30/4
f 1295/31/2 1301/28/2 1300/29/2 1299/32/2
f 1301/23/3 1296/24/3 1298/25/3 1300/26/3
f 1293/7/6 1288/33/6 1301/34/6 1295/35/6
f 1288/7/6 1290/33/6 1296/36/6 1301/6/6
f 1303/1/1 1307/2/1 1305/3/1 1302/4/1
f 1303/5/2 1302/6/2 1304/7/2 1309/8/2
f 1304/6/3 1302/7/3 1305/9/3 1306/10/3
f 1307/11/4 1308/12/4 1306/6/4 1305/13/4
f 1307/14/5 1303/15/5 1309/7/5 1308/9/5
f 1308/16/6 1309/8/6 1311/17/6 1310/18/6
f 1306/19/6 1308/20/6 1310/21/6 1312/22/6
f 1310/23/5 1311/24/5 1315/25/5 1313/26/5
f 1312/27/4 1310/28/4 1313/29/4 1314/30/4
f 1311/31/2 1317/28/2 1316/29/2 1315/32/2
f 1317/23/3 1312/24/3 1314/25/3 1316/26/3
f 1309/7/6 1304/33/6 1317/34/6 1311/35/6
f 1304/7/6 1306/33/6 1312/36/6 1317/6/6
f 1319/1/1 1323/2/1 1321/3/1 1318/4/1
f 1319/5/2 1318/6/2 1320/7/2 1325/8/2
f 1320/6/3 1318/7/3 1321/9/3 1322/10/3
f 1323/11/4 1324/12/4 1322/6/4 1321/13/4
f 1323/14/5 1319/15/5 1325/7/5 1324/9/5
f 1324/16/6 1325/8/6 1327/17/6 1326/18/6
f 1322/19/6 1324/20/6 1326/21/6 1328/22/6
f 1326/23/5 1327/24/5 1331/25/5 1329/26/5
f 1328/27/4 1326/28/4 1329/29/4 1330/30/4
f 1327/31/2 1333/28/2 1332/29/2 1331/32/2
f 1333/23/3 1328/24/3 1330/25/3 1332/26/3
f 1325/7/6 1320/33/6 1333/34/6 1327/35/6
f 1320/7/6 1322/33/6 1328/36/6 1333/6/6
f 1335/5/2 1334/6/2 1336/7/2 1341/8/2
f 1336/6/3 1334/7/3 1337/9/3 1338/10/3
f 1339/11/4 1340/12/4 1338/6/4 1337/13/4
f 1339/14/5 1335/15/5 1341/7/5 1340/9/5
f 1340/16/6 1341/8/6 1343/17/6 1342/18/6
f 1338/19/6 1340/20/6 1342/21/6 1344/22/6
f 1342/23/5 1343/24/5 1347/25/5 1345/26/5
f 1344/27/4 1342/28/4 1345/29/4 1346/30/4
f 1343/31/2 1349/28/2 1348/29/2 1347/32/2
f 1349/23/3 1344/24/3 1346/25/3 1348/26/3
f 1341/7/6 1336/33/6 1349/34/6 1343/35/6
f 1336/7/6 1338/33/6 1344/36/6 1349/6/6
f 487/96/1 489/97/1 1355/98/1 1354/99/1
f 425/100/1 427/101/1 1353/102/1 1352/103/1
f 345/104/1 349/105/1 1351/106/1 1350/107/1
f 1137/108/1 1139/109/1 1361/110/1 1360/111/1
f 975/112/1 977/113/1 1359/114/1 1358/103/1
f 915/115/1 919/116/1 1357/117/1 1356/118/1
f 1335/15/1 1339/14/1 1337/13/1 1334/7/1
