# Blender 5.0.1
# www.blender.org
o Roof_Edge.150
v 0.000001 2.000000 0.200000
v 0.200001 2.000000 0.200000
v 0.000001 1.900001 0.200000
v 0.000001 2.000000 -0.000000
v 0.000001 1.900001 -0.000000
v 0.200001 2.000000 -0.000000
v 0.200001 1.900001 -0.000000
v 0.200001 1.900001 0.200000
v 0.150001 1.900001 0.050000
v 0.150001 1.900001 0.150000
v 0.050001 1.900001 0.050000
v 0.150001 1.000000 0.050000
v 0.050001 1.000000 0.050000
v 0.150001 1.000000 0.150000
v 0.050001 1.000000 0.150000
v 0.050001 1.900001 0.150000
v 0.000000 10.000000 0.000000
v -0.000000 11.000000 0.000000
v -0.000000 10.000000 -1.000000
v -0.000000 11.000000 -1.000000
v 0.996695 14.049999 1.000001
v 0.996695 14.025000 1.000001
v 0.996695 14.049999 0.000001
v -0.003305 14.750000 0.000001
v -0.003305 14.750000 -0.999999
v 0.996695 14.049999 -0.999999
v 0.996695 14.025000 -0.999999
v 0.996695 14.025000 0.000001
v -1.003305 14.049999 1.000001
v -1.003305 14.750000 0.000001
v -1.003305 14.025000 1.000001
v -0.003305 14.049999 1.000001
v 0.996695 14.049999 1.000001
v -0.003305 14.025000 1.000001
v -0.003305 14.750000 0.000001
v 0.996695 14.025000 1.000001
v -3.000000 14.049999 1.000001
v -3.000000 14.750000 0.000001
v -2.000000 14.049999 1.000001
v -3.000000 14.025000 1.000001
v -2.000000 14.025000 1.000001
v -2.000000 14.750000 0.000001
v 0.200000 1.000000 -4.000000
v 0.200000 1.000000 -4.200000
v 0.200000 0.900001 -4.000000
v -0.000001 1.000000 -4.000000
v -0.000001 0.900001 -4.000000
v -0.000001 1.000000 -4.200000
v -0.000001 0.900001 -4.200000
v 0.200000 0.900001 -4.200000
v 0.050000 0.900001 -4.150000
v 0.150000 0.900001 -4.150000
v 0.050000 0.000000 -4.150000
v 0.150000 0.000000 -4.150000
v 0.150000 0.000000 -4.050000
v 0.050000 0.000000 -4.050000
v 0.150000 0.900001 -4.050000
v 0.050000 0.900001 -4.050000
v 0.200000 2.000000 -4.000000
v 0.200000 2.000000 -4.200000
v 0.200000 1.900001 -4.000000
v -0.000001 2.000000 -4.000000
v -0.000001 1.900001 -4.000000
v -0.000001 2.000000 -4.200000
v -0.000001 1.900001 -4.200000
v 0.200000 1.900001 -4.200000
v 0.050000 1.900001 -4.150000
v 0.150000 1.900001 -4.150000
v 0.050000 1.000000 -4.150000
v 0.150000 1.000000 -4.150000
v 0.150000 1.000000 -4.050000
v 0.050000 1.000000 -4.050000
v 0.150000 1.900001 -4.050000
v 0.050000 1.900001 -4.050000
v 0.200000 3.000000 -4.000000
v 0.200000 3.000000 -4.200000
v 0.200000 2.900001 -4.000000
v -0.000001 3.000000 -4.000000
v -0.000001 2.900001 -4.000000
v -0.000001 3.000000 -4.200000
v -0.000001 2.900001 -4.200000
v 0.200000 2.900001 -4.200000
v 0.050000 2.900001 -4.150000
v 0.150000 2.900001 -4.150000
v 0.050000 2.000000 -4.150000
v 0.150000 2.000000 -4.150000
v 0.150000 2.000000 -4.050000
v 0.050000 2.000000 -4.050000
v 0.150000 2.900001 -4.050000
v 0.050000 2.900001 -4.050000
v 0.200000 4.000000 -4.000000
v 0.200000 4.000000 -4.200000
v 0.200000 3.900000 -4.000000
v -0.000001 4.000000 -4.000000
v -0.000001 3.900000 -4.000000
v -0.000001 4.000000 -4.200000
v -0.000001 3.900000 -4.200000
v 0.200000 3.900000 -4.200000
v 0.050000 3.900000 -4.150000
v 0.150000 3.900000 -4.150000
v 0.050000 3.000000 -4.150000
v 0.150000 3.000000 -4.150000
v 0.150000 3.000000 -4.050000
v 0.050000 3.000000 -4.050000
v 0.150000 3.900000 -4.050000
v 0.050000 3.900000 -4.050000
v 0.200000 5.000000 -4.000000
v 0.200000 5.000000 -4.200000
v 0.200000 4.900000 -4.000000
v -0.000001 5.000000 -4.000000
v -0.000001 4.900000 -4.000000
v -0.000001 5.000000 -4.200000
v -0.000001 4.900000 -4.200000
v 0.200000 4.900000 -4.200000
v 0.050000 4.900000 -4.150000
v 0.150000 4.900000 -4.150000
v 0.050000 4.000000 -4.150000
v 0.150000 4.000000 -4.150000
v 0.150000 4.000000 -4.050000
v 0.050000 4.000000 -4.050000
v 0.150000 4.900000 -4.050000
v 0.050000 4.900000 -4.050000
v 0.200000 6.000000 -4.000000
v 0.200000 6.000000 -4.200000
v 0.200000 5.900000 -4.000000
v -0.000001 6.000000 -4.000000
v -0.000001 5.900000 -4.000000
v -0.000001 6.000000 -4.200000
v -0.000001 5.900000 -4.200000
v 0.200000 5.900000 -4.200000
v 0.050000 5.900000 -4.150000
v 0.150000 5.900000 -4.150000
v 0.050000 5.000000 -4.150000
v 0.150000 5.000000 -4.150000
v 0.150000 5.000000 -4.050000
v 0.050000 5.000000 -4.050000
v 0.150000 5.900000 -4.050000
v 0.050000 5.900000 -4.050000
v 0.200000 7.000000 -4.000000
v 0.200000 7.000000 -4.200000
v 0.200000 6.900000 -4.000000
v -0.000001 7.000000 -4.000000
v -0.000001 6.900000 -4.000000
v -0.000001 7.000000 -4.200000
v -0.000001 6.900000 -4.200000
v 0.200000 6.900000 -4.200000
v 0.049999 6.900000 -4.150000
v 0.150000 6.900000 -4.150000
v 0.049999 6.000000 -4.150000
v 0.150000 6.000000 -4.150000
v 0.150000 6.000000 -4.050000
v 0.049999 6.000000 -4.050000
v 0.150000 6.900000 -4.050000
v 0.049999 6.900000 -4.050000
v 0.200000 8.000000 -4.000000
v 0.200000 8.000000 -4.200000
v 0.200000 7.900000 -4.000000
v -0.000001 8.000000 -4.000000
v -0.000001 7.900000 -4.000000
v -0.000001 8.000000 -4.200000
v -0.000001 7.900000 -4.200000
v 0.200000 7.900000 -4.200000
v 0.049999 7.900000 -4.150000
v 0.150000 7.900000 -4.150000
v 0.049999 7.000000 -4.150000
v 0.150000 7.000000 -4.150000
v 0.150000 7.000000 -4.050000
v 0.049999 7.000000 -4.050000
v 0.150000 7.900000 -4.050000
v 0.049999 7.900000 -4.050000
v 0.200000 9.000000 -4.000000
v 0.200000 9.000000 -4.200000
v 0.200000 8.900000 -4.000000
v -0.000001 9.000000 -4.000000
v -0.000001 8.900000 -4.000000
v -0.000001 9.000000 -4.200000
v -0.000001 8.900000 -4.200000
v 0.200000 8.900000 -4.200000
v 0.049999 8.900000 -4.150000
v 0.150000 8.900000 -4.150000
v 0.049999 8.000000 -4.150000
v 0.150000 8.000000 -4.150000
v 0.150000 8.000000 -4.050000
v 0.049999 8.000000 -4.050000
v 0.150000 8.900000 -4.050000
v 0.049999 8.900000 -4.050000
v 0.200000 10.000000 -4.000000
v 0.200000 10.000000 -4.200000
v 0.200000 9.900000 -4.000000
v -0.000001 10.000000 -4.000000
v -0.000001 9.900000 -4.000000
v -0.000001 10.000000 -4.200000
v -0.000001 9.900000 -4.200000
v 0.200000 9.900000 -4.200000
v 0.049999 9.900000 -4.150000
v 0.150000 9.900000 -4.150000
v 0.049999 9.000000 -4.150000
v 0.150000 9.000000 -4.150000
v 0.150000 9.000000 -4.050000
v 0.049999 9.000000 -4.050000
v 0.150000 9.900000 -4.050000
v 0.049999 9.900000 -4.050000
v 0.200000 11.000000 -4.000000
v 0.200000 11.000000 -4.200000
v 0.200000 10.900000 -4.000000
v -0.000001 11.000000 -4.000000
v -0.000001 10.900000 -4.000000
v -0.000001 11.000000 -4.200000
v -0.000001 10.900000 -4.200000
v 0.200000 10.900000 -4.200000
v 0.049999 10.900000 -4.150000
v 0.150000 10.900000 -4.150000
v 0.049999 10.000000 -4.150000
v 0.150000 10.000000 -4.150000
v 0.150000 10.000000 -4.050000
v 0.049999 10.000000 -4.050000
v 0.150000 10.900000 -4.050000
v 0.049999 10.900000 -4.050000
v 0.199999 12.000000 -4.000000
v 0.199999 12.000000 -4.200000
v 0.199999 11.900000 -4.000000
v -0.000001 12.000000 -4.000000
v -0.000001 11.900000 -4.000000
v -0.000001 12.000000 -4.200000
v -0.000001 11.900000 -4.200000
v 0.199999 11.900000 -4.200000
v 0.049999 11.900000 -4.150000
v 0.150000 11.900000 -4.150000
v 0.049999 11.000000 -4.150000
v 0.150000 11.000000 -4.150000
v 0.150000 11.000000 -4.050000
v 0.049999 11.000000 -4.050000
v 0.150000 11.900000 -4.050000
v 0.049999 11.900000 -4.050000
v 0.199999 13.000000 -4.000000
v 0.199999 13.000000 -4.200000
v 0.199999 12.900000 -4.000000
v -0.000001 13.000000 -4.000000
v -0.000001 12.900000 -4.000000
v -0.000001 13.000000 -4.200000
v -0.000001 12.900000 -4.200000
v 0.199999 12.900000 -4.200000
v 0.049999 12.900000 -4.150000
v 0.150000 12.900000 -4.150000
v 0.049999 12.000000 -4.150000
v 0.150000 12.000000 -4.150000
v 0.150000 12.000000 -4.050000
v 0.049999 12.000000 -4.050000
v 0.150000 12.900000 -4.050000
v 0.049999 12.900000 -4.050000
v 0.199999 14.000000 -4.000000
v 0.199999 14.000000 -4.200000
v 0.199999 13.900000 -4.000000
v -0.000001 14.000000 -4.000000
v -0.000001 13.900000 -4.000000
v 0.049999 13.900000 -4.050000
v 0.150000 13.900000 -4.050000
v 0.049999 13.000000 -4.050000
v 0.150000 13.000000 -4.050000
v 0.150000 13.000000 -4.150000
v 0.150000 13.900000 -4.150000
v 0.049999 13.000000 -4.150000
v 0.049999 13.900000 -4.150000
v -0.000001 13.900000 -4.200000
v -0.000001 14.000000 -4.200000
v 0.199999 13.900000 -4.200000
v 0.000000 1.000000 0.000000
v 0.000000 1.000000 -1.000000
v 0.000000 0.100000 0.000000
v 0.000000 0.100000 -1.000000
v 0.100000 0.100000 0.100001
v 0.100001 0.000000 0.100001
v 0.100001 0.100000 -1.000000
v 0.100001 0.000000 -1.000000
v 0.000000 1.000000 -1.000000
v 0.000000 1.000000 -2.000000
v 0.000000 0.100000 -1.000000
v 0.000000 0.100000 -2.000000
v 0.100001 0.100000 -1.000000
v 0.100001 0.000000 -1.000000
v 0.100000 0.100000 -2.000000
v 0.100000 0.000000 -2.000000
v 0.000000 1.000000 -2.000000
v 0.000000 1.000000 -3.000000
v 0.000000 0.100000 -2.000000
v 0.000000 0.100000 -3.000000
v 0.100000 0.100000 -2.000000
v 0.100000 0.000000 -2.000000
v 0.100000 0.100000 -3.000000
v 0.100000 0.000000 -3.000000
v 0.000000 1.000000 -3.000000
v 0.000000 1.000000 -4.000000
v 0.000000 0.100000 -3.000000
v 0.000000 0.100000 -4.000000
v 0.100000 0.100000 -3.000000
v 0.100000 0.000000 -3.000000
v 0.100000 0.100000 -4.000000
v 0.100000 0.000000 -4.000000
v 0.500000 1.000000 0.000000
v 0.500000 2.000000 0.000000
v 0.500000 1.000000 -1.000000
v 0.000000 1.000000 0.000000
v 0.000000 2.000000 0.000000
v 0.500000 2.000000 -1.000000
v 0.500000 2.000000 0.000000
v 0.500000 3.000000 0.000000
v 0.500000 2.000000 -1.000000
v 0.000000 2.000000 0.000000
v 0.000000 3.000000 0.000000
v 0.500000 3.000000 -1.000000
v 0.500000 3.000000 0.000000
v 0.500000 4.000000 0.000000
v 0.500000 3.000000 -1.000000
v 0.000000 3.000000 0.000000
v 0.000000 4.000000 0.000000
v 0.000000 4.000000 -1.000000
v 0.000000 3.000000 -1.000000
v 0.500000 4.000000 -1.000000
v 0.000000 4.000000 0.000000
v 0.000000 5.000000 0.000000
v 0.000000 4.000000 -1.000000
v 0.000000 5.000000 -1.000000
v 0.500000 5.000000 0.000000
v 0.500000 6.000000 0.000000
v 0.500000 5.000000 -1.000000
v 0.000000 5.000000 0.000000
v 0.000000 6.000000 0.000000
v 0.500000 6.000000 -1.000000
v 1.000000 6.000000 0.000000
v 1.000000 7.000000 0.000000
v 1.000000 6.000000 -1.000000
v 0.000000 6.000000 0.000000
v 0.000000 7.000000 0.000000
v 1.000000 7.000000 -1.000000
v 0.000000 6.000000 -1.000000
v 0.000000 7.000000 -1.000000
v 1.000000 7.000000 0.000000
v 1.000000 8.000000 0.000000
v 1.000000 7.000000 -1.000000
v 0.000000 7.000000 0.000000
v 0.000000 8.000000 0.000000
v 1.000000 8.000000 -1.000000
v 0.000000 7.000000 -1.000000
v -0.000000 8.000000 -1.000000
v 1.000000 8.000000 0.000000
v 1.000000 9.000000 0.000000
v 1.000000 8.000000 -1.000000
v 0.000000 8.000000 0.000000
v 0.000000 9.000000 0.000000
v -0.000000 9.000000 -1.000000
v 1.000000 9.000000 -1.000000
v 0.000000 9.000000 0.000000
v -0.000000 10.000000 0.000000
v -0.000000 9.000000 -1.000000
v -0.000000 10.000000 -1.000000
v -0.000000 11.000000 0.000000
v -0.000000 12.000000 0.000000
v -0.000000 11.000000 -1.000000
v -0.000000 12.000000 -1.000000
v 0.500000 12.000000 0.000000
v 0.500000 13.000000 0.000000
v 0.500000 12.000000 -1.000000
v -0.000000 12.000000 0.000000
v -0.000000 13.000000 0.000000
v 0.500000 13.000000 -1.000000
v 0.500000 13.000000 0.000000
v 0.500000 14.000000 0.000000
v 0.500000 13.000000 -1.000000
v -0.000000 13.000000 0.000000
v -0.000000 14.000000 0.000000
v 0.500000 14.000000 -1.000000
v 0.500000 1.000000 -1.000000
v 0.500000 2.000000 -1.000000
v 0.500000 1.000000 -2.000000
v 0.500000 2.000000 -2.000000
v 0.000000 1.000000 -2.000000
v 0.000000 2.000000 -2.000000
v 1.000000 2.000000 -1.000000
v 1.000000 3.000000 -1.000000
v 1.000000 2.000000 -2.000000
v 0.000000 2.000000 -1.000000
v 0.000000 3.000000 -1.000000
v 0.000000 3.000000 -2.000000
v 0.000000 2.000000 -2.000000
v 1.000000 3.000000 -2.000000
v 0.000000 3.000000 -1.000000
v -0.000000 4.000000 -1.000000
v 0.000000 3.000000 -2.000000
v 0.000000 4.000000 -2.000000
v 1.000000 4.000000 -1.000000
v 1.000000 5.000000 -1.000000
v 1.000000 4.000000 -2.000000
v 0.000000 4.000000 -1.000000
v 0.000000 5.000000 -1.000000
v 0.000000 5.000000 -2.000000
v 0.000000 4.000000 -2.000000
v 1.000000 5.000000 -2.000000
v 0.500000 5.000000 -1.000000
v 0.500000 6.000000 -1.000000
v 0.500000 5.000000 -2.000000
v 0.500000 6.000000 -2.000000
v 0.500000 6.000000 -1.000000
v 0.500000 7.000000 -1.000000
v 0.500000 6.000000 -2.000000
v 0.500000 7.000000 -2.000000
v 0.000000 6.000000 -2.000000
v 0.000000 7.000000 -2.000000
v 0.500000 7.000000 -1.000000
v 0.500000 8.000000 -1.000000
v 0.500000 7.000000 -2.000000
v 0.500000 8.000000 -2.000000
v 0.000000 7.000000 -2.000000
v 0.000000 8.000000 -2.000000
v 1.000000 8.000000 -1.000000
v 1.000000 9.000000 -1.000000
v 1.000000 8.000000 -2.000000
v 1.000000 9.000000 -2.000000
v 0.000000 8.000000 -2.000000
v 0.000000 9.000000 -2.000000
v -0.000000 9.000000 -1.000000
v -0.000000 9.000000 -1.000000
v -0.000000 10.000000 -1.000000
v 0.000000 9.000000 -2.000000
v 0.000000 10.000000 -2.000000
v 1.000000 10.000000 -1.000000
v 1.000000 11.000000 -1.000000
v 1.000000 10.000000 -2.000000
v 0.000000 10.000000 -1.000000
v -0.000000 11.000000 -1.000000
v 1.000000 11.000000 -2.000000
v 0.000000 10.000000 -2.000000
v 0.000000 11.000000 -2.000000
v 1.000000 11.000000 -1.000000
v 1.000000 12.000000 -1.000000
v 1.000000 11.000000 -2.000000
v 0.000000 11.000000 -1.000000
v -0.000000 12.000000 -1.000000
v 0.000000 12.000000 -2.000000
v 1.000000 12.000000 -2.000000
v 0.500000 12.000000 -1.000000
v 0.500000 13.000000 -1.000000
v 0.500000 12.000000 -2.000000
v 0.500000 13.000000 -2.000000
v 0.000000 12.000000 -2.000000
v -0.000000 13.000000 -2.000000
v 0.500000 13.000000 -1.000000
v 0.500000 14.000000 -1.000000
v 0.500000 13.000000 -2.000000
v 0.500000 14.000000 -2.000000
v 0.000000 1.000000 -2.000000
v 0.000000 2.000000 -2.000000
v 0.000000 1.000000 -3.000000
v 0.000000 2.000000 -3.000000
v 0.000000 2.000000 -2.000000
v 0.000000 3.000000 -2.000000
v 0.000000 2.000000 -3.000000
v 0.000000 3.000000 -3.000000
v 0.000000 3.000000 -2.000000
v 0.000000 4.000000 -2.000000
v 0.000000 3.000000 -3.000000
v 0.000000 4.000000 -3.000000
v 0.000000 4.000000 -2.000000
v 0.000000 5.000000 -2.000000
v 0.000000 4.000000 -3.000000
v 0.000000 5.000000 -3.000000
v 0.500000 5.000000 -2.000000
v 0.500000 6.000000 -2.000000
v 0.500000 5.000000 -3.000000
v 0.500000 6.000000 -3.000000
v 0.000000 6.000000 -3.000000
v 0.000000 6.000000 -2.000000
v 0.000000 6.000000 -2.000000
v 0.000000 7.000000 -2.000000
v 0.000000 6.000000 -3.000000
v 0.000000 7.000000 -3.000000
v 0.000000 7.000000 -2.000000
v 0.000000 8.000000 -2.000000
v 0.000000 7.000000 -3.000000
v 0.000000 8.000000 -3.000000
v 0.500000 8.000000 -2.000000
v 0.500000 9.000000 -2.000000
v 0.500000 8.000000 -3.000000
v 0.500000 9.000000 -3.000000
v 0.000000 8.000000 -3.000000
v 0.000000 9.000000 -3.000000
v 0.000000 9.000000 -2.000000
v 0.000000 9.000000 -2.000000
v 0.000000 10.000000 -2.000000
v 0.000000 9.000000 -3.000000
v 0.000000 10.000000 -3.000000
v 0.500000 10.000000 -2.000000
v 0.500000 11.000000 -2.000000
v 0.500000 10.000000 -3.000000
v 0.500000 11.000000 -3.000000
v 0.000000 10.000000 -3.000000
v 0.000000 11.000000 -3.000000
v 1.000000 11.000000 -2.000000
v 1.000000 12.000000 -2.000000
v 1.000000 11.000000 -3.000000
v 1.000000 12.000000 -3.000000
v 0.000000 11.000000 -3.000000
v 0.000000 12.000000 -3.000000
v 0.000000 12.000000 -2.000000
v 0.000000 12.000000 -2.000000
v -0.000000 13.000000 -2.000000
v 0.000000 12.000000 -3.000000
v 0.000000 13.000000 -3.000000
v 0.500000 13.000000 -2.000000
v 0.500000 14.000000 -2.000000
v 0.500000 13.000000 -3.000000
v 0.500000 14.000000 -3.000000
v 0.000000 13.000000 -3.000000
v 0.000000 14.000000 -3.000000
v 1.000000 1.000000 -3.000000
v 1.000000 2.000000 -3.000000
v 1.000000 1.000000 -4.000000
v 0.000000 1.000000 -3.000000
v 0.000000 2.000000 -3.000000
v 1.000000 2.000000 -4.000000
v 0.000000 1.000000 -4.000000
v 0.000000 2.000000 -4.000000
v 1.000000 2.000000 -3.000000
v 1.000000 3.000000 -3.000000
v 1.000000 2.000000 -4.000000
v 0.000000 2.000000 -3.000000
v 0.000000 3.000000 -3.000000
v 0.000000 3.000000 -4.000000
v 0.000000 2.000000 -4.000000
v 1.000000 3.000000 -4.000000
v 0.500000 3.000000 -3.000000
v 0.500000 4.000000 -3.000000
v 0.500000 3.000000 -4.000000
v 0.000000 3.000000 -3.000000
v 0.000000 4.000000 -3.000000
v 0.000000 4.000000 -4.000000
v 0.000000 3.000000 -4.000000
v 0.500000 4.000000 -4.000000
v 0.000000 4.000000 -3.000000
v 0.000000 5.000000 -3.000000
v 0.000000 4.000000 -4.000000
v 0.000000 5.000000 -4.000000
v 1.000000 5.000000 -3.000000
v 1.000000 6.000000 -3.000000
v 1.000000 5.000000 -4.000000
v 0.000000 5.000000 -3.000000
v 0.000000 6.000000 -3.000000
v 0.000000 6.000000 -4.000000
v 0.000000 5.000000 -4.000000
v 1.000000 6.000000 -4.000000
v 0.500000 6.000000 -3.000000
v 0.500000 7.000000 -3.000000
v 0.500000 6.000000 -4.000000
v 0.000000 6.000000 -3.000000
v 0.000000 7.000000 -3.000000
v 0.500000 7.000000 -4.000000
v 0.000000 6.000000 -4.000000
v 0.000000 7.000000 -4.000000
v 1.000000 7.000000 -3.000000
v 1.000000 8.000000 -3.000000
v 1.000000 7.000000 -4.000000
v 0.000000 7.000000 -3.000000
v 0.000000 8.000000 -3.000000
v 0.000000 8.000000 -4.000000
v 0.000000 7.000000 -4.000000
v 1.000000 8.000000 -4.000000
v 0.000000 8.000000 -3.000000
v 0.000000 9.000000 -3.000000
v 0.000000 8.000000 -4.000000
v 0.000000 9.000000 -4.000000
v 0.000000 9.000000 -3.000000
v 0.000000 10.000000 -3.000000
v 0.000000 9.000000 -4.000000
v 0.000000 10.000000 -4.000000
v 0.000000 10.000000 -3.000000
v 0.000000 11.000000 -3.000000
v 0.000000 10.000000 -4.000000
v -0.000000 11.000000 -4.000000
v 0.000000 11.000000 -3.000000
v 0.000000 12.000000 -3.000000
v 0.000000 11.000000 -4.000000
v -0.000000 12.000000 -4.000000
v 0.500000 12.000000 -3.000000
v 0.500000 13.000000 -3.000000
v 0.500000 12.000000 -4.000000
v 0.000000 12.000000 -3.000000
v 0.000000 13.000000 -3.000000
v -0.000000 13.000000 -4.000000
v 0.000000 12.000000 -4.000000
v 0.500000 13.000000 -4.000000
v 0.000000 13.000000 -3.000000
v 0.000000 14.000000 -3.000000
v 0.000000 13.000000 -4.000000
v -0.000000 14.000000 -4.000000
v -4.199997 1.000000 0.000002
v -4.199997 1.000000 0.200002
v -4.199997 0.900001 0.000002
v -3.999998 1.000000 0.000001
v -3.999998 0.900001 0.000001
v -3.999998 1.000000 0.200002
v -3.999998 0.900001 0.200002
v -4.199997 0.900001 0.200002
v -4.049997 0.900001 0.150002
v -4.149998 0.900001 0.150002
v -4.049997 0.900001 0.050001
v -4.049997 0.000000 0.150002
v -4.049997 0.000000 0.050001
v -4.149998 0.000000 0.150002
v -4.149998 0.000000 0.050002
v -4.149998 0.900001 0.050002
v -4.199997 2.000000 0.000002
v -4.199997 2.000000 0.200002
v -4.199997 1.900001 0.000002
v -3.999998 2.000000 0.000001
v -3.999998 1.900001 0.000001
v -3.999998 2.000000 0.200002
v -3.999998 1.900001 0.200002
v -4.199997 1.900001 0.200002
v -4.049997 1.900001 0.150002
v -4.149998 1.900001 0.150002
v -4.049997 1.900001 0.050001
v -4.049997 1.000000 0.150002
v -4.049997 1.000000 0.050001
v -4.149998 1.000000 0.150002
v -4.149998 1.000000 0.050002
v -4.149998 1.900001 0.050002
v -4.199997 3.000000 0.000002
v -4.199997 3.000000 0.200002
v -4.199997 2.900001 0.000002
v -3.999997 3.000000 0.000001
v -3.999997 2.900001 0.000001
v -3.999997 3.000000 0.200002
v -3.999997 2.900001 0.200002
v -4.199997 2.900001 0.200002
v -4.049997 2.900001 0.150002
v -4.149997 2.900001 0.150002
v -4.049997 2.900001 0.050001
v -4.049997 2.000000 0.150002
v -4.049997 2.000000 0.050001
v -4.149998 2.000000 0.150002
v -4.149998 2.000000 0.050002
v -4.149997 2.900001 0.050002
v -4.199997 4.000000 0.000002
v -4.199997 4.000000 0.200002
v -4.199997 3.900000 0.000002
v -3.999997 4.000000 0.000001
v -3.999997 3.900000 0.000001
v -3.999997 4.000000 0.200002
v -3.999997 3.900000 0.200002
v -4.199997 3.900000 0.200002
v -4.049997 3.900000 0.150002
v -4.149997 3.900000 0.150002
v -4.049997 3.900000 0.050001
v -4.049997 3.000000 0.150002
v -4.049997 3.000000 0.050001
v -4.149998 3.000000 0.150002
v -4.149998 3.000000 0.050002
v -4.149997 3.900000 0.050002
v -4.199997 5.000000 0.000002
v -4.199997 5.000000 0.200002
v -4.199997 4.900000 0.000002
v -3.999997 5.000000 0.000001
v -3.999997 4.900000 0.000001
v -3.999997 5.000000 0.200002
v -3.999997 4.900000 0.200002
v -4.199997 4.900000 0.200002
v -4.049997 4.900000 0.150002
v -4.149997 4.900000 0.150002
v -4.049997 4.900000 0.050001
v -4.049997 4.000000 0.150002
v -4.049997 4.000000 0.050001
v -4.149998 4.000000 0.150002
v -4.149998 4.000000 0.050002
v -4.149997 4.900000 0.050002
v -4.199997 6.000000 0.000002
v -4.199997 6.000000 0.200002
v -4.199997 5.900000 0.000002
v -3.999997 6.000000 0.000001
v -3.999997 5.900000 0.000001
v -3.999997 6.000000 0.200002
v -3.999997 5.900000 0.200002
v -4.199997 5.900000 0.200002
v -4.049997 5.900000 0.150002
v -4.149997 5.900000 0.150002
v -4.049997 5.900000 0.050001
v -4.049997 5.000000 0.150002
v -4.049997 5.000000 0.050001
v -4.149998 5.000000 0.150002
v -4.149998 5.000000 0.050002
v -4.149997 5.900000 0.050002
v -4.199997 7.000000 0.000002
v -4.199997 7.000000 0.200002
v -4.199997 6.900000 0.000002
v -3.999997 7.000000 0.000001
v -3.999997 6.900000 0.000001
v -3.999997 7.000000 0.200002
v -3.999997 6.900000 0.200002
v -4.199997 6.900000 0.200002
v -4.049997 6.900000 0.150002
v -4.149997 6.900000 0.150002
v -4.049997 6.900000 0.050001
v -4.049997 6.000000 0.150002
v -4.049997 6.000000 0.050001
v -4.149998 6.000000 0.150002
v -4.149998 6.000000 0.050002
v -4.149997 6.900000 0.050002
v -4.199997 8.000000 0.000002
v -4.199997 8.000000 0.200002
v -4.199997 7.900000 0.000002
v -3.999997 8.000000 0.000001
v -3.999997 7.900000 0.000001
v -3.999997 8.000000 0.200002
v -3.999997 7.900000 0.200002
v -4.199997 7.900000 0.200002
v -4.049997 7.900000 0.150002
v -4.149997 7.900000 0.150002
v -4.049997 7.900000 0.050001
v -4.049997 7.000000 0.150002
v -4.049997 7.000000 0.050001
v -4.149997 7.000000 0.150002
v -4.149997 7.000000 0.050002
v -4.149997 7.900000 0.050002
v -4.199997 9.000000 0.000002
v -4.199997 9.000000 0.200002
v -4.199997 8.900000 0.000002
v -3.999997 9.000000 0.000001
v -3.999997 8.900000 0.000001
v -3.999997 9.000000 0.200002
v -3.999997 8.900000 0.200002
v -4.199997 8.900000 0.200002
v -4.049997 8.900000 0.150002
v -4.149997 8.900000 0.150002
v -4.049997 8.900000 0.050001
v -4.049997 8.000000 0.150002
v -4.049997 8.000000 0.050001
v -4.149997 8.000000 0.150002
v -4.149997 8.000000 0.050002
v -4.149997 8.900000 0.050002
v -4.199997 10.000000 0.000002
v -4.199997 10.000000 0.200002
v -4.199997 9.900000 0.000002
v -3.999997 10.000000 0.000001
v -3.999997 9.900000 0.000001
v -3.999997 10.000000 0.200002
v -3.999997 9.900000 0.200002
v -4.199997 9.900000 0.200002
v -4.049997 9.900000 0.150002
v -4.149997 9.900000 0.150002
v -4.049997 9.900000 0.050001
v -4.049997 9.000000 0.150002
v -4.049997 9.000000 0.050001
v -4.149997 9.000000 0.150002
v -4.149997 9.000000 0.050002
v -4.149997 9.900000 0.050002
v -4.199997 11.000000 0.000002
v -4.199997 11.000000 0.200002
v -4.199997 10.900000 0.000002
v -3.999997 11.000000 0.000001
v -3.999997 10.900000 0.000001
v -3.999997 11.000000 0.200002
v -3.999997 10.900000 0.200002
v -4.199997 10.900000 0.200002
v -4.049997 10.900000 0.150002
v -4.149997 10.900000 0.150002
v -4.049997 10.900000 0.050001
v -4.049997 10.000000 0.150002
v -4.049997 10.000000 0.050001
v -4.149997 10.000000 0.150002
v -4.149997 10.000000 0.050002
v -4.149997 10.900000 0.050002
v -4.199997 12.000000 0.000002
v -4.199997 12.000000 0.200002
v -4.199997 11.900000 0.000002
v -3.999997 12.000000 0.000001
v -3.999997 11.900000 0.000001
v -3.999997 12.000000 0.200002
v -3.999997 11.900000 0.200002
v -4.199997 11.900000 0.200002
v -4.049997 11.900000 0.150002
v -4.149997 11.900000 0.150002
v -4.049997 11.900000 0.050001
v -4.049997 11.000000 0.150002
v -4.049997 11.000000 0.050001
v -4.149997 11.000000 0.150002
v -4.149997 11.000000 0.050002
v -4.149997 11.900000 0.050002
v -4.199997 13.000000 0.000002
v -4.199997 13.000000 0.200002
v -4.199997 12.900000 0.000002
v -3.999997 13.000000 0.000001
v -3.999997 12.900000 0.000001
v -3.999997 13.000000 0.200002
v -3.999997 12.900000 0.200002
v -4.199997 12.900000 0.200002
v -4.049997 12.900000 0.150002
v -4.149997 12.900000 0.150002
v -4.049997 12.900000 0.050001
v -4.049997 12.000000 0.150002
v -4.049997 12.000000 0.050001
v -4.149997 12.000000 0.150002
v -4.149997 12.000000 0.050002
v -4.149997 12.900000 0.050002
v -4.199997 14.000000 0.000002
v -4.199997 14.000000 0.200002
v -4.199997 13.900000 0.000002
v -4.199997 13.900000 0.200002
v -4.149997 13.900000 0.050002
v -4.149997 13.900000 0.150002
v -4.149997 13.000000 0.050002
v -4.149997 13.000000 0.150002
v -4.049997 13.000000 0.150002
v -4.049997 13.000000 0.050001
v -4.049997 13.900000 0.150002
v -4.049997 13.900000 0.050001
v -3.999997 13.900000 0.200002
v -3.999997 14.000000 0.200002
v -3.999997 13.900000 0.000001
v -3.999997 14.000000 0.000001
v -4.000000 1.000000 0.000001
v -3.000000 1.000000 0.000001
v -4.000000 0.100000 0.000001
v -3.000000 0.100000 0.000001
v -4.000000 0.100000 0.100001
v -4.000000 0.000000 0.100001
v -3.000000 0.100000 0.100001
v -3.000000 0.000000 0.100002
v -3.000000 1.000000 0.000001
v -2.000000 1.000000 0.000001
v -3.000000 0.100000 0.000001
v -2.000000 0.100000 0.000001
v -3.000000 0.100000 0.100001
v -3.000000 0.000000 0.100002
v -2.000000 0.100000 0.100001
v -2.000000 0.000000 0.100001
v -2.000000 1.000000 0.000001
v -1.000000 1.000000 0.000001
v -2.000000 0.100000 0.000001
v -1.000000 0.100000 0.000001
v -2.000000 0.100000 0.100001
v -2.000000 0.000000 0.100001
v -1.000000 0.100000 0.100001
v -1.000000 0.000000 0.100001
v -1.000000 1.000000 0.000001
v 0.000000 1.000000 0.000001
v -1.000000 0.100000 0.000001
v 0.000000 0.100000 0.000001
v -1.000000 0.100000 0.100001
v -1.000000 0.000000 0.100001
v 0.100001 0.100000 0.100001
v 0.100001 0.000000 0.100002
v -4.000000 1.000000 1.000001
v -4.000000 2.000000 1.000001
v -3.000000 1.000000 1.000001
v -4.000000 1.000000 0.000001
v -4.000000 2.000000 0.000001
v -3.000000 2.000000 1.000001
v -3.000000 1.000000 0.000001
v -3.000000 2.000000 0.000001
v -4.000000 2.000000 1.000001
v -4.000000 3.000000 1.000001
v -3.000000 2.000000 1.000001
v -4.000000 2.000000 0.000001
v -4.000000 3.000000 0.000001
v -3.000000 3.000000 0.000001
v -3.000000 3.000000 1.000001
v -4.000000 3.000000 0.500001
v -4.000000 4.000000 0.500001
v -3.000000 3.000000 0.500001
v -4.000000 3.000000 0.000001
v -4.000000 4.000000 0.000001
v -3.000000 4.000000 0.500001
v -3.000000 3.000000 0.000001
v -3.000000 4.000000 0.000001
v -4.000000 4.000000 0.500001
v -4.000000 5.000000 0.500001
v -3.000000 4.000000 0.500001
v -4.000000 4.000000 0.000001
v -4.000000 5.000000 0.000001
v -3.000000 5.000000 0.000001
v -3.000000 4.000000 0.000001
v -3.000000 5.000000 0.500001
v -4.000000 5.000000 0.000001
v -4.000000 6.000000 0.000001
v -3.000000 5.000000 0.000001
v -3.000000 6.000000 0.000001
v -4.000000 6.000000 0.500001
v -4.000000 7.000000 0.500001
v -3.000000 6.000000 0.500001
v -4.000000 6.000000 0.000001
v -4.000000 7.000000 0.000001
v -3.000000 7.000000 0.500001
v -3.000000 6.000000 0.000001
v -3.000000 7.000000 0.000001
v -4.000000 7.000000 0.500001
v -4.000000 8.000000 0.500001
v -3.000000 7.000000 0.500001
v -4.000000 7.000000 0.000001
v -4.000000 8.000000 0.000001
v -3.000000 8.000000 0.500001
v -3.000000 7.000000 0.000001
v -3.000000 8.000000 0.000001
v -4.000000 8.000000 0.500001
v -4.000000 9.000000 0.500001
v -3.000000 8.000000 0.500001
v -4.000000 8.000000 0.000001
v -4.000000 9.000000 0.000001
v -3.000000 9.000000 0.500001
v -3.000000 8.000000 0.000001
v -3.000000 9.000000 0.000001
v -4.000000 9.000000 1.000001
v -4.000000 10.000000 1.000001
v -3.000000 9.000000 1.000001
v -4.000000 9.000000 0.000001
v -4.000000 10.000000 0.000001
v -3.000000 10.000000 0.000001
v -3.000000 10.000000 1.000001
v -4.000000 10.000000 0.000001
v -4.000000 11.000000 0.000001
v -3.000000 10.000000 0.000001
v -3.000000 11.000000 0.000001
v -4.000000 11.000000 0.500001
v -4.000000 12.000000 0.500001
v -3.000000 11.000000 0.500001
v -4.000000 11.000000 0.000001
v -4.000000 12.000000 0.000001
v -3.000000 12.000000 0.500001
v -3.000000 11.000000 0.000001
v -3.000000 12.000000 0.000001
v -4.000000 12.000000 1.000001
v -4.000000 13.000000 1.000001
v -3.000000 12.000000 1.000001
v -4.000000 12.000000 0.000001
v -4.000000 13.000000 0.000001
v -3.000000 13.000000 0.000001
v -3.000000 12.000000 0.000001
v -3.000000 13.000000 1.000001
v -4.000000 13.000000 0.500001
v -4.000000 14.000000 0.500001
v -3.000000 13.000000 0.500001
v -4.000000 13.000000 0.000001
v -4.000000 14.000000 0.000001
v -3.000000 14.000000 0.500001
v -3.000000 1.000000 0.500001
v -3.000000 2.000000 0.500001
v -2.000000 1.000000 0.500001
v -2.000000 2.000000 0.500001
v -3.000000 2.000000 1.000001
v -3.000000 3.000000 1.000001
v -2.000000 2.000000 1.000001
v -2.000000 3.000000 1.000001
v -2.000000 2.000000 0.000001
v -2.000000 3.000000 0.000001
v -3.000000 3.000000 0.000001
v -3.000000 3.000000 0.000001
v -3.000000 4.000000 0.000001
v -2.000000 3.000000 0.000001
v -2.000000 4.000000 0.000001
v -3.000000 4.000000 0.000001
v -3.000000 5.000000 0.000001
v -2.000000 4.000000 0.000001
v -2.000000 5.000000 0.000001
v -3.000000 5.000000 0.000001
v -3.000000 6.000000 0.000001
v -2.000000 5.000000 0.000001
v -2.000000 6.000000 0.000001
v -3.000000 6.000000 0.000001
v -3.000000 7.000000 0.000001
v -2.000000 6.000000 0.000001
v -2.000000 7.000000 0.000001
v -3.000000 7.000000 0.000001
v -3.000000 8.000000 0.000001
v -2.000000 7.000000 0.000001
v -2.000000 8.000000 0.000001
v -3.000000 8.000000 0.000001
v -3.000000 9.000000 0.000001
v -2.000000 8.000000 0.000001
v -2.000000 9.000000 0.000001
v -3.000000 9.000000 1.000001
v -3.000000 10.000000 1.000001
v -2.000000 9.000000 1.000001
v -2.000000 10.000000 1.000001
v -2.000000 9.000000 0.000001
v -2.000000 10.000000 0.000001
v -3.000000 10.000000 0.000001
v -3.000000 10.000000 0.000001
v -3.000000 11.000000 0.000001
v -2.000000 10.000000 0.000001
v -2.000000 11.000000 0.000001
v -3.000000 11.000000 0.000001
v -3.000000 12.000000 0.000001
v -2.000000 11.000000 0.000001
v -2.000000 12.000000 0.000001
v -3.000000 12.000000 0.500001
v -3.000000 13.000000 0.500001
v -2.000000 12.000000 0.500001
v -2.000000 13.000000 0.500001
v -3.000000 13.000000 0.500001
v -3.000000 14.000000 0.500001
v -2.000000 13.000000 0.500001
v -2.000000 14.000000 0.500001
v -2.000000 1.000000 1.000001
v -2.000000 2.000000 1.000001
v -1.000000 1.000000 1.000001
v -2.000000 1.000000 0.000001
v -2.000000 2.000000 0.000001
v -1.000000 2.000000 0.000001
v -1.000000 2.000000 1.000001
v -2.000000 2.000000 0.000001
v -2.000000 3.000000 0.000001
v -1.000000 2.000000 0.000001
v -1.000000 3.000000 0.000001
v -2.000000 3.000000 0.000001
v -2.000000 4.000000 0.000001
v -1.000000 3.000000 0.000001
v -1.000000 4.000000 0.000001
v -2.000000 4.000000 0.500001
v -2.000000 5.000000 0.500001
v -1.000000 4.000000 0.500001
v -2.000000 4.000000 0.000001
v -2.000000 5.000000 0.000001
v -1.000000 5.000000 0.500001
v -1.000000 4.000000 0.000001
v -1.000000 5.000000 0.000001
v -2.000000 5.000000 0.500001
v -2.000000 6.000000 0.500001
v -1.000000 5.000000 0.500001
v -2.000000 5.000000 0.000001
v -2.000000 6.000000 0.000001
v -1.000000 6.000000 0.500001
v -1.000000 5.000000 0.000001
v -1.000000 6.000000 0.000001
v -2.000000 6.000000 0.500001
v -2.000000 7.000000 0.500001
v -1.000000 6.000000 0.500001
v -2.000000 6.000000 0.000001
v -2.000000 7.000000 0.000001
v -1.000000 7.000000 0.500001
v -2.000000 7.000000 1.000001
v -2.000000 8.000000 1.000001
v -1.000000 7.000000 1.000001
v -2.000000 7.000000 0.000001
v -2.000000 8.000000 0.000001
v -1.000000 8.000000 1.000001
v -1.000000 7.000000 0.000001
v -1.000000 8.000000 0.000001
v -2.000000 8.000000 1.000001
v -2.000000 9.000000 1.000001
v -1.000000 8.000000 1.000001
v -2.000000 8.000000 0.000001
v -2.000000 9.000000 0.000001
v -1.000000 9.000000 0.000001
v -1.000000 9.000000 1.000001
v -2.000000 9.000000 0.500001
v -2.000000 10.000000 0.500001
v -1.000000 9.000000 0.500001
v -1.000000 10.000000 0.500001
v -1.000000 9.000000 0.000001
v -1.000000 10.000000 0.000001
v -2.000000 10.000000 0.500001
v -2.000000 11.000000 0.500001
v -1.000000 10.000000 0.500001
v -2.000000 10.000000 0.000001
v -2.000000 11.000000 0.000001
v -1.000000 11.000000 0.000001
v -1.000000 10.000000 0.000001
v -1.000000 11.000000 0.500001
v -2.000000 11.000000 0.000001
v -2.000000 12.000000 0.000001
v -1.000000 11.000000 0.000001
v -1.000000 12.000000 0.000001
v -2.000000 12.000000 0.500001
v -2.000000 13.000000 0.500001
v -1.000000 12.000000 0.500001
v -1.000000 13.000000 0.500001
v -2.000000 13.000000 1.000001
v -2.000000 14.000000 1.000001
v -1.000000 13.000000 1.000001
v -2.000000 13.000000 0.000001
v -2.000000 14.000000 0.000001
v -1.000000 14.000000 0.000001
v -1.000000 13.000000 0.000001
v -1.000000 14.000000 1.000001
v -1.000000 1.000000 1.000001
v -1.000000 2.000000 1.000001
v -0.000000 1.000000 1.000001
v -0.000000 2.000000 1.000001
v 0.000000 1.000000 0.000001
v 0.000000 2.000000 0.000001
v -1.000000 2.000000 1.000001
v -1.000000 3.000000 1.000001
v -0.000000 2.000000 1.000001
v -1.000000 2.000000 0.000001
v -1.000000 3.000000 0.000001
v 0.000000 3.000000 0.000001
v 0.000000 2.000000 0.000001
v -0.000000 3.000000 1.000001
v -1.000000 3.000000 0.000001
v -1.000000 4.000000 0.000001
v 0.000000 3.000000 0.000001
v 0.000000 4.000000 0.000001
v -1.000000 4.000000 1.000001
v -1.000000 5.000000 1.000001
v -0.000000 4.000000 1.000001
v -0.000000 5.000000 1.000001
v 0.000000 4.000000 0.000001
v 0.000000 5.000000 0.000001
v -1.000000 5.000000 0.000001
v -1.000000 5.000000 0.500001
v -1.000000 6.000000 0.500001
v -0.000000 5.000000 0.500001
v -0.000000 6.000000 0.500001
v 0.000000 5.000000 0.000001
v 0.000000 6.000000 0.000001
v -1.000000 6.000000 1.000001
v -1.000000 7.000000 1.000001
v -0.000000 6.000000 1.000001
v -1.000000 6.000000 0.000001
v -1.000000 7.000000 0.000001
v 0.000000 7.000000 0.000001
v 0.000000 6.000000 0.000001
v -0.000000 7.000000 1.000001
v -1.000000 7.000000 0.500001
v -1.000000 8.000000 0.500001
v -0.000000 7.000000 0.500001
v -0.000000 8.000000 0.500001
v 0.000000 7.000000 0.000001
v 0.000000 8.000000 0.000001
v -1.000000 8.000000 1.000001
v -1.000000 9.000000 1.000001
v -0.000000 8.000000 1.000001
v -0.000000 9.000000 1.000001
v 0.000000 8.000000 0.000001
v 0.000000 9.000000 0.000001
v -1.000000 9.000000 0.000001
v -1.000000 9.000000 0.000001
v -1.000000 10.000000 0.000001
v 0.000000 9.000000 0.000001
v 0.000000 10.000000 0.000001
v -1.000000 10.000000 0.000001
v -1.000000 11.000000 0.000001
v 0.000000 10.000000 0.000001
v 0.000000 11.000000 0.000001
v -1.000000 11.000000 0.500001
v -1.000000 12.000000 0.500001
v -0.000000 11.000000 0.500001
v -1.000000 11.000000 0.000001
v -1.000000 12.000000 0.000001
v -0.000000 12.000000 0.500001
v 0.000000 11.000000 0.000001
v 0.000000 12.000000 0.000001
v -1.000000 12.000000 1.000001
v -1.000000 13.000000 1.000001
v -0.000000 12.000000 1.000001
v -1.000000 12.000000 0.000001
v -1.000000 13.000000 0.000001
v 0.000000 13.000000 0.000001
v 0.000000 12.000000 0.000001
v -0.000000 13.000000 1.000001
v -1.000000 13.000000 0.500001
v -1.000000 14.000000 0.500001
v -0.000000 13.000000 0.500001
v -0.000000 14.000000 0.500001
v 0.000000 13.000000 0.000001
v 0.000000 14.000000 0.000001
v 0.000001 1.000000 0.200000
v 0.200001 1.000000 0.200000
v 0.000001 0.900001 0.200000
v 0.000001 1.000000 -0.000000
v 0.000001 0.900001 -0.000000
v 0.200001 1.000000 -0.000000
v 0.200001 0.900001 -0.000000
v 0.200001 0.900001 0.200000
v 0.150001 0.900001 0.050000
v 0.150001 0.900001 0.150000
v 0.050001 0.900001 0.050000
v 0.150001 0.000000 0.050000
v 0.050001 0.000000 0.050000
v 0.150001 0.000000 0.150000
v 0.050001 0.000000 0.150000
v 0.050001 0.900001 0.150000
v 0.000001 3.000000 0.200000
v 0.200001 3.000000 0.200000
v 0.000001 2.900001 0.200000
v 0.000001 3.000000 -0.000000
v 0.000001 2.900001 -0.000000
v 0.200001 3.000000 -0.000000
v 0.200001 2.900001 -0.000000
v 0.200001 2.900001 0.200000
v 0.150001 2.900001 0.050000
v 0.150001 2.900001 0.150000
v 0.050001 2.900001 0.050000
v 0.150001 2.000000 0.050000
v 0.050001 2.000000 0.050000
v 0.150001 2.000000 0.150000
v 0.050001 2.000000 0.150000
v 0.050001 2.900001 0.150000
v 0.000001 4.000000 0.200000
v 0.200001 4.000000 0.200000
v 0.000001 3.900000 0.200000
v 0.000001 4.000000 -0.000000
v 0.000001 3.900000 -0.000000
v 0.200001 4.000000 -0.000000
v 0.200001 3.900000 -0.000000
v 0.200001 3.900000 0.200000
v 0.150001 3.900000 0.050000
v 0.150001 3.900000 0.150000
v 0.050001 3.900000 0.050000
v 0.150001 3.000000 0.050000
v 0.050001 3.000000 0.050000
v 0.150001 3.000000 0.150000
v 0.050001 3.000000 0.150000
v 0.050001 3.900000 0.150000
v 0.000001 5.000000 0.200000
v 0.200001 5.000000 0.200000
v 0.000001 4.900000 0.200000
v 0.000001 5.000000 -0.000000
v 0.000001 4.900000 -0.000000
v 0.200001 5.000000 -0.000000
v 0.200001 4.900000 -0.000000
v 0.200001 4.900000 0.200000
v 0.150001 4.900000 0.050000
v 0.150001 4.900000 0.150000
v 0.050001 4.900000 0.050000
v 0.150001 4.000000 0.050000
v 0.050001 4.000000 0.050000
v 0.150001 4.000000 0.150000
v 0.050001 4.000000 0.150000
v 0.050001 4.900000 0.150000
v 0.000001 6.000000 0.200000
v 0.200001 6.000000 0.200000
v 0.000001 5.900000 0.200000
v 0.000001 6.000000 -0.000000
v 0.000001 5.900000 -0.000000
v 0.200001 6.000000 -0.000000
v 0.200001 5.900000 -0.000000
v 0.200001 5.900000 0.200000
v 0.150001 5.900000 0.050000
v 0.150001 5.900000 0.150000
v 0.050001 5.900000 0.050000
v 0.150001 5.000000 0.050000
v 0.050001 5.000000 0.050000
v 0.150001 5.000000 0.150000
v 0.050001 5.000000 0.150000
v 0.050001 5.900000 0.150000
v 0.000001 7.000000 0.200000
v 0.200001 7.000000 0.200000
v 0.000001 6.900000 0.200000
v 0.000001 7.000000 -0.000000
v 0.000001 6.900000 -0.000000
v 0.200001 7.000000 -0.000000
v 0.200001 6.900000 -0.000000
v 0.200001 6.900000 0.200000
v 0.150001 6.900000 0.050000
v 0.150001 6.900000 0.150000
v 0.050001 6.900000 0.050000
v 0.150001 6.000000 0.050000
v 0.050001 6.000000 0.050000
v 0.150001 6.000000 0.150000
v 0.050001 6.000000 0.150000
v 0.050001 6.900000 0.150000
v 0.000001 8.000000 0.200000
v 0.200001 8.000000 0.200000
v 0.000001 7.900000 0.200000
v 0.000001 8.000000 -0.000000
v 0.000001 7.900000 -0.000000
v 0.200001 8.000000 -0.000000
v 0.200001 7.900000 -0.000000
v 0.200001 7.900000 0.200000
v 0.150001 7.900000 0.050000
v 0.150001 7.900000 0.150000
v 0.050001 7.900000 0.050000
v 0.150001 7.000000 0.050000
v 0.050001 7.000000 0.050000
v 0.150001 7.000000 0.150000
v 0.050001 7.000000 0.150000
v 0.050001 7.900000 0.150000
v 0.000001 9.000000 0.200000
v 0.200001 9.000000 0.200000
v 0.000001 8.900000 0.200000
v 0.000001 9.000000 -0.000000
v 0.000001 8.900000 -0.000000
v 0.200001 9.000000 -0.000000
v 0.200001 8.900000 -0.000000
v 0.200001 8.900000 0.200000
v 0.150001 8.900000 0.050000
v 0.150001 8.900000 0.150000
v 0.050001 8.900000 0.050000
v 0.150001 8.000000 0.050000
v 0.050001 8.000000 0.050000
v 0.150001 8.000000 0.150000
v 0.050001 8.000000 0.150000
v 0.050001 8.900000 0.150000
v 0.000001 10.000000 0.200000
v 0.200001 10.000000 0.200000
v 0.000001 9.900000 0.200000
v 0.000001 10.000000 -0.000000
v 0.000001 9.900000 -0.000000
v 0.200001 10.000000 -0.000000
v 0.200001 9.900000 -0.000000
v 0.200001 9.900000 0.200000
v 0.150001 9.900000 0.050000
v 0.150001 9.900000 0.150000
v 0.050001 9.900000 0.050000
v 0.150001 9.000000 0.050000
v 0.050001 9.000000 0.050000
v 0.150001 9.000000 0.150000
v 0.050001 9.000000 0.150000
v 0.050001 9.900000 0.150000
v 0.000001 11.000000 0.200000
v 0.200001 11.000000 0.200000
v 0.000001 10.900000 0.200000
v 0.000001 11.000000 -0.000000
v 0.000001 10.900000 -0.000000
v 0.200001 11.000000 -0.000000
v 0.200001 10.900000 -0.000000
v 0.200001 10.900000 0.200000
v 0.150001 10.900000 0.050000
v 0.150001 10.900000 0.150000
v 0.050001 10.900000 0.050000
v 0.150001 10.000000 0.050000
v 0.050001 10.000000 0.050000
v 0.150001 10.000000 0.150000
v 0.050001 10.000000 0.150000
v 0.050001 10.900000 0.150000
v 0.000001 12.000000 0.200000
v 0.200001 12.000000 0.200000
v 0.000001 11.900000 0.200000
v 0.000001 12.000000 -0.000000
v 0.000001 11.900000 -0.000000
v 0.200001 12.000000 -0.000000
v 0.200001 11.900000 -0.000000
v 0.200001 11.900000 0.200000
v 0.150001 11.900000 0.050000
v 0.150001 11.900000 0.149999
v 0.050001 11.900000 0.050000
v 0.150001 11.000000 0.050000
v 0.050001 11.000000 0.050000
v 0.150001 11.000000 0.150000
v 0.050001 11.000000 0.150000
v 0.050001 11.900000 0.149999
v 0.000001 13.000000 0.200000
v 0.200001 13.000000 0.200000
v 0.000001 12.900000 0.200000
v 0.000001 13.000000 -0.000000
v 0.000001 12.900000 -0.000000
v 0.200001 13.000000 -0.000000
v 0.200001 12.900000 -0.000000
v 0.200001 12.900000 0.200000
v 0.150001 12.900000 0.050000
v 0.150001 12.900000 0.149999
v 0.050001 12.900000 0.050000
v 0.150001 12.000000 0.050000
v 0.050001 12.000000 0.050000
v 0.150001 12.000000 0.150000
v 0.050001 12.000000 0.150000
v 0.050001 12.900000 0.149999
v 0.000001 14.000000 0.200000
v 0.200001 14.000000 0.200000
v 0.000001 13.900000 0.200000
v 0.000001 14.000000 -0.000000
v 0.000001 13.900000 -0.000000
v 0.200001 14.000000 -0.000000
v 0.200001 13.900000 -0.000000
v 0.200001 13.900000 0.200000
v 0.150001 13.900000 0.050000
v 0.150001 13.900000 0.149999
v 0.050001 13.900000 0.050000
v 0.150001 13.000000 0.050000
v 0.050001 13.000000 0.050000
v 0.150001 13.000000 0.150000
v 0.050001 13.000000 0.150000
v 0.050001 13.900000 0.149999
v 0.996695 14.049999 -1.996693
v -0.003305 14.750000 -1.996693
v 0.996695 14.049999 -2.996694
v 0.996695 14.025000 -1.996693
v 0.996695 14.025000 -2.996694
v -0.003305 14.750000 -2.996694
v 0.996695 14.049999 -0.999999
v -0.003305 14.750000 -0.999999
v 0.996695 14.049999 -1.999999
v 0.996695 14.025000 -0.999999
v 0.996695 14.025000 -1.999999
v -0.003305 14.750000 -1.999999
v 0.996696 14.049999 -2.996695
v -0.003304 14.750000 -2.996695
v 0.996696 14.025000 -2.996695
v 0.996696 14.049999 -3.996695
v 0.996696 14.049999 -4.996695
v 0.996696 14.025000 -3.996695
v -0.003304 14.750000 -3.996695
v 0.996696 14.025000 -4.996695
v -4.999998 14.049999 1.000001
v -4.999998 14.025000 1.000001
v -3.999998 14.049999 1.000000
v -3.999998 14.750000 0.000000
v -2.999998 14.750000 0.000000
v -2.999998 14.049999 1.000000
v -2.999998 14.025000 1.000000
v -3.999998 14.025000 1.000000
v -2.003305 14.049999 1.000001
v -2.003305 14.750000 0.000001
v -1.003305 14.049999 1.000001
v -2.003305 14.025000 1.000001
v -1.003305 14.025000 1.000001
v -1.003305 14.750000 0.000001
vn -0.0000 1.0000 -0.0000
vn -0.0000 -0.0000 1.0000
vn -1.0000 -0.0000 -0.0000
vn -0.0000 -0.0000 -1.0000
vn 1.0000 -0.0000 -0.0000
vn -0.0000 -1.0000 -0.0000
vn 0.5735 0.8192 -0.0000
vn -0.0000 0.8192 0.5735
vt 0.416437 0.125685
vt 0.583130 0.125685
vt 0.583130 0.375589
vt 0.416437 0.375587
vt 0.666476 0.125454
vt 0.666476 0.375818
vt 0.333091 0.375818
vt 0.333091 0.125454
vt 0.333091 0.125454
vt 0.666476 0.125454
vt 0.333091 0.125454
vt 0.666476 0.125454
vt 0.333091 0.375818
vt 0.666476 0.125454
vt 0.666476 0.375818
vt 0.333091 0.375818
vt 0.666476 0.125455
vt 0.666476 0.375818
vt 0.333091 0.375818
vt 0.333091 0.125454
vt 0.666476 0.125454
vt 0.666476 0.375818
vt 0.666476 0.500537
vt 0.333091 0.500537
vt 0.333091 0.000734
vt 0.666476 0.000734
vt 0.666476 0.500537
vt 0.333091 0.500537
vt 0.333091 0.000734
vt 0.666476 0.000734
vt 0.666476 0.500537
vt 0.666476 0.000734
vt 0.333091 0.125454
vt 0.666476 0.125455
vt 0.666476 0.375818
vt 0.666476 0.125455
vt 0.666422 0.500000
vt 0.666422 0.999266
vt 0.333578 0.999266
vt 0.333578 0.500000
vt 0.333578 0.020140
vt 0.000073 0.020140
vt 0.000073 0.000073
vt 0.333578 0.000073
vt 0.333578 0.500000
vt 0.333578 0.020140
vt 0.333578 0.500000
vt 0.000073 0.500000
vt 0.000073 0.000073
vt 0.333578 0.000073
vt 0.000073 0.020140
vt 0.000073 0.500000
vt 0.000073 0.000073
vt 0.333578 0.020140
vt 0.000073 0.020140
vt 0.333578 0.000073
vt 0.000073 0.500000
vt 0.002158 0.520067
vt 0.335663 0.520067
vt 0.335663 0.999927
vt 0.002158 0.999927
vt 0.002158 0.500000
vt 0.335663 0.500000
vt 0.666911 0.000734
vt 0.999755 0.000734
vt 0.999755 0.500000
vt 0.666911 0.500000
vt 0.968475 0.500000
vt 0.968475 0.999266
vt 0.901816 0.999266
vt 0.901816 0.500000
vt 0.835156 0.999266
vt 0.835156 0.500000
vt 0.666653 0.500000
vt 0.666653 0.250173
vt 0.999755 0.250173
vt 0.999755 0.500000
vt 0.999755 0.500000
vt 0.999755 0.999266
vt 0.666911 0.999266
vt 0.666911 0.500000
vt 0.666653 0.500000
vt 0.666653 0.250173
vt 0.999755 0.250173
vt 0.666653 0.500000
vt 0.666653 0.250173
vt 0.999755 0.250173
vt 0.999755 0.500000
vt 0.666911 0.500000
vt 0.666911 0.999266
vt 0.666911 0.500000
vt 0.666911 0.000734
vt 0.999755 0.000734
vt 0.999755 0.500000
vt 0.666477 0.500652
vt 0.666477 0.000734
vt 0.999756 0.000734
vt 0.999755 0.500652
vt 0.666911 0.500000
vt 0.666911 0.000734
vt 0.999755 0.000734
vt 0.999755 0.500000
vt 0.666911 0.500000
vt 0.666911 0.000734
vt 0.999755 0.000734
vt 0.666653 0.500000
vt 0.666476 0.500652
vt 0.999755 0.000734
vt 0.999755 0.500652
vt 0.000073 0.020140
vt 0.333578 0.020140
vt 0.000073 0.500000
vt 0.000073 0.000073
vt 0.333578 0.000073
s 0
f 2/1/1 6/2/1 4/3/1 1/4/1
f 2/5/2 1/6/2 3/7/2 8/8/2
f 3/6/3 1/7/3 4/9/3 5/10/3
f 6/11/4 7/12/4 5/6/4 4/13/4
f 6/14/5 2/15/5 8/7/5 7/9/5
f 7/16/6 8/8/6 10/17/6 9/18/6
f 5/19/6 7/20/6 9/21/6 11/22/6
f 9/23/5 10/24/5 14/25/5 12/26/5
f 11/27/4 9/28/4 12/29/4 13/30/4
f 10/31/2 16/28/2 15/29/2 14/32/2
f 16/23/3 11/24/3 13/25/3 15/26/3
f 8/7/6 3/33/6 16/34/6 10/35/6
f 3/7/6 5/33/6 11/36/6 16/6/6
f 19/37/5 20/38/5 18/39/5 17/40/5
f 23/41/5 21/42/5 22/43/5 28/44/5
f 21/42/7 23/41/7 24/45/7
f 23/42/7 26/46/7 25/47/7 24/48/7
f 26/46/5 23/42/5 28/49/5 27/50/5
f 29/51/8 32/46/8 35/47/8 30/52/8
f 32/46/2 29/51/2 31/53/2 34/50/2
f 33/54/2 32/55/2 34/43/2 36/56/2
f 32/55/8 33/54/8 35/57/8
f 37/58/8 39/59/8 42/60/8 38/61/8
f 39/59/2 37/58/2 40/62/2 41/63/2
f 44/5/5 43/6/5 45/7/5 50/8/5
f 44/1/1 48/2/1 46/3/1 43/4/1
f 45/6/2 43/7/2 46/9/2 47/10/2
f 48/14/4 44/15/4 50/7/4 49/9/4
f 49/16/6 50/8/6 52/17/6 51/18/6
f 51/23/4 52/24/4 54/25/4 53/26/4
f 52/31/5 57/28/5 55/29/5 54/32/5
f 57/23/2 58/24/2 56/25/2 55/26/2
f 50/7/6 45/33/6 57/34/6 52/35/6
f 45/7/6 47/33/6 58/36/6 57/6/6
f 60/1/1 64/2/1 62/3/1 59/4/1
f 60/5/5 59/6/5 61/7/5 66/8/5
f 61/6/2 59/7/2 62/9/2 63/10/2
f 64/14/4 60/15/4 66/7/4 65/9/4
f 65/16/6 66/8/6 68/17/6 67/18/6
f 67/23/4 68/24/4 70/25/4 69/26/4
f 68/31/5 73/28/5 71/29/5 70/32/5
f 73/23/2 74/24/2 72/25/2 71/26/2
f 66/7/6 61/33/6 73/34/6 68/35/6
f 61/7/6 63/33/6 74/36/6 73/6/6
f 76/1/1 80/2/1 78/3/1 75/4/1
f 76/5/5 75/6/5 77/7/5 82/8/5
f 77/6/2 75/7/2 78/9/2 79/10/2
f 80/14/4 76/15/4 82/7/4 81/9/4
f 81/16/6 82/8/6 84/17/6 83/18/6
f 83/23/4 84/24/4 86/25/4 85/26/4
f 84/31/5 89/28/5 87/29/5 86/32/5
f 89/23/2 90/24/2 88/25/2 87/26/2
f 82/7/6 77/33/6 89/34/6 84/35/6
f 77/7/6 79/33/6 90/36/6 89/6/6
f 92/1/1 96/2/1 94/3/1 91/4/1
f 92/5/5 91/6/5 93/7/5 98/8/5
f 93/6/2 91/7/2 94/9/2 95/10/2
f 96/14/4 92/15/4 98/7/4 97/9/4
f 97/16/6 98/8/6 100/17/6 99/18/6
f 99/23/4 100/24/4 102/25/4 101/26/4
f 100/31/5 105/28/5 103/29/5 102/32/5
f 105/23/2 106/24/2 104/25/2 103/26/2
f 98/7/6 93/33/6 105/34/6 100/35/6
f 93/7/6 95/33/6 106/36/6 105/6/6
f 108/1/1 112/2/1 110/3/1 107/4/1
f 108/5/5 107/6/5 109/7/5 114/8/5
f 109/6/2 107/7/2 110/9/2 111/10/2
f 112/14/4 108/15/4 114/7/4 113/9/4
f 113/16/6 114/8/6 116/17/6 115/18/6
f 115/23/4 116/24/4 118/25/4 117/26/4
f 116/31/5 121/28/5 119/29/5 118/32/5
f 121/23/2 122/24/2 120/25/2 119/26/2
f 114/7/6 109/33/6 121/34/6 116/35/6
f 109/7/6 111/33/6 122/36/6 121/6/6
f 124/1/1 128/2/1 126/3/1 123/4/1
f 124/5/5 123/6/5 125/7/5 130/8/5
f 125/6/2 123/7/2 126/9/2 127/10/2
f 128/14/4 124/15/4 130/7/4 129/9/4
f 129/16/6 130/8/6 132/17/6 131/18/6
f 131/23/4 132/24/4 134/25/4 133/26/4
f 132/31/5 137/28/5 135/29/5 134/32/5
f 137/23/2 138/24/2 136/25/2 135/26/2
f 130/7/6 125/33/6 137/34/6 132/35/6
f 125/7/6 127/33/6 138/36/6 137/6/6
f 140/1/1 144/2/1 142/3/1 139/4/1
f 140/5/5 139/6/5 141/7/5 146/8/5
f 141/6/2 139/7/2 142/9/2 143/10/2
f 144/14/4 140/15/4 146/7/4 145/9/4
f 145/16/6 146/8/6 148/17/6 147/18/6
f 147/23/4 148/24/4 150/25/4 149/26/4
f 148/31/5 153/28/5 151/29/5 150/32/5
f 153/23/2 154/24/2 152/25/2 151/26/2
f 146/7/6 141/33/6 153/34/6 148/35/6
f 141/7/6 143/33/6 154/36/6 153/6/6
f 156/1/1 160/2/1 158/3/1 155/4/1
f 156/5/5 155/6/5 157/7/5 162/8/5
f 157/6/2 155/7/2 158/9/2 159/10/2
f 160/14/4 156/15/4 162/7/4 161/9/4
f 161/16/6 162/8/6 164/17/6 163/18/6
f 163/23/4 164/24/4 166/25/4 165/26/4
f 164/31/5 169/28/5 167/29/5 166/32/5
f 169/23/2 170/24/2 168/25/2 167/26/2
f 162/7/6 157/33/6 169/34/6 164/35/6
f 157/7/6 159/33/6 170/36/6 169/6/6
f 172/1/1 176/2/1 174/3/1 171/4/1
f 172/5/5 171/6/5 173/7/5 178/8/5
f 173/6/2 171/7/2 174/9/2 175/10/2
f 176/14/4 172/15/4 178/7/4 177/9/4
f 177/16/6 178/8/6 180/17/6 179/18/6
f 179/23/4 180/24/4 182/25/4 181/26/4
f 180/31/5 185/28/5 183/29/5 182/32/5
f 185/23/2 186/24/2 184/25/2 183/26/2
f 178/7/6 173/33/6 185/34/6 180/35/6
f 173/7/6 175/33/6 186/36/6 185/6/6
f 188/1/1 192/2/1 190/3/1 187/4/1
f 188/5/5 187/6/5 189/7/5 194/8/5
f 189/6/2 187/7/2 190/9/2 191/10/2
f 192/14/4 188/15/4 194/7/4 193/9/4
f 193/16/6 194/8/6 196/17/6 195/18/6
f 195/23/4 196/24/4 198/25/4 197/26/4
f 196/31/5 201/28/5 199/29/5 198/32/5
f 201/23/2 202/24/2 200/25/2 199/26/2
f 194/7/6 189/33/6 201/34/6 196/35/6
f 189/7/6 191/33/6 202/36/6 201/6/6
f 204/1/1 208/2/1 206/3/1 203/4/1
f 204/5/5 203/6/5 205/7/5 210/8/5
f 205/6/2 203/7/2 206/9/2 207/10/2
f 208/14/4 204/15/4 210/7/4 209/9/4
f 209/16/6 210/8/6 212/17/6 211/18/6
f 211/23/4 212/24/4 214/25/4 213/26/4
f 212/31/5 217/28/5 215/29/5 214/32/5
f 217/23/2 218/24/2 216/25/2 215/26/2
f 210/7/6 205/33/6 217/34/6 212/35/6
f 205/7/6 207/33/6 218/36/6 217/6/6
f 220/1/1 224/2/1 222/3/1 219/4/1
f 220/5/5 219/6/5 221/7/5 226/8/5
f 221/6/2 219/7/2 222/9/2 223/10/2
f 224/14/4 220/15/4 226/7/4 225/9/4
f 225/16/6 226/8/6 228/17/6 227/18/6
f 227/23/4 228/24/4 230/25/4 229/26/4
f 228/31/5 233/28/5 231/29/5 230/32/5
f 233/23/2 234/24/2 232/25/2 231/26/2
f 226/7/6 221/33/6 233/34/6 228/35/6
f 221/7/6 223/33/6 234/36/6 233/6/6
f 236/1/1 240/2/1 238/3/1 235/4/1
f 236/5/5 235/6/5 237/7/5 242/8/5
f 237/6/2 235/7/2 238/9/2 239/10/2
f 240/14/4 236/15/4 242/7/4 241/9/4
f 241/16/6 242/8/6 244/17/6 243/18/6
f 243/23/4 244/24/4 246/25/4 245/26/4
f 244/31/5 249/28/5 247/29/5 246/32/5
f 249/23/2 250/24/2 248/25/2 247/26/2
f 242/7/6 237/33/6 249/34/6 244/35/6
f 237/7/6 239/33/6 250/36/6 249/6/6
f 252/5/5 251/6/5 253/7/5 266/8/5
f 253/6/2 251/7/2 254/9/2 255/10/2
f 253/7/6 255/33/6 256/36/6 257/6/6
f 257/23/2 256/24/2 258/25/2 259/26/2
f 261/31/5 257/28/5 259/29/5 260/32/5
f 263/23/4 261/24/4 260/25/4 262/26/4
f 264/16/6 266/8/6 261/17/6 263/18/6
f 265/14/4 252/15/4 266/7/4 264/9/4
f 266/7/6 253/33/6 257/34/6 261/35/6
f 269/64/5 270/65/5 268/66/5 267/67/5
f 270/68/1 269/69/1 271/70/1 273/71/1
f 272/72/5 274/73/5 273/71/5 271/70/5
f 277/64/5 278/65/5 276/66/5 275/67/5
f 278/68/1 277/69/1 279/70/1 281/71/1
f 280/72/5 282/73/5 281/71/5 279/70/5
f 285/64/5 286/65/5 284/66/5 283/67/5
f 286/68/1 285/69/1 287/70/1 289/71/1
f 288/72/5 290/73/5 289/71/5 287/70/5
f 293/64/5 294/65/5 292/66/5 291/67/5
f 294/68/1 293/69/1 295/70/1 297/71/1
f 296/72/5 298/73/5 297/71/5 295/70/5
f 300/74/2 303/75/2 302/76/2 299/77/2
f 301/78/5 304/79/5 300/80/5 299/81/5
f 306/74/2 309/75/2 308/76/2 305/77/2
f 307/78/5 310/79/5 306/80/5 305/81/5
f 312/74/2 315/75/2 314/76/2 311/77/2
f 313/78/5 318/79/5 312/80/5 311/81/5
f 318/82/1 316/83/1 315/84/1 312/78/1
f 313/85/4 317/86/4 316/87/4 318/88/4
f 319/89/5 321/78/5 322/79/5 320/90/5
f 324/74/2 327/75/2 326/76/2 323/77/2
f 325/78/5 328/79/5 324/80/5 323/81/5
f 330/91/2 333/92/2 332/93/2 329/94/2
f 331/37/5 334/38/5 330/39/5 329/40/5
f 331/95/4 335/96/4 336/97/4 334/98/4
f 338/91/2 341/92/2 340/93/2 337/94/2
f 339/37/5 342/38/5 338/39/5 337/40/5
f 339/95/4 343/96/4 344/97/4 342/98/4
f 346/99/2 349/100/2 348/101/2 345/102/2
f 347/78/5 351/79/5 346/80/5 345/81/5
f 351/103/1 350/104/1 349/105/1 346/78/1
f 354/37/5 355/38/5 353/39/5 352/40/5
f 356/89/5 358/78/5 359/79/5 357/90/5
f 361/74/2 364/75/2 363/76/2 360/77/2
f 362/78/5 365/79/5 361/80/5 360/81/5
f 367/106/2 370/75/2 369/76/2 366/77/2
f 368/37/5 371/38/5 367/39/5 366/40/5
f 374/78/5 375/79/5 373/80/5 372/81/5
f 374/85/4 376/86/4 377/87/4 375/88/4
f 379/91/2 382/92/2 381/93/2 378/94/2
f 380/37/5 385/38/5 379/39/5 378/40/5
f 385/103/1 383/104/1 382/105/1 379/78/1
f 380/95/4 384/96/4 383/97/4 385/98/4
f 388/37/5 389/38/5 387/39/5 386/40/5
f 391/99/2 394/100/2 393/101/2 390/102/2
f 392/78/5 397/79/5 391/80/5 390/81/5
f 397/103/1 395/104/1 394/105/1 391/78/1
f 392/107/4 396/26/4 395/108/4 397/109/4
f 400/78/5 401/79/5 399/80/5 398/81/5
f 404/78/5 405/79/5 403/80/5 402/81/5
f 404/85/4 406/86/4 407/87/4 405/88/4
f 410/78/5 411/79/5 409/80/5 408/81/5
f 410/85/4 412/86/4 413/87/4 411/88/4
f 416/37/5 417/38/5 415/39/5 414/40/5
f 416/95/4 418/96/4 419/97/4 417/98/4
f 417/103/1 419/104/1 420/105/1 415/78/1
f 423/37/5 424/38/5 422/39/5 421/40/5
f 426/91/2 429/92/2 428/93/2 425/94/2
f 427/37/5 430/38/5 426/39/5 425/40/5
f 427/95/4 431/96/4 432/97/4 430/98/4
f 434/99/2 437/100/2 436/101/2 433/102/2
f 435/78/5 439/79/5 434/80/5 433/81/5
f 439/103/1 438/104/1 437/105/1 434/78/1
f 442/78/5 443/79/5 441/80/5 440/81/5
f 442/85/4 444/86/4 445/87/4 443/88/4
f 448/78/5 449/79/5 447/80/5 446/81/5
f 450/89/5 452/78/5 453/79/5 451/90/5
f 456/37/5 457/38/5 455/39/5 454/40/5
f 458/89/5 460/78/5 461/79/5 459/90/5
f 464/37/5 465/38/5 463/39/5 462/40/5
f 468/78/5 469/79/5 467/80/5 466/81/5
f 469/82/1 470/83/1 471/84/1 467/78/1
f 474/37/5 475/38/5 473/39/5 472/40/5
f 478/37/5 479/38/5 477/39/5 476/40/5
f 482/78/5 483/79/5 481/80/5 480/81/5
f 482/85/4 484/86/4 485/87/4 483/88/4
f 483/82/1 485/83/1 486/84/1 481/78/1
f 487/89/5 489/78/5 490/79/5 488/90/5
f 493/37/5 494/38/5 492/39/5 491/40/5
f 493/82/4 495/83/4 496/76/4 494/66/4
f 499/37/5 500/38/5 498/39/5 497/40/5
f 499/95/4 501/96/4 502/97/4 500/98/4
f 500/103/1 502/104/1 503/105/1 498/78/1
f 506/37/5 507/38/5 505/39/5 504/40/5
f 510/37/5 511/38/5 509/39/5 508/40/5
f 510/82/4 512/83/4 513/76/4 511/66/4
f 515/91/2 518/92/2 517/93/2 514/94/2
f 516/37/5 519/38/5 515/39/5 514/40/5
f 516/95/4 520/96/4 521/97/4 519/98/4
f 523/91/2 526/92/2 525/93/2 522/94/2
f 524/37/5 529/38/5 523/39/5 522/40/5
f 529/103/1 527/104/1 526/105/1 523/78/1
f 524/95/4 528/96/4 527/97/4 529/98/4
f 531/74/2 534/75/2 533/76/2 530/77/2
f 532/78/5 537/79/5 531/80/5 530/81/5
f 537/82/1 535/83/1 534/84/1 531/78/1
f 532/85/4 536/86/4 535/87/4 537/88/4
f 540/37/5 541/38/5 539/39/5 538/40/5
f 543/91/2 546/92/2 545/93/2 542/94/2
f 544/37/5 549/38/5 543/39/5 542/40/5
f 549/103/1 547/104/1 546/105/1 543/78/1
f 544/95/4 548/96/4 547/97/4 549/98/4
f 551/106/2 554/75/2 553/76/2 550/77/2
f 552/37/5 555/38/5 551/39/5 550/40/5
f 552/82/4 556/83/4 557/76/4 555/66/4
f 559/91/2 562/92/2 561/93/2 558/94/2
f 560/37/5 565/38/5 559/39/5 558/40/5
f 565/103/1 563/104/1 562/105/1 559/78/1
f 560/95/4 564/96/4 563/97/4 565/98/4
f 568/37/5 569/38/5 567/39/5 566/40/5
f 572/37/5 573/38/5 571/39/5 570/40/5
f 574/89/5 576/78/5 577/79/5 575/90/5
f 578/89/5 580/78/5 581/79/5 579/90/5
f 583/74/2 586/75/2 585/76/2 582/77/2
f 584/78/5 589/79/5 583/80/5 582/81/5
f 589/82/1 587/83/1 586/84/1 583/78/1
f 584/85/4 588/86/4 587/87/4 589/88/4
f 590/89/5 592/78/5 593/79/5 591/90/5
f 595/1/1 599/2/1 597/3/1 594/4/1
f 595/5/3 594/6/3 596/7/3 601/8/3
f 599/11/5 600/12/5 598/6/5 597/13/5
f 599/14/2 595/15/2 601/7/2 600/9/2
f 600/16/6 601/8/6 603/17/6 602/18/6
f 598/19/6 600/20/6 602/21/6 604/22/6
f 602/23/2 603/24/2 607/25/2 605/26/2
f 604/27/5 602/28/5 605/29/5 606/30/5
f 603/31/3 609/28/3 608/29/3 607/32/3
f 601/7/6 596/33/6 609/34/6 603/35/6
f 611/1/1 615/2/1 613/3/1 610/4/1
f 611/5/3 610/6/3 612/7/3 617/8/3
f 615/11/5 616/12/5 614/6/5 613/13/5
f 615/14/2 611/15/2 617/7/2 616/9/2
f 616/16/6 617/8/6 619/17/6 618/18/6
f 614/19/6 616/20/6 618/21/6 620/22/6
f 618/23/2 619/24/2 623/25/2 621/26/2
f 620/27/5 618/28/5 621/29/5 622/30/5
f 619/31/3 625/28/3 624/29/3 623/32/3
f 617/7/6 612/33/6 625/34/6 619/35/6
f 627/1/1 631/2/1 629/3/1 626/4/1
f 627/5/3 626/6/3 628/7/3 633/8/3
f 631/11/5 632/12/5 630/6/5 629/13/5
f 631/14/2 627/15/2 633/7/2 632/9/2
f 632/16/6 633/8/6 635/17/6 634/18/6
f 630/19/6 632/20/6 634/21/6 636/22/6
f 634/23/2 635/24/2 639/25/2 637/26/2
f 636/27/5 634/28/5 637/29/5 638/30/5
f 635/31/3 641/28/3 640/29/3 639/32/3
f 633/7/6 628/33/6 641/34/6 635/35/6
f 643/1/1 647/2/1 645/3/1 642/4/1
f 643/5/3 642/6/3 644/7/3 649/8/3
f 647/11/5 648/12/5 646/6/5 645/13/5
f 647/14/2 643/15/2 649/7/2 648/9/2
f 648/16/6 649/8/6 651/17/6 650/18/6
f 646/19/6 648/20/6 650/21/6 652/22/6
f 650/23/2 651/24/2 655/25/2 653/26/2
f 652/27/5 650/28/5 653/29/5 654/30/5
f 651/31/3 657/28/3 656/29/3 655/32/3
f 649/7/6 644/33/6 657/34/6 651/35/6
f 659/1/1 663/2/1 661/3/1 658/4/1
f 659/5/3 658/6/3 660/7/3 665/8/3
f 663/11/5 664/12/5 662/6/5 661/13/5
f 663/14/2 659/15/2 665/7/2 664/9/2
f 664/16/6 665/8/6 667/17/6 666/18/6
f 662/19/6 664/20/6 666/21/6 668/22/6
f 666/23/2 667/24/2 671/25/2 669/26/2
f 668/27/5 666/28/5 669/29/5 670/30/5
f 667/31/3 673/28/3 672/29/3 671/32/3
f 665/7/6 660/33/6 673/34/6 667/35/6
f 675/1/1 679/2/1 677/3/1 674/4/1
f 675/5/3 674/6/3 676/7/3 681/8/3
f 679/11/5 680/12/5 678/6/5 677/13/5
f 679/14/2 675/15/2 681/7/2 680/9/2
f 680/16/6 681/8/6 683/17/6 682/18/6
f 678/19/6 680/20/6 682/21/6 684/22/6
f 682/23/2 683/24/2 687/25/2 685/26/2
f 684/27/5 682/28/5 685/29/5 686/30/5
f 683/31/3 689/28/3 688/29/3 687/32/3
f 681/7/6 676/33/6 689/34/6 683/35/6
f 691/1/1 695/2/1 693/3/1 690/4/1
f 691/5/3 690/6/3 692/7/3 697/8/3
f 695/11/5 696/12/5 694/6/5 693/13/5
f 695/14/2 691/15/2 697/7/2 696/9/2
f 696/16/6 697/8/6 699/17/6 698/18/6
f 694/19/6 696/20/6 698/21/6 700/22/6
f 698/23/2 699/24/2 703/25/2 701/26/2
f 700/27/5 698/28/5 701/29/5 702/30/5
f 699/31/3 705/28/3 704/29/3 703/32/3
f 697/7/6 692/33/6 705/34/6 699/35/6
f 707/1/1 711/2/1 709/3/1 706/4/1
f 707/5/3 706/6/3 708/7/3 713/8/3
f 711/11/5 712/12/5 710/6/5 709/13/5
f 711/14/2 707/15/2 713/7/2 712/9/2
f 712/16/6 713/8/6 715/17/6 714/18/6
f 710/19/6 712/20/6 714/21/6 716/22/6
f 714/23/2 715/24/2 719/25/2 717/26/2
f 716/27/5 714/28/5 717/29/5 718/30/5
f 715/31/3 721/28/3 720/29/3 719/32/3
f 713/7/6 708/33/6 721/34/6 715/35/6
f 723/1/1 727/2/1 725/3/1 722/4/1
f 723/5/3 722/6/3 724/7/3 729/8/3
f 727/11/5 728/12/5 726/6/5 725/13/5
f 727/14/2 723/15/2 729/7/2 728/9/2
f 728/16/6 729/8/6 731/17/6 730/18/6
f 726/19/6 728/20/6 730/21/6 732/22/6
f 730/23/2 731/24/2 735/25/2 733/26/2
f 732/27/5 730/28/5 733/29/5 734/30/5
f 731/31/3 737/28/3 736/29/3 735/32/3
f 729/7/6 724/33/6 737/34/6 731/35/6
f 739/1/1 743/2/1 741/3/1 738/4/1
f 739/5/3 738/6/3 740/7/3 745/8/3
f 743/11/5 744/12/5 742/6/5 741/13/5
f 743/14/2 739/15/2 745/7/2 744/9/2
f 744/16/6 745/8/6 747/17/6 746/18/6
f 742/19/6 744/20/6 746/21/6 748/22/6
f 746/23/2 747/24/2 751/25/2 749/26/2
f 748/27/5 746/28/5 749/29/5 750/30/5
f 747/31/3 753/28/3 752/29/3 751/32/3
f 745/7/6 740/33/6 753/34/6 747/35/6
f 755/1/1 759/2/1 757/3/1 754/4/1
f 755/5/3 754/6/3 756/7/3 761/8/3
f 759/11/5 760/12/5 758/6/5 757/13/5
f 759/14/2 755/15/2 761/7/2 760/9/2
f 760/16/6 761/8/6 763/17/6 762/18/6
f 758/19/6 760/20/6 762/21/6 764/22/6
f 762/23/2 763/24/2 767/25/2 765/26/2
f 764/27/5 762/28/5 765/29/5 766/30/5
f 763/31/3 769/28/3 768/29/3 767/32/3
f 761/7/6 756/33/6 769/34/6 763/35/6
f 771/1/1 775/2/1 773/3/1 770/4/1
f 771/5/3 770/6/3 772/7/3 777/8/3
f 775/11/5 776/12/5 774/6/5 773/13/5
f 775/14/2 771/15/2 777/7/2 776/9/2
f 776/16/6 777/8/6 779/17/6 778/18/6
f 774/19/6 776/20/6 778/21/6 780/22/6
f 778/23/2 779/24/2 783/25/2 781/26/2
f 780/27/5 778/28/5 781/29/5 782/30/5
f 779/31/3 785/28/3 784/29/3 783/32/3
f 777/7/6 772/33/6 785/34/6 779/35/6
f 787/1/1 791/2/1 789/3/1 786/4/1
f 787/5/3 786/6/3 788/7/3 793/8/3
f 791/11/5 792/12/5 790/6/5 789/13/5
f 791/14/2 787/15/2 793/7/2 792/9/2
f 792/16/6 793/8/6 795/17/6 794/18/6
f 790/19/6 792/20/6 794/21/6 796/22/6
f 794/23/2 795/24/2 799/25/2 797/26/2
f 796/27/5 794/28/5 797/29/5 798/30/5
f 795/31/3 801/28/3 800/29/3 799/32/3
f 793/7/6 788/33/6 801/34/6 795/35/6
f 803/5/3 802/6/3 804/7/3 805/8/3
f 805/7/6 804/33/6 806/34/6 807/35/6
f 807/31/3 806/28/3 808/29/3 809/32/3
f 812/23/2 807/24/2 809/25/2 810/26/2
f 813/27/5 812/28/5 810/29/5 811/30/5
f 814/16/6 805/8/6 807/17/6 812/18/6
f 816/19/6 814/20/6 812/21/6 813/22/6
f 815/11/5 814/12/5 816/6/5 817/13/5
f 815/14/2 803/15/2 805/7/2 814/9/2
f 820/64/2 821/65/2 819/66/2 818/67/2
f 821/68/1 820/69/1 822/70/1 824/71/1
f 823/72/2 825/73/2 824/71/2 822/70/2
f 828/64/2 829/65/2 827/66/2 826/67/2
f 829/68/1 828/69/1 830/70/1 832/71/1
f 831/72/2 833/73/2 832/71/2 830/70/2
f 836/64/2 837/65/2 835/66/2 834/67/2
f 837/68/1 836/69/1 838/70/1 840/71/1
f 839/72/2 841/73/2 840/71/2 838/70/2
f 844/64/2 845/65/2 843/66/2 842/67/2
f 845/68/1 844/69/1 846/70/1 848/71/1
f 847/72/2 849/73/2 848/71/2 846/70/2
f 851/99/3 854/100/3 853/101/3 850/102/3
f 852/78/2 855/79/2 851/80/2 850/81/2
f 852/107/5 856/26/5 857/108/5 855/109/5
f 859/99/3 862/100/3 861/101/3 858/102/3
f 860/78/2 864/79/2 859/80/2 858/81/2
f 864/103/1 863/104/1 862/105/1 859/78/1
f 866/74/3 869/75/3 868/76/3 865/77/3
f 867/78/2 870/79/2 866/80/2 865/81/2
f 867/85/5 871/86/5 872/87/5 870/88/5
f 874/74/3 877/75/3 876/76/3 873/77/3
f 875/78/2 880/79/2 874/80/2 873/81/2
f 880/82/1 878/83/1 877/84/1 874/78/1
f 875/85/5 879/86/5 878/87/5 880/88/5
f 881/89/2 883/78/2 884/79/2 882/90/2
f 886/106/3 889/75/3 888/76/3 885/77/3
f 887/37/2 890/38/2 886/39/2 885/40/2
f 887/82/5 891/83/5 892/76/5 890/66/5
f 894/106/3 897/75/3 896/76/3 893/77/3
f 895/37/2 898/38/2 894/39/2 893/40/2
f 895/82/5 899/83/5 900/76/5 898/66/5
f 902/74/3 905/75/3 904/76/3 901/77/3
f 903/78/2 906/79/2 902/80/2 901/81/2
f 903/85/5 907/86/5 908/87/5 906/88/5
f 910/99/3 913/100/3 912/101/3 909/102/3
f 911/78/2 915/79/2 910/80/2 909/81/2
f 915/103/1 914/104/1 913/105/1 910/78/1
f 918/37/2 919/38/2 917/39/2 916/40/2
f 921/106/3 924/75/3 923/76/3 920/77/3
f 922/37/2 925/38/2 921/39/2 920/40/2
f 922/82/5 926/83/5 927/76/5 925/66/5
f 929/99/3 932/100/3 931/101/3 928/102/3
f 930/78/2 935/79/2 929/80/2 928/81/2
f 935/103/1 933/104/1 932/105/1 929/78/1
f 930/107/5 934/26/5 933/108/5 935/109/5
f 937/106/3 940/75/3 939/76/3 936/77/3
f 938/37/2 941/38/2 937/39/2 936/40/2
f 944/78/2 945/79/2 943/80/2 942/81/2
f 948/37/2 949/38/2 947/39/2 946/40/2
f 948/95/5 950/96/5 951/97/5 949/98/5
f 949/103/1 951/104/1 952/105/1 947/78/1
f 953/89/2 955/78/2 956/79/2 954/90/2
f 959/37/2 960/38/2 958/39/2 957/40/2
f 963/37/2 964/38/2 962/39/2 961/40/2
f 965/89/2 967/78/2 968/79/2 966/90/2
f 971/37/2 972/38/2 970/39/2 969/40/2
f 973/89/2 975/78/2 976/79/2 974/90/2
f 979/78/2 980/79/2 978/80/2 977/81/2
f 979/107/5 981/26/5 982/108/5 980/109/5
f 980/103/1 982/104/1 983/105/1 978/78/1
f 984/89/2 986/78/2 987/79/2 985/90/2
f 988/89/2 990/78/2 991/79/2 989/90/2
f 994/37/2 995/38/2 993/39/2 992/40/2
f 998/78/2 999/79/2 997/80/2 996/81/2
f 1001/91/3 1004/92/3 1003/93/3 1000/94/3
f 1002/37/2 1006/38/2 1001/39/2 1000/40/2
f 1006/103/1 1005/104/1 1004/105/1 1001/78/1
f 1007/89/2 1009/78/2 1010/79/2 1008/90/2
f 1013/37/2 1014/38/2 1012/39/2 1011/40/2
f 1016/74/3 1019/75/3 1018/76/3 1015/77/3
f 1017/78/2 1020/79/2 1016/80/2 1015/81/2
f 1017/85/5 1021/86/5 1022/87/5 1020/88/5
f 1024/106/3 1027/75/3 1026/76/3 1023/77/3
f 1025/37/2 1028/38/2 1024/39/2 1023/40/2
f 1025/82/5 1029/83/5 1030/76/5 1028/66/5
f 1032/74/3 1035/75/3 1034/76/3 1031/77/3
f 1033/78/2 1036/79/2 1032/80/2 1031/81/2
f 1038/99/3 1041/100/3 1040/101/3 1037/102/3
f 1039/78/2 1042/79/2 1038/80/2 1037/81/2
f 1039/107/5 1043/26/5 1044/108/5 1042/109/5
f 1046/91/3 1049/92/3 1048/93/3 1045/94/3
f 1047/37/2 1051/38/2 1046/39/2 1045/40/2
f 1051/103/1 1050/104/1 1049/105/1 1046/78/1
f 1054/78/2 1055/79/2 1053/80/2 1052/81/2
f 1054/85/5 1056/86/5 1057/87/5 1055/88/5
f 1059/106/3 1062/75/3 1061/76/3 1058/77/3
f 1060/37/2 1065/38/2 1059/39/2 1058/40/2
f 1065/82/1 1063/83/1 1062/84/1 1059/66/1
f 1060/82/5 1064/83/5 1063/76/5 1065/66/5
f 1066/89/2 1068/78/2 1069/79/2 1067/90/2
f 1072/37/2 1073/38/2 1071/39/2 1070/40/2
f 1075/99/3 1078/100/3 1077/101/3 1074/102/3
f 1076/78/2 1081/79/2 1075/80/2 1074/81/2
f 1081/103/1 1079/104/1 1078/105/1 1075/78/1
f 1076/107/5 1080/26/5 1079/108/5 1081/109/5
f 1084/78/2 1085/79/2 1083/80/2 1082/81/2
f 1084/107/5 1086/26/5 1087/108/5 1085/109/5
f 1089/99/3 1092/100/3 1091/101/3 1088/102/3
f 1090/78/2 1095/79/2 1089/80/2 1088/81/2
f 1095/103/1 1093/104/1 1092/105/1 1089/78/1
f 1090/107/5 1094/26/5 1093/108/5 1095/109/5
f 1096/89/2 1098/78/2 1099/79/2 1097/90/2
f 1102/78/2 1103/79/2 1101/80/2 1100/81/2
f 1102/107/5 1104/26/5 1105/108/5 1103/109/5
f 1103/103/1 1105/104/1 1106/105/1 1101/78/1
f 1109/78/2 1110/79/2 1108/80/2 1107/81/2
f 1109/85/5 1111/86/5 1112/87/5 1110/88/5
f 1114/91/3 1117/92/3 1116/93/3 1113/94/3
f 1115/37/2 1120/38/2 1114/39/2 1113/40/2
f 1120/103/1 1118/104/1 1117/105/1 1114/78/1
f 1115/95/5 1119/96/5 1118/97/5 1120/98/5
f 1123/78/2 1124/79/2 1122/80/2 1121/81/2
f 1123/85/5 1125/86/5 1126/87/5 1124/88/5
f 1129/78/2 1130/79/2 1128/80/2 1127/81/2
f 1129/107/5 1131/26/5 1132/108/5 1130/109/5
f 1130/103/1 1132/104/1 1133/105/1 1128/78/1
f 1134/89/2 1136/78/2 1137/79/2 1135/90/2
f 1140/37/2 1141/38/2 1139/39/2 1138/40/2
f 1143/106/3 1146/75/3 1145/76/3 1142/77/3
f 1144/37/2 1147/38/2 1143/39/2 1142/40/2
f 1144/82/5 1148/83/5 1149/76/5 1147/66/5
f 1151/91/3 1154/92/3 1153/93/3 1150/94/3
f 1152/37/2 1157/38/2 1151/39/2 1150/40/2
f 1157/103/1 1155/104/1 1154/105/1 1151/78/1
f 1152/95/5 1156/96/5 1155/97/5 1157/98/5
f 1160/78/2 1161/79/2 1159/80/2 1158/81/2
f 1160/85/5 1162/86/5 1163/87/5 1161/88/5
f 1165/1/1 1169/2/1 1167/3/1 1164/4/1
f 1165/5/2 1164/6/2 1166/7/2 1171/8/2
f 1166/6/3 1164/7/3 1167/9/3 1168/10/3
f 1169/11/4 1170/12/4 1168/6/4 1167/13/4
f 1169/14/5 1165/15/5 1171/7/5 1170/9/5
f 1170/16/6 1171/8/6 1173/17/6 1172/18/6
f 1168/19/6 1170/20/6 1172/21/6 1174/22/6
f 1172/23/5 1173/24/5 1177/25/5 1175/26/5
f 1174/27/4 1172/28/4 1175/29/4 1176/30/4
f 1173/31/2 1179/28/2 1178/29/2 1177/32/2
f 1179/23/3 1174/24/3 1176/25/3 1178/26/3
f 1171/7/6 1166/33/6 1179/34/6 1173/35/6
f 1166/7/6 1168/33/6 1174/36/6 1179/6/6
f 1181/1/1 1185/2/1 1183/3/1 1180/4/1
f 1181/5/2 1180/6/2 1182/7/2 1187/8/2
f 1182/6/3 1180/7/3 1183/9/3 1184/10/3
f 1185/11/4 1186/12/4 1184/6/4 1183/13/4
f 1185/14/5 1181/15/5 1187/7/5 1186/9/5
f 1186/16/6 1187/8/6 1189/17/6 1188/18/6
f 1184/19/6 1186/20/6 1188/21/6 1190/22/6
f 1188/23/5 1189/24/5 1193/25/5 1191/26/5
f 1190/27/4 1188/28/4 1191/29/4 1192/30/4
f 1189/31/2 1195/28/2 1194/29/2 1193/32/2
f 1195/23/3 1190/24/3 1192/25/3 1194/26/3
f 1187/7/6 1182/33/6 1195/34/6 1189/35/6
f 1182/7/6 1184/33/6 1190/36/6 1195/6/6
f 1197/1/1 1201/2/1 1199/3/1 1196/4/1
f 1197/5/2 1196/6/2 1198/7/2 1203/8/2
f 1198/6/3 1196/7/3 1199/9/3 1200/10/3
f 1201/11/4 1202/12/4 1200/6/4 1199/13/4
f 1201/14/5 1197/15/5 1203/7/5 1202/9/5
f 1202/16/6 1203/8/6 1205/17/6 1204/18/6
f 1200/19/6 1202/20/6 1204/21/6 1206/22/6
f 1204/23/5 1205/24/5 1209/25/5 1207/26/5
f 1206/27/4 1204/28/4 1207/29/4 1208/30/4
f 1205/31/2 1211/28/2 1210/29/2 1209/32/2
f 1211/23/3 1206/24/3 1208/25/3 1210/26/3
f 1203/7/6 1198/33/6 1211/34/6 1205/35/6
f 1198/7/6 1200/33/6 1206/36/6 1211/6/6
f 1213/1/1 1217/2/1 1215/3/1 1212/4/1
f 1213/5/2 1212/6/2 1214/7/2 1219/8/2
f 1214/6/3 1212/7/3 1215/9/3 1216/10/3
f 1217/11/4 1218/12/4 1216/6/4 1215/13/4
f 1217/14/5 1213/15/5 1219/7/5 1218/9/5
f 1218/16/6 1219/8/6 1221/17/6 1220/18/6
f 1216/19/6 1218/20/6 1220/21/6 1222/22/6
f 1220/23/5 1221/24/5 1225/25/5 1223/26/5
f 1222/27/4 1220/28/4 1223/29/4 1224/30/4
f 1221/31/2 1227/28/2 1226/29/2 1225/32/2
f 1227/23/3 1222/24/3 1224/25/3 1226/26/3
f 1219/7/6 1214/33/6 1227/34/6 1221/35/6
f 1214/7/6 1216/33/6 1222/36/6 1227/6/6
f 1229/1/1 1233/2/1 1231/3/1 1228/4/1
f 1229/5/2 1228/6/2 1230/7/2 1235/8/2
f 1230/6/3 1228/7/3 1231/9/3 1232/10/3
f 1233/11/4 1234/12/4 1232/6/4 1231/13/4
f 1233/14/5 1229/15/5 1235/7/5 1234/9/5
f 1234/16/6 1235/8/6 1237/17/6 1236/18/6
f 1232/19/6 1234/20/6 1236/21/6 1238/22/6
f 1236/23/5 1237/24/5 1241/25/5 1239/26/5
f 1238/27/4 1236/28/4 1239/29/4 1240/30/4
f 1237/31/2 1243/28/2 1242/29/2 1241/32/2
f 1243/23/3 1238/24/3 1240/25/3 1242/26/3
f 1235/7/6 1230/33/6 1243/34/6 1237/35/6
f 1230/7/6 1232/33/6 1238/36/6 1243/6/6
f 1245/1/1 1249/2/1 1247/3/1 1244/4/1
f 1245/5/2 1244/6/2 1246/7/2 1251/8/2
f 1246/6/3 1244/7/3 1247/9/3 1248/10/3
f 1249/11/4 1250/12/4 1248/6/4 1247/13/4
f 1249/14/5 1245/15/5 1251/7/5 1250/9/5
f 1250/16/6 1251/8/6 1253/17/6 1252/18/6
f 1248/19/6 1250/20/6 1252/21/6 1254/22/6
f 1252/23/5 1253/24/5 1257/25/5 1255/26/5
f 1254/27/4 1252/28/4 1255/29/4 1256/30/4
f 1253/31/2 1259/28/2 1258/29/2 1257/32/2
f 1259/23/3 1254/24/3 1256/25/3 1258/26/3
f 1251/7/6 1246/33/6 1259/34/6 1253/35/6
f 1246/7/6 1248/33/6 1254/36/6 1259/6/6
f 1261/1/1 1265/2/1 1263/3/1 1260/4/1
f 1261/5/2 1260/6/2 1262/7/2 1267/8/2
f 1262/6/3 1260/7/3 1263/9/3 1264/10/3
f 1265/11/4 1266/12/4 1264/6/4 1263/13/4
f 1265/14/5 1261/15/5 1267/7/5 1266/9/5
f 1266/16/6 1267/8/6 1269/17/6 1268/18/6
f 1264/19/6 1266/20/6 1268/21/6 1270/22/6
f 1268/23/5 1269/24/5 1273/25/5 1271/26/5
f 1270/27/4 1268/28/4 1271/29/4 1272/30/4
f 1269/31/2 1275/28/2 1274/29/2 1273/32/2
f 1275/23/3 1270/24/3 1272/25/3 1274/26/3
f 1267/7/6 1262/33/6 1275/34/6 1269/35/6
f 1262/7/6 1264/33/6 1270/36/6 1275/6/6
f 1277/1/1 1281/2/1 1279/3/1 1276/4/1
f 1277/5/2 1276/6/2 1278/7/2 1283/8/2
f 1278/6/3 1276/7/3 1279/9/3 1280/10/3
f 1281/11/4 1282/12/4 1280/6/4 1279/13/4
f 1281/14/5 1277/15/5 1283/7/5 1282/9/5
f 1282/16/6 1283/8/6 1285/17/6 1284/18/6
f 1280/19/6 1282/20/6 1284/21/6 1286/22/6
f 1284/23/5 1285/24/5 1289/25/5 1287/26/5
f 1286/27/4 1284/28/4 1287/29/4 1288/30/4
f 1285/31/2 1291/28/2 1290/29/2 1289/32/2
f 1291/23/3 1286/24/3 1288/25/3 1290/26/3
f 1283/7/6 1278/33/6 1291/34/6 1285/35/6
f 1278/7/6 1280/33/6 1286/36/6 1291/6/6
f 1293/1/1 1297/2/1 1295/3/1 1292/4/1
f 1293/5/2 1292/6/2 1294/7/2 1299/8/2
f 1294/6/3 1292/7/3 1295/9/3 1296/10/3
f 1297/11/4 1298/12/4 1296/6/4 1295/13/4
f 1297/14/5 1293/15/5 1299/7/5 1298/9/5
f 1298/16/6 1299/8/6 1301/17/6 1300/18/6
f 1296/19/6 1298/20/6 1300/21/6 1302/22/6
f 1300/23/5 1301/24/5 1305/25/5 1303/26/5
f 1302/27/4 1300/28/4 1303/29/4 1304/30/4
f 1301/31/2 1307/28/2 1306/29/2 1305/32/2
f 1307/23/3 1302/24/3 1304/25/3 1306/26/3
f 1299/7/6 1294/33/6 1307/34/6 1301/35/6
f 1294/7/6 1296/33/6 1302/36/6 1307/6/6
f 1309/1/1 1313/2/1 1311/3/1 1308/4/1
f 1309/5/2 1308/6/2 1310/7/2 1315/8/2
f 1310/6/3 1308/7/3 1311/9/3 1312/10/3
f 1313/11/4 1314/12/4 1312/6/4 1311/13/4
f 1313/14/5 1309/15/5 1315/7/5 1314/9/5
f 1314/16/6 1315/8/6 1317/17/6 1316/18/6
f 1312/19/6 1314/20/6 1316/21/6 1318/22/6
f 1316/23/5 1317/24/5 1321/25/5 1319/26/5
f 1318/27/4 1316/28/4 1319/29/4 1320/30/4
f 1317/31/2 1323/28/2 1322/29/2 1321/32/2
f 1323/23/3 1318/24/3 1320/25/3 1322/26/3
f 1315/7/6 1310/33/6 1323/34/6 1317/35/6
f 1310/7/6 1312/33/6 1318/36/6 1323/6/6
f 1325/1/1 1329/2/1 1327/3/1 1324/4/1
f 1325/5/2 1324/6/2 1326/7/2 1331/8/2
f 1326/6/3 1324/7/3 1327/9/3 1328/10/3
f 1329/11/4 1330/12/4 1328/6/4 1327/13/4
f 1329/14/5 1325/15/5 1331/7/5 1330/9/5
f 1330/16/6 1331/8/6 1333/17/6 1332/18/6
f 1328/19/6 1330/20/6 1332/21/6 1334/22/6
f 1332/23/5 1333/24/5 1337/25/5 1335/26/5
f 1334/27/4 1332/28/4 1335/29/4 1336/30/4
f 1333/31/2 1339/28/2 1338/29/2 1337/32/2
f 1339/23/3 1334/24/3 1336/25/3 1338/26/3
f 1331/7/6 1326/33/6 1339/34/6 1333/35/6
f 1326/7/6 1328/33/6 1334/36/6 1339/6/6
f 1341/1/1 1345/2/1 1343/3/1 1340/4/1
f 1341/5/2 1340/6/2 1342/7/2 1347/8/2
f 1342/6/3 1340/7/3 1343/9/3 1344/10/3
f 1345/11/4 1346/12/4 1344/6/4 1343/13/4
f 1345/14/5 1341/15/5 1347/7/5 1346/9/5
f 1346/16/6 1347/8/6 1349/17/6 1348/18/6
f 1344/19/6 1346/20/6 1348/21/6 1350/22/6
f 1348/23/5 1349/24/5 1353/25/5 1351/26/5
f 1350/27/4 1348/28/4 1351/29/4 1352/30/4
f 1349/31/2 1355/28/2 1354/29/2 1353/32/2
f 1355/23/3 1350/24/3 1352/25/3 1354/26/3
f 1347/7/6 1342/33/6 1355/34/6 1349/35/6
f 1342/7/6 1344/33/6 1350/36/6 1355/6/6
f 1357/5/2 1356/6/2 1358/7/2 1363/8/2
f 1358/6/3 1356/7/3 1359/9/3 1360/10/3
f 1361/11/4 1362/12/4 1360/6/4 1359/13/4
f 1361/14/5 1357/15/5 1363/7/5 1362/9/5
f 1362/16/6 1363/8/6 1365/17/6 1364/18/6
f 1360/19/6 1362/20/6 1364/21/6 1366/22/6
f 1364/23/5 1365/24/5 1369/25/5 1367/26/5
f 1366/27/4 1364/28/4 1367/29/4 1368/30/4
f 1365/31/2 1371/28/2 1370/29/2 1369/32/2
f 1371/23/3 1366/24/3 1368/25/3 1370/26/3
f 1363/7/6 1358/33/6 1371/34/6 1365/35/6
f 1358/7/6 1360/33/6 1366/36/6 1371/6/6
f 1372/110/7 1374/111/7 1377/40/7 1373/112/7
f 1374/111/5 1372/110/5 1375/113/5 1376/114/5
f 1378/58/7 1380/59/7 1383/60/7 1379/61/7
f 1380/59/5 1378/58/5 1381/62/5 1382/63/5
f 1384/51/7 1387/46/7 1390/47/7 1385/52/7
f 1387/46/5 1384/51/5 1386/53/5 1389/50/5
f 1388/54/5 1387/55/5 1389/43/5 1391/56/5
f 1387/55/7 1388/54/7 1390/57/7
f 1394/41/2 1392/42/2 1393/43/2 1399/44/2
f 1392/42/8 1394/41/8 1395/45/8
f 1394/42/8 1397/46/8 1396/47/8 1395/48/8
f 1397/46/2 1394/42/2 1399/49/2 1398/50/2
f 1400/58/8 1402/59/8 1405/60/8 1401/61/8
f 1402/59/2 1400/58/2 1403/62/2 1404/63/2
