# Blender 5.0.1
# www.blender.org
mtllib Small_Spring_Tower_01.mtl
o Plane.004
v -0.500000 2.725000 0.500000
v -0.500000 2.725000 0.000000
v -0.500000 2.725000 -0.500000
v 0.000000 2.725000 0.500000
v 0.000000 2.725000 0.000000
v 0.000000 2.725000 -0.500000
v 0.500000 2.725000 0.500000
v 0.500000 2.725000 0.000000
v 0.500000 2.725000 -0.500000
v 1.100000 1.000000 -1.000000
v 1.100000 1.000000 -1.100000
v 1.000000 1.000000 -1.100000
v 1.150000 1.000000 -0.950000
v 1.150000 1.000000 -1.150000
v 0.950000 1.000000 -1.150000
v 1.150000 0.900000 -0.950000
v 1.150000 0.900000 -1.150000
v 0.950000 0.900000 -1.150000
v 0.950000 1.000000 -0.949999
v 0.950000 0.900000 -0.949999
v 1.000000 1.000000 -1.000000
v 1.100000 0.900000 -1.000000
v 1.100000 0.900000 -1.100000
v 1.000000 0.900000 -1.100000
v 1.000000 0.900000 -1.000000
v 1.100000 0.000000 -1.000000
v 1.100000 0.000000 -1.100000
v 1.000000 0.000000 -1.100000
v 1.000000 0.000000 -1.000000
v 1.100000 2.000000 -1.000000
v 1.100000 2.000000 -1.100000
v 1.000000 2.000000 -1.100000
v 1.150000 2.000000 -0.950000
v 1.150000 2.000000 -1.150000
v 0.950000 2.000000 -1.150000
v 1.150000 1.900000 -0.950000
v 1.150000 1.900000 -1.150000
v 0.950000 1.900000 -1.150000
v 0.950000 2.000000 -0.949999
v 0.950000 1.900000 -0.949999
v 1.000000 2.000000 -1.000000
v 1.100000 1.900000 -1.000000
v 1.100000 1.900000 -1.100000
v 1.000000 1.900000 -1.100000
v 1.000000 1.900000 -1.000000
v 1.100000 1.000000 -1.000000
v 1.100000 1.000000 -1.100000
v 1.000000 1.000000 -1.100000
v 1.000000 1.000000 -1.000000
v 1.000000 1.000000 1.000000
v 1.000000 1.000000 0.000000
v 1.000000 0.100000 1.000000
v 1.000000 0.100000 0.000000
v 1.100000 0.100000 1.000000
v 1.100000 0.000000 1.000000
v 1.100000 0.000000 0.000000
v 1.100000 0.100000 0.000000
v 1.000000 1.000000 -0.000000
v 1.000000 1.000000 -1.000000
v 1.000000 0.100000 0.000000
v 1.000000 0.100000 -1.000000
v 1.100000 0.100000 0.000000
v 1.100000 0.000000 0.000000
v 1.100000 0.000000 -1.000000
v 1.100000 0.100000 -1.000000
v 0.975000 1.350000 0.549999
v 0.975000 1.400000 0.549999
v 0.962500 1.400000 0.549999
v 0.975000 1.350000 0.499999
v 0.975000 1.400000 0.499999
v 0.950000 1.350000 0.499999
v 0.950000 1.400000 0.499999
v 0.975000 1.350000 0.899996
v 0.975000 1.400000 0.899996
v 0.950000 1.350000 0.899996
v 0.950000 1.400000 0.899996
v 0.975000 1.400000 0.849996
v 0.962500 1.400000 0.849996
v 0.975000 1.350000 0.649998
v 0.975000 1.400000 0.649997
v 0.962500 1.400000 0.649997
v 0.975000 1.350000 0.599998
v 0.975000 1.400000 0.599997
v 0.962500 1.400000 0.599997
v 0.975000 1.350000 0.799998
v 0.975000 1.400000 0.799997
v 0.962500 1.400000 0.799997
v 0.975000 1.400000 0.749997
v 0.962500 1.400000 0.749997
v 0.975000 1.150000 0.899997
v 0.950000 1.150000 0.899997
v 0.975000 1.150000 0.849997
v 0.975000 1.350000 0.849996
v 0.962500 1.150000 0.849997
v 0.962500 1.350000 0.849997
v 0.975000 1.050000 0.899997
v 0.975000 1.050000 0.849997
v 0.975000 1.150000 0.799998
v 0.962500 1.150000 0.799998
v 0.962500 1.350000 0.799998
v 0.975000 1.150000 0.749998
v 0.975000 1.350000 0.749998
v 0.962500 1.150000 0.749998
v 0.962500 1.350000 0.749998
v 0.975000 1.050000 0.799998
v 0.975000 1.050000 0.749998
v 0.975000 1.150000 0.649998
v 0.962500 1.150000 0.649998
v 0.962500 1.350000 0.649998
v 0.975000 1.150000 0.599998
v 0.962500 1.150000 0.599998
v 0.962500 1.350000 0.599998
v 0.975000 1.050000 0.649998
v 0.975000 1.050000 0.599998
v 0.975000 1.150000 0.550000
v 0.962500 1.150000 0.550000
v 0.962500 1.350000 0.550000
v 0.975000 1.150000 0.500000
v 0.950000 1.150000 0.500000
v 0.975000 1.050000 0.550000
v 0.975000 1.050000 0.500000
v 0.950000 1.050000 0.500000
v 0.950000 1.050000 0.899997
v 0.975000 1.600000 0.649997
v 0.962500 1.600000 0.649997
v 0.962500 1.600000 0.599997
v 0.975000 1.600000 0.599997
v 0.975000 1.600000 0.799997
v 0.962500 1.600000 0.799997
v 0.962500 1.600000 0.749997
v 0.975000 1.600000 0.749997
v 0.975000 1.600000 0.549999
v 0.962500 1.600000 0.549999
v 0.950000 1.600000 0.499999
v 0.975000 1.600000 0.499999
v 0.975000 1.600000 0.899996
v 0.950000 1.600000 0.899996
v 0.962500 1.600000 0.849996
v 0.975000 1.600000 0.849996
v 0.975000 1.650000 0.649997
v 0.962500 1.650000 0.649997
v 0.962500 1.650000 0.599997
v 0.975000 1.650000 0.599997
v 0.975000 1.650000 0.799997
v 0.962500 1.650000 0.799997
v 0.962500 1.650000 0.749997
v 0.975000 1.650000 0.749997
v 0.975000 1.650000 0.549999
v 0.962500 1.650000 0.549999
v 0.950000 1.650000 0.499999
v 0.975000 1.650000 0.499999
v 0.975000 1.650000 0.899996
v 0.950000 1.650000 0.899996
v 0.962500 1.650000 0.849996
v 0.975000 1.650000 0.849996
v 0.975000 1.850000 0.649997
v 0.962500 1.850000 0.649997
v 0.962500 1.850000 0.599997
v 0.975000 1.850000 0.599997
v 0.975000 1.850000 0.799997
v 0.962500 1.850000 0.799997
v 0.962500 1.850000 0.749997
v 0.975000 1.850000 0.749997
v 0.975000 1.850000 0.549999
v 0.962500 1.850000 0.549999
v 0.950000 1.850000 0.499999
v 0.975000 1.850000 0.499999
v 0.975000 1.850000 0.899996
v 0.950000 1.850000 0.899996
v 0.962500 1.850000 0.849996
v 0.975000 1.850000 0.849996
v 0.975000 1.950000 0.649997
v 0.975000 1.950000 0.599997
v 0.975000 1.950000 0.799997
v 0.975000 1.950000 0.749997
v 0.975000 1.950000 0.549999
v 0.950000 1.950000 0.499999
v 0.975000 1.950000 0.499999
v 0.975000 1.950000 0.899996
v 0.950000 1.950000 0.899996
v 0.975000 1.950000 0.849996
v 0.950000 1.350000 0.150003
v 0.950000 1.400000 0.150003
v 0.937500 1.400000 0.150003
v 0.950000 1.350000 0.100003
v 0.950000 1.400000 0.100003
v 0.925000 1.350000 0.100003
v 0.925000 1.400000 0.100003
v 0.950000 1.350000 0.500000
v 0.950000 1.400000 0.500000
v 0.925000 1.350000 0.500000
v 0.925000 1.400000 0.500000
v 0.950000 1.400000 0.450000
v 0.937500 1.400000 0.450000
v 0.950000 1.350000 0.250002
v 0.950000 1.400000 0.250001
v 0.937500 1.400000 0.250001
v 0.950000 1.350000 0.200002
v 0.950000 1.400000 0.200001
v 0.937500 1.400000 0.200001
v 0.950000 1.350000 0.400002
v 0.950000 1.400000 0.400001
v 0.937500 1.400000 0.400001
v 0.950000 1.400000 0.350001
v 0.937500 1.400000 0.350001
v 0.950000 1.150000 0.500000
v 0.925000 1.150000 0.500000
v 0.950000 1.150000 0.450001
v 0.950000 1.350000 0.450000
v 0.937500 1.150000 0.450001
v 0.937500 1.350000 0.450001
v 0.950000 1.050000 0.500000
v 0.950000 1.050000 0.450001
v 0.950000 1.150000 0.400002
v 0.937500 1.150000 0.400002
v 0.937500 1.350000 0.400002
v 0.950000 1.150000 0.350002
v 0.950000 1.350000 0.350002
v 0.937500 1.150000 0.350002
v 0.937500 1.350000 0.350002
v 0.950000 1.050000 0.400002
v 0.950000 1.050000 0.350002
v 0.950000 1.150000 0.250002
v 0.937500 1.150000 0.250002
v 0.937500 1.350000 0.250002
v 0.950000 1.150000 0.200002
v 0.937500 1.150000 0.200002
v 0.937500 1.350000 0.200002
v 0.950000 1.050000 0.250002
v 0.950000 1.050000 0.200002
v 0.950000 1.150000 0.150003
v 0.937500 1.150000 0.150003
v 0.937500 1.350000 0.150003
v 0.950000 1.150000 0.100003
v 0.925000 1.150000 0.100003
v 0.950000 1.050000 0.150003
v 0.950000 1.050000 0.100003
v 0.925000 1.050000 0.100003
v 0.925000 1.050000 0.500000
v 0.950000 1.600000 0.250001
v 0.937500 1.600000 0.250001
v 0.937500 1.600000 0.200001
v 0.950000 1.600000 0.200001
v 0.950000 1.600000 0.400001
v 0.937500 1.600000 0.400001
v 0.937500 1.600000 0.350001
v 0.950000 1.600000 0.350001
v 0.950000 1.600000 0.150003
v 0.937500 1.600000 0.150003
v 0.925000 1.600000 0.100003
v 0.950000 1.600000 0.100003
v 0.950000 1.600000 0.500000
v 0.925000 1.600000 0.500000
v 0.937500 1.600000 0.450000
v 0.950000 1.600000 0.450000
v 0.950000 1.650000 0.250001
v 0.937500 1.650000 0.250001
v 0.937500 1.650000 0.200001
v 0.950000 1.650000 0.200001
v 0.950000 1.650000 0.400001
v 0.937500 1.650000 0.400001
v 0.937500 1.650000 0.350001
v 0.950000 1.650000 0.350001
v 0.950000 1.650000 0.150003
v 0.937500 1.650000 0.150003
v 0.925000 1.650000 0.100003
v 0.950000 1.650000 0.100003
v 0.950000 1.650000 0.500000
v 0.925000 1.650000 0.500000
v 0.937500 1.650000 0.450000
v 0.950000 1.650000 0.450000
v 0.950000 1.850000 0.250001
v 0.937500 1.850000 0.250001
v 0.937500 1.850000 0.200001
v 0.950000 1.850000 0.200001
v 0.950000 1.850000 0.400001
v 0.937500 1.850000 0.400001
v 0.937500 1.850000 0.350001
v 0.950000 1.850000 0.350001
v 0.950000 1.850000 0.150003
v 0.937500 1.850000 0.150003
v 0.925000 1.850000 0.100003
v 0.950000 1.850000 0.100003
v 0.950000 1.850000 0.500000
v 0.925000 1.850000 0.500000
v 0.937500 1.850000 0.450000
v 0.950000 1.850000 0.450000
v 0.950000 1.950000 0.250001
v 0.950000 1.950000 0.200001
v 0.950000 1.950000 0.400001
v 0.950000 1.950000 0.350001
v 0.950000 1.950000 0.150003
v 0.925000 1.950000 0.100003
v 0.950000 1.950000 0.100003
v 0.950000 1.950000 0.500000
v 0.925000 1.950000 0.500000
v 0.950000 1.950000 0.450000
v 1.000000 1.000000 1.000000
v 1.000000 1.000000 0.000000
v 1.000000 2.000000 1.000000
v 1.000000 2.000000 0.000000
v 1.000000 1.950000 1.000000
v 1.000000 1.050000 1.000000
v 1.000000 1.050000 0.000000
v 1.000000 1.950000 0.000000
v 1.000000 1.000000 0.899997
v 1.000000 1.000000 0.100000
v 1.000000 2.000000 0.100000
v 1.000000 2.000000 0.899997
v 1.000000 1.050000 0.100000
v 1.000000 1.050000 0.899997
v 1.000000 1.950000 0.100000
v 1.000000 1.950000 0.899997
v 0.925000 1.050000 0.100000
v 0.925000 1.050000 0.899997
v 0.925000 1.950000 0.100000
v 0.925000 1.950000 0.899997
v 1.000000 1.000000 0.000000
v 1.000000 1.000000 -1.000000
v 1.000000 2.000000 -0.000000
v 1.000000 2.000000 -1.000000
v 1.000000 1.050000 -0.218750
v 1.000000 1.050000 -0.781250
v 0.700000 1.050000 -0.318750
v 0.700000 1.050000 -0.681250
v 1.000000 1.387500 -0.218750
v 1.000000 1.612500 -0.387500
v 1.000000 1.546599 -0.268176
v 1.000000 1.612500 -0.612500
v 1.000000 1.387500 -0.781250
v 1.000000 1.546599 -0.731824
v 0.925000 1.612500 -0.500000
v 0.700000 1.387500 -0.318750
v 0.765901 1.546599 -0.368176
v 0.700000 1.387500 -0.681250
v 0.765901 1.546599 -0.631824
v 1.307993 1.648437 -1.307992
v 1.250583 1.736328 -1.250582
v 1.292610 1.648437 -1.365402
v 1.365403 1.648437 -1.292609
v 1.392047 1.648437 -1.392046
v 1.449457 1.736328 -1.449456
v 1.334637 1.648437 -1.407429
v 1.407430 1.648437 -1.334636
v 1.485853 1.736328 -1.313622
v 1.386416 1.736328 -1.214185
v 1.485853 1.912109 -1.313622
v 1.407430 2.000000 -1.334636
v 1.449457 1.912109 -1.449456
v 1.386416 1.912109 -1.214185
v 1.365403 2.000000 -1.292609
v 1.250583 1.912109 -1.250582
v 1.214187 1.912109 -1.386415
v 1.307993 2.000000 -1.307992
v 1.292610 2.000000 -1.365402
v 1.392047 2.000000 -1.392046
v 1.334637 2.000000 -1.407429
v 1.313623 1.912109 -1.485852
v 1.313623 1.736328 -1.485852
v 1.214187 1.736328 -1.386415
v 0.500000 2.725000 -0.000000
v 0.500000 2.725000 -0.500000
v 0.565187 2.515028 -0.000000
v 0.565187 2.515028 -0.500000
v 0.715147 2.327541 -0.000000
v 0.715147 2.327541 -0.500000
v 0.932202 2.175603 -0.000000
v 1.200040 2.070631 0.000000
v 0.932202 2.175603 -0.500000
v 1.200040 2.070631 -0.500000
v 0.932202 2.175733 -0.932202
v 1.200040 2.204001 -1.200040
v 0.715147 2.327541 -0.715147
v 0.565187 2.515028 -0.565187
v 1.500000 2.357248 -1.500000
v 1.500000 2.331794 -1.500000
v 1.500000 2.023460 -0.500000
v 1.500000 2.025000 0.000000
v 1.500000 1.998915 -0.500000
v 1.500000 2.000000 0.000000
v 0.932202 2.175668 -0.716101
v 0.715147 2.327541 -0.607573
v 0.565187 2.515028 -0.532594
v 1.200040 2.118969 -0.850020
v 1.500000 2.105601 -1.000000
v 1.500000 2.080601 -1.000000
v 0.500000 2.725000 0.500000
v 0.500000 2.725000 0.000000
v 1.500000 2.023460 0.500000
v 1.500000 2.025000 0.000000
v 1.500000 1.998915 0.500000
v 1.500000 2.000000 0.000000
v 0.565187 2.515028 0.000000
v 0.715147 2.327541 0.000000
v 0.932202 2.175603 0.000000
v 1.200040 2.070631 0.000000
v 1.200040 2.070631 0.500000
v 0.932202 2.175603 0.500000
v 0.715147 2.327541 0.500000
v 0.565187 2.515028 0.500000
v 1.500000 2.357248 1.500000
v 1.500000 2.331794 1.500000
v 1.200040 2.204001 1.200040
v 0.932202 2.175733 0.932202
v 0.715147 2.327541 0.715147
v 0.565187 2.515028 0.565187
v 1.500000 2.105601 1.000000
v 1.500000 2.080601 1.000000
v 1.200040 2.118969 0.850020
v 0.932202 2.175668 0.716101
v 0.715147 2.327541 0.607574
v 0.565187 2.515028 0.532593
v -1.100000 1.000000 1.000000
v -1.100000 1.000000 1.100000
v -1.000000 1.000000 1.100000
v -1.150000 1.000000 0.950000
v -1.150000 1.000000 1.150000
v -0.950000 1.000000 1.150000
v -1.150000 0.900000 0.950000
v -1.150000 0.900000 1.150000
v -0.950000 0.900000 1.150000
v -0.950000 1.000000 0.949999
v -0.950000 0.900000 0.949999
v -1.000000 1.000000 1.000000
v -1.100000 0.900000 1.000000
v -1.100000 0.900000 1.100000
v -1.000000 0.900000 1.100000
v -1.000000 0.900000 1.000000
v -1.100000 0.000000 1.000000
v -1.100000 0.000000 1.100000
v -1.000000 0.000000 1.100000
v -1.000000 0.000000 1.000000
v -1.100000 2.000000 1.000000
v -1.100000 2.000000 1.100000
v -1.000000 2.000000 1.100000
v -1.150000 2.000000 0.950000
v -1.150000 2.000000 1.150000
v -0.950000 2.000000 1.150000
v -1.150000 1.900000 0.950000
v -1.150000 1.900000 1.150000
v -0.950000 1.900000 1.150000
v -0.950000 2.000000 0.949999
v -0.950000 1.900000 0.949999
v -1.000000 2.000000 1.000000
v -1.100000 1.900000 1.000000
v -1.100000 1.900000 1.100000
v -1.000000 1.900000 1.100000
v -1.000000 1.900000 1.000000
v -1.100000 1.000000 1.000000
v -1.100000 1.000000 1.100000
v -1.000000 1.000000 1.100000
v -1.000000 1.000000 1.000000
v -1.307993 1.648437 1.307992
v -1.250583 1.736328 1.250582
v -1.292610 1.648437 1.365402
v -1.365403 1.648437 1.292609
v -1.392047 1.648437 1.392046
v -1.449457 1.736328 1.449456
v -1.334637 1.648437 1.407429
v -1.407430 1.648437 1.334636
v -1.485853 1.736328 1.313622
v -1.386416 1.736328 1.214185
v -1.485853 1.912109 1.313622
v -1.407430 2.000000 1.334636
v -1.449457 1.912109 1.449456
v -1.386416 1.912109 1.214185
v -1.365403 2.000000 1.292609
v -1.250583 1.912109 1.250582
v -1.214186 1.912109 1.386415
v -1.307993 2.000000 1.307992
v -1.292610 2.000000 1.365402
v -1.392047 2.000000 1.392046
v -1.334637 2.000000 1.407429
v -1.313623 1.912109 1.485852
v -1.313623 1.736328 1.485852
v -1.214186 1.736328 1.386415
v -0.500000 2.725000 -0.000000
v -0.500000 2.725000 0.500000
v -0.565187 2.515028 -0.000000
v -0.565187 2.515028 0.500000
v -0.715147 2.327541 -0.000000
v -0.715147 2.327541 0.500000
v -0.932202 2.175603 -0.000000
v -1.200040 2.070631 0.000000
v -0.932202 2.175603 0.500000
v -1.200040 2.070631 0.500000
v -0.932202 2.175733 0.932202
v -1.200040 2.204001 1.200040
v -0.715147 2.327541 0.715147
v -0.565187 2.515028 0.565187
v -1.500000 2.357248 1.500000
v -1.500000 2.331794 1.500000
v -1.500000 2.023460 0.500000
v -1.500000 2.025000 0.000000
v -1.500000 1.998915 0.500000
v -1.500000 2.000000 0.000000
v -0.932202 2.175668 0.716101
v -0.715147 2.327541 0.607573
v -0.565187 2.515028 0.532594
v -1.200040 2.118969 0.850020
v -1.500000 2.105601 1.000000
v -1.500000 2.080601 1.000000
v -0.500000 2.725000 -0.500000
v -0.500000 2.725000 -0.000000
v -1.500000 2.023460 -0.500000
v -1.500000 2.025000 -0.000000
v -1.500000 1.998915 -0.500000
v -1.500000 2.000000 -0.000000
v -0.565187 2.515028 -0.000000
v -0.715147 2.327541 -0.000000
v -0.932202 2.175603 -0.000000
v -1.200040 2.070631 -0.000000
v -1.200040 2.070631 -0.500000
v -0.932202 2.175603 -0.500000
v -0.715147 2.327541 -0.500000
v -0.565187 2.515028 -0.500000
v -1.500000 2.357248 -1.500000
v -1.500000 2.331794 -1.500000
v -1.200040 2.204001 -1.200040
v -0.932202 2.175733 -0.932202
v -0.715147 2.327541 -0.715147
v -0.565187 2.515028 -0.565187
v -1.500000 2.105601 -1.000000
v -1.500000 2.080601 -1.000000
v -1.200040 2.118969 -0.850020
v -0.932202 2.175668 -0.716101
v -0.715147 2.327541 -0.607574
v -0.565187 2.515028 -0.532593
v -1.000000 1.000000 1.000001
v 0.000000 1.000000 1.000001
v -1.000000 0.100000 1.000001
v 0.000000 0.100000 1.000001
v -1.000000 0.100000 1.100001
v -1.000000 0.000000 1.100001
v 0.000000 0.000000 1.100001
v 0.000000 0.100000 1.100001
v 0.000000 1.000000 1.000001
v 1.000000 1.000000 1.000001
v 0.000000 0.100000 1.000001
v 1.000000 0.100000 1.000001
v 0.000000 0.100000 1.100001
v 0.000000 0.000000 1.100001
v 1.000000 0.000000 1.100001
v 1.000000 0.100000 1.100001
v -0.549999 1.350000 0.975001
v -0.549999 1.400000 0.975001
v -0.549999 1.400000 0.962501
v -0.499999 1.350000 0.975001
v -0.499999 1.400000 0.975001
v -0.499999 1.350000 0.950001
v -0.499999 1.400000 0.950001
v -0.899996 1.350000 0.975001
v -0.899996 1.400000 0.975001
v -0.899996 1.350000 0.950001
v -0.899996 1.400000 0.950001
v -0.849996 1.400000 0.975001
v -0.849996 1.400000 0.962501
v -0.649998 1.350000 0.975001
v -0.649997 1.400000 0.975001
v -0.649997 1.400000 0.962501
v -0.599998 1.350000 0.975001
v -0.599997 1.400000 0.975001
v -0.599997 1.400000 0.962501
v -0.799998 1.350000 0.975001
v -0.799997 1.400000 0.975001
v -0.799997 1.400000 0.962501
v -0.749997 1.400000 0.975001
v -0.749997 1.400000 0.962501
v -0.899997 1.150000 0.975001
v -0.899997 1.150000 0.950001
v -0.849997 1.150000 0.975001
v -0.849996 1.350000 0.975001
v -0.849997 1.150000 0.962501
v -0.849997 1.350000 0.962501
v -0.899997 1.050000 0.975001
v -0.849997 1.050000 0.975001
v -0.799998 1.150000 0.975001
v -0.799998 1.150000 0.962501
v -0.799998 1.350000 0.962501
v -0.749998 1.150000 0.975001
v -0.749998 1.350000 0.975001
v -0.749998 1.150000 0.962501
v -0.749998 1.350000 0.962501
v -0.799998 1.050000 0.975001
v -0.749998 1.050000 0.975001
v -0.649998 1.150000 0.975001
v -0.649998 1.150000 0.962501
v -0.649998 1.350000 0.962501
v -0.599998 1.150000 0.975001
v -0.599998 1.150000 0.962501
v -0.599998 1.350000 0.962501
v -0.649998 1.050000 0.975001
v -0.599998 1.050000 0.975001
v -0.550000 1.150000 0.975001
v -0.550000 1.150000 0.962501
v -0.550000 1.350000 0.962501
v -0.500000 1.150000 0.975001
v -0.500000 1.150000 0.950001
v -0.550000 1.050000 0.975001
v -0.500000 1.050000 0.975001
v -0.500000 1.050000 0.950001
v -0.899997 1.050000 0.950001
v -0.649997 1.600000 0.975001
v -0.649997 1.600000 0.962501
v -0.599997 1.600000 0.962501
v -0.599997 1.600000 0.975001
v -0.799997 1.600000 0.975001
v -0.799997 1.600000 0.962501
v -0.749997 1.600000 0.962501
v -0.749997 1.600000 0.975001
v -0.549999 1.600000 0.975001
v -0.549999 1.600000 0.962501
v -0.499999 1.600000 0.950001
v -0.499999 1.600000 0.975001
v -0.899996 1.600000 0.975001
v -0.899996 1.600000 0.950001
v -0.849996 1.600000 0.962501
v -0.849996 1.600000 0.975001
v -0.649997 1.650000 0.975001
v -0.649997 1.650000 0.962501
v -0.599997 1.650000 0.962501
v -0.599997 1.650000 0.975001
v -0.799997 1.650000 0.975001
v -0.799997 1.650000 0.962501
v -0.749997 1.650000 0.962501
v -0.749997 1.650000 0.975001
v -0.549999 1.650000 0.975001
v -0.549999 1.650000 0.962501
v -0.499999 1.650000 0.950001
v -0.499999 1.650000 0.975001
v -0.899996 1.650000 0.975001
v -0.899996 1.650000 0.950001
v -0.849996 1.650000 0.962501
v -0.849996 1.650000 0.975001
v -0.649997 1.850000 0.975001
v -0.649997 1.850000 0.962501
v -0.599997 1.850000 0.962501
v -0.599997 1.850000 0.975001
v -0.799997 1.850000 0.975001
v -0.799997 1.850000 0.962501
v -0.749997 1.850000 0.962501
v -0.749997 1.850000 0.975001
v -0.549999 1.850000 0.975001
v -0.549999 1.850000 0.962501
v -0.499999 1.850000 0.950001
v -0.499999 1.850000 0.975001
v -0.899996 1.850000 0.975001
v -0.899996 1.850000 0.950001
v -0.849996 1.850000 0.962501
v -0.849996 1.850000 0.975001
v -0.649997 1.950000 0.975001
v -0.599997 1.950000 0.975001
v -0.799997 1.950000 0.975001
v -0.749997 1.950000 0.975001
v -0.549999 1.950000 0.975001
v -0.499999 1.950000 0.950001
v -0.499999 1.950000 0.975001
v -0.899996 1.950000 0.975001
v -0.899996 1.950000 0.950001
v -0.849996 1.950000 0.975001
v -0.150003 1.350000 0.950001
v -0.150003 1.400000 0.950001
v -0.150003 1.400000 0.937501
v -0.100003 1.350000 0.950001
v -0.100003 1.400000 0.950001
v -0.100003 1.350000 0.925001
v -0.100003 1.400000 0.925001
v -0.500000 1.350000 0.950001
v -0.500000 1.400000 0.950001
v -0.500000 1.350000 0.925001
v -0.500000 1.400000 0.925001
v -0.450000 1.400000 0.950001
v -0.450000 1.400000 0.937501
v -0.250002 1.350000 0.950001
v -0.250001 1.400000 0.950001
v -0.250001 1.400000 0.937501
v -0.200002 1.350000 0.950001
v -0.200001 1.400000 0.950001
v -0.200001 1.400000 0.937501
v -0.400002 1.350000 0.950001
v -0.400001 1.400000 0.950001
v -0.400001 1.400000 0.937501
v -0.350001 1.400000 0.950001
v -0.350001 1.400000 0.937501
v -0.500000 1.150000 0.950001
v -0.500000 1.150000 0.925001
v -0.450000 1.150000 0.950001
v -0.450000 1.350000 0.950001
v -0.450000 1.150000 0.937501
v -0.450000 1.350000 0.937501
v -0.500000 1.050000 0.950001
v -0.450000 1.050000 0.950001
v -0.400002 1.150000 0.950001
v -0.400002 1.150000 0.937501
v -0.400002 1.350000 0.937501
v -0.350002 1.150000 0.950001
v -0.350002 1.350000 0.950001
v -0.350002 1.150000 0.937501
v -0.350002 1.350000 0.937501
v -0.400002 1.050000 0.950001
v -0.350002 1.050000 0.950001
v -0.250002 1.150000 0.950001
v -0.250002 1.150000 0.937501
v -0.250002 1.350000 0.937501
v -0.200002 1.150000 0.950001
v -0.200002 1.150000 0.937501
v -0.200002 1.350000 0.937501
v -0.250002 1.050000 0.950001
v -0.200002 1.050000 0.950001
v -0.150003 1.150000 0.950001
v -0.150003 1.150000 0.937501
v -0.150003 1.350000 0.937501
v -0.100003 1.150000 0.950001
v -0.100003 1.150000 0.925001
v -0.150003 1.050000 0.950001
v -0.100003 1.050000 0.950001
v -0.100003 1.050000 0.925001
v -0.500000 1.050000 0.925001
v -0.250001 1.600000 0.950001
v -0.250001 1.600000 0.937501
v -0.200001 1.600000 0.937501
v -0.200001 1.600000 0.950001
v -0.400001 1.600000 0.950001
v -0.400001 1.600000 0.937501
v -0.350001 1.600000 0.937501
v -0.350001 1.600000 0.950001
v -0.150003 1.600000 0.950001
v -0.150003 1.600000 0.937501
v -0.100003 1.600000 0.925001
v -0.100003 1.600000 0.950001
v -0.500000 1.600000 0.950001
v -0.500000 1.600000 0.925001
v -0.450000 1.600000 0.937501
v -0.450000 1.600000 0.950001
v -0.250001 1.650000 0.950001
v -0.250001 1.650000 0.937501
v -0.200001 1.650000 0.937501
v -0.200001 1.650000 0.950001
v -0.400001 1.650000 0.950001
v -0.400001 1.650000 0.937501
v -0.350001 1.650000 0.937501
v -0.350001 1.650000 0.950001
v -0.150003 1.650000 0.950001
v -0.150003 1.650000 0.937501
v -0.100003 1.650000 0.925001
v -0.100003 1.650000 0.950001
v -0.500000 1.650000 0.950001
v -0.500000 1.650000 0.925001
v -0.450000 1.650000 0.937501
v -0.450000 1.650000 0.950001
v -0.250001 1.850000 0.950001
v -0.250001 1.850000 0.937501
v -0.200001 1.850000 0.937501
v -0.200001 1.850000 0.950001
v -0.400001 1.850000 0.950001
v -0.400001 1.850000 0.937501
v -0.350001 1.850000 0.937501
v -0.350001 1.850000 0.950001
v -0.150003 1.850000 0.950001
v -0.150003 1.850000 0.937501
v -0.100003 1.850000 0.925001
v -0.100003 1.850000 0.950001
v -0.500000 1.850000 0.950001
v -0.500000 1.850000 0.925001
v -0.450000 1.850000 0.937501
v -0.450000 1.850000 0.950001
v -0.250001 1.950000 0.950001
v -0.200001 1.950000 0.950001
v -0.400001 1.950000 0.950001
v -0.350001 1.950000 0.950001
v -0.150003 1.950000 0.950001
v -0.100003 1.950000 0.925001
v -0.100003 1.950000 0.950001
v -0.500000 1.950000 0.950001
v -0.500000 1.950000 0.925001
v -0.450000 1.950000 0.950001
v -1.000000 1.000000 1.000001
v 0.000000 1.000000 1.000001
v -1.000000 2.000000 1.000001
v 0.000000 2.000000 1.000001
v -1.000000 1.950000 1.000001
v -1.000000 1.050000 1.000001
v 0.000000 1.050000 1.000001
v 0.000000 1.950000 1.000001
v -0.899997 1.000000 1.000001
v -0.100000 1.000000 1.000001
v -0.100000 2.000000 1.000001
v -0.899997 2.000000 1.000001
v -0.100000 1.050000 1.000001
v -0.899997 1.050000 1.000001
v -0.100000 1.950000 1.000001
v -0.899997 1.950000 1.000001
v -0.100000 1.050000 0.925001
v -0.899997 1.050000 0.925001
v -0.100000 1.950000 0.925001
v -0.899997 1.950000 0.925001
v 0.000000 1.000000 1.000001
v 1.000000 1.000000 1.000001
v 0.000000 2.000000 1.000001
v 1.000000 2.000000 1.000001
v 1.307992 1.648437 1.307994
v 1.250582 1.736328 1.250584
v 1.365402 1.648437 1.292611
v 1.292609 1.648437 1.365404
v 1.392046 1.648437 1.392048
v 1.449456 1.736328 1.449458
v 1.407429 1.648437 1.334638
v 1.334636 1.648437 1.407431
v 1.313622 1.736328 1.485854
v 1.214185 1.736328 1.386417
v 1.313622 1.912109 1.485854
v 1.334636 2.000000 1.407431
v 1.449456 1.912109 1.449458
v 1.214185 1.912109 1.386417
v 1.292609 2.000000 1.365404
v 1.250582 1.912109 1.250584
v 1.386415 1.912109 1.214188
v 1.307992 2.000000 1.307994
v 1.365402 2.000000 1.292611
v 1.392046 2.000000 1.392048
v 1.407429 2.000000 1.334638
v 1.485852 1.912109 1.313625
v 1.485852 1.736328 1.313625
v 1.386415 1.736328 1.214188
v 0.000000 2.725000 0.500001
v 0.500000 2.725000 0.500001
v 0.000000 2.515028 0.565188
v 0.500000 2.515028 0.565188
v 0.000000 2.327541 0.715148
v 0.500000 2.327541 0.715148
v 0.000000 2.175603 0.932203
v 0.000000 2.070631 1.200041
v 0.500000 2.175603 0.932203
v 0.500000 2.070631 1.200041
v 0.932202 2.175733 0.932203
v 1.200040 2.204001 1.200041
v 0.715147 2.327541 0.715148
v 0.565187 2.515028 0.565188
v 1.500000 2.357248 1.500001
v 1.500000 2.331794 1.500001
v 0.500000 2.023460 1.500001
v 0.000000 2.025000 1.500001
v 0.500000 1.998915 1.500001
v 0.000000 2.000000 1.500001
v 0.716101 2.175668 0.932203
v 0.607574 2.327541 0.715148
v 0.532594 2.515028 0.565188
v 0.850020 2.118969 1.200041
v 1.000000 2.105601 1.500001
v 1.000000 2.080601 1.500001
v 1.000000 1.000000 1.100001
v 1.100000 1.000000 1.100001
v 1.100000 1.000000 1.000001
v 0.950000 1.000000 1.150001
v 1.150000 1.000000 1.150001
v 1.150000 1.000000 0.950001
v 0.950000 0.900000 1.150001
v 1.150000 0.900000 1.150001
v 1.150000 0.900000 0.950001
v 0.949999 1.000000 0.950001
v 0.949999 0.900000 0.950001
v 1.000000 1.000000 1.000001
v 1.000000 0.900000 1.100001
v 1.100000 0.900000 1.100001
v 1.100000 0.900000 1.000001
v 1.000000 0.900000 1.000001
v 1.000000 0.000000 1.100001
v 1.100000 0.000000 1.100001
v 1.100000 0.000000 1.000001
v 1.000000 0.000000 1.000001
v 1.000000 2.000000 1.100001
v 1.100000 2.000000 1.100001
v 1.100000 2.000000 1.000001
v 0.950000 2.000000 1.150001
v 1.150000 2.000000 1.150001
v 1.150000 2.000000 0.950001
v 0.950000 1.900000 1.150001
v 1.150000 1.900000 1.150001
v 1.150000 1.900000 0.950001
v 0.949999 2.000000 0.950001
v 0.949999 1.900000 0.950001
v 1.000000 2.000000 1.000001
v 1.000000 1.900000 1.100001
v 1.100000 1.900000 1.100001
v 1.100000 1.900000 1.000001
v 1.000000 1.900000 1.000001
v 1.000000 1.000000 1.100001
v 1.100000 1.000000 1.100001
v 1.100000 1.000000 1.000001
v 1.000000 1.000000 1.000001
v -0.500000 2.725000 0.500001
v 0.000000 2.725000 0.500001
v -0.500000 2.023460 1.500001
v 0.000000 2.025000 1.500001
v -0.500000 1.998915 1.500001
v 0.000000 2.000000 1.500001
v 0.000000 2.515028 0.565188
v 0.000000 2.327541 0.715148
v 0.000000 2.175603 0.932203
v 0.000000 2.070631 1.200041
v -0.500000 2.070631 1.200041
v -0.500000 2.175603 0.932203
v -0.500000 2.327541 0.715148
v -0.500000 2.515028 0.565188
v -1.500000 2.357248 1.500001
v -1.500000 2.331794 1.500001
v -1.200040 2.204001 1.200041
v -0.932202 2.175733 0.932203
v -0.715147 2.327541 0.715148
v -0.565187 2.515028 0.565188
v -1.000000 2.105601 1.500001
v -1.000000 2.080601 1.500001
v -0.850020 2.118969 1.200041
v -0.716101 2.175668 0.932203
v -0.607574 2.327541 0.715148
v -0.532593 2.515028 0.565188
v -1.307992 1.648437 -1.307993
v -1.250582 1.736328 -1.250583
v -1.365402 1.648437 -1.292610
v -1.292609 1.648437 -1.365403
v -1.392046 1.648437 -1.392047
v -1.449456 1.736328 -1.449457
v -1.407429 1.648437 -1.334637
v -1.334636 1.648437 -1.407430
v -1.313622 1.736328 -1.485853
v -1.214185 1.736328 -1.386416
v -1.313622 1.912109 -1.485853
v -1.334636 2.000000 -1.407430
v -1.449456 1.912109 -1.449457
v -1.214185 1.912109 -1.386416
v -1.292609 2.000000 -1.365403
v -1.250582 1.912109 -1.250583
v -1.386415 1.912109 -1.214186
v -1.307992 2.000000 -1.307993
v -1.365402 2.000000 -1.292610
v -1.392046 2.000000 -1.392047
v -1.407429 2.000000 -1.334637
v -1.485852 1.912109 -1.313623
v -1.485852 1.736328 -1.313623
v -1.386415 1.736328 -1.214186
v 0.000000 2.725000 -0.500000
v -0.500000 2.725000 -0.500000
v 0.000000 2.515028 -0.565187
v -0.500000 2.515028 -0.565187
v 0.000000 2.327541 -0.715147
v -0.500000 2.327541 -0.715147
v 0.000000 2.175603 -0.932202
v -0.000000 2.070631 -1.200040
v -0.500000 2.175603 -0.932202
v -0.500000 2.070631 -1.200040
v -0.932202 2.175733 -0.932202
v -1.200040 2.204001 -1.200040
v -0.715147 2.327541 -0.715147
v -0.565187 2.515028 -0.565187
v -1.500000 2.357248 -1.500000
v -1.500000 2.331794 -1.500000
v -0.500000 2.023460 -1.500000
v -0.000000 2.025000 -1.500000
v -0.500000 1.998915 -1.500000
v -0.000000 2.000000 -1.500000
v -0.716101 2.175668 -0.932202
v -0.607574 2.327541 -0.715147
v -0.532594 2.515028 -0.565187
v -0.850020 2.118969 -1.200040
v -1.000000 2.105601 -1.500000
v -1.000000 2.080601 -1.500000
v 0.500000 2.725000 -0.500000
v 0.000000 2.725000 -0.500000
v 0.500000 2.023460 -1.500000
v 0.000000 2.025000 -1.500000
v 0.500000 1.998915 -1.500000
v 0.000000 2.000000 -1.500000
v 0.000000 2.515028 -0.565187
v 0.000000 2.327541 -0.715147
v 0.000000 2.175603 -0.932202
v 0.000000 2.070631 -1.200040
v 0.500000 2.070631 -1.200040
v 0.500000 2.175603 -0.932202
v 0.500000 2.327541 -0.715147
v 0.500000 2.515028 -0.565187
v 1.500000 2.357248 -1.500000
v 1.500000 2.331794 -1.500000
v 1.200040 2.204001 -1.200040
v 0.932202 2.175733 -0.932202
v 0.715147 2.327541 -0.715147
v 0.565187 2.515028 -0.565187
v 1.000000 2.105601 -1.500000
v 1.000000 2.080601 -1.500000
v 0.850020 2.118969 -1.200040
v 0.716101 2.175668 -0.932202
v 0.607574 2.327541 -0.715147
v 0.532593 2.515028 -0.565187
vn -0.0000 1.0000 -0.0000
vn -0.0000 -0.0000 -1.0000
vn 1.0000 -0.0000 -0.0000
vn -0.0000 -0.0000 1.0000
vn -1.0000 -0.0000 -0.0000
vn -0.0000 -1.0000 -0.0000
vn 0.3827 -0.9239 -0.0000
vn 0.7981 -0.6025 -0.0000
vn 0.9844 -0.1760 -0.0000
vn 0.3277 -0.1681 -0.9297
vn 0.3273 -0.1575 -0.9317
vn 0.3160 -0.6086 -0.7279
vn 0.3129 -0.6329 -0.7082
vn 0.2297 -0.9141 -0.3342
vn 0.3273 -0.1575 0.9317
vn 0.3277 -0.1681 0.9297
vn 0.3129 -0.6329 0.7082
vn 0.3160 -0.6086 0.7278
vn 0.2297 -0.9141 0.3342
vn 0.3162 -0.0000 -0.9487
vn 0.3162 -0.0000 0.9487
vn 0.2443 -0.3300 0.9118
vn -0.6675 -0.3300 0.6675
vn -0.3536 -0.8660 0.3536
vn 0.1294 -0.8660 0.4831
vn -0.9118 -0.3300 -0.2443
vn -0.4831 -0.8660 -0.1294
vn 0.3536 -0.8660 -0.3536
vn -0.1294 -0.8660 -0.4831
vn 0.4831 -0.8660 0.1294
vn 0.6675 -0.3300 -0.6675
vn 0.9118 -0.3300 0.2443
vn -0.2443 -0.3300 -0.9118
vn 0.6675 0.3300 -0.6675
vn 0.9118 0.3300 0.2443
vn 0.2443 0.3300 0.9118
vn 0.4831 0.8660 0.1294
vn 0.1294 0.8660 0.4831
vn 0.3536 0.8660 -0.3536
vn -0.6675 0.3300 0.6675
vn -0.3536 0.8660 0.3536
vn -0.9118 0.3300 -0.2443
vn -0.4831 0.8660 -0.1294
vn -0.1294 0.8660 -0.4831
vn -0.2443 0.3300 -0.9118
vn 0.9550 0.2965 -0.0000
vn 0.8834 0.4687 -0.0000
vn 0.6841 0.7293 -0.0000
vn 0.6841 0.7294 -0.0000
vn 0.4725 0.8813 -0.0000
vn 0.4591 0.8882 0.0205
vn 0.2605 0.9655 -0.0008
vn 0.2410 0.9688 0.0580
vn 0.1628 0.9706 0.1771
vn 0.0853 0.9455 0.3144
vn 0.2803 0.9537 0.1090
vn 0.4219 0.9051 0.0532
vn 0.6432 0.7657 0.0001
vn 0.6841 0.7294 0.0001
vn 0.8604 0.5096 -0.0000
vn 0.0879 0.9528 0.2905
vn 0.0593 0.9281 0.3676
vn 0.1529 0.9882 -0.0015
vn 0.1451 0.9866 0.0740
vn 0.1451 0.9866 -0.0740
vn 0.1529 0.9882 0.0015
vn 0.2605 0.9655 0.0008
vn 0.2410 0.9688 -0.0580
vn 0.4591 0.8882 -0.0205
vn 0.6842 0.7293 -0.0000
vn 0.8833 0.4687 -0.0000
vn 0.0879 0.9528 -0.2905
vn 0.1628 0.9706 -0.1771
vn 0.4219 0.9051 -0.0532
vn 0.6841 0.7294 -0.0001
vn 0.6432 0.7657 -0.0001
vn 0.2803 0.9537 -0.1090
vn 0.0853 0.9455 -0.3144
vn 0.0593 0.9281 -0.3676
vn -0.9550 0.2965 -0.0000
vn -0.8834 0.4687 -0.0000
vn -0.6841 0.7293 -0.0000
vn -0.6841 0.7294 -0.0000
vn -0.4725 0.8813 -0.0000
vn -0.4591 0.8882 -0.0205
vn -0.2605 0.9655 0.0008
vn -0.2410 0.9688 -0.0580
vn -0.1628 0.9706 -0.1771
vn -0.0853 0.9455 -0.3144
vn -0.2803 0.9537 -0.1090
vn -0.4219 0.9051 -0.0532
vn -0.6432 0.7657 -0.0001
vn -0.6841 0.7294 -0.0001
vn -0.8604 0.5096 -0.0000
vn -0.0879 0.9528 -0.2905
vn -0.0593 0.9281 -0.3676
vn -0.1529 0.9882 0.0015
vn -0.1451 0.9866 -0.0740
vn -0.1451 0.9866 0.0740
vn -0.1529 0.9882 -0.0015
vn -0.2605 0.9655 -0.0008
vn -0.2410 0.9688 0.0580
vn -0.4591 0.8882 0.0205
vn -0.6842 0.7293 -0.0000
vn -0.0879 0.9528 0.2905
vn -0.1628 0.9706 0.1771
vn -0.4219 0.9051 0.0532
vn -0.6841 0.7294 0.0001
vn -0.8833 0.4687 -0.0000
vn -0.6432 0.7657 0.0001
vn -0.2803 0.9537 0.1090
vn -0.0853 0.9455 0.3144
vn -0.0593 0.9281 0.3676
vn -0.9118 -0.3300 0.2443
vn -0.6675 -0.3300 -0.6675
vn -0.3536 -0.8660 -0.3536
vn -0.4831 -0.8660 0.1294
vn 0.2443 -0.3300 -0.9118
vn 0.1294 -0.8660 -0.4831
vn 0.3536 -0.8660 0.3536
vn 0.4831 -0.8660 -0.1294
vn -0.1294 -0.8660 0.4831
vn 0.6675 -0.3300 0.6675
vn -0.2443 -0.3300 0.9118
vn 0.9118 -0.3300 -0.2443
vn 0.6675 0.3300 0.6675
vn -0.2443 0.3300 0.9118
vn -0.9118 0.3300 0.2443
vn -0.1294 0.8660 0.4831
vn -0.4831 0.8660 0.1294
vn 0.3536 0.8660 0.3536
vn -0.6675 0.3300 -0.6675
vn -0.3536 0.8660 -0.3536
vn 0.2443 0.3300 -0.9118
vn 0.1294 0.8660 -0.4831
vn 0.4831 0.8660 -0.1294
vn 0.9118 0.3300 -0.2443
vn -0.0000 0.2965 0.9550
vn -0.0000 0.4687 0.8834
vn -0.0000 0.7293 0.6841
vn -0.0000 0.7294 0.6841
vn -0.0000 0.8813 0.4725
vn -0.0205 0.8882 0.4591
vn 0.0008 0.9655 0.2605
vn -0.0580 0.9688 0.2410
vn -0.1771 0.9706 0.1628
vn -0.3144 0.9455 0.0853
vn -0.1090 0.9537 0.2803
vn -0.0532 0.9051 0.4219
vn -0.0001 0.7657 0.6432
vn -0.0001 0.7294 0.6841
vn -0.0000 0.5096 0.8604
vn -0.2905 0.9528 0.0879
vn -0.3676 0.9281 0.0593
vn 0.0015 0.9882 0.1529
vn -0.0740 0.9866 0.1451
vn 0.0740 0.9866 0.1451
vn -0.0015 0.9882 0.1529
vn -0.0008 0.9655 0.2605
vn 0.0580 0.9688 0.2410
vn 0.0205 0.8882 0.4591
vn -0.0000 0.7293 0.6842
vn 0.2905 0.9528 0.0879
vn 0.1771 0.9706 0.1628
vn 0.0532 0.9051 0.4219
vn 0.0001 0.7294 0.6841
vn 0.0001 0.7657 0.6432
vn 0.1090 0.9537 0.2803
vn 0.3144 0.9455 0.0853
vn 0.3676 0.9281 0.0593
vn -0.0000 0.2965 -0.9550
vn -0.0000 0.4687 -0.8834
vn -0.0000 0.7293 -0.6842
vn -0.0000 0.7294 -0.6841
vn -0.0000 0.8813 -0.4725
vn 0.0205 0.8882 -0.4591
vn -0.0008 0.9655 -0.2605
vn 0.0580 0.9688 -0.2410
vn 0.1771 0.9706 -0.1628
vn 0.3144 0.9455 -0.0853
vn 0.1090 0.9537 -0.2803
vn 0.0532 0.9051 -0.4219
vn 0.0001 0.7657 -0.6432
vn 0.0001 0.7294 -0.6841
vn -0.0000 0.5096 -0.8604
vn 0.2905 0.9528 -0.0879
vn 0.3676 0.9281 -0.0593
vn -0.0015 0.9882 -0.1529
vn 0.0740 0.9866 -0.1451
vn -0.0740 0.9866 -0.1451
vn 0.0015 0.9882 -0.1529
vn 0.0008 0.9655 -0.2605
vn -0.0580 0.9688 -0.2410
vn -0.0205 0.8882 -0.4591
vn -0.2905 0.9528 -0.0879
vn -0.1771 0.9706 -0.1628
vn -0.0532 0.9051 -0.4219
vn -0.0001 0.7294 -0.6841
vn -0.0001 0.7657 -0.6432
vn -0.1090 0.9537 -0.2803
vn -0.3144 0.9455 -0.0853
vn -0.3676 0.9281 -0.0593
vt 0.000000 0.000000
vt 1.000000 0.000000
vt 0.000000 0.500000
vt 1.000000 0.500000
vt 1.000000 1.000000
vt 0.000000 1.000000
vt 0.375000 0.500000
vt 0.625000 0.500000
vt 0.625000 0.750000
vt 0.375000 0.750000
vt 0.625000 1.000000
vt 0.375000 1.000000
vt 0.375000 0.000000
vt 0.625000 0.000000
vt 0.625000 0.250000
vt 0.375000 0.250000
vt 0.875000 0.500000
vt 0.875000 0.750000
vt 0.125000 0.500000
vt 0.125000 0.750000
vt 0.666667 0.666667
vt 1.000000 0.666667
vt 0.666667 1.000000
vt 0.666667 0.000000
vt 1.000000 0.333333
vt 0.666667 0.333333
vt 0.000000 0.333333
vt 0.333333 0.333333
vt 0.333333 0.666667
vt 0.000000 0.666667
vt 0.333333 0.000000
vt 0.333333 1.000000
vt 0.000000 0.700000
vt 0.000000 0.912132
vt 0.700000 1.000000
vt 0.912132 1.000000
vt 0.300000 1.000000
vt 0.043934 1.000000
vt 0.956066 1.000000
vt 1.000000 0.700000
vt 0.542154 0.370000
vt 0.750000 0.490000
vt 0.750000 0.351436
vt 0.662154 0.300718
vt 0.957846 0.370000
vt 0.837846 0.300718
vt 0.750000 0.148564
vt 0.837846 0.199282
vt 0.662154 0.199282
vt 0.750000 0.010000
vt 0.542154 0.130000
vt 0.957846 0.130000
vt 0.500000 0.625000
vt 0.500000 0.875000
vt 0.333333 0.875000
vt 0.333333 0.625000
vt 0.166667 0.875000
vt 0.166667 0.625000
vt 0.042154 0.370000
vt 0.042154 0.130000
vt 0.162154 0.199282
vt 0.162154 0.300718
vt 0.250000 0.010000
vt 0.250000 0.148564
vt 0.250000 0.490000
vt 0.250000 0.351436
vt -0.000000 0.875000
vt -0.000000 0.625000
vt 1.000000 0.625000
vt 1.000000 0.875000
vt 0.833333 0.875000
vt 0.833333 0.625000
vt 0.457846 0.370000
vt 0.337846 0.300718
vt 0.337846 0.199282
vt 0.457846 0.130000
vt 0.666667 0.875000
vt 0.666667 0.625000
vt 0.000000 0.994649
vt 1.000000 0.994649
vt 0.000000 0.969201
vt 1.000000 0.969201
vt 0.000000 0.530799
vt 1.000000 0.530799
vt 0.000000 0.505351
vt 1.000000 0.505351
vt 0.500000 0.516297
vt 1.000000 0.516297
vt 1.000000 0.553787
vt 0.500000 0.553787
vt 1.000000 0.946213
vt 0.500000 0.946213
vt 1.000000 0.983703
vt 0.500000 0.983703
vt 0.000000 0.983703
vt 0.500000 0.500000
vt 0.500000 0.500000
vt 0.000000 0.516297
vt 0.000000 0.946213
vt 0.000000 0.553787
vt 0.500000 0.516297
vt 0.500000 0.553787
vt 0.500000 0.946213
s 0
usemtl 
f 11/2/1 10/2/1 13/2/1 14/2/1
f 12/2/1 11/2/1 14/2/1 15/2/1
f 15/2/2 14/2/2 17/2/2 18/2/2
f 14/2/3 13/2/3 16/2/3 17/2/3
f 16/2/4 13/2/4 19/2/4 20/2/4
f 15/2/5 18/2/5 20/2/5 19/2/5
f 21/1/1 10/2/1 11/2/1 12/2/1
f 15/2/1 19/2/1 21/1/1 12/2/1
f 13/2/1 10/2/1 21/1/1 19/2/1
f 17/2/6 16/2/6 22/2/6 23/2/6
f 24/2/2 23/2/2 27/2/2 28/2/2
f 20/2/6 18/2/6 24/2/6 25/2/6
f 18/2/6 17/2/6 23/2/6 24/2/6
f 16/2/6 20/2/6 25/2/6 22/2/6
f 22/2/4 25/2/4 29/2/4 26/2/4
f 23/2/3 22/2/3 26/2/3 27/2/3
f 25/2/5 24/2/5 28/2/5 29/2/5
f 31/2/1 30/2/1 33/2/1 34/2/1
f 32/2/1 31/2/1 34/2/1 35/2/1
f 35/2/2 34/2/2 37/2/2 38/2/2
f 34/2/3 33/2/3 36/2/3 37/2/3
f 36/2/4 33/2/4 39/2/4 40/2/4
f 35/2/5 38/2/5 40/2/5 39/2/5
f 41/1/1 30/2/1 31/2/1 32/2/1
f 35/2/1 39/2/1 41/1/1 32/2/1
f 33/2/1 30/2/1 41/1/1 39/2/1
f 37/2/6 36/2/6 42/2/6 43/2/6
f 44/2/2 43/2/2 47/2/2 48/2/2
f 40/2/6 38/2/6 44/2/6 45/2/6
f 38/2/6 37/2/6 43/2/6 44/2/6
f 36/2/6 40/2/6 45/2/6 42/2/6
f 42/2/4 45/2/4 49/2/4 46/2/4
f 43/2/3 42/2/3 46/2/3 47/2/3
f 45/2/5 44/2/5 48/2/5 49/2/5
f 52/3/3 53/4/3 51/5/3 50/6/3
f 55/1/3 56/2/3 57/4/3 54/3/3
f 53/4/1 52/3/1 54/3/1 57/4/1
f 60/3/3 61/4/3 59/5/3 58/6/3
f 63/1/3 64/2/3 65/4/3 62/3/3
f 61/4/1 60/3/1 62/3/1 65/4/1
f 71/7/2 72/8/2 70/9/2 69/10/2
f 69/10/3 70/9/3 67/11/3 66/12/3
f 74/11/3 77/9/3 139/9/3 136/11/3
f 73/13/4 74/14/4 76/15/4 75/16/4
f 93/10/3 77/9/3 74/11/3 73/12/3
f 67/11/3 70/9/3 135/9/3 132/11/3
f 82/10/3 83/9/3 80/11/3 79/12/3
f 81/17/4 80/18/4 124/18/4 125/17/4
f 102/10/3 88/9/3 86/11/3 85/12/3
f 83/9/2 84/8/2 126/8/2 127/9/2
f 90/13/4 73/14/4 75/15/4 91/16/4
f 94/7/2 95/8/2 93/9/2 92/10/2
f 92/10/3 93/9/3 73/11/3 90/12/3
f 90/12/3 96/12/3 97/10/3 92/10/3
f 98/13/4 85/14/4 100/15/4 99/16/4
f 103/7/2 104/8/2 102/9/2 101/10/2
f 101/10/3 102/9/3 85/11/3 98/12/3
f 99/19/6 103/7/6 101/10/6 98/20/6
f 98/12/3 105/12/3 106/10/3 101/10/3
f 107/13/4 79/14/4 109/15/4 108/16/4
f 111/7/2 112/8/2 82/9/2 110/10/2
f 110/10/3 82/9/3 79/11/3 107/12/3
f 108/19/6 111/7/6 110/10/6 107/20/6
f 107/12/3 113/12/3 114/10/3 110/10/3
f 115/13/4 66/14/4 117/15/4 116/16/4
f 119/7/2 71/8/2 69/9/2 118/10/2
f 118/10/3 69/9/3 66/11/3 115/12/3
f 115/12/3 120/12/3 121/10/3 118/10/3
f 92/10/1 98/13/1 99/16/1 94/7/1
f 101/10/1 107/13/1 108/16/1 103/7/1
f 110/10/1 115/13/1 116/16/1 111/7/1
f 110/10/3 114/10/3 120/12/3 115/13/3
f 123/1/4 96/1/4 90/1/4 91/1/4
f 92/10/3 97/10/3 105/12/3 98/13/3
f 101/10/3 106/10/3 113/12/3 107/13/3
f 121/1/2 122/1/2 119/1/2 118/1/2
f 78/8/1 77/9/1 86/18/1 87/17/1
f 80/18/1 81/17/1 89/8/1 88/9/1
f 67/18/1 68/17/1 84/8/1 83/9/1
f 85/14/3 86/18/3 77/9/3 93/9/3
f 79/12/3 80/18/3 88/9/3 102/10/3
f 66/12/3 67/18/3 83/9/3 82/10/3
f 136/11/3 139/9/3 155/9/3 152/11/3
f 88/9/2 89/8/2 130/8/2 131/9/2
f 87/17/4 86/18/4 128/18/4 129/17/4
f 80/11/3 83/9/3 127/9/3 124/11/3
f 86/11/3 88/9/3 131/9/3 128/11/3
f 128/11/3 131/9/3 147/9/3 144/11/3
f 76/15/4 74/14/4 136/14/4 137/15/4
f 70/9/2 72/8/2 134/8/2 135/9/2
f 77/9/2 78/8/2 138/8/2 139/9/2
f 68/17/4 67/18/4 132/18/4 133/17/4
f 153/15/4 152/14/4 168/14/4 169/15/4
f 145/17/4 144/18/4 160/18/4 161/17/4
f 124/11/3 127/9/3 143/9/3 140/11/3
f 135/9/2 134/8/2 150/8/2 151/9/2
f 132/11/3 135/9/3 151/9/3 148/11/3
f 137/15/4 136/14/4 152/14/4 153/15/4
f 169/15/4 168/14/4 179/14/4 180/15/4
f 164/11/3 176/18/3 173/9/3 159/9/3
f 164/11/3 167/9/3 178/9/3 176/11/3
f 147/9/2 146/8/2 162/8/2 163/9/2
f 155/9/2 154/8/2 170/8/2 171/9/2
f 144/11/3 147/9/3 163/9/3 160/11/3
f 141/17/4 140/18/4 156/18/4 157/17/4
f 152/11/3 155/9/3 171/9/3 168/11/3
f 149/17/4 148/18/4 164/18/4 165/17/4
f 132/11/3 148/18/3 143/9/3 127/9/3
f 143/9/2 142/8/2 158/8/2 159/9/2
f 151/9/2 150/8/2 166/8/2 167/9/2
f 140/11/3 143/9/3 159/9/3 156/11/3
f 148/11/3 151/9/3 167/9/3 164/11/3
f 142/8/1 143/9/1 148/18/1 149/17/1
f 163/9/3 156/11/3 172/18/3 175/9/3
f 160/11/3 163/9/3 175/9/3 174/11/3
f 168/11/3 171/9/3 181/9/3 179/11/3
f 160/11/3 174/18/3 181/9/3 171/9/3
f 140/18/1 141/17/1 146/8/1 147/9/1
f 144/18/1 145/17/1 154/8/1 155/9/1
f 167/9/2 166/8/2 177/8/2 178/9/2
f 156/11/3 159/9/3 173/9/3 172/11/3
f 147/9/3 131/9/3 124/11/3 140/18/3
f 128/11/3 144/18/3 155/9/3 139/9/3
f 78/8/3 87/17/3 129/17/3 138/8/3
f 89/8/3 81/17/3 125/17/3 130/8/3
f 68/17/3 133/17/3 126/8/3 84/8/3
f 154/8/3 145/17/3 161/17/3 170/8/3
f 142/8/3 149/17/3 165/17/3 158/8/3
f 141/17/3 157/17/3 162/8/3 146/8/3
f 103/7/3 108/16/3 109/15/3 104/8/3
f 111/7/3 116/16/3 117/15/3 112/8/3
f 94/7/3 99/16/3 100/15/3 95/8/3
f 187/7/2 188/8/2 186/9/2 185/10/2
f 185/10/3 186/9/3 183/11/3 182/12/3
f 190/11/3 193/9/3 255/9/3 252/11/3
f 189/13/4 190/14/4 192/15/4 191/16/4
f 209/10/3 193/9/3 190/11/3 189/12/3
f 183/11/3 186/9/3 251/9/3 248/11/3
f 198/10/3 199/9/3 196/11/3 195/12/3
f 197/17/4 196/18/4 240/18/4 241/17/4
f 218/10/3 204/9/3 202/11/3 201/12/3
f 199/9/2 200/8/2 242/8/2 243/9/2
f 206/13/4 189/14/4 191/15/4 207/16/4
f 210/7/2 211/8/2 209/9/2 208/10/2
f 208/10/3 209/9/3 189/11/3 206/12/3
f 206/12/3 212/12/3 213/10/3 208/10/3
f 214/13/4 201/14/4 216/15/4 215/16/4
f 219/7/2 220/8/2 218/9/2 217/10/2
f 217/10/3 218/9/3 201/11/3 214/12/3
f 215/19/6 219/7/6 217/10/6 214/20/6
f 214/12/3 221/12/3 222/10/3 217/10/3
f 223/13/4 195/14/4 225/15/4 224/16/4
f 227/7/2 228/8/2 198/9/2 226/10/2
f 226/10/3 198/9/3 195/11/3 223/12/3
f 224/19/6 227/7/6 226/10/6 223/20/6
f 223/12/3 229/12/3 230/10/3 226/10/3
f 231/13/4 182/14/4 233/15/4 232/16/4
f 235/7/2 187/8/2 185/9/2 234/10/2
f 234/10/3 185/9/3 182/11/3 231/12/3
f 231/12/3 236/12/3 237/10/3 234/10/3
f 208/10/1 214/13/1 215/16/1 210/7/1
f 217/10/1 223/13/1 224/16/1 219/7/1
f 226/10/1 231/13/1 232/16/1 227/7/1
f 226/10/3 230/10/3 236/12/3 231/13/3
f 239/1/4 212/1/4 206/1/4 207/1/4
f 208/10/3 213/10/3 221/12/3 214/13/3
f 217/10/3 222/10/3 229/12/3 223/13/3
f 237/1/2 238/1/2 235/1/2 234/1/2
f 194/8/1 193/9/1 202/18/1 203/17/1
f 196/18/1 197/17/1 205/8/1 204/9/1
f 183/18/1 184/17/1 200/8/1 199/9/1
f 201/14/3 202/18/3 193/9/3 209/9/3
f 195/12/3 196/18/3 204/9/3 218/10/3
f 182/12/3 183/18/3 199/9/3 198/10/3
f 252/11/3 255/9/3 271/9/3 268/11/3
f 204/9/2 205/8/2 246/8/2 247/9/2
f 203/17/4 202/18/4 244/18/4 245/17/4
f 196/11/3 199/9/3 243/9/3 240/11/3
f 202/11/3 204/9/3 247/9/3 244/11/3
f 244/11/3 247/9/3 263/9/3 260/11/3
f 192/15/4 190/14/4 252/14/4 253/15/4
f 186/9/2 188/8/2 250/8/2 251/9/2
f 193/9/2 194/8/2 254/8/2 255/9/2
f 184/17/4 183/18/4 248/18/4 249/17/4
f 269/15/4 268/14/4 284/14/4 285/15/4
f 261/17/4 260/18/4 276/18/4 277/17/4
f 240/11/3 243/9/3 259/9/3 256/11/3
f 251/9/2 250/8/2 266/8/2 267/9/2
f 248/11/3 251/9/3 267/9/3 264/11/3
f 253/15/4 252/14/4 268/14/4 269/15/4
f 285/15/4 284/14/4 295/14/4 296/15/4
f 280/11/3 292/18/3 289/9/3 275/9/3
f 280/11/3 283/9/3 294/9/3 292/11/3
f 263/9/2 262/8/2 278/8/2 279/9/2
f 271/9/2 270/8/2 286/8/2 287/9/2
f 260/11/3 263/9/3 279/9/3 276/11/3
f 257/17/4 256/18/4 272/18/4 273/17/4
f 268/11/3 271/9/3 287/9/3 284/11/3
f 265/17/4 264/18/4 280/18/4 281/17/4
f 248/11/3 264/18/3 259/9/3 243/9/3
f 259/9/2 258/8/2 274/8/2 275/9/2
f 267/9/2 266/8/2 282/8/2 283/9/2
f 256/11/3 259/9/3 275/9/3 272/11/3
f 264/11/3 267/9/3 283/9/3 280/11/3
f 258/8/1 259/9/1 264/18/1 265/17/1
f 279/9/3 272/11/3 288/18/3 291/9/3
f 276/11/3 279/9/3 291/9/3 290/11/3
f 284/11/3 287/9/3 297/9/3 295/11/3
f 276/11/3 290/18/3 297/9/3 287/9/3
f 256/18/1 257/17/1 262/8/1 263/9/1
f 260/18/1 261/17/1 270/8/1 271/9/1
f 283/9/2 282/8/2 293/8/2 294/9/2
f 272/11/3 275/9/3 289/9/3 288/11/3
f 263/9/3 247/9/3 240/11/3 256/18/3
f 244/11/3 260/18/3 271/9/3 255/9/3
f 219/7/3 224/16/3 225/15/3 220/8/3
f 227/7/3 232/16/3 233/15/3 228/8/3
f 184/17/3 249/17/3 242/8/3 200/8/3
f 205/8/3 197/17/3 241/17/3 246/8/3
f 257/17/3 273/17/3 278/8/3 262/8/3
f 258/8/3 265/17/3 281/17/3 274/8/3
f 270/8/3 261/17/3 277/17/3 286/8/3
f 194/8/3 203/17/3 245/17/3 254/8/3
f 210/7/3 215/16/3 216/15/3 211/8/3
f 312/21/3 305/22/3 301/5/3 308/23/3
f 307/24/3 299/2/3 304/25/3 310/26/3
f 310/26/3 304/25/3 305/22/3 312/21/3
f 303/27/3 311/28/3 313/29/3 302/30/3
f 310/26/4 312/21/4 316/21/4 314/26/4
f 298/1/3 306/31/3 311/28/3 303/27/3
f 306/31/3 307/24/3 310/26/3 311/28/3
f 302/30/3 313/29/3 309/32/3 300/6/3
f 313/29/3 312/21/3 308/23/3 309/32/3
f 312/21/6 313/29/6 317/29/6 316/21/6
f 311/28/1 310/26/1 314/26/1 315/28/1
f 313/29/2 311/28/2 315/28/2 317/29/2
s 1
f 318/1/3 319/2/3 323/2/3 322/1/3
f 322/1/1 323/2/1 325/2/1 324/1/1
f 326/33/3 328/34/3 320/6/3
f 328/34/3 327/6/3 320/6/3
f 329/35/3 331/36/3 321/5/3
f 331/36/3 330/5/3 321/5/3
f 332/37/7 334/38/8 336/39/8
f 336/39/8 334/38/8 333/33/9 335/40/9
f 326/33/10 333/33/11 334/38/12 328/6/13
f 328/6/13 334/38/12 332/37/14 327/37/14
f 335/40/15 330/40/16 331/5/17 336/39/18
f 336/39/18 331/5/17 329/35/19 332/35/19
f 326/33/10 322/1/20 324/1/20 333/33/11
f 321/5/3 320/6/3 327/37/3 329/35/3
f 320/6/3 318/1/3 322/1/3 326/33/3
f 323/2/21 330/40/16 335/40/15 325/2/21
f 319/2/3 321/5/3 330/40/3 323/2/3
f 324/1/3 325/2/3 335/40/9 333/33/9
f 346/41/22 338/42/23 337/43/24 340/44/25
f 338/42/23 360/45/26 339/46/27 337/43/24
f 341/47/28 337/43/24 339/46/27 343/48/29
f 337/43/24 341/47/28 344/49/30 340/44/25
f 342/50/31 345/51/32 344/49/30 341/47/28
f 359/52/33 342/50/31 341/47/28 343/48/29
f 345/51/32 346/41/22 340/44/25 344/49/30
f 342/53/31 349/54/34 347/55/35 345/56/32
f 345/56/32 347/55/35 350/57/36 346/58/22
f 350/59/36 347/60/35 348/61/37 351/62/38
f 347/60/35 349/63/34 356/64/39 348/61/37
f 352/65/40 350/59/36 351/62/38 354/66/41
f 346/58/22 350/57/36 352/67/40 338/68/23
f 338/69/23 352/70/40 353/71/42 360/72/26
f 353/73/42 352/65/40 354/66/41 355/74/43
f 355/74/43 354/66/41 356/64/39 357/75/44
f 356/64/39 354/66/41 351/62/38 348/61/37
f 349/63/34 358/76/45 357/75/44 356/64/39
f 358/76/45 353/73/42 355/74/43 357/75/44
f 360/72/26 353/71/42 358/77/45 359/78/33
f 359/78/33 358/77/45 349/54/34 342/53/31
f 360/45/26 359/52/33 343/48/29 339/46/27
f 362/5/46 361/6/46 363/79/47 364/80/47
f 364/80/47 363/79/47 365/81/48 366/82/49
f 366/82/49 365/81/48 367/83/50 369/84/51
f 369/84/51 367/83/50 368/85/52 370/86/53
f 384/87/54 372/88/55 371/89/56 381/90/57
f 381/90/57 371/89/56 373/91/58 382/92/59
f 382/92/59 373/91/58 374/93/60 383/94/47
f 364/95/47 383/94/47 374/93/60 362/6/46
f 385/96/61 375/4/62 372/88/55 384/87/54
f 385/96/3 377/3/3 379/3/3 386/97/3
f 377/4/3 378/3/3 380/3/3 379/4/3
f 370/86/53 368/85/52 378/3/63 377/4/64
f 375/4/3 385/96/3 386/97/3 376/4/3
f 377/3/64 385/96/61 384/87/54 370/98/53
f 366/99/49 382/92/59 383/94/47 364/95/47
f 369/100/51 381/90/57 382/92/59 366/99/49
f 370/98/53 384/87/54 381/90/57 369/100/51
f 390/4/3 389/3/3 391/3/3 392/4/3
f 389/3/65 390/4/66 396/88/67 397/98/68
f 397/98/68 396/88/67 395/89/50 398/100/69
f 398/100/69 395/89/50 394/91/70 399/99/49
f 399/99/49 394/91/70 393/93/47 400/95/71
f 400/95/71 393/93/47 388/5/46 387/6/46
f 407/97/3 401/3/3 402/3/3 408/97/3
f 407/97/72 389/4/65 397/88/68 409/101/73
f 409/101/73 397/88/68 398/89/69 410/102/74
f 410/102/74 398/89/69 399/91/49 411/103/75
f 411/103/75 399/91/49 400/93/71 412/94/71
f 406/95/60 412/94/71 400/93/71 387/6/46
f 405/99/76 411/103/75 412/94/71 406/95/60
f 404/100/77 410/102/74 411/103/75 405/99/76
f 403/98/78 409/101/73 410/102/74 404/100/77
f 401/3/79 407/97/72 409/101/73 403/98/78
f 389/4/3 407/97/3 408/97/3 391/4/3
s 0
f 414/2/1 413/2/1 416/2/1 417/2/1
f 415/2/1 414/2/1 417/2/1 418/2/1
f 418/2/4 417/2/4 420/2/4 421/2/4
f 417/2/5 416/2/5 419/2/5 420/2/5
f 419/2/2 416/2/2 422/2/2 423/2/2
f 418/2/3 421/2/3 423/2/3 422/2/3
f 424/1/1 413/2/1 414/2/1 415/2/1
f 418/2/1 422/2/1 424/1/1 415/2/1
f 416/2/1 413/2/1 424/1/1 422/2/1
f 420/2/6 419/2/6 425/2/6 426/2/6
f 427/2/4 426/2/4 430/2/4 431/2/4
f 423/2/6 421/2/6 427/2/6 428/2/6
f 421/2/6 420/2/6 426/2/6 427/2/6
f 419/2/6 423/2/6 428/2/6 425/2/6
f 425/2/2 428/2/2 432/2/2 429/2/2
f 426/2/5 425/2/5 429/2/5 430/2/5
f 428/2/3 427/2/3 431/2/3 432/2/3
f 434/2/1 433/2/1 436/2/1 437/2/1
f 435/2/1 434/2/1 437/2/1 438/2/1
f 438/2/4 437/2/4 440/2/4 441/2/4
f 437/2/5 436/2/5 439/2/5 440/2/5
f 439/2/2 436/2/2 442/2/2 443/2/2
f 438/2/3 441/2/3 443/2/3 442/2/3
f 444/1/1 433/2/1 434/2/1 435/2/1
f 438/2/1 442/2/1 444/1/1 435/2/1
f 436/2/1 433/2/1 444/1/1 442/2/1
f 440/2/6 439/2/6 445/2/6 446/2/6
f 447/2/4 446/2/4 450/2/4 451/2/4
f 443/2/6 441/2/6 447/2/6 448/2/6
f 441/2/6 440/2/6 446/2/6 447/2/6
f 439/2/6 443/2/6 448/2/6 445/2/6
f 445/2/2 448/2/2 452/2/2 449/2/2
f 446/2/5 445/2/5 449/2/5 450/2/5
f 448/2/3 447/2/3 451/2/3 452/2/3
s 1
f 462/41/33 454/42/31 453/43/28 456/44/29
f 454/42/31 476/45/32 455/46/30 453/43/28
f 457/47/24 453/43/28 455/46/30 459/48/25
f 453/43/28 457/47/24 460/49/27 456/44/29
f 458/50/23 461/51/26 460/49/27 457/47/24
f 475/52/22 458/50/23 457/47/24 459/48/25
f 461/51/26 462/41/33 456/44/29 460/49/27
f 458/53/23 465/54/40 463/55/42 461/56/26
f 461/56/26 463/55/42 466/57/45 462/58/33
f 466/59/45 463/60/42 464/61/43 467/62/44
f 463/60/42 465/63/40 472/64/41 464/61/43
f 468/65/34 466/59/45 467/62/44 470/66/39
f 462/58/33 466/57/45 468/67/34 454/68/31
f 454/69/31 468/70/34 469/71/35 476/72/32
f 469/73/35 468/65/34 470/66/39 471/74/37
f 471/74/37 470/66/39 472/64/41 473/75/38
f 472/64/41 470/66/39 467/62/44 464/61/43
f 465/63/40 474/76/36 473/75/38 472/64/41
f 474/76/36 469/73/35 471/74/37 473/75/38
f 476/72/32 469/71/35 474/77/36 475/78/22
f 475/78/22 474/77/36 465/54/40 458/53/23
f 476/45/32 475/52/22 459/48/25 455/46/30
f 478/5/80 477/6/80 479/79/81 480/80/81
f 480/80/81 479/79/81 481/81/82 482/82/83
f 482/82/83 481/81/82 483/83/84 485/84/85
f 485/84/85 483/83/84 484/85/86 486/86/87
f 500/87/88 488/88/89 487/89/90 497/90/91
f 497/90/91 487/89/90 489/91/92 498/92/93
f 498/92/93 489/91/92 490/93/94 499/94/81
f 480/95/81 499/94/81 490/93/94 478/6/80
f 501/96/95 491/4/96 488/88/89 500/87/88
f 501/96/5 493/3/5 495/3/5 502/97/5
f 493/4/5 494/3/5 496/3/5 495/4/5
f 486/86/87 484/85/86 494/3/97 493/4/98
f 491/4/5 501/96/5 502/97/5 492/4/5
f 493/3/98 501/96/95 500/87/88 486/98/87
f 482/99/83 498/92/93 499/94/81 480/95/81
f 485/100/85 497/90/91 498/92/93 482/99/83
f 486/98/87 500/87/88 497/90/91 485/100/85
f 506/4/5 505/3/5 507/3/5 508/4/5
f 505/3/99 506/4/100 512/88/101 513/98/102
f 513/98/102 512/88/101 511/89/84 514/100/103
f 514/100/103 511/89/84 510/91/104 515/99/83
f 515/99/83 510/91/104 509/93/81 516/95/81
f 516/95/81 509/93/81 504/5/80 503/6/80
f 523/97/5 517/3/5 518/3/5 524/97/5
f 523/97/105 505/4/99 513/88/102 525/101/106
f 525/101/106 513/88/102 514/89/103 526/102/107
f 526/102/107 514/89/103 515/91/83 527/103/108
f 527/103/108 515/91/83 516/93/81 528/94/109
f 522/95/94 528/94/109 516/93/81 503/6/80
f 521/99/110 527/103/108 528/94/109 522/95/94
f 520/100/111 526/102/107 527/103/108 521/99/110
f 519/98/112 525/101/106 526/102/107 520/100/111
f 517/3/113 523/97/105 525/101/106 519/98/112
f 505/4/5 523/97/5 524/97/5 507/4/5
s 0
f 531/3/4 532/4/4 530/5/4 529/6/4
f 534/1/4 535/2/4 536/4/4 533/3/4
f 532/4/1 531/3/1 533/3/1 536/4/1
f 539/3/4 540/4/4 538/5/4 537/6/4
f 542/1/4 543/2/4 544/4/4 541/3/4
f 540/4/1 539/3/1 541/3/1 544/4/1
f 550/7/3 551/8/3 549/9/3 548/10/3
f 548/10/4 549/9/4 546/11/4 545/12/4
f 553/11/4 556/9/4 618/9/4 615/11/4
f 552/13/5 553/14/5 555/15/5 554/16/5
f 572/10/4 556/9/4 553/11/4 552/12/4
f 546/11/4 549/9/4 614/9/4 611/11/4
f 561/10/4 562/9/4 559/11/4 558/12/4
f 560/17/5 559/18/5 603/18/5 604/17/5
f 581/10/4 567/9/4 565/11/4 564/12/4
f 562/9/3 563/8/3 605/8/3 606/9/3
f 569/13/5 552/14/5 554/15/5 570/16/5
f 573/7/3 574/8/3 572/9/3 571/10/3
f 571/10/4 572/9/4 552/11/4 569/12/4
f 569/12/4 575/12/4 576/10/4 571/10/4
f 577/13/5 564/14/5 579/15/5 578/16/5
f 582/7/3 583/8/3 581/9/3 580/10/3
f 580/10/4 581/9/4 564/11/4 577/12/4
f 578/19/6 582/7/6 580/10/6 577/20/6
f 577/12/4 584/12/4 585/10/4 580/10/4
f 586/13/5 558/14/5 588/15/5 587/16/5
f 590/7/3 591/8/3 561/9/3 589/10/3
f 589/10/4 561/9/4 558/11/4 586/12/4
f 587/19/6 590/7/6 589/10/6 586/20/6
f 586/12/4 592/12/4 593/10/4 589/10/4
f 594/13/5 545/14/5 596/15/5 595/16/5
f 598/7/3 550/8/3 548/9/3 597/10/3
f 597/10/4 548/9/4 545/11/4 594/12/4
f 594/12/4 599/12/4 600/10/4 597/10/4
f 571/10/1 577/13/1 578/16/1 573/7/1
f 580/10/1 586/13/1 587/16/1 582/7/1
f 589/10/1 594/13/1 595/16/1 590/7/1
f 589/10/4 593/10/4 599/12/4 594/13/4
f 602/1/5 575/1/5 569/1/5 570/1/5
f 571/10/4 576/10/4 584/12/4 577/13/4
f 580/10/4 585/10/4 592/12/4 586/13/4
f 600/1/3 601/1/3 598/1/3 597/1/3
f 557/8/1 556/9/1 565/18/1 566/17/1
f 559/18/1 560/17/1 568/8/1 567/9/1
f 546/18/1 547/17/1 563/8/1 562/9/1
f 564/14/4 565/18/4 556/9/4 572/9/4
f 558/12/4 559/18/4 567/9/4 581/10/4
f 545/12/4 546/18/4 562/9/4 561/10/4
f 615/11/4 618/9/4 634/9/4 631/11/4
f 567/9/3 568/8/3 609/8/3 610/9/3
f 566/17/5 565/18/5 607/18/5 608/17/5
f 559/11/4 562/9/4 606/9/4 603/11/4
f 565/11/4 567/9/4 610/9/4 607/11/4
f 607/11/4 610/9/4 626/9/4 623/11/4
f 555/15/5 553/14/5 615/14/5 616/15/5
f 549/9/3 551/8/3 613/8/3 614/9/3
f 556/9/3 557/8/3 617/8/3 618/9/3
f 547/17/5 546/18/5 611/18/5 612/17/5
f 632/15/5 631/14/5 647/14/5 648/15/5
f 624/17/5 623/18/5 639/18/5 640/17/5
f 603/11/4 606/9/4 622/9/4 619/11/4
f 614/9/3 613/8/3 629/8/3 630/9/3
f 611/11/4 614/9/4 630/9/4 627/11/4
f 616/15/5 615/14/5 631/14/5 632/15/5
f 648/15/5 647/14/5 658/14/5 659/15/5
f 643/11/4 655/18/4 652/9/4 638/9/4
f 643/11/4 646/9/4 657/9/4 655/11/4
f 626/9/3 625/8/3 641/8/3 642/9/3
f 634/9/3 633/8/3 649/8/3 650/9/3
f 623/11/4 626/9/4 642/9/4 639/11/4
f 620/17/5 619/18/5 635/18/5 636/17/5
f 631/11/4 634/9/4 650/9/4 647/11/4
f 628/17/5 627/18/5 643/18/5 644/17/5
f 611/11/4 627/18/4 622/9/4 606/9/4
f 622/9/3 621/8/3 637/8/3 638/9/3
f 630/9/3 629/8/3 645/8/3 646/9/3
f 619/11/4 622/9/4 638/9/4 635/11/4
f 627/11/4 630/9/4 646/9/4 643/11/4
f 621/8/1 622/9/1 627/18/1 628/17/1
f 642/9/4 635/11/4 651/18/4 654/9/4
f 639/11/4 642/9/4 654/9/4 653/11/4
f 647/11/4 650/9/4 660/9/4 658/11/4
f 639/11/4 653/18/4 660/9/4 650/9/4
f 619/18/1 620/17/1 625/8/1 626/9/1
f 623/18/1 624/17/1 633/8/1 634/9/1
f 646/9/3 645/8/3 656/8/3 657/9/3
f 635/11/4 638/9/4 652/9/4 651/11/4
f 626/9/4 610/9/4 603/11/4 619/18/4
f 607/11/4 623/18/4 634/9/4 618/9/4
f 557/8/4 566/17/4 608/17/4 617/8/4
f 568/8/4 560/17/4 604/17/4 609/8/4
f 547/17/4 612/17/4 605/8/4 563/8/4
f 633/8/4 624/17/4 640/17/4 649/8/4
f 621/8/4 628/17/4 644/17/4 637/8/4
f 620/17/4 636/17/4 641/8/4 625/8/4
f 582/7/4 587/16/4 588/15/4 583/8/4
f 590/7/4 595/16/4 596/15/4 591/8/4
f 573/7/4 578/16/4 579/15/4 574/8/4
f 666/7/3 667/8/3 665/9/3 664/10/3
f 664/10/4 665/9/4 662/11/4 661/12/4
f 669/11/4 672/9/4 734/9/4 731/11/4
f 668/13/5 669/14/5 671/15/5 670/16/5
f 688/10/4 672/9/4 669/11/4 668/12/4
f 662/11/4 665/9/4 730/9/4 727/11/4
f 677/10/4 678/9/4 675/11/4 674/12/4
f 676/17/5 675/18/5 719/18/5 720/17/5
f 697/10/4 683/9/4 681/11/4 680/12/4
f 678/9/3 679/8/3 721/8/3 722/9/3
f 685/13/5 668/14/5 670/15/5 686/16/5
f 689/7/3 690/8/3 688/9/3 687/10/3
f 687/10/4 688/9/4 668/11/4 685/12/4
f 685/12/4 691/12/4 692/10/4 687/10/4
f 693/13/5 680/14/5 695/15/5 694/16/5
f 698/7/3 699/8/3 697/9/3 696/10/3
f 696/10/4 697/9/4 680/11/4 693/12/4
f 694/19/6 698/7/6 696/10/6 693/20/6
f 693/12/4 700/12/4 701/10/4 696/10/4
f 702/13/5 674/14/5 704/15/5 703/16/5
f 706/7/3 707/8/3 677/9/3 705/10/3
f 705/10/4 677/9/4 674/11/4 702/12/4
f 703/19/6 706/7/6 705/10/6 702/20/6
f 702/12/4 708/12/4 709/10/4 705/10/4
f 710/13/5 661/14/5 712/15/5 711/16/5
f 714/7/3 666/8/3 664/9/3 713/10/3
f 713/10/4 664/9/4 661/11/4 710/12/4
f 710/12/4 715/12/4 716/10/4 713/10/4
f 687/10/1 693/13/1 694/16/1 689/7/1
f 696/10/1 702/13/1 703/16/1 698/7/1
f 705/10/1 710/13/1 711/16/1 706/7/1
f 705/10/4 709/10/4 715/12/4 710/13/4
f 718/1/5 691/1/5 685/1/5 686/1/5
f 687/10/4 692/10/4 700/12/4 693/13/4
f 696/10/4 701/10/4 708/12/4 702/13/4
f 716/1/3 717/1/3 714/1/3 713/1/3
f 673/8/1 672/9/1 681/18/1 682/17/1
f 675/18/1 676/17/1 684/8/1 683/9/1
f 662/18/1 663/17/1 679/8/1 678/9/1
f 680/14/4 681/18/4 672/9/4 688/9/4
f 674/12/4 675/18/4 683/9/4 697/10/4
f 661/12/4 662/18/4 678/9/4 677/10/4
f 731/11/4 734/9/4 750/9/4 747/11/4
f 683/9/3 684/8/3 725/8/3 726/9/3
f 682/17/5 681/18/5 723/18/5 724/17/5
f 675/11/4 678/9/4 722/9/4 719/11/4
f 681/11/4 683/9/4 726/9/4 723/11/4
f 723/11/4 726/9/4 742/9/4 739/11/4
f 671/15/5 669/14/5 731/14/5 732/15/5
f 665/9/3 667/8/3 729/8/3 730/9/3
f 672/9/3 673/8/3 733/8/3 734/9/3
f 663/17/5 662/18/5 727/18/5 728/17/5
f 748/15/5 747/14/5 763/14/5 764/15/5
f 740/17/5 739/18/5 755/18/5 756/17/5
f 719/11/4 722/9/4 738/9/4 735/11/4
f 730/9/3 729/8/3 745/8/3 746/9/3
f 727/11/4 730/9/4 746/9/4 743/11/4
f 732/15/5 731/14/5 747/14/5 748/15/5
f 764/15/5 763/14/5 774/14/5 775/15/5
f 759/11/4 771/18/4 768/9/4 754/9/4
f 759/11/4 762/9/4 773/9/4 771/11/4
f 742/9/3 741/8/3 757/8/3 758/9/3
f 750/9/3 749/8/3 765/8/3 766/9/3
f 739/11/4 742/9/4 758/9/4 755/11/4
f 736/17/5 735/18/5 751/18/5 752/17/5
f 747/11/4 750/9/4 766/9/4 763/11/4
f 744/17/5 743/18/5 759/18/5 760/17/5
f 727/11/4 743/18/4 738/9/4 722/9/4
f 738/9/3 737/8/3 753/8/3 754/9/3
f 746/9/3 745/8/3 761/8/3 762/9/3
f 735/11/4 738/9/4 754/9/4 751/11/4
f 743/11/4 746/9/4 762/9/4 759/11/4
f 737/8/1 738/9/1 743/18/1 744/17/1
f 758/9/4 751/11/4 767/18/4 770/9/4
f 755/11/4 758/9/4 770/9/4 769/11/4
f 763/11/4 766/9/4 776/9/4 774/11/4
f 755/11/4 769/18/4 776/9/4 766/9/4
f 735/18/1 736/17/1 741/8/1 742/9/1
f 739/18/1 740/17/1 749/8/1 750/9/1
f 762/9/3 761/8/3 772/8/3 773/9/3
f 751/11/4 754/9/4 768/9/4 767/11/4
f 742/9/4 726/9/4 719/11/4 735/18/4
f 723/11/4 739/18/4 750/9/4 734/9/4
f 698/7/4 703/16/4 704/15/4 699/8/4
f 706/7/4 711/16/4 712/15/4 707/8/4
f 663/17/4 728/17/4 721/8/4 679/8/4
f 684/8/4 676/17/4 720/17/4 725/8/4
f 736/17/4 752/17/4 757/8/4 741/8/4
f 737/8/4 744/17/4 760/17/4 753/8/4
f 749/8/4 740/17/4 756/17/4 765/8/4
f 673/8/4 682/17/4 724/17/4 733/8/4
f 689/7/4 694/16/4 695/15/4 690/8/4
f 791/21/4 784/22/4 780/5/4 787/23/4
f 786/24/4 778/2/4 783/25/4 789/26/4
f 789/26/4 783/25/4 784/22/4 791/21/4
f 782/27/4 790/28/4 792/29/4 781/30/4
f 789/26/5 791/21/5 795/21/5 793/26/5
f 777/1/4 785/31/4 790/28/4 782/27/4
f 785/31/4 786/24/4 789/26/4 790/28/4
f 781/30/4 792/29/4 788/32/4 779/6/4
f 792/29/4 791/21/4 787/23/4 788/32/4
f 791/21/6 792/29/6 796/29/6 795/21/6
f 790/28/1 789/26/1 793/26/1 794/28/1
f 792/29/3 790/28/3 794/28/3 796/29/3
f 797/1/4 798/2/4 800/5/4 799/6/4
s 1
f 810/41/114 802/42/115 801/43/116 804/44/117
f 802/42/115 824/45/118 803/46/119 801/43/116
f 805/47/120 801/43/116 803/46/119 807/48/121
f 801/43/116 805/47/120 808/49/122 804/44/117
f 806/50/123 809/51/124 808/49/122 805/47/120
f 823/52/125 806/50/123 805/47/120 807/48/121
f 809/51/124 810/41/114 804/44/117 808/49/122
f 806/53/123 813/54/126 811/55/127 809/56/124
f 809/56/124 811/55/127 814/57/128 810/58/114
f 814/59/128 811/60/127 812/61/129 815/62/130
f 811/60/127 813/63/126 820/64/131 812/61/129
f 816/65/132 814/59/128 815/62/130 818/66/133
f 810/58/114 814/57/128 816/67/132 802/68/115
f 802/69/115 816/70/132 817/71/134 824/72/118
f 817/73/134 816/65/132 818/66/133 819/74/135
f 819/74/135 818/66/133 820/64/131 821/75/136
f 820/64/131 818/66/133 815/62/130 812/61/129
f 813/63/126 822/76/137 821/75/136 820/64/131
f 822/76/137 817/73/134 819/74/135 821/75/136
f 824/72/118 817/71/134 822/77/137 823/78/125
f 823/78/125 822/77/137 813/54/126 806/53/123
f 824/45/118 823/52/125 807/48/121 803/46/119
f 826/5/138 825/6/138 827/79/139 828/80/139
f 828/80/139 827/79/139 829/81/140 830/82/141
f 830/82/141 829/81/140 831/83/142 833/84/143
f 833/84/143 831/83/142 832/85/144 834/86/145
f 848/87/146 836/88/147 835/89/148 845/90/149
f 845/90/149 835/89/148 837/91/150 846/92/151
f 846/92/151 837/91/150 838/93/152 847/94/139
f 828/95/139 847/94/139 838/93/152 826/6/138
f 849/96/153 839/4/154 836/88/147 848/87/146
f 849/96/4 841/3/4 843/3/4 850/97/4
f 841/4/4 842/3/4 844/3/4 843/4/4
f 834/86/145 832/85/144 842/3/155 841/4/156
f 839/4/4 849/96/4 850/97/4 840/4/4
f 841/3/156 849/96/153 848/87/146 834/98/145
f 830/99/141 846/92/151 847/94/139 828/95/139
f 833/100/143 845/90/149 846/92/151 830/99/141
f 834/98/145 848/87/146 845/90/149 833/100/143
s 0
f 852/2/1 851/2/1 854/2/1 855/2/1
f 853/2/1 852/2/1 855/2/1 856/2/1
f 856/2/3 855/2/3 858/2/3 859/2/3
f 855/2/4 854/2/4 857/2/4 858/2/4
f 857/2/5 854/2/5 860/2/5 861/2/5
f 856/2/2 859/2/2 861/2/2 860/2/2
f 862/1/1 851/2/1 852/2/1 853/2/1
f 856/2/1 860/2/1 862/1/1 853/2/1
f 854/2/1 851/2/1 862/1/1 860/2/1
f 858/2/6 857/2/6 863/2/6 864/2/6
f 865/2/3 864/2/3 868/2/3 869/2/3
f 861/2/6 859/2/6 865/2/6 866/2/6
f 859/2/6 858/2/6 864/2/6 865/2/6
f 857/2/6 861/2/6 866/2/6 863/2/6
f 863/2/5 866/2/5 870/2/5 867/2/5
f 864/2/4 863/2/4 867/2/4 868/2/4
f 866/2/2 865/2/2 869/2/2 870/2/2
f 872/2/1 871/2/1 874/2/1 875/2/1
f 873/2/1 872/2/1 875/2/1 876/2/1
f 876/2/3 875/2/3 878/2/3 879/2/3
f 875/2/4 874/2/4 877/2/4 878/2/4
f 877/2/5 874/2/5 880/2/5 881/2/5
f 876/2/2 879/2/2 881/2/2 880/2/2
f 882/1/1 871/2/1 872/2/1 873/2/1
f 876/2/1 880/2/1 882/1/1 873/2/1
f 874/2/1 871/2/1 882/1/1 880/2/1
f 878/2/6 877/2/6 883/2/6 884/2/6
f 885/2/3 884/2/3 888/2/3 889/2/3
f 881/2/6 879/2/6 885/2/6 886/2/6
f 879/2/6 878/2/6 884/2/6 885/2/6
f 877/2/6 881/2/6 886/2/6 883/2/6
f 883/2/5 886/2/5 890/2/5 887/2/5
f 884/2/4 883/2/4 887/2/4 888/2/4
f 886/2/2 885/2/2 889/2/2 890/2/2
s 1
f 894/4/4 893/3/4 895/3/4 896/4/4
f 893/3/157 894/4/158 900/88/159 901/98/160
f 901/98/160 900/88/159 899/89/142 902/100/161
f 902/100/161 899/89/142 898/91/162 903/99/141
f 903/99/141 898/91/162 897/93/139 904/95/139
f 904/95/139 897/93/139 892/5/138 891/6/138
f 911/97/4 905/3/4 906/3/4 912/97/4
f 911/97/163 893/4/157 901/88/160 913/101/164
f 913/101/164 901/88/160 902/89/161 914/102/165
f 914/102/165 902/89/161 903/91/141 915/103/166
f 915/103/166 903/91/141 904/93/139 916/94/139
f 910/95/152 916/94/139 904/93/139 891/6/138
f 909/99/167 915/103/166 916/94/139 910/95/152
f 908/100/168 914/102/165 915/103/166 909/99/167
f 907/98/169 913/101/164 914/102/165 908/100/168
f 905/3/170 911/97/163 913/101/164 907/98/169
f 893/4/4 911/97/4 912/97/4 895/4/4
f 926/41/125 918/42/123 917/43/120 920/44/121
f 918/42/123 940/45/124 919/46/122 917/43/120
f 921/47/116 917/43/120 919/46/122 923/48/117
f 917/43/120 921/47/116 924/49/119 920/44/121
f 922/50/115 925/51/118 924/49/119 921/47/116
f 939/52/114 922/50/115 921/47/116 923/48/117
f 925/51/118 926/41/125 920/44/121 924/49/119
f 922/53/115 929/54/132 927/55/134 925/56/118
f 925/56/118 927/55/134 930/57/137 926/58/125
f 930/59/137 927/60/134 928/61/135 931/62/136
f 927/60/134 929/63/132 936/64/133 928/61/135
f 932/65/126 930/59/137 931/62/136 934/66/131
f 926/58/125 930/57/137 932/67/126 918/68/123
f 918/69/123 932/70/126 933/71/127 940/72/124
f 933/73/127 932/65/126 934/66/131 935/74/129
f 935/74/129 934/66/131 936/64/133 937/75/130
f 936/64/133 934/66/131 931/62/136 928/61/135
f 929/63/132 938/76/128 937/75/130 936/64/133
f 938/76/128 933/73/127 935/74/129 937/75/130
f 940/72/124 933/71/127 938/77/128 939/78/114
f 939/78/114 938/77/128 929/54/132 922/53/115
f 940/45/124 939/52/114 923/48/117 919/46/122
f 942/5/171 941/6/171 943/79/172 944/80/172
f 944/80/172 943/79/172 945/81/173 946/82/174
f 946/82/174 945/81/173 947/83/175 949/84/176
f 949/84/176 947/83/175 948/85/177 950/86/178
f 964/87/179 952/88/180 951/89/181 961/90/182
f 961/90/182 951/89/181 953/91/183 962/92/184
f 962/92/184 953/91/183 954/93/185 963/94/172
f 944/95/172 963/94/172 954/93/185 942/6/171
f 965/96/186 955/4/187 952/88/180 964/87/179
f 965/96/2 957/3/2 959/3/2 966/97/2
f 957/4/2 958/3/2 960/3/2 959/4/2
f 950/86/178 948/85/177 958/3/188 957/4/189
f 955/4/2 965/96/2 966/97/2 956/4/2
f 957/3/189 965/96/186 964/87/179 950/98/178
f 946/99/174 962/92/184 963/94/172 944/95/172
f 949/100/176 961/90/182 962/92/184 946/99/174
f 950/98/178 964/87/179 961/90/182 949/100/176
f 970/4/2 969/3/2 971/3/2 972/4/2
f 969/3/190 970/4/191 976/88/192 977/98/193
f 977/98/193 976/88/192 975/89/175 978/100/194
f 978/100/194 975/89/175 974/91/173 979/99/174
f 979/99/174 974/91/173 973/93/172 980/95/172
f 980/95/172 973/93/172 968/5/171 967/6/171
f 987/97/2 981/3/2 982/3/2 988/97/2
f 987/97/195 969/4/190 977/88/193 989/101/196
f 989/101/196 977/88/193 978/89/194 990/102/197
f 990/102/197 978/89/194 979/91/174 991/103/198
f 991/103/198 979/91/174 980/93/172 992/94/172
f 986/95/185 992/94/172 980/93/172 967/6/171
f 985/99/199 991/103/198 992/94/172 986/95/185
f 984/100/200 990/102/197 991/103/198 985/99/199
f 983/98/201 989/101/196 990/102/197 984/100/200
f 981/3/202 987/97/195 989/101/196 983/98/201
f 969/4/2 987/97/2 988/97/2 971/4/2
s 0
usemtl top_roof
f 1/1/1 4/1/1 5/1/1 2/1/1
f 2/1/1 5/1/1 6/1/1 3/1/1
f 4/1/1 7/1/1 8/1/1 5/1/1
f 5/1/1 8/1/1 9/1/1 6/1/1
