# Blender 5.0.1
# www.blender.org
o Plane.434
v -0.500000 2.725000 -10.500000
v 0.000000 2.725000 -10.500000
v 0.500000 2.725000 -10.500000
v -0.500000 2.725000 -10.000000
v 0.000000 2.725000 -10.000000
v 0.500000 2.725000 -10.000000
v -0.500000 2.725000 -9.500000
v 0.000000 2.725000 -9.500000
v 0.500000 2.725000 -9.500000
v 1.000000 1.000000 -8.900000
v 1.100000 1.000000 -8.900000
v 1.100000 1.000000 -9.000000
v 0.950000 1.000000 -8.850000
v 1.150000 1.000000 -8.850000
v 1.150000 1.000000 -9.050000
v 0.950000 0.900000 -8.850000
v 1.150000 0.900000 -8.850000
v 1.150000 0.900000 -9.050000
v 0.949999 1.000000 -9.050000
v 0.949999 0.900000 -9.050000
v 1.000000 1.000000 -9.000000
v 1.000000 0.900000 -8.900000
v 1.100000 0.900000 -8.900000
v 1.100000 0.900000 -9.000000
v 1.000000 0.900000 -9.000000
v 1.000000 -0.000000 -8.900000
v 1.100000 -0.000000 -8.900000
v 1.100000 -0.000000 -9.000000
v 1.000000 -0.000000 -9.000000
v 1.000000 2.000000 -8.900000
v 1.100000 2.000000 -8.900000
v 1.100000 2.000000 -9.000000
v 0.950000 2.000000 -8.850000
v 1.150000 2.000000 -8.850000
v 1.150000 2.000000 -9.050000
v 0.950000 1.900000 -8.850000
v 1.150000 1.900000 -8.850000
v 1.150000 1.900000 -9.050000
v 0.949999 2.000000 -9.050000
v 0.949999 1.900000 -9.050000
v 1.000000 2.000000 -9.000000
v 1.000000 1.900000 -8.900000
v 1.100000 1.900000 -8.900000
v 1.100000 1.900000 -9.000000
v 1.000000 1.900000 -9.000000
v 1.000000 1.000000 -8.900000
v 1.100000 1.000000 -8.900000
v 1.100000 1.000000 -9.000000
v 1.000000 1.000000 -9.000000
v -1.000000 1.000000 -9.000000
v 0.000000 1.000000 -9.000000
v -1.000000 0.100000 -9.000000
v 0.000000 0.100000 -9.000000
v -1.000000 0.100000 -8.900000
v -1.000000 0.000000 -8.900000
v 0.000000 0.000000 -8.900000
v 0.000000 0.100000 -8.900000
v 0.000000 1.000000 -9.000000
v 1.000000 1.000000 -9.000000
v 0.000000 0.100000 -9.000000
v 1.000000 0.100000 -9.000000
v 0.000000 0.100000 -8.900000
v 0.000000 0.000000 -8.900000
v 1.000000 -0.000000 -8.900000
v 1.000000 0.100000 -8.900000
v -0.549999 1.350000 -9.025000
v -0.549999 1.400000 -9.025000
v -0.549999 1.400000 -9.037500
v -0.499999 1.350000 -9.025000
v -0.499999 1.400000 -9.025000
v -0.499999 1.350000 -9.050000
v -0.499999 1.400000 -9.050000
v -0.899996 1.350000 -9.025000
v -0.899996 1.400000 -9.025000
v -0.899996 1.350000 -9.050000
v -0.899996 1.400000 -9.050000
v -0.849996 1.400000 -9.025000
v -0.849996 1.400000 -9.037500
v -0.649998 1.350000 -9.025000
v -0.649997 1.400000 -9.025000
v -0.649997 1.400000 -9.037500
v -0.599998 1.350000 -9.025000
v -0.599997 1.400000 -9.025000
v -0.599997 1.400000 -9.037500
v -0.799998 1.350000 -9.025000
v -0.799997 1.400000 -9.025000
v -0.799997 1.400000 -9.037500
v -0.749997 1.400000 -9.025000
v -0.749997 1.400000 -9.037500
v -0.899997 1.150000 -9.025000
v -0.899997 1.150000 -9.050000
v -0.849997 1.150000 -9.025000
v -0.849996 1.350000 -9.025000
v -0.849997 1.150000 -9.037500
v -0.849997 1.350000 -9.037500
v -0.899997 1.050000 -9.025000
v -0.849997 1.050000 -9.025000
v -0.799998 1.150000 -9.025000
v -0.799998 1.150000 -9.037500
v -0.799998 1.350000 -9.037500
v -0.749998 1.150000 -9.025000
v -0.749998 1.350000 -9.025000
v -0.749998 1.150000 -9.037500
v -0.749998 1.350000 -9.037500
v -0.799998 1.050000 -9.025000
v -0.749998 1.050000 -9.025000
v -0.649998 1.150000 -9.025000
v -0.649998 1.150000 -9.037500
v -0.649998 1.350000 -9.037500
v -0.599998 1.150000 -9.025000
v -0.599998 1.150000 -9.037500
v -0.599998 1.350000 -9.037500
v -0.649998 1.050000 -9.025000
v -0.599998 1.050000 -9.025000
v -0.550000 1.150000 -9.025000
v -0.550000 1.150000 -9.037500
v -0.550000 1.350000 -9.037500
v -0.500000 1.150000 -9.025000
v -0.500000 1.150000 -9.050000
v -0.550000 1.050000 -9.025000
v -0.500000 1.050000 -9.025000
v -0.500000 1.050000 -9.050000
v -0.899997 1.050000 -9.050000
v -0.649997 1.600000 -9.025000
v -0.649997 1.600000 -9.037500
v -0.599997 1.600000 -9.037500
v -0.599997 1.600000 -9.025000
v -0.799997 1.600000 -9.025000
v -0.799997 1.600000 -9.037500
v -0.749997 1.600000 -9.037500
v -0.749997 1.600000 -9.025000
v -0.549999 1.600000 -9.025000
v -0.549999 1.600000 -9.037500
v -0.499999 1.600000 -9.050000
v -0.499999 1.600000 -9.025000
v -0.899996 1.600000 -9.025000
v -0.899996 1.600000 -9.050000
v -0.849996 1.600000 -9.037500
v -0.849996 1.600000 -9.025000
v -0.649997 1.650000 -9.025000
v -0.649997 1.650000 -9.037500
v -0.599997 1.650000 -9.037500
v -0.599997 1.650000 -9.025000
v -0.799997 1.650000 -9.025000
v -0.799997 1.650000 -9.037500
v -0.749997 1.650000 -9.037500
v -0.749997 1.650000 -9.025000
v -0.549999 1.650000 -9.025000
v -0.549999 1.650000 -9.037500
v -0.499999 1.650000 -9.050000
v -0.499999 1.650000 -9.025000
v -0.899996 1.650000 -9.025000
v -0.899996 1.650000 -9.050000
v -0.849996 1.650000 -9.037500
v -0.849996 1.650000 -9.025000
v -0.649997 1.850000 -9.025000
v -0.649997 1.850000 -9.037500
v -0.599997 1.850000 -9.037500
v -0.599997 1.850000 -9.025000
v -0.799997 1.850000 -9.025000
v -0.799997 1.850000 -9.037500
v -0.749997 1.850000 -9.037500
v -0.749997 1.850000 -9.025000
v -0.549999 1.850000 -9.025000
v -0.549999 1.850000 -9.037500
v -0.499999 1.850000 -9.050000
v -0.499999 1.850000 -9.025000
v -0.899996 1.850000 -9.025000
v -0.899996 1.850000 -9.050000
v -0.849996 1.850000 -9.037500
v -0.849996 1.850000 -9.025000
v -0.649997 1.950000 -9.025000
v -0.599997 1.950000 -9.025000
v -0.799997 1.950000 -9.025000
v -0.749997 1.950000 -9.025000
v -0.549999 1.950000 -9.025000
v -0.499999 1.950000 -9.050000
v -0.499999 1.950000 -9.025000
v -0.899996 1.950000 -9.025000
v -0.899996 1.950000 -9.050000
v -0.849996 1.950000 -9.025000
v -0.150003 1.350000 -9.050000
v -0.150003 1.400000 -9.050000
v -0.150003 1.400000 -9.062500
v -0.100003 1.350000 -9.050000
v -0.100003 1.400000 -9.050000
v -0.100003 1.350000 -9.075000
v -0.100003 1.400000 -9.075000
v -0.500000 1.350000 -9.050000
v -0.500000 1.400000 -9.050000
v -0.500000 1.350000 -9.075000
v -0.500000 1.400000 -9.075000
v -0.450000 1.400000 -9.050000
v -0.450000 1.400000 -9.062500
v -0.250002 1.350000 -9.050000
v -0.250001 1.400000 -9.050000
v -0.250001 1.400000 -9.062500
v -0.200002 1.350000 -9.050000
v -0.200001 1.400000 -9.050000
v -0.200001 1.400000 -9.062500
v -0.400002 1.350000 -9.050000
v -0.400001 1.400000 -9.050000
v -0.400001 1.400000 -9.062500
v -0.350001 1.400000 -9.050000
v -0.350001 1.400000 -9.062500
v -0.500000 1.150000 -9.050000
v -0.500000 1.150000 -9.075000
v -0.450001 1.150000 -9.050000
v -0.450000 1.350000 -9.050000
v -0.450001 1.150000 -9.062500
v -0.450001 1.350000 -9.062500
v -0.500000 1.050000 -9.050000
v -0.450001 1.050000 -9.050000
v -0.400002 1.150000 -9.050000
v -0.400002 1.150000 -9.062500
v -0.400002 1.350000 -9.062500
v -0.350002 1.150000 -9.050000
v -0.350002 1.350000 -9.050000
v -0.350002 1.150000 -9.062500
v -0.350002 1.350000 -9.062500
v -0.400002 1.050000 -9.050000
v -0.350002 1.050000 -9.050000
v -0.250002 1.150000 -9.050000
v -0.250002 1.150000 -9.062500
v -0.250002 1.350000 -9.062500
v -0.200002 1.150000 -9.050000
v -0.200002 1.150000 -9.062500
v -0.200002 1.350000 -9.062500
v -0.250002 1.050000 -9.050000
v -0.200002 1.050000 -9.050000
v -0.150003 1.150000 -9.050000
v -0.150003 1.150000 -9.062500
v -0.150003 1.350000 -9.062500
v -0.100003 1.150000 -9.050000
v -0.100003 1.150000 -9.075000
v -0.150003 1.050000 -9.050000
v -0.100003 1.050000 -9.050000
v -0.100003 1.050000 -9.075000
v -0.500000 1.050000 -9.075000
v -0.250001 1.600000 -9.050000
v -0.250001 1.600000 -9.062500
v -0.200001 1.600000 -9.062500
v -0.200001 1.600000 -9.050000
v -0.400001 1.600000 -9.050000
v -0.400001 1.600000 -9.062500
v -0.350001 1.600000 -9.062500
v -0.350001 1.600000 -9.050000
v -0.150003 1.600000 -9.050000
v -0.150003 1.600000 -9.062500
v -0.100003 1.600000 -9.075000
v -0.100003 1.600000 -9.050000
v -0.500000 1.600000 -9.050000
v -0.500000 1.600000 -9.075000
v -0.450000 1.600000 -9.062500
v -0.450000 1.600000 -9.050000
v -0.250001 1.650000 -9.050000
v -0.250001 1.650000 -9.062500
v -0.200001 1.650000 -9.062500
v -0.200001 1.650000 -9.050000
v -0.400001 1.650000 -9.050000
v -0.400001 1.650000 -9.062500
v -0.350001 1.650000 -9.062500
v -0.350001 1.650000 -9.050000
v -0.150003 1.650000 -9.050000
v -0.150003 1.650000 -9.062500
v -0.100003 1.650000 -9.075000
v -0.100003 1.650000 -9.050000
v -0.500000 1.650000 -9.050000
v -0.500000 1.650000 -9.075000
v -0.450000 1.650000 -9.062500
v -0.450000 1.650000 -9.050000
v -0.250001 1.850000 -9.050000
v -0.250001 1.850000 -9.062500
v -0.200001 1.850000 -9.062500
v -0.200001 1.850000 -9.050000
v -0.400001 1.850000 -9.050000
v -0.400001 1.850000 -9.062500
v -0.350001 1.850000 -9.062500
v -0.350001 1.850000 -9.050000
v -0.150003 1.850000 -9.050000
v -0.150003 1.850000 -9.062500
v -0.100003 1.850000 -9.075000
v -0.100003 1.850000 -9.050000
v -0.500000 1.850000 -9.050000
v -0.500000 1.850000 -9.075000
v -0.450000 1.850000 -9.062500
v -0.450000 1.850000 -9.050000
v -0.250001 1.950000 -9.050000
v -0.200001 1.950000 -9.050000
v -0.400001 1.950000 -9.050000
v -0.350001 1.950000 -9.050000
v -0.150003 1.950000 -9.050000
v -0.100003 1.950000 -9.075000
v -0.100003 1.950000 -9.050000
v -0.500000 1.950000 -9.050000
v -0.500000 1.950000 -9.075000
v -0.450000 1.950000 -9.050000
v -1.000000 1.000000 -9.000000
v 0.000000 1.000000 -9.000000
v -1.000000 2.000000 -9.000000
v 0.000000 2.000000 -9.000000
v -1.000000 1.950000 -9.000000
v -1.000000 1.050000 -9.000000
v 0.000000 1.050000 -9.000000
v 0.000000 1.950000 -9.000000
v -0.899997 1.000000 -9.000000
v -0.100000 1.000000 -9.000000
v -0.100000 2.000000 -9.000000
v -0.899997 2.000000 -9.000000
v -0.100000 1.050000 -9.000000
v -0.899997 1.050000 -9.000000
v -0.100000 1.950000 -9.000000
v -0.899997 1.950000 -9.000000
v -0.100000 1.050000 -9.075000
v -0.899997 1.050000 -9.075000
v -0.100000 1.950000 -9.075000
v -0.899997 1.950000 -9.075000
v 0.000000 1.000000 -9.000000
v 1.000000 1.000000 -9.000000
v 0.000000 2.000000 -9.000000
v 1.000000 2.000000 -9.000000
v 0.218750 1.050000 -9.000000
v 0.781250 1.050000 -9.000000
v 0.318750 1.050000 -9.300000
v 0.681250 1.050000 -9.300000
v 0.218750 1.387500 -9.000000
v 0.387500 1.612500 -9.000000
v 0.268176 1.546599 -9.000000
v 0.612500 1.612500 -9.000000
v 0.781250 1.387500 -9.000000
v 0.731824 1.546599 -9.000000
v 0.500000 1.612500 -9.075000
v 0.318750 1.387500 -9.300000
v 0.368176 1.546599 -9.234099
v 0.681250 1.387500 -9.300000
v 0.631824 1.546599 -9.234099
v 1.307992 1.648437 -8.692007
v 1.250582 1.736328 -8.749417
v 1.365402 1.648437 -8.707390
v 1.292609 1.648437 -8.634597
v 1.392046 1.648437 -8.607953
v 1.449456 1.736328 -8.550543
v 1.407429 1.648437 -8.665363
v 1.334636 1.648437 -8.592570
v 1.313622 1.736328 -8.514147
v 1.214185 1.736328 -8.613585
v 1.313622 1.912109 -8.514147
v 1.334636 2.000000 -8.592570
v 1.449456 1.912109 -8.550543
v 1.214185 1.912109 -8.613585
v 1.292609 2.000000 -8.634597
v 1.250582 1.912109 -8.749417
v 1.386415 1.912109 -8.785813
v 1.307992 2.000000 -8.692007
v 1.365402 2.000000 -8.707390
v 1.392046 2.000000 -8.607953
v 1.407429 2.000000 -8.665363
v 1.485852 1.912109 -8.686378
v 1.485852 1.736328 -8.686378
v 1.386415 1.736328 -8.785813
v 0.000000 2.725000 -9.500000
v 0.500000 2.725000 -9.500000
v 0.000000 2.515028 -9.434813
v 0.500000 2.515028 -9.434813
v 0.000000 2.327541 -9.284853
v 0.500000 2.327541 -9.284853
v 0.000000 2.175603 -9.067798
v 0.000000 2.070631 -8.799960
v 0.500000 2.175603 -9.067798
v 0.500000 2.070631 -8.799960
v 0.932202 2.175733 -9.067798
v 1.200040 2.204001 -8.799960
v 0.715147 2.327541 -9.284853
v 0.565187 2.515028 -9.434813
v 1.500000 2.357248 -8.500000
v 1.500000 2.331794 -8.500000
v 0.500000 2.023460 -8.500000
v 0.000000 2.025000 -8.500000
v 0.500000 1.998915 -8.500000
v 0.000000 2.000000 -8.500000
v 0.716101 2.175668 -9.067798
v 0.607573 2.327541 -9.284853
v 0.532594 2.515028 -9.434813
v 0.850020 2.118969 -8.799960
v 1.000000 2.105601 -8.500000
v 1.000000 2.080601 -8.500000
v -0.500000 2.725000 -9.500000
v 0.000000 2.725000 -9.500000
v -0.500000 2.023460 -8.500000
v 0.000000 2.025000 -8.500000
v -0.500000 1.998915 -8.500000
v 0.000000 2.000000 -8.500000
v 0.000000 2.515028 -9.434813
v 0.000000 2.327541 -9.284853
v 0.000000 2.175603 -9.067798
v 0.000000 2.070631 -8.799960
v -0.500000 2.070631 -8.799960
v -0.500000 2.175603 -9.067798
v -0.500000 2.327541 -9.284853
v -0.500000 2.515028 -9.434813
v -1.500000 2.357248 -8.500000
v -1.500000 2.331794 -8.500000
v -1.200040 2.204001 -8.799960
v -0.932202 2.175733 -9.067798
v -0.715147 2.327541 -9.284853
v -0.565187 2.515028 -9.434813
v -1.000000 2.105601 -8.500000
v -1.000000 2.080601 -8.500000
v -0.850020 2.118969 -8.799960
v -0.716101 2.175668 -9.067798
v -0.607574 2.327541 -9.284853
v -0.532593 2.515028 -9.434813
v -1.000000 1.000000 -11.100000
v -1.100000 1.000000 -11.100000
v -1.100000 1.000000 -11.000000
v -0.950000 1.000000 -11.150000
v -1.150000 1.000000 -11.150000
v -1.150000 1.000000 -10.950000
v -0.950000 0.900000 -11.150000
v -1.150000 0.900000 -11.150000
v -1.150000 0.900000 -10.950000
v -0.949999 1.000000 -10.950000
v -0.949999 0.900000 -10.950000
v -1.000000 1.000000 -11.000000
v -1.000000 0.900000 -11.100000
v -1.100000 0.900000 -11.100000
v -1.100000 0.900000 -11.000000
v -1.000000 0.900000 -11.000000
v -1.000000 0.000000 -11.100000
v -1.100000 0.000000 -11.100000
v -1.100000 0.000000 -11.000000
v -1.000000 0.000000 -11.000000
v -1.000000 2.000000 -11.100000
v -1.100000 2.000000 -11.100000
v -1.100000 2.000000 -11.000000
v -0.950000 2.000000 -11.150000
v -1.150000 2.000000 -11.150000
v -1.150000 2.000000 -10.950000
v -0.950000 1.900000 -11.150000
v -1.150000 1.900000 -11.150000
v -1.150000 1.900000 -10.950000
v -0.949999 2.000000 -10.950000
v -0.949999 1.900000 -10.950000
v -1.000000 2.000000 -11.000000
v -1.000000 1.900000 -11.100000
v -1.100000 1.900000 -11.100000
v -1.100000 1.900000 -11.000000
v -1.000000 1.900000 -11.000000
v -1.000000 1.000000 -11.100000
v -1.100000 1.000000 -11.100000
v -1.100000 1.000000 -11.000000
v -1.000000 1.000000 -11.000000
v -1.307992 1.648437 -11.307993
v -1.250582 1.736328 -11.250583
v -1.365402 1.648437 -11.292610
v -1.292609 1.648437 -11.365403
v -1.392046 1.648437 -11.392047
v -1.449456 1.736328 -11.449457
v -1.407429 1.648437 -11.334637
v -1.334636 1.648437 -11.407430
v -1.313622 1.736328 -11.485853
v -1.214185 1.736328 -11.386415
v -1.313622 1.912109 -11.485853
v -1.334636 2.000000 -11.407430
v -1.449456 1.912109 -11.449457
v -1.214185 1.912109 -11.386415
v -1.292609 2.000000 -11.365403
v -1.250582 1.912109 -11.250583
v -1.386415 1.912109 -11.214186
v -1.307992 2.000000 -11.307993
v -1.365402 2.000000 -11.292610
v -1.392046 2.000000 -11.392047
v -1.407429 2.000000 -11.334637
v -1.485852 1.912109 -11.313622
v -1.485852 1.736328 -11.313622
v -1.386415 1.736328 -11.214186
v 0.000000 2.725000 -10.500000
v -0.500000 2.725000 -10.500000
v 0.000000 2.515028 -10.565187
v -0.500000 2.515028 -10.565187
v 0.000000 2.327541 -10.715147
v -0.500000 2.327541 -10.715147
v 0.000000 2.175603 -10.932202
v 0.000000 2.070631 -11.200040
v -0.500000 2.175603 -10.932202
v -0.500000 2.070631 -11.200040
v -0.932202 2.175733 -10.932202
v -1.200040 2.204001 -11.200040
v -0.715147 2.327541 -10.715147
v -0.565187 2.515028 -10.565187
v -1.500000 2.357248 -11.500000
v -1.500000 2.331794 -11.500000
v -0.500000 2.023460 -11.500000
v 0.000000 2.025000 -11.500000
v -0.500000 1.998915 -11.500000
v 0.000000 2.000000 -11.500000
v -0.716101 2.175668 -10.932202
v -0.607573 2.327541 -10.715147
v -0.532594 2.515028 -10.565187
v -0.850020 2.118969 -11.200040
v -1.000000 2.105601 -11.500000
v -1.000000 2.080601 -11.500000
v 0.500000 2.725000 -10.500000
v 0.000000 2.725000 -10.500000
v 0.500000 2.023460 -11.500000
v 0.000000 2.025000 -11.500000
v 0.500000 1.998915 -11.500000
v 0.000000 2.000000 -11.500000
v 0.000000 2.515028 -10.565187
v 0.000000 2.327541 -10.715147
v 0.000000 2.175603 -10.932202
v 0.000000 2.070631 -11.200040
v 0.500000 2.070631 -11.200040
v 0.500000 2.175603 -10.932202
v 0.500000 2.327541 -10.715147
v 0.500000 2.515028 -10.565187
v 1.500000 2.357248 -11.500000
v 1.500000 2.331794 -11.500000
v 1.200040 2.204001 -11.200040
v 0.932202 2.175733 -10.932202
v 0.715147 2.327541 -10.715147
v 0.565187 2.515028 -10.565187
v 1.000000 2.105601 -11.500000
v 1.000000 2.080601 -11.500000
v 0.850020 2.118969 -11.200040
v 0.716101 2.175668 -10.932202
v 0.607574 2.327541 -10.715147
v 0.532593 2.515028 -10.565187
v -1.000001 1.000000 -11.000000
v -1.000001 1.000000 -10.000000
v -1.000001 0.100000 -11.000000
v -1.000001 0.100000 -10.000000
v -1.100001 0.100000 -11.000000
v -1.100001 0.000000 -11.000000
v -1.100001 0.000000 -10.000000
v -1.100001 0.100000 -10.000000
v -1.000001 1.000000 -10.000000
v -1.000001 1.000000 -9.000000
v -1.000001 0.100000 -10.000000
v -1.000001 0.100000 -9.000000
v -1.100001 0.100000 -10.000000
v -1.100001 0.000000 -10.000000
v -1.100001 0.000000 -9.000000
v -1.100001 0.100000 -9.000000
v -0.975001 1.350000 -10.549999
v -0.975001 1.400000 -10.549999
v -0.962501 1.400000 -10.549999
v -0.975001 1.350000 -10.499999
v -0.975001 1.400000 -10.499999
v -0.950001 1.350000 -10.499999
v -0.950001 1.400000 -10.499999
v -0.975001 1.350000 -10.899996
v -0.975001 1.400000 -10.899996
v -0.950001 1.350000 -10.899996
v -0.950001 1.400000 -10.899996
v -0.975001 1.400000 -10.849996
v -0.962501 1.400000 -10.849996
v -0.975001 1.350000 -10.649998
v -0.975001 1.400000 -10.649997
v -0.962501 1.400000 -10.649997
v -0.975001 1.350000 -10.599998
v -0.975001 1.400000 -10.599997
v -0.962501 1.400000 -10.599997
v -0.975001 1.350000 -10.799998
v -0.975001 1.400000 -10.799997
v -0.962501 1.400000 -10.799997
v -0.975001 1.400000 -10.749997
v -0.962501 1.400000 -10.749997
v -0.975001 1.150000 -10.899997
v -0.950001 1.150000 -10.899997
v -0.975001 1.150000 -10.849997
v -0.975001 1.350000 -10.849996
v -0.962501 1.150000 -10.849997
v -0.962501 1.350000 -10.849997
v -0.975001 1.050000 -10.899997
v -0.975001 1.050000 -10.849997
v -0.975001 1.150000 -10.799998
v -0.962501 1.150000 -10.799998
v -0.962501 1.350000 -10.799998
v -0.975001 1.150000 -10.749998
v -0.975001 1.350000 -10.749998
v -0.962501 1.150000 -10.749998
v -0.962501 1.350000 -10.749998
v -0.975001 1.050000 -10.799998
v -0.975001 1.050000 -10.749998
v -0.975001 1.150000 -10.649998
v -0.962501 1.150000 -10.649998
v -0.962501 1.350000 -10.649998
v -0.975001 1.150000 -10.599998
v -0.962501 1.150000 -10.599998
v -0.962501 1.350000 -10.599998
v -0.975001 1.050000 -10.649998
v -0.975001 1.050000 -10.599998
v -0.975001 1.150000 -10.550000
v -0.962501 1.150000 -10.550000
v -0.962501 1.350000 -10.550000
v -0.975001 1.150000 -10.500000
v -0.950001 1.150000 -10.500000
v -0.975001 1.050000 -10.550000
v -0.975001 1.050000 -10.500000
v -0.950001 1.050000 -10.500000
v -0.950001 1.050000 -10.899997
v -0.975001 1.600000 -10.649997
v -0.962501 1.600000 -10.649997
v -0.962501 1.600000 -10.599997
v -0.975001 1.600000 -10.599997
v -0.975001 1.600000 -10.799997
v -0.962501 1.600000 -10.799997
v -0.962501 1.600000 -10.749997
v -0.975001 1.600000 -10.749997
v -0.975001 1.600000 -10.549999
v -0.962501 1.600000 -10.549999
v -0.950001 1.600000 -10.499999
v -0.975001 1.600000 -10.499999
v -0.975001 1.600000 -10.899996
v -0.950001 1.600000 -10.899996
v -0.962501 1.600000 -10.849996
v -0.975001 1.600000 -10.849996
v -0.975001 1.650000 -10.649997
v -0.962501 1.650000 -10.649997
v -0.962501 1.650000 -10.599997
v -0.975001 1.650000 -10.599997
v -0.975001 1.650000 -10.799997
v -0.962501 1.650000 -10.799997
v -0.962501 1.650000 -10.749997
v -0.975001 1.650000 -10.749997
v -0.975001 1.650000 -10.549999
v -0.962501 1.650000 -10.549999
v -0.950001 1.650000 -10.499999
v -0.975001 1.650000 -10.499999
v -0.975001 1.650000 -10.899996
v -0.950001 1.650000 -10.899996
v -0.962501 1.650000 -10.849996
v -0.975001 1.650000 -10.849996
v -0.975001 1.850000 -10.649997
v -0.962501 1.850000 -10.649997
v -0.962501 1.850000 -10.599997
v -0.975001 1.850000 -10.599997
v -0.975001 1.850000 -10.799997
v -0.962501 1.850000 -10.799997
v -0.962501 1.850000 -10.749997
v -0.975001 1.850000 -10.749997
v -0.975001 1.850000 -10.549999
v -0.962501 1.850000 -10.549999
v -0.950001 1.850000 -10.499999
v -0.975001 1.850000 -10.499999
v -0.975001 1.850000 -10.899996
v -0.950001 1.850000 -10.899996
v -0.962501 1.850000 -10.849996
v -0.975001 1.850000 -10.849996
v -0.975001 1.950000 -10.649997
v -0.975001 1.950000 -10.599997
v -0.975001 1.950000 -10.799997
v -0.975001 1.950000 -10.749997
v -0.975001 1.950000 -10.549999
v -0.950001 1.950000 -10.499999
v -0.975001 1.950000 -10.499999
v -0.975001 1.950000 -10.899996
v -0.950001 1.950000 -10.899996
v -0.975001 1.950000 -10.849996
v -0.950001 1.350000 -10.150002
v -0.950001 1.400000 -10.150002
v -0.937501 1.400000 -10.150002
v -0.950001 1.350000 -10.100003
v -0.950001 1.400000 -10.100003
v -0.925001 1.350000 -10.100003
v -0.925001 1.400000 -10.100003
v -0.950001 1.350000 -10.500000
v -0.950001 1.400000 -10.500000
v -0.925001 1.350000 -10.500000
v -0.925001 1.400000 -10.500000
v -0.950001 1.400000 -10.450000
v -0.937501 1.400000 -10.450000
v -0.950001 1.350000 -10.250002
v -0.950001 1.400000 -10.250001
v -0.937501 1.400000 -10.250001
v -0.950001 1.350000 -10.200002
v -0.950001 1.400000 -10.200001
v -0.937501 1.400000 -10.200001
v -0.950001 1.350000 -10.400002
v -0.950001 1.400000 -10.400001
v -0.937501 1.400000 -10.400001
v -0.950001 1.400000 -10.350001
v -0.937501 1.400000 -10.350001
v -0.950001 1.150000 -10.500000
v -0.925001 1.150000 -10.500000
v -0.950001 1.150000 -10.450000
v -0.950001 1.350000 -10.450000
v -0.937501 1.150000 -10.450000
v -0.937501 1.350000 -10.450000
v -0.950001 1.050000 -10.500000
v -0.950001 1.050000 -10.450000
v -0.950001 1.150000 -10.400002
v -0.937501 1.150000 -10.400002
v -0.937501 1.350000 -10.400002
v -0.950001 1.150000 -10.350002
v -0.950001 1.350000 -10.350002
v -0.937501 1.150000 -10.350002
v -0.937501 1.350000 -10.350002
v -0.950001 1.050000 -10.400002
v -0.950001 1.050000 -10.350002
v -0.950001 1.150000 -10.250002
v -0.937501 1.150000 -10.250002
v -0.937501 1.350000 -10.250002
v -0.950001 1.150000 -10.200002
v -0.937501 1.150000 -10.200002
v -0.937501 1.350000 -10.200002
v -0.950001 1.050000 -10.250002
v -0.950001 1.050000 -10.200002
v -0.950001 1.150000 -10.150002
v -0.937501 1.150000 -10.150002
v -0.937501 1.350000 -10.150002
v -0.950001 1.150000 -10.100003
v -0.925001 1.150000 -10.100003
v -0.950001 1.050000 -10.150002
v -0.950001 1.050000 -10.100003
v -0.925001 1.050000 -10.100003
v -0.925001 1.050000 -10.500000
v -0.950001 1.600000 -10.250001
v -0.937501 1.600000 -10.250001
v -0.937501 1.600000 -10.200001
v -0.950001 1.600000 -10.200001
v -0.950001 1.600000 -10.400001
v -0.937501 1.600000 -10.400001
v -0.937501 1.600000 -10.350001
v -0.950001 1.600000 -10.350001
v -0.950001 1.600000 -10.150002
v -0.937501 1.600000 -10.150002
v -0.925001 1.600000 -10.100003
v -0.950001 1.600000 -10.100003
v -0.950001 1.600000 -10.500000
v -0.925001 1.600000 -10.500000
v -0.937501 1.600000 -10.450000
v -0.950001 1.600000 -10.450000
v -0.950001 1.650000 -10.250001
v -0.937501 1.650000 -10.250001
v -0.937501 1.650000 -10.200001
v -0.950001 1.650000 -10.200001
v -0.950001 1.650000 -10.400001
v -0.937501 1.650000 -10.400001
v -0.937501 1.650000 -10.350001
v -0.950001 1.650000 -10.350001
v -0.950001 1.650000 -10.150002
v -0.937501 1.650000 -10.150002
v -0.925001 1.650000 -10.100003
v -0.950001 1.650000 -10.100003
v -0.950001 1.650000 -10.500000
v -0.925001 1.650000 -10.500000
v -0.937501 1.650000 -10.450000
v -0.950001 1.650000 -10.450000
v -0.950001 1.850000 -10.250001
v -0.937501 1.850000 -10.250001
v -0.937501 1.850000 -10.200001
v -0.950001 1.850000 -10.200001
v -0.950001 1.850000 -10.400001
v -0.937501 1.850000 -10.400001
v -0.937501 1.850000 -10.350001
v -0.950001 1.850000 -10.350001
v -0.950001 1.850000 -10.150002
v -0.937501 1.850000 -10.150002
v -0.925001 1.850000 -10.100003
v -0.950001 1.850000 -10.100003
v -0.950001 1.850000 -10.500000
v -0.925001 1.850000 -10.500000
v -0.937501 1.850000 -10.450000
v -0.950001 1.850000 -10.450000
v -0.950001 1.950000 -10.250001
v -0.950001 1.950000 -10.200001
v -0.950001 1.950000 -10.400001
v -0.950001 1.950000 -10.350001
v -0.950001 1.950000 -10.150002
v -0.925001 1.950000 -10.100003
v -0.950001 1.950000 -10.100003
v -0.950001 1.950000 -10.500000
v -0.925001 1.950000 -10.500000
v -0.950001 1.950000 -10.450000
v -1.000001 1.000000 -11.000000
v -1.000001 1.000000 -10.000000
v -1.000001 2.000000 -11.000000
v -1.000001 2.000000 -10.000000
v -1.000001 1.950000 -11.000000
v -1.000001 1.050000 -11.000000
v -1.000001 1.050000 -10.000000
v -1.000001 1.950000 -10.000000
v -1.000001 1.000000 -10.899997
v -1.000001 1.000000 -10.100000
v -1.000001 2.000000 -10.100000
v -1.000001 2.000000 -10.899997
v -1.000001 1.050000 -10.100000
v -1.000001 1.050000 -10.899997
v -1.000001 1.950000 -10.100000
v -1.000001 1.950000 -10.899997
v -0.925001 1.050000 -10.100000
v -0.925001 1.050000 -10.899997
v -0.925001 1.950000 -10.100000
v -0.925001 1.950000 -10.899997
v -1.000001 1.000000 -10.000000
v -1.000001 1.000000 -9.000000
v -1.000001 2.000000 -10.000000
v -1.000001 2.000000 -9.000000
v -1.307994 1.648437 -8.692008
v -1.250584 1.736328 -8.749418
v -1.292611 1.648437 -8.634598
v -1.365404 1.648437 -8.707391
v -1.392048 1.648437 -8.607954
v -1.449458 1.736328 -8.550544
v -1.334638 1.648437 -8.592571
v -1.407431 1.648437 -8.665364
v -1.485854 1.736328 -8.686378
v -1.386417 1.736328 -8.785815
v -1.485854 1.912109 -8.686378
v -1.407431 2.000000 -8.665364
v -1.449458 1.912109 -8.550544
v -1.386417 1.912109 -8.785815
v -1.365404 2.000000 -8.707391
v -1.250584 1.912109 -8.749418
v -1.214188 1.912109 -8.613585
v -1.307994 2.000000 -8.692008
v -1.292611 2.000000 -8.634598
v -1.392048 2.000000 -8.607954
v -1.334638 2.000000 -8.592571
v -1.313625 1.912109 -8.514148
v -1.313625 1.736328 -8.514148
v -1.214188 1.736328 -8.613585
v -0.500001 2.725000 -10.000000
v -0.500001 2.725000 -9.500000
v -0.565188 2.515028 -10.000000
v -0.565188 2.515028 -9.500000
v -0.715148 2.327541 -10.000000
v -0.715148 2.327541 -9.500000
v -0.932203 2.175603 -10.000000
v -1.200041 2.070631 -10.000000
v -0.932203 2.175603 -9.500000
v -1.200041 2.070631 -9.500000
v -0.932203 2.175733 -9.067798
v -1.200041 2.204001 -8.799960
v -0.715148 2.327541 -9.284853
v -0.565188 2.515028 -9.434813
v -1.500001 2.357248 -8.500000
v -1.500001 2.331794 -8.500000
v -1.500001 2.023460 -9.500000
v -1.500001 2.025000 -10.000000
v -1.500001 1.998915 -9.500000
v -1.500001 2.000000 -10.000000
v -0.932203 2.175668 -9.283899
v -0.715148 2.327541 -9.392426
v -0.565188 2.515028 -9.467406
v -1.200041 2.118969 -9.149980
v -1.500001 2.105601 -9.000000
v -1.500001 2.080601 -9.000000
v -1.100001 1.000000 -9.000000
v -1.100001 1.000000 -8.900000
v -1.000001 1.000000 -8.900000
v -1.150001 1.000000 -9.050000
v -1.150001 1.000000 -8.850000
v -0.950001 1.000000 -8.850000
v -1.150001 0.900000 -9.050000
v -1.150001 0.900000 -8.850000
v -0.950001 0.900000 -8.850000
v -0.950001 1.000000 -9.050001
v -0.950001 0.900000 -9.050001
v -1.000001 1.000000 -9.000000
v -1.100001 0.900000 -9.000000
v -1.100001 0.900000 -8.900000
v -1.000001 0.900000 -8.900000
v -1.000001 0.900000 -9.000000
v -1.100001 0.000000 -9.000000
v -1.100001 0.000000 -8.900000
v -1.000001 0.000000 -8.900000
v -1.000001 0.000000 -9.000000
v -1.100001 2.000000 -9.000000
v -1.100001 2.000000 -8.900000
v -1.000001 2.000000 -8.900000
v -1.150001 2.000000 -9.050000
v -1.150001 2.000000 -8.850000
v -0.950001 2.000000 -8.850000
v -1.150001 1.900000 -9.050000
v -1.150001 1.900000 -8.850000
v -0.950001 1.900000 -8.850000
v -0.950001 2.000000 -9.050001
v -0.950001 1.900000 -9.050001
v -1.000001 2.000000 -9.000000
v -1.100001 1.900000 -9.000000
v -1.100001 1.900000 -8.900000
v -1.000001 1.900000 -8.900000
v -1.000001 1.900000 -9.000000
v -1.100001 1.000000 -9.000000
v -1.100001 1.000000 -8.900000
v -1.000001 1.000000 -8.900000
v -1.000001 1.000000 -9.000000
v -0.500001 2.725000 -10.500000
v -0.500001 2.725000 -10.000000
v -1.500001 2.023460 -10.500000
v -1.500001 2.025000 -10.000000
v -1.500001 1.998915 -10.500000
v -1.500001 2.000000 -10.000000
v -0.565188 2.515028 -10.000000
v -0.715148 2.327541 -10.000000
v -0.932203 2.175603 -10.000000
v -1.200041 2.070631 -10.000000
v -1.200041 2.070631 -10.500000
v -0.932203 2.175603 -10.500000
v -0.715148 2.327541 -10.500000
v -0.565188 2.515028 -10.500000
v -1.500001 2.357248 -11.500000
v -1.500001 2.331794 -11.500000
v -1.200041 2.204001 -11.200040
v -0.932203 2.175733 -10.932202
v -0.715148 2.327541 -10.715147
v -0.565188 2.515028 -10.565187
v -1.500001 2.105601 -11.000000
v -1.500001 2.080601 -11.000000
v -1.200041 2.118969 -10.850019
v -0.932203 2.175668 -10.716101
v -0.715148 2.327541 -10.607574
v -0.565188 2.515028 -10.532593
v 1.307993 1.648437 -11.307992
v 1.250583 1.736328 -11.250582
v 1.292610 1.648437 -11.365402
v 1.365403 1.648437 -11.292609
v 1.392047 1.648437 -11.392046
v 1.449457 1.736328 -11.449456
v 1.334637 1.648437 -11.407429
v 1.407430 1.648437 -11.334636
v 1.485853 1.736328 -11.313622
v 1.386416 1.736328 -11.214185
v 1.485853 1.912109 -11.313622
v 1.407430 2.000000 -11.334636
v 1.449457 1.912109 -11.449456
v 1.386416 1.912109 -11.214185
v 1.365403 2.000000 -11.292609
v 1.250583 1.912109 -11.250582
v 1.214186 1.912109 -11.386415
v 1.307993 2.000000 -11.307992
v 1.292610 2.000000 -11.365402
v 1.392047 2.000000 -11.392046
v 1.334637 2.000000 -11.407429
v 1.313623 1.912109 -11.485852
v 1.313623 1.736328 -11.485852
v 1.214186 1.736328 -11.386415
v 0.500000 2.725000 -10.000000
v 0.500000 2.725000 -10.500000
v 0.565187 2.515028 -10.000000
v 0.565187 2.515028 -10.500000
v 0.715147 2.327541 -10.000000
v 0.715147 2.327541 -10.500000
v 0.932202 2.175603 -10.000000
v 1.200040 2.070631 -10.000000
v 0.932202 2.175603 -10.500000
v 1.200040 2.070631 -10.500000
v 0.932202 2.175733 -10.932202
v 1.200040 2.204001 -11.200040
v 0.715147 2.327541 -10.715147
v 0.565187 2.515028 -10.565187
v 1.500000 2.357248 -11.500000
v 1.500000 2.331794 -11.500000
v 1.500000 2.023460 -10.500000
v 1.500000 2.025000 -10.000000
v 1.500000 1.998915 -10.500000
v 1.500000 2.000000 -10.000000
v 0.932202 2.175668 -10.716101
v 0.715147 2.327541 -10.607574
v 0.565187 2.515028 -10.532594
v 1.200040 2.118969 -10.850020
v 1.500000 2.105601 -11.000000
v 1.500000 2.080601 -11.000000
v 0.500000 2.725000 -9.500000
v 0.500000 2.725000 -10.000000
v 1.500000 2.023460 -9.500000
v 1.500000 2.025000 -10.000000
v 1.500000 1.998915 -9.500000
v 1.500000 2.000000 -10.000000
v 0.565187 2.515028 -10.000000
v 0.715147 2.327541 -10.000000
v 0.932202 2.175603 -10.000000
v 1.200040 2.070631 -10.000000
v 1.200040 2.070631 -9.500000
v 0.932202 2.175603 -9.500000
v 0.715147 2.327541 -9.500000
v 0.565187 2.515028 -9.500000
v 1.500000 2.357248 -8.500000
v 1.500000 2.331794 -8.500000
v 1.200040 2.204001 -8.799960
v 0.932202 2.175733 -9.067798
v 0.715147 2.327541 -9.284853
v 0.565187 2.515028 -9.434813
v 1.500000 2.105601 -9.000000
v 1.500000 2.080601 -9.000000
v 1.200040 2.118969 -9.149981
v 0.932202 2.175668 -9.283899
v 0.715147 2.327541 -9.392426
v 0.565187 2.515028 -9.467407
vn -0.0000 1.0000 -0.0000
vn 1.0000 -0.0000 -0.0000
vn -0.0000 -0.0000 1.0000
vn -1.0000 -0.0000 -0.0000
vn -0.0000 -0.0000 -1.0000
vn -0.0000 -1.0000 -0.0000
vn -0.0000 -0.9239 0.3827
vn -0.0000 -0.3827 0.9239
vn 0.8801 -0.3417 0.3296
vn 0.3342 -0.9141 0.2297
vn -0.8801 -0.3417 0.3296
vn -0.3342 -0.9141 0.2297
vn 0.9487 -0.0000 0.3162
vn -0.9487 -0.0000 0.3162
vn -0.7543 -0.6247 -0.2021
vn -0.2021 -0.6247 -0.7543
vn 0.2021 -0.6247 0.7543
vn 0.7543 -0.6247 0.2021
vn -0.5522 -0.6247 0.5522
vn 0.2588 -0.0000 0.9659
vn -0.7071 -0.0000 0.7071
vn -0.5522 0.6247 0.5522
vn 0.2021 0.6247 0.7543
vn -0.7543 0.6247 -0.2021
vn -0.9659 -0.0000 -0.2588
vn -0.2588 -0.0000 -0.9659
vn -0.2021 0.6247 -0.7543
vn 0.7543 0.6247 0.2021
vn 0.5522 0.6247 -0.5522
vn 0.7071 -0.0000 -0.7071
vn 0.9659 -0.0000 0.2588
vn 0.5522 -0.6247 -0.5522
vn -0.0000 0.2965 0.9550
vn -0.0000 0.6246 0.7809
vn -0.0000 0.8192 0.5735
vn -0.0000 0.9310 0.3649
vn -0.1467 0.9759 0.1618
vn -0.0002 0.8193 0.5733
vn -0.3676 0.9281 0.0593
vn 0.0015 0.9882 0.1529
vn -0.1503 0.9792 0.1364
vn -0.0002 0.8193 0.5734
vn -0.0811 0.9484 0.3065
vn -0.0015 0.9882 0.1529
vn 0.1503 0.9792 0.1364
vn 0.0811 0.9484 0.3065
vn 0.0002 0.8193 0.5734
vn 0.0002 0.8193 0.5733
vn 0.1467 0.9759 0.1618
vn 0.3676 0.9281 0.0593
vn -0.0000 0.2965 -0.9550
vn -0.0000 0.6246 -0.7809
vn -0.0000 0.8192 -0.5735
vn -0.0000 0.9310 -0.3649
vn 0.1467 0.9759 -0.1618
vn 0.0002 0.8193 -0.5733
vn 0.3676 0.9281 -0.0593
vn -0.0015 0.9882 -0.1529
vn 0.1503 0.9792 -0.1364
vn 0.0002 0.8193 -0.5734
vn 0.0811 0.9484 -0.3065
vn 0.0015 0.9882 -0.1529
vn -0.1503 0.9792 -0.1364
vn -0.0811 0.9484 -0.3065
vn -0.0002 0.8193 -0.5734
vn -0.0002 0.8193 -0.5733
vn -0.1467 0.9759 -0.1618
vn -0.3676 0.9281 -0.0593
vn 0.2021 -0.6247 -0.7543
vn 0.7543 -0.6247 -0.2021
vn -0.7543 -0.6247 0.2021
vn -0.2021 -0.6247 0.7543
vn -0.5522 -0.6247 -0.5522
vn -0.9659 -0.0000 0.2588
vn -0.7071 -0.0000 -0.7071
vn -0.5522 0.6247 -0.5522
vn -0.7543 0.6247 0.2021
vn 0.2021 0.6247 -0.7543
vn 0.2588 -0.0000 -0.9659
vn 0.9659 -0.0000 -0.2588
vn 0.7543 0.6247 -0.2021
vn -0.2021 0.6247 0.7543
vn 0.5522 0.6247 0.5522
vn 0.7071 -0.0000 0.7071
vn -0.2588 -0.0000 0.9659
vn 0.5522 -0.6247 0.5522
vn -0.9550 0.2965 -0.0000
vn -0.7809 0.6246 -0.0000
vn -0.5735 0.8192 -0.0000
vn -0.3649 0.9310 -0.0000
vn -0.1618 0.9759 -0.1467
vn -0.5733 0.8193 -0.0002
vn -0.0593 0.9281 -0.3676
vn -0.1529 0.9882 0.0015
vn -0.1364 0.9792 -0.1503
vn -0.5734 0.8193 -0.0002
vn -0.3065 0.9484 -0.0811
vn -0.1529 0.9882 -0.0015
vn -0.1364 0.9792 0.1503
vn -0.3065 0.9484 0.0811
vn -0.5734 0.8193 0.0002
vn -0.5733 0.8193 0.0002
vn -0.1618 0.9759 0.1467
vn -0.0593 0.9281 0.3676
vn 0.9550 0.2965 -0.0000
vn 0.7809 0.6246 -0.0000
vn 0.5735 0.8192 -0.0000
vn 0.3649 0.9310 -0.0000
vn 0.1618 0.9759 0.1467
vn 0.5733 0.8193 0.0002
vn 0.0593 0.9281 0.3676
vn 0.1529 0.9882 -0.0015
vn 0.1364 0.9792 0.1503
vn 0.5734 0.8193 0.0002
vn 0.3065 0.9484 0.0811
vn 0.1529 0.9882 0.0015
vn 0.1364 0.9792 -0.1503
vn 0.3065 0.9484 -0.0811
vn 0.5734 0.8193 -0.0002
vn 0.5733 0.8193 -0.0002
vn 0.1618 0.9759 -0.1467
vn 0.0593 0.9281 -0.3676
vt 1.000000 0.000000
vt 0.000000 0.000000
vt 0.000000 0.500000
vt 1.000000 0.500000
vt 1.000000 1.000000
vt 0.000000 1.000000
vt 0.375000 0.500000
vt 0.625000 0.500000
vt 0.625000 0.750000
vt 0.375000 0.750000
vt 0.625000 1.000000
vt 0.375000 1.000000
vt 0.375000 0.000000
vt 0.625000 0.000000
vt 0.625000 0.250000
vt 0.375000 0.250000
vt 0.875000 0.500000
vt 0.875000 0.750000
vt 0.125000 0.500000
vt 0.125000 0.750000
vt 0.666667 0.666667
vt 1.000000 0.666667
vt 0.666667 1.000000
vt 0.666667 0.000000
vt 1.000000 0.333333
vt 0.666667 0.333333
vt 0.000000 0.333333
vt 0.333333 0.333333
vt 0.333333 0.666667
vt 0.000000 0.666667
vt 0.333333 0.000000
vt 0.333333 1.000000
vt 0.000000 0.700000
vt 0.000000 0.912132
vt 0.700000 1.000000
vt 0.912132 1.000000
vt 0.300000 1.000000
vt 0.043934 1.000000
vt 0.956066 1.000000
vt 1.000000 0.700000
vt 0.542154 0.370000
vt 0.750000 0.490000
vt 0.750000 0.351436
vt 0.662154 0.300718
vt 0.957846 0.370000
vt 0.837846 0.300718
vt 0.750000 0.148564
vt 0.837846 0.199282
vt 0.662154 0.199282
vt 0.750000 0.010000
vt 0.542154 0.130000
vt 0.957846 0.130000
vt 0.500000 0.625000
vt 0.500000 0.875000
vt 0.333333 0.875000
vt 0.333333 0.625000
vt 0.166667 0.875000
vt 0.166667 0.625000
vt 0.042154 0.370000
vt 0.042154 0.130000
vt 0.162154 0.199282
vt 0.162154 0.300718
vt 0.250000 0.010000
vt 0.250000 0.148564
vt 0.250000 0.490000
vt 0.250000 0.351436
vt -0.000000 0.875000
vt -0.000000 0.625000
vt 1.000000 0.625000
vt 1.000000 0.875000
vt 0.833333 0.875000
vt 0.833333 0.625000
vt 0.457846 0.370000
vt 0.337846 0.300718
vt 0.337846 0.199282
vt 0.457846 0.130000
vt 0.666667 0.875000
vt 0.666667 0.625000
vt 0.000000 0.994649
vt 1.000000 0.994649
vt 0.000000 0.969201
vt 1.000000 0.969201
vt 0.000000 0.530799
vt 1.000000 0.530799
vt 0.000000 0.505351
vt 1.000000 0.505351
vt 0.500000 0.516297
vt 1.000000 0.516297
vt 1.000000 0.553787
vt 0.500000 0.553787
vt 1.000000 0.946213
vt 0.500000 0.946213
vt 1.000000 0.983703
vt 0.500000 0.983703
vt 0.000000 0.983703
vt 0.500000 0.500000
vt 0.000000 0.516297
vt 0.000000 0.946213
vt 0.000000 0.553787
s 1
f 11/1/1 10/1/1 13/1/1 14/1/1
f 12/1/1 11/1/1 14/1/1 15/1/1
f 15/1/2 14/1/2 17/1/2 18/1/2
f 14/1/3 13/1/3 16/1/3 17/1/3
f 16/1/4 13/1/4 19/1/4 20/1/4
f 15/1/5 18/1/5 20/1/5 19/1/5
f 21/2/1 10/1/1 11/1/1 12/1/1
f 15/1/1 19/1/1 21/2/1 12/1/1
f 13/1/1 10/1/1 21/2/1 19/1/1
f 17/1/6 16/1/6 22/1/6 23/1/6
f 24/1/2 23/1/2 27/1/2 28/1/2
f 20/1/6 18/1/6 24/1/6 25/1/6
f 18/1/6 17/1/6 23/1/6 24/1/6
f 16/1/6 20/1/6 25/1/6 22/1/6
f 22/1/4 25/1/4 29/1/4 26/1/4
f 23/1/3 22/1/3 26/1/3 27/1/3
f 25/1/5 24/1/5 28/1/5 29/1/5
f 31/1/1 30/1/1 33/1/1 34/1/1
f 32/1/1 31/1/1 34/1/1 35/1/1
f 35/1/2 34/1/2 37/1/2 38/1/2
f 34/1/3 33/1/3 36/1/3 37/1/3
f 36/1/4 33/1/4 39/1/4 40/1/4
f 35/1/5 38/1/5 40/1/5 39/1/5
f 41/2/1 30/1/1 31/1/1 32/1/1
f 35/1/1 39/1/1 41/2/1 32/1/1
f 33/1/1 30/1/1 41/2/1 39/1/1
f 37/1/6 36/1/6 42/1/6 43/1/6
f 44/1/2 43/1/2 47/1/2 48/1/2
f 40/1/6 38/1/6 44/1/6 45/1/6
f 38/1/6 37/1/6 43/1/6 44/1/6
f 36/1/6 40/1/6 45/1/6 42/1/6
f 42/1/4 45/1/4 49/1/4 46/1/4
f 43/1/3 42/1/3 46/1/3 47/1/3
f 45/1/5 44/1/5 48/1/5 49/1/5
f 52/3/3 53/4/3 51/5/3 50/6/3
f 55/2/3 56/1/3 57/4/3 54/3/3
f 53/4/1 52/3/1 54/3/1 57/4/1
f 60/3/3 61/4/3 59/5/3 58/6/3
f 63/2/3 64/1/3 65/4/3 62/3/3
f 61/4/1 60/3/1 62/3/1 65/4/1
f 71/7/2 72/8/2 70/9/2 69/10/2
f 69/10/3 70/9/3 67/11/3 66/12/3
f 74/11/3 77/9/3 139/9/3 136/11/3
f 73/13/4 74/14/4 76/15/4 75/16/4
f 93/10/3 77/9/3 74/11/3 73/12/3
f 67/11/3 70/9/3 135/9/3 132/11/3
f 82/10/3 83/9/3 80/11/3 79/12/3
f 81/17/4 80/18/4 124/18/4 125/17/4
f 102/10/3 88/9/3 86/11/3 85/12/3
f 83/9/2 84/8/2 126/8/2 127/9/2
f 90/13/4 73/14/4 75/15/4 91/16/4
f 94/7/2 95/8/2 93/9/2 92/10/2
f 92/10/3 93/9/3 73/11/3 90/12/3
f 90/12/3 96/12/3 97/10/3 92/10/3
f 98/13/4 85/14/4 100/15/4 99/16/4
f 103/7/2 104/8/2 102/9/2 101/10/2
f 101/10/3 102/9/3 85/11/3 98/12/3
f 99/19/6 103/7/6 101/10/6 98/20/6
f 98/12/3 105/12/3 106/10/3 101/10/3
f 107/13/4 79/14/4 109/15/4 108/16/4
f 111/7/2 112/8/2 82/9/2 110/10/2
f 110/10/3 82/9/3 79/11/3 107/12/3
f 108/19/6 111/7/6 110/10/6 107/20/6
f 107/12/3 113/12/3 114/10/3 110/10/3
f 115/13/4 66/14/4 117/15/4 116/16/4
f 119/7/2 71/8/2 69/9/2 118/10/2
f 118/10/3 69/9/3 66/11/3 115/12/3
f 115/12/3 120/12/3 121/10/3 118/10/3
f 92/10/1 98/13/1 99/16/1 94/7/1
f 101/10/1 107/13/1 108/16/1 103/7/1
f 110/10/1 115/13/1 116/16/1 111/7/1
f 110/10/3 114/10/3 120/12/3 115/13/3
f 123/2/4 96/2/4 90/2/4 91/2/4
f 92/10/3 97/10/3 105/12/3 98/13/3
f 101/10/3 106/10/3 113/12/3 107/13/3
f 121/2/2 122/2/2 119/2/2 118/2/2
f 78/8/1 77/9/1 86/18/1 87/17/1
f 80/18/1 81/17/1 89/8/1 88/9/1
f 67/18/1 68/17/1 84/8/1 83/9/1
f 85/14/3 86/18/3 77/9/3 93/9/3
f 79/12/3 80/18/3 88/9/3 102/10/3
f 66/12/3 67/18/3 83/9/3 82/10/3
f 136/11/3 139/9/3 155/9/3 152/11/3
f 88/9/2 89/8/2 130/8/2 131/9/2
f 87/17/4 86/18/4 128/18/4 129/17/4
f 80/11/3 83/9/3 127/9/3 124/11/3
f 86/11/3 88/9/3 131/9/3 128/11/3
f 128/11/3 131/9/3 147/9/3 144/11/3
f 76/15/4 74/14/4 136/14/4 137/15/4
f 70/9/2 72/8/2 134/8/2 135/9/2
f 77/9/2 78/8/2 138/8/2 139/9/2
f 68/17/4 67/18/4 132/18/4 133/17/4
f 153/15/4 152/14/4 168/14/4 169/15/4
f 145/17/4 144/18/4 160/18/4 161/17/4
f 124/11/3 127/9/3 143/9/3 140/11/3
f 135/9/2 134/8/2 150/8/2 151/9/2
f 132/11/3 135/9/3 151/9/3 148/11/3
f 137/15/4 136/14/4 152/14/4 153/15/4
f 169/15/4 168/14/4 179/14/4 180/15/4
f 164/11/3 176/18/3 173/9/3 159/9/3
f 164/11/3 167/9/3 178/9/3 176/11/3
f 147/9/2 146/8/2 162/8/2 163/9/2
f 155/9/2 154/8/2 170/8/2 171/9/2
f 144/11/3 147/9/3 163/9/3 160/11/3
f 141/17/4 140/18/4 156/18/4 157/17/4
f 152/11/3 155/9/3 171/9/3 168/11/3
f 149/17/4 148/18/4 164/18/4 165/17/4
f 132/11/3 148/18/3 143/9/3 127/9/3
f 143/9/2 142/8/2 158/8/2 159/9/2
f 151/9/2 150/8/2 166/8/2 167/9/2
f 140/11/3 143/9/3 159/9/3 156/11/3
f 148/11/3 151/9/3 167/9/3 164/11/3
f 142/8/1 143/9/1 148/18/1 149/17/1
f 163/9/3 156/11/3 172/18/3 175/9/3
f 160/11/3 163/9/3 175/9/3 174/11/3
f 168/11/3 171/9/3 181/9/3 179/11/3
f 160/11/3 174/18/3 181/9/3 171/9/3
f 140/18/1 141/17/1 146/8/1 147/9/1
f 144/18/1 145/17/1 154/8/1 155/9/1
f 167/9/2 166/8/2 177/8/2 178/9/2
f 156/11/3 159/9/3 173/9/3 172/11/3
f 147/9/3 131/9/3 124/11/3 140/18/3
f 128/11/3 144/18/3 155/9/3 139/9/3
f 78/8/3 87/17/3 129/17/3 138/8/3
f 89/8/3 81/17/3 125/17/3 130/8/3
f 68/17/3 133/17/3 126/8/3 84/8/3
f 154/8/3 145/17/3 161/17/3 170/8/3
f 142/8/3 149/17/3 165/17/3 158/8/3
f 141/17/3 157/17/3 162/8/3 146/8/3
f 103/7/3 108/16/3 109/15/3 104/8/3
f 111/7/3 116/16/3 117/15/3 112/8/3
f 94/7/3 99/16/3 100/15/3 95/8/3
f 187/7/2 188/8/2 186/9/2 185/10/2
f 185/10/3 186/9/3 183/11/3 182/12/3
f 190/11/3 193/9/3 255/9/3 252/11/3
f 189/13/4 190/14/4 192/15/4 191/16/4
f 209/10/3 193/9/3 190/11/3 189/12/3
f 183/11/3 186/9/3 251/9/3 248/11/3
f 198/10/3 199/9/3 196/11/3 195/12/3
f 197/17/4 196/18/4 240/18/4 241/17/4
f 218/10/3 204/9/3 202/11/3 201/12/3
f 199/9/2 200/8/2 242/8/2 243/9/2
f 206/13/4 189/14/4 191/15/4 207/16/4
f 210/7/2 211/8/2 209/9/2 208/10/2
f 208/10/3 209/9/3 189/11/3 206/12/3
f 206/12/3 212/12/3 213/10/3 208/10/3
f 214/13/4 201/14/4 216/15/4 215/16/4
f 219/7/2 220/8/2 218/9/2 217/10/2
f 217/10/3 218/9/3 201/11/3 214/12/3
f 215/19/6 219/7/6 217/10/6 214/20/6
f 214/12/3 221/12/3 222/10/3 217/10/3
f 223/13/4 195/14/4 225/15/4 224/16/4
f 227/7/2 228/8/2 198/9/2 226/10/2
f 226/10/3 198/9/3 195/11/3 223/12/3
f 224/19/6 227/7/6 226/10/6 223/20/6
f 223/12/3 229/12/3 230/10/3 226/10/3
f 231/13/4 182/14/4 233/15/4 232/16/4
f 235/7/2 187/8/2 185/9/2 234/10/2
f 234/10/3 185/9/3 182/11/3 231/12/3
f 231/12/3 236/12/3 237/10/3 234/10/3
f 208/10/1 214/13/1 215/16/1 210/7/1
f 217/10/1 223/13/1 224/16/1 219/7/1
f 226/10/1 231/13/1 232/16/1 227/7/1
f 226/10/3 230/10/3 236/12/3 231/13/3
f 239/2/4 212/2/4 206/2/4 207/2/4
f 208/10/3 213/10/3 221/12/3 214/13/3
f 217/10/3 222/10/3 229/12/3 223/13/3
f 237/2/2 238/2/2 235/2/2 234/2/2
f 194/8/1 193/9/1 202/18/1 203/17/1
f 196/18/1 197/17/1 205/8/1 204/9/1
f 183/18/1 184/17/1 200/8/1 199/9/1
f 201/14/3 202/18/3 193/9/3 209/9/3
f 195/12/3 196/18/3 204/9/3 218/10/3
f 182/12/3 183/18/3 199/9/3 198/10/3
f 252/11/3 255/9/3 271/9/3 268/11/3
f 204/9/2 205/8/2 246/8/2 247/9/2
f 203/17/4 202/18/4 244/18/4 245/17/4
f 196/11/3 199/9/3 243/9/3 240/11/3
f 202/11/3 204/9/3 247/9/3 244/11/3
f 244/11/3 247/9/3 263/9/3 260/11/3
f 192/15/4 190/14/4 252/14/4 253/15/4
f 186/9/2 188/8/2 250/8/2 251/9/2
f 193/9/2 194/8/2 254/8/2 255/9/2
f 184/17/4 183/18/4 248/18/4 249/17/4
f 269/15/4 268/14/4 284/14/4 285/15/4
f 261/17/4 260/18/4 276/18/4 277/17/4
f 240/11/3 243/9/3 259/9/3 256/11/3
f 251/9/2 250/8/2 266/8/2 267/9/2
f 248/11/3 251/9/3 267/9/3 264/11/3
f 253/15/4 252/14/4 268/14/4 269/15/4
f 285/15/4 284/14/4 295/14/4 296/15/4
f 280/11/3 292/18/3 289/9/3 275/9/3
f 280/11/3 283/9/3 294/9/3 292/11/3
f 263/9/2 262/8/2 278/8/2 279/9/2
f 271/9/2 270/8/2 286/8/2 287/9/2
f 260/11/3 263/9/3 279/9/3 276/11/3
f 257/17/4 256/18/4 272/18/4 273/17/4
f 268/11/3 271/9/3 287/9/3 284/11/3
f 265/17/4 264/18/4 280/18/4 281/17/4
f 248/11/3 264/18/3 259/9/3 243/9/3
f 259/9/2 258/8/2 274/8/2 275/9/2
f 267/9/2 266/8/2 282/8/2 283/9/2
f 256/11/3 259/9/3 275/9/3 272/11/3
f 264/11/3 267/9/3 283/9/3 280/11/3
f 258/8/1 259/9/1 264/18/1 265/17/1
f 279/9/3 272/11/3 288/18/3 291/9/3
f 276/11/3 279/9/3 291/9/3 290/11/3
f 284/11/3 287/9/3 297/9/3 295/11/3
f 276/11/3 290/18/3 297/9/3 287/9/3
f 256/18/1 257/17/1 262/8/1 263/9/1
f 260/18/1 261/17/1 270/8/1 271/9/1
f 283/9/2 282/8/2 293/8/2 294/9/2
f 272/11/3 275/9/3 289/9/3 288/11/3
f 263/9/3 247/9/3 240/11/3 256/18/3
f 244/11/3 260/18/3 271/9/3 255/9/3
f 219/7/3 224/16/3 225/15/3 220/8/3
f 227/7/3 232/16/3 233/15/3 228/8/3
f 184/17/3 249/17/3 242/8/3 200/8/3
f 205/8/3 197/17/3 241/17/3 246/8/3
f 257/17/3 273/17/3 278/8/3 262/8/3
f 258/8/3 265/17/3 281/17/3 274/8/3
f 270/8/3 261/17/3 277/17/3 286/8/3
f 194/8/3 203/17/3 245/17/3 254/8/3
f 210/7/3 215/16/3 216/15/3 211/8/3
f 312/21/3 305/22/3 301/5/3 308/23/3
f 307/24/3 299/1/3 304/25/3 310/26/3
f 310/26/3 304/25/3 305/22/3 312/21/3
f 303/27/3 311/28/3 313/29/3 302/30/3
f 310/26/4 312/21/4 316/21/4 314/26/4
f 298/2/3 306/31/3 311/28/3 303/27/3
f 306/31/3 307/24/3 310/26/3 311/28/3
f 302/30/3 313/29/3 309/32/3 300/6/3
f 313/29/3 312/21/3 308/23/3 309/32/3
f 312/21/6 313/29/6 317/29/6 316/21/6
f 311/28/1 310/26/1 314/26/1 315/28/1
f 313/29/2 311/28/2 315/28/2 317/29/2
f 318/2/3 319/1/3 323/1/3 322/2/3
f 322/2/1 323/1/1 325/1/1 324/2/1
f 326/33/3 328/34/3 320/6/3
f 328/34/3 327/6/3 320/6/3
f 329/35/3 331/36/3 321/5/3
f 331/36/3 330/5/3 321/5/3
f 332/37/7 334/38/7 336/39/7
f 336/39/8 334/38/8 333/33/8 335/40/8
f 326/33/9 333/33/9 334/38/9 328/6/9
f 328/6/10 334/38/10 332/37/10 327/37/10
f 335/40/11 330/40/11 331/5/11 336/39/11
f 336/39/12 331/5/12 329/35/12 332/35/12
f 326/33/13 322/2/13 324/2/13 333/33/13
f 321/5/3 320/6/3 327/37/3 329/35/3
f 320/6/3 318/2/3 322/2/3 326/33/3
f 323/1/14 330/40/14 335/40/14 325/1/14
f 319/1/3 321/5/3 330/40/3 323/1/3
f 324/2/3 325/1/3 335/40/3 333/33/3
f 346/41/15 338/42/15 337/43/15 340/44/15
f 338/42/16 360/45/16 339/46/16 337/43/16
f 341/47/6 337/43/6 339/46/6 343/48/6
f 337/43/6 341/47/6 344/49/6 340/44/6
f 342/50/17 345/51/17 344/49/17 341/47/17
f 359/52/18 342/50/18 341/47/18 343/48/18
f 345/51/19 346/41/19 340/44/19 344/49/19
f 342/53/20 349/54/20 347/55/20 345/56/20
f 345/56/21 347/55/21 350/57/21 346/58/21
f 350/59/22 347/60/22 348/61/22 351/62/22
f 347/60/23 349/63/23 356/64/23 348/61/23
f 352/65/24 350/59/24 351/62/24 354/66/24
f 346/58/25 350/57/25 352/67/25 338/68/25
f 338/69/26 352/70/26 353/71/26 360/72/26
f 353/73/27 352/65/27 354/66/27 355/74/27
f 355/74/1 354/66/1 356/64/1 357/75/1
f 356/64/1 354/66/1 351/62/1 348/61/1
f 349/63/28 358/76/28 357/75/28 356/64/28
f 358/76/29 353/73/29 355/74/29 357/75/29
f 360/72/30 353/71/30 358/77/30 359/78/30
f 359/78/31 358/77/31 349/54/31 342/53/31
f 360/45/32 359/52/32 343/48/32 339/46/32
f 362/5/33 361/6/33 363/79/33 364/80/33
f 364/80/34 363/79/34 365/81/34 366/82/34
f 366/82/35 365/81/35 367/83/35 369/84/35
f 369/84/36 367/83/36 368/85/36 370/86/36
f 384/87/37 372/88/37 371/89/37 381/90/37
f 381/90/38 371/89/38 373/91/38 382/92/38
f 382/92/34 373/91/34 374/93/34 383/94/34
f 364/95/33 383/94/33 374/93/33 362/6/33
f 385/96/39 375/4/39 372/88/39 384/87/39
f 385/96/3 377/3/3 379/3/3 386/96/3
f 377/4/3 378/3/3 380/3/3 379/4/3
f 370/86/40 368/85/40 378/3/40 377/4/40
f 375/4/3 385/96/3 386/96/3 376/4/3
f 377/3/41 385/96/41 384/87/41 370/97/41
f 366/98/34 382/92/34 383/94/34 364/95/34
f 369/99/42 381/90/42 382/92/42 366/98/42
f 370/97/43 384/87/43 381/90/43 369/99/43
f 390/4/3 389/3/3 391/3/3 392/4/3
f 389/3/44 390/4/44 396/88/44 397/97/44
f 397/97/36 396/88/36 395/89/36 398/99/36
f 398/99/35 395/89/35 394/91/35 399/98/35
f 399/98/34 394/91/34 393/93/34 400/95/34
f 400/95/33 393/93/33 388/5/33 387/6/33
f 407/96/3 401/3/3 402/3/3 408/96/3
f 407/96/45 389/4/45 397/88/45 409/87/45
f 409/87/46 397/88/46 398/89/46 410/90/46
f 410/90/47 398/89/47 399/91/47 411/92/47
f 411/92/34 399/91/34 400/93/34 412/94/34
f 406/95/33 412/94/33 400/93/33 387/6/33
f 405/98/34 411/92/34 412/94/34 406/95/34
f 404/99/48 410/90/48 411/92/48 405/98/48
f 403/97/49 409/87/49 410/90/49 404/99/49
f 401/3/50 407/96/50 409/87/50 403/97/50
f 389/4/3 407/96/3 408/96/3 391/4/3
f 414/1/1 413/1/1 416/1/1 417/1/1
f 415/1/1 414/1/1 417/1/1 418/1/1
f 418/1/4 417/1/4 420/1/4 421/1/4
f 417/1/5 416/1/5 419/1/5 420/1/5
f 419/1/2 416/1/2 422/1/2 423/1/2
f 418/1/3 421/1/3 423/1/3 422/1/3
f 424/2/1 413/1/1 414/1/1 415/1/1
f 418/1/1 422/1/1 424/2/1 415/1/1
f 416/1/1 413/1/1 424/2/1 422/1/1
f 420/1/6 419/1/6 425/1/6 426/1/6
f 427/1/4 426/1/4 430/1/4 431/1/4
f 423/1/6 421/1/6 427/1/6 428/1/6
f 421/1/6 420/1/6 426/1/6 427/1/6
f 419/1/6 423/1/6 428/1/6 425/1/6
f 425/1/2 428/1/2 432/1/2 429/1/2
f 426/1/5 425/1/5 429/1/5 430/1/5
f 428/1/3 427/1/3 431/1/3 432/1/3
f 434/1/1 433/1/1 436/1/1 437/1/1
f 435/1/1 434/1/1 437/1/1 438/1/1
f 438/1/4 437/1/4 440/1/4 441/1/4
f 437/1/5 436/1/5 439/1/5 440/1/5
f 439/1/2 436/1/2 442/1/2 443/1/2
f 438/1/3 441/1/3 443/1/3 442/1/3
f 444/2/1 433/1/1 434/1/1 435/1/1
f 438/1/1 442/1/1 444/2/1 435/1/1
f 436/1/1 433/1/1 444/2/1 442/1/1
f 440/1/6 439/1/6 445/1/6 446/1/6
f 447/1/4 446/1/4 450/1/4 451/1/4
f 443/1/6 441/1/6 447/1/6 448/1/6
f 441/1/6 440/1/6 446/1/6 447/1/6
f 439/1/6 443/1/6 448/1/6 445/1/6
f 445/1/2 448/1/2 452/1/2 449/1/2
f 446/1/5 445/1/5 449/1/5 450/1/5
f 448/1/3 447/1/3 451/1/3 452/1/3
f 462/41/18 454/42/18 453/43/18 456/44/18
f 454/42/17 476/45/17 455/46/17 453/43/17
f 457/47/6 453/43/6 455/46/6 459/48/6
f 453/43/6 457/47/6 460/49/6 456/44/6
f 458/50/16 461/51/16 460/49/16 457/47/16
f 475/52/15 458/50/15 457/47/15 459/48/15
f 461/51/32 462/41/32 456/44/32 460/49/32
f 458/53/26 465/54/26 463/55/26 461/56/26
f 461/56/30 463/55/30 466/57/30 462/58/30
f 466/59/29 463/60/29 464/61/29 467/62/29
f 463/60/27 465/63/27 472/64/27 464/61/27
f 468/65/28 466/59/28 467/62/28 470/66/28
f 462/58/31 466/57/31 468/67/31 454/68/31
f 454/69/20 468/70/20 469/71/20 476/72/20
f 469/73/23 468/65/23 470/66/23 471/74/23
f 471/74/1 470/66/1 472/64/1 473/75/1
f 472/64/1 470/66/1 467/62/1 464/61/1
f 465/63/24 474/76/24 473/75/24 472/64/24
f 474/76/22 469/73/22 471/74/22 473/75/22
f 476/72/21 469/71/21 474/77/21 475/78/21
f 475/78/25 474/77/25 465/54/25 458/53/25
f 476/45/19 475/52/19 459/48/19 455/46/19
f 478/5/51 477/6/51 479/79/51 480/80/51
f 480/80/52 479/79/52 481/81/52 482/82/52
f 482/82/53 481/81/53 483/83/53 485/84/53
f 485/84/54 483/83/54 484/85/54 486/86/54
f 500/87/55 488/88/55 487/89/55 497/90/55
f 497/90/56 487/89/56 489/91/56 498/92/56
f 498/92/52 489/91/52 490/93/52 499/94/52
f 480/95/51 499/94/51 490/93/51 478/6/51
f 501/96/57 491/4/57 488/88/57 500/87/57
f 501/96/5 493/3/5 495/3/5 502/96/5
f 493/4/5 494/3/5 496/3/5 495/4/5
f 486/86/58 484/85/58 494/3/58 493/4/58
f 491/4/5 501/96/5 502/96/5 492/4/5
f 493/3/59 501/96/59 500/87/59 486/97/59
f 482/98/52 498/92/52 499/94/52 480/95/52
f 485/99/60 497/90/60 498/92/60 482/98/60
f 486/97/61 500/87/61 497/90/61 485/99/61
f 506/4/5 505/3/5 507/3/5 508/4/5
f 505/3/62 506/4/62 512/88/62 513/97/62
f 513/97/54 512/88/54 511/89/54 514/99/54
f 514/99/53 511/89/53 510/91/53 515/98/53
f 515/98/52 510/91/52 509/93/52 516/95/52
f 516/95/51 509/93/51 504/5/51 503/6/51
f 523/96/5 517/3/5 518/3/5 524/96/5
f 523/96/63 505/4/63 513/88/63 525/87/63
f 525/87/64 513/88/64 514/89/64 526/90/64
f 526/90/65 514/89/65 515/91/65 527/92/65
f 527/92/52 515/91/52 516/93/52 528/94/52
f 522/95/51 528/94/51 516/93/51 503/6/51
f 521/98/52 527/92/52 528/94/52 522/95/52
f 520/99/66 526/90/66 527/92/66 521/98/66
f 519/97/67 525/87/67 526/90/67 520/99/67
f 517/3/68 523/96/68 525/87/68 519/97/68
f 505/4/5 523/96/5 524/96/5 507/4/5
f 531/3/4 532/4/4 530/5/4 529/6/4
f 534/2/4 535/1/4 536/4/4 533/3/4
f 532/4/1 531/3/1 533/3/1 536/4/1
f 539/3/4 540/4/4 538/5/4 537/6/4
f 542/2/4 543/1/4 544/4/4 541/3/4
f 540/4/1 539/3/1 541/3/1 544/4/1
f 550/7/3 551/8/3 549/9/3 548/10/3
f 548/10/4 549/9/4 546/11/4 545/12/4
f 553/11/4 556/9/4 618/9/4 615/11/4
f 552/13/5 553/14/5 555/15/5 554/16/5
f 572/10/4 556/9/4 553/11/4 552/12/4
f 546/11/4 549/9/4 614/9/4 611/11/4
f 561/10/4 562/9/4 559/11/4 558/12/4
f 560/17/5 559/18/5 603/18/5 604/17/5
f 581/10/4 567/9/4 565/11/4 564/12/4
f 562/9/3 563/8/3 605/8/3 606/9/3
f 569/13/5 552/14/5 554/15/5 570/16/5
f 573/7/3 574/8/3 572/9/3 571/10/3
f 571/10/4 572/9/4 552/11/4 569/12/4
f 569/12/4 575/12/4 576/10/4 571/10/4
f 577/13/5 564/14/5 579/15/5 578/16/5
f 582/7/3 583/8/3 581/9/3 580/10/3
f 580/10/4 581/9/4 564/11/4 577/12/4
f 578/19/6 582/7/6 580/10/6 577/20/6
f 577/12/4 584/12/4 585/10/4 580/10/4
f 586/13/5 558/14/5 588/15/5 587/16/5
f 590/7/3 591/8/3 561/9/3 589/10/3
f 589/10/4 561/9/4 558/11/4 586/12/4
f 587/19/6 590/7/6 589/10/6 586/20/6
f 586/12/4 592/12/4 593/10/4 589/10/4
f 594/13/5 545/14/5 596/15/5 595/16/5
f 598/7/3 550/8/3 548/9/3 597/10/3
f 597/10/4 548/9/4 545/11/4 594/12/4
f 594/12/4 599/12/4 600/10/4 597/10/4
f 571/10/1 577/13/1 578/16/1 573/7/1
f 580/10/1 586/13/1 587/16/1 582/7/1
f 589/10/1 594/13/1 595/16/1 590/7/1
f 589/10/4 593/10/4 599/12/4 594/13/4
f 602/2/5 575/2/5 569/2/5 570/2/5
f 571/10/4 576/10/4 584/12/4 577/13/4
f 580/10/4 585/10/4 592/12/4 586/13/4
f 600/2/3 601/2/3 598/2/3 597/2/3
f 557/8/1 556/9/1 565/18/1 566/17/1
f 559/18/1 560/17/1 568/8/1 567/9/1
f 546/18/1 547/17/1 563/8/1 562/9/1
f 564/14/4 565/18/4 556/9/4 572/9/4
f 558/12/4 559/18/4 567/9/4 581/10/4
f 545/12/4 546/18/4 562/9/4 561/10/4
f 615/11/4 618/9/4 634/9/4 631/11/4
f 567/9/3 568/8/3 609/8/3 610/9/3
f 566/17/5 565/18/5 607/18/5 608/17/5
f 559/11/4 562/9/4 606/9/4 603/11/4
f 565/11/4 567/9/4 610/9/4 607/11/4
f 607/11/4 610/9/4 626/9/4 623/11/4
f 555/15/5 553/14/5 615/14/5 616/15/5
f 549/9/3 551/8/3 613/8/3 614/9/3
f 556/9/3 557/8/3 617/8/3 618/9/3
f 547/17/5 546/18/5 611/18/5 612/17/5
f 632/15/5 631/14/5 647/14/5 648/15/5
f 624/17/5 623/18/5 639/18/5 640/17/5
f 603/11/4 606/9/4 622/9/4 619/11/4
f 614/9/3 613/8/3 629/8/3 630/9/3
f 611/11/4 614/9/4 630/9/4 627/11/4
f 616/15/5 615/14/5 631/14/5 632/15/5
f 648/15/5 647/14/5 658/14/5 659/15/5
f 643/11/4 655/18/4 652/9/4 638/9/4
f 643/11/4 646/9/4 657/9/4 655/11/4
f 626/9/3 625/8/3 641/8/3 642/9/3
f 634/9/3 633/8/3 649/8/3 650/9/3
f 623/11/4 626/9/4 642/9/4 639/11/4
f 620/17/5 619/18/5 635/18/5 636/17/5
f 631/11/4 634/9/4 650/9/4 647/11/4
f 628/17/5 627/18/5 643/18/5 644/17/5
f 611/11/4 627/18/4 622/9/4 606/9/4
f 622/9/3 621/8/3 637/8/3 638/9/3
f 630/9/3 629/8/3 645/8/3 646/9/3
f 619/11/4 622/9/4 638/9/4 635/11/4
f 627/11/4 630/9/4 646/9/4 643/11/4
f 621/8/1 622/9/1 627/18/1 628/17/1
f 642/9/4 635/11/4 651/18/4 654/9/4
f 639/11/4 642/9/4 654/9/4 653/11/4
f 647/11/4 650/9/4 660/9/4 658/11/4
f 639/11/4 653/18/4 660/9/4 650/9/4
f 619/18/1 620/17/1 625/8/1 626/9/1
f 623/18/1 624/17/1 633/8/1 634/9/1
f 646/9/3 645/8/3 656/8/3 657/9/3
f 635/11/4 638/9/4 652/9/4 651/11/4
f 626/9/4 610/9/4 603/11/4 619/18/4
f 607/11/4 623/18/4 634/9/4 618/9/4
f 557/8/4 566/17/4 608/17/4 617/8/4
f 568/8/4 560/17/4 604/17/4 609/8/4
f 547/17/4 612/17/4 605/8/4 563/8/4
f 633/8/4 624/17/4 640/17/4 649/8/4
f 621/8/4 628/17/4 644/17/4 637/8/4
f 620/17/4 636/17/4 641/8/4 625/8/4
f 582/7/4 587/16/4 588/15/4 583/8/4
f 590/7/4 595/16/4 596/15/4 591/8/4
f 573/7/4 578/16/4 579/15/4 574/8/4
f 666/7/3 667/8/3 665/9/3 664/10/3
f 664/10/4 665/9/4 662/11/4 661/12/4
f 669/11/4 672/9/4 734/9/4 731/11/4
f 668/13/5 669/14/5 671/15/5 670/16/5
f 688/10/4 672/9/4 669/11/4 668/12/4
f 662/11/4 665/9/4 730/9/4 727/11/4
f 677/10/4 678/9/4 675/11/4 674/12/4
f 676/17/5 675/18/5 719/18/5 720/17/5
f 697/10/4 683/9/4 681/11/4 680/12/4
f 678/9/3 679/8/3 721/8/3 722/9/3
f 685/13/5 668/14/5 670/15/5 686/16/5
f 689/7/3 690/8/3 688/9/3 687/10/3
f 687/10/4 688/9/4 668/11/4 685/12/4
f 685/12/4 691/12/4 692/10/4 687/10/4
f 693/13/5 680/14/5 695/15/5 694/16/5
f 698/7/3 699/8/3 697/9/3 696/10/3
f 696/10/4 697/9/4 680/11/4 693/12/4
f 694/19/6 698/7/6 696/10/6 693/20/6
f 693/12/4 700/12/4 701/10/4 696/10/4
f 702/13/5 674/14/5 704/15/5 703/16/5
f 706/7/3 707/8/3 677/9/3 705/10/3
f 705/10/4 677/9/4 674/11/4 702/12/4
f 703/19/6 706/7/6 705/10/6 702/20/6
f 702/12/4 708/12/4 709/10/4 705/10/4
f 710/13/5 661/14/5 712/15/5 711/16/5
f 714/7/3 666/8/3 664/9/3 713/10/3
f 713/10/4 664/9/4 661/11/4 710/12/4
f 710/12/4 715/12/4 716/10/4 713/10/4
f 687/10/1 693/13/1 694/16/1 689/7/1
f 696/10/1 702/13/1 703/16/1 698/7/1
f 705/10/1 710/13/1 711/16/1 706/7/1
f 705/10/4 709/10/4 715/12/4 710/13/4
f 718/2/5 691/2/5 685/2/5 686/2/5
f 687/10/4 692/10/4 700/12/4 693/13/4
f 696/10/4 701/10/4 708/12/4 702/13/4
f 716/2/3 717/2/3 714/2/3 713/2/3
f 673/8/1 672/9/1 681/18/1 682/17/1
f 675/18/1 676/17/1 684/8/1 683/9/1
f 662/18/1 663/17/1 679/8/1 678/9/1
f 680/14/4 681/18/4 672/9/4 688/9/4
f 674/12/4 675/18/4 683/9/4 697/10/4
f 661/12/4 662/18/4 678/9/4 677/10/4
f 731/11/4 734/9/4 750/9/4 747/11/4
f 683/9/3 684/8/3 725/8/3 726/9/3
f 682/17/5 681/18/5 723/18/5 724/17/5
f 675/11/4 678/9/4 722/9/4 719/11/4
f 681/11/4 683/9/4 726/9/4 723/11/4
f 723/11/4 726/9/4 742/9/4 739/11/4
f 671/15/5 669/14/5 731/14/5 732/15/5
f 665/9/3 667/8/3 729/8/3 730/9/3
f 672/9/3 673/8/3 733/8/3 734/9/3
f 663/17/5 662/18/5 727/18/5 728/17/5
f 748/15/5 747/14/5 763/14/5 764/15/5
f 740/17/5 739/18/5 755/18/5 756/17/5
f 719/11/4 722/9/4 738/9/4 735/11/4
f 730/9/3 729/8/3 745/8/3 746/9/3
f 727/11/4 730/9/4 746/9/4 743/11/4
f 732/15/5 731/14/5 747/14/5 748/15/5
f 764/15/5 763/14/5 774/14/5 775/15/5
f 759/11/4 771/18/4 768/9/4 754/9/4
f 759/11/4 762/9/4 773/9/4 771/11/4
f 742/9/3 741/8/3 757/8/3 758/9/3
f 750/9/3 749/8/3 765/8/3 766/9/3
f 739/11/4 742/9/4 758/9/4 755/11/4
f 736/17/5 735/18/5 751/18/5 752/17/5
f 747/11/4 750/9/4 766/9/4 763/11/4
f 744/17/5 743/18/5 759/18/5 760/17/5
f 727/11/4 743/18/4 738/9/4 722/9/4
f 738/9/3 737/8/3 753/8/3 754/9/3
f 746/9/3 745/8/3 761/8/3 762/9/3
f 735/11/4 738/9/4 754/9/4 751/11/4
f 743/11/4 746/9/4 762/9/4 759/11/4
f 737/8/1 738/9/1 743/18/1 744/17/1
f 758/9/4 751/11/4 767/18/4 770/9/4
f 755/11/4 758/9/4 770/9/4 769/11/4
f 763/11/4 766/9/4 776/9/4 774/11/4
f 755/11/4 769/18/4 776/9/4 766/9/4
f 735/18/1 736/17/1 741/8/1 742/9/1
f 739/18/1 740/17/1 749/8/1 750/9/1
f 762/9/3 761/8/3 772/8/3 773/9/3
f 751/11/4 754/9/4 768/9/4 767/11/4
f 742/9/4 726/9/4 719/11/4 735/18/4
f 723/11/4 739/18/4 750/9/4 734/9/4
f 698/7/4 703/16/4 704/15/4 699/8/4
f 706/7/4 711/16/4 712/15/4 707/8/4
f 663/17/4 728/17/4 721/8/4 679/8/4
f 684/8/4 676/17/4 720/17/4 725/8/4
f 736/17/4 752/17/4 757/8/4 741/8/4
f 737/8/4 744/17/4 760/17/4 753/8/4
f 749/8/4 740/17/4 756/17/4 765/8/4
f 673/8/4 682/17/4 724/17/4 733/8/4
f 689/7/4 694/16/4 695/15/4 690/8/4
f 791/21/4 784/22/4 780/5/4 787/23/4
f 786/24/4 778/1/4 783/25/4 789/26/4
f 789/26/4 783/25/4 784/22/4 791/21/4
f 782/27/4 790/28/4 792/29/4 781/30/4
f 789/26/5 791/21/5 795/21/5 793/26/5
f 777/2/4 785/31/4 790/28/4 782/27/4
f 785/31/4 786/24/4 789/26/4 790/28/4
f 781/30/4 792/29/4 788/32/4 779/6/4
f 792/29/4 791/21/4 787/23/4 788/32/4
f 791/21/6 792/29/6 796/29/6 795/21/6
f 790/28/1 789/26/1 793/26/1 794/28/1
f 792/29/3 790/28/3 794/28/3 796/29/3
f 797/2/4 798/1/4 800/5/4 799/6/4
f 810/41/69 802/42/69 801/43/69 804/44/69
f 802/42/70 824/45/70 803/46/70 801/43/70
f 805/47/6 801/43/6 803/46/6 807/48/6
f 801/43/6 805/47/6 808/49/6 804/44/6
f 806/50/71 809/51/71 808/49/71 805/47/71
f 823/52/72 806/50/72 805/47/72 807/48/72
f 809/51/73 810/41/73 804/44/73 808/49/73
f 806/53/74 813/54/74 811/55/74 809/56/74
f 809/56/75 811/55/75 814/57/75 810/58/75
f 814/59/76 811/60/76 812/61/76 815/62/76
f 811/60/77 813/63/77 820/64/77 812/61/77
f 816/65/78 814/59/78 815/62/78 818/66/78
f 810/58/79 814/57/79 816/67/79 802/68/79
f 802/69/80 816/70/80 817/71/80 824/72/80
f 817/73/81 816/65/81 818/66/81 819/74/81
f 819/74/1 818/66/1 820/64/1 821/75/1
f 820/64/1 818/66/1 815/62/1 812/61/1
f 813/63/82 822/76/82 821/75/82 820/64/82
f 822/76/83 817/73/83 819/74/83 821/75/83
f 824/72/84 817/71/84 822/77/84 823/78/84
f 823/78/85 822/77/85 813/54/85 806/53/85
f 824/45/86 823/52/86 807/48/86 803/46/86
f 826/5/87 825/6/87 827/79/87 828/80/87
f 828/80/88 827/79/88 829/81/88 830/82/88
f 830/82/89 829/81/89 831/83/89 833/84/89
f 833/84/90 831/83/90 832/85/90 834/86/90
f 848/87/91 836/88/91 835/89/91 845/90/91
f 845/90/92 835/89/92 837/91/92 846/92/92
f 846/92/88 837/91/88 838/93/88 847/94/88
f 828/95/87 847/94/87 838/93/87 826/6/87
f 849/96/93 839/4/93 836/88/93 848/87/93
f 849/96/4 841/3/4 843/3/4 850/96/4
f 841/4/4 842/3/4 844/3/4 843/4/4
f 834/86/94 832/85/94 842/3/94 841/4/94
f 839/4/4 849/96/4 850/96/4 840/4/4
f 841/3/95 849/96/95 848/87/95 834/97/95
f 830/98/88 846/92/88 847/94/88 828/95/88
f 833/99/96 845/90/96 846/92/96 830/98/96
f 834/97/97 848/87/97 845/90/97 833/99/97
f 852/1/1 851/1/1 854/1/1 855/1/1
f 853/1/1 852/1/1 855/1/1 856/1/1
f 856/1/3 855/1/3 858/1/3 859/1/3
f 855/1/4 854/1/4 857/1/4 858/1/4
f 857/1/5 854/1/5 860/1/5 861/1/5
f 856/1/2 859/1/2 861/1/2 860/1/2
f 862/2/1 851/1/1 852/1/1 853/1/1
f 856/1/1 860/1/1 862/2/1 853/1/1
f 854/1/1 851/1/1 862/2/1 860/1/1
f 858/1/6 857/1/6 863/1/6 864/1/6
f 865/1/3 864/1/3 868/1/3 869/1/3
f 861/1/6 859/1/6 865/1/6 866/1/6
f 859/1/6 858/1/6 864/1/6 865/1/6
f 857/1/6 861/1/6 866/1/6 863/1/6
f 863/1/5 866/1/5 870/1/5 867/1/5
f 864/1/4 863/1/4 867/1/4 868/1/4
f 866/1/2 865/1/2 869/1/2 870/1/2
f 872/1/1 871/1/1 874/1/1 875/1/1
f 873/1/1 872/1/1 875/1/1 876/1/1
f 876/1/3 875/1/3 878/1/3 879/1/3
f 875/1/4 874/1/4 877/1/4 878/1/4
f 877/1/5 874/1/5 880/1/5 881/1/5
f 876/1/2 879/1/2 881/1/2 880/1/2
f 882/2/1 871/1/1 872/1/1 873/1/1
f 876/1/1 880/1/1 882/2/1 873/1/1
f 874/1/1 871/1/1 882/2/1 880/1/1
f 878/1/6 877/1/6 883/1/6 884/1/6
f 885/1/3 884/1/3 888/1/3 889/1/3
f 881/1/6 879/1/6 885/1/6 886/1/6
f 879/1/6 878/1/6 884/1/6 885/1/6
f 877/1/6 881/1/6 886/1/6 883/1/6
f 883/1/5 886/1/5 890/1/5 887/1/5
f 884/1/4 883/1/4 887/1/4 888/1/4
f 886/1/2 885/1/2 889/1/2 890/1/2
f 894/4/4 893/3/4 895/3/4 896/4/4
f 893/3/98 894/4/98 900/88/98 901/97/98
f 901/97/90 900/88/90 899/89/90 902/99/90
f 902/99/89 899/89/89 898/91/89 903/98/89
f 903/98/88 898/91/88 897/93/88 904/95/88
f 904/95/87 897/93/87 892/5/87 891/6/87
f 911/96/4 905/3/4 906/3/4 912/96/4
f 911/96/99 893/4/99 901/88/99 913/87/99
f 913/87/100 901/88/100 902/89/100 914/90/100
f 914/90/101 902/89/101 903/91/101 915/92/101
f 915/92/88 903/91/88 904/93/88 916/94/88
f 910/95/87 916/94/87 904/93/87 891/6/87
f 909/98/88 915/92/88 916/94/88 910/95/88
f 908/99/102 914/90/102 915/92/102 909/98/102
f 907/97/103 913/87/103 914/90/103 908/99/103
f 905/3/104 911/96/104 913/87/104 907/97/104
f 893/4/4 911/96/4 912/96/4 895/4/4
f 926/41/72 918/42/72 917/43/72 920/44/72
f 918/42/71 940/45/71 919/46/71 917/43/71
f 921/47/6 917/43/6 919/46/6 923/48/6
f 917/43/6 921/47/6 924/49/6 920/44/6
f 922/50/70 925/51/70 924/49/70 921/47/70
f 939/52/69 922/50/69 921/47/69 923/48/69
f 925/51/86 926/41/86 920/44/86 924/49/86
f 922/53/80 929/54/80 927/55/80 925/56/80
f 925/56/84 927/55/84 930/57/84 926/58/84
f 930/59/83 927/60/83 928/61/83 931/62/83
f 927/60/81 929/63/81 936/64/81 928/61/81
f 932/65/82 930/59/82 931/62/82 934/66/82
f 926/58/85 930/57/85 932/67/85 918/68/85
f 918/69/74 932/70/74 933/71/74 940/72/74
f 933/73/77 932/65/77 934/66/77 935/74/77
f 935/74/1 934/66/1 936/64/1 937/75/1
f 936/64/1 934/66/1 931/62/1 928/61/1
f 929/63/78 938/76/78 937/75/78 936/64/78
f 938/76/76 933/73/76 935/74/76 937/75/76
f 940/72/75 933/71/75 938/77/75 939/78/75
f 939/78/79 938/77/79 929/54/79 922/53/79
f 940/45/73 939/52/73 923/48/73 919/46/73
f 942/5/105 941/6/105 943/79/105 944/80/105
f 944/80/106 943/79/106 945/81/106 946/82/106
f 946/82/107 945/81/107 947/83/107 949/84/107
f 949/84/108 947/83/108 948/85/108 950/86/108
f 964/87/109 952/88/109 951/89/109 961/90/109
f 961/90/110 951/89/110 953/91/110 962/92/110
f 962/92/106 953/91/106 954/93/106 963/94/106
f 944/95/105 963/94/105 954/93/105 942/6/105
f 965/96/111 955/4/111 952/88/111 964/87/111
f 965/96/2 957/3/2 959/3/2 966/96/2
f 957/4/2 958/3/2 960/3/2 959/4/2
f 950/86/112 948/85/112 958/3/112 957/4/112
f 955/4/2 965/96/2 966/96/2 956/4/2
f 957/3/113 965/96/113 964/87/113 950/97/113
f 946/98/106 962/92/106 963/94/106 944/95/106
f 949/99/114 961/90/114 962/92/114 946/98/114
f 950/97/115 964/87/115 961/90/115 949/99/115
f 970/4/2 969/3/2 971/3/2 972/4/2
f 969/3/116 970/4/116 976/88/116 977/97/116
f 977/97/108 976/88/108 975/89/108 978/99/108
f 978/99/107 975/89/107 974/91/107 979/98/107
f 979/98/106 974/91/106 973/93/106 980/95/106
f 980/95/105 973/93/105 968/5/105 967/6/105
f 987/96/2 981/3/2 982/3/2 988/96/2
f 987/96/117 969/4/117 977/88/117 989/87/117
f 989/87/118 977/88/118 978/89/118 990/90/118
f 990/90/119 978/89/119 979/91/119 991/92/119
f 991/92/106 979/91/106 980/93/106 992/94/106
f 986/95/105 992/94/105 980/93/105 967/6/105
f 985/98/106 991/92/106 992/94/106 986/95/106
f 984/99/120 990/90/120 991/92/120 985/98/120
f 983/97/121 989/87/121 990/90/121 984/99/121
f 981/3/122 987/96/122 989/87/122 983/97/122
f 969/4/2 987/96/2 988/96/2 971/4/2
f 1/2/1 4/2/1 5/2/1 2/2/1
f 2/2/1 5/2/1 6/2/1 3/2/1
f 4/2/1 7/2/1 8/2/1 5/2/1
f 5/2/1 8/2/1 9/2/1 6/2/1
