# Blender 5.0.1
# www.blender.org
mtllib M_Tile.mtl
o Cube
v 0.500000 0.500000 -0.500000
v 0.500000 -0.500000 -0.500000
v 0.500000 0.500000 0.500000
v 0.500000 -0.500000 0.500000
v -0.500000 0.500000 -0.500000
v -0.500000 -0.500000 -0.500000
v -0.500000 0.500000 0.500000
v -0.500000 -0.500000 0.500000
vn -0.0000 1.0000 -0.0000
vn -0.0000 -0.0000 1.0000
vn -1.0000 -0.0000 -0.0000
vn 1.0000 -0.0000 -0.0000
vn -0.0000 -0.0000 -1.0000
vt 1.000067 0.999834
vt 0.000167 0.999834
vt 0.000167 0.499933
vt 1.000067 0.499933
vt 1.000067 0.000033
vt 1.000067 0.499933
vt 0.000167 0.499934
vt 0.000166 0.000033
vt 1.000066 0.000034
vt 1.000067 0.499933
vt 0.000166 0.499933
vt 0.000166 0.000034
vt 0.000166 0.499933
s 0
usemtl Material
f 1/1/1 5/2/1 7/3/1 3/4/1
f 4/5/2 3/6/2 7/7/2 8/8/2
f 8/9/3 7/10/3 5/11/3 6/12/3
f 2/5/4 1/6/4 3/13/4 4/8/4
f 6/9/5 5/10/5 1/11/5 2/12/5
